<?xml version="1.0" encoding="UTF-8" standalone="no"?>
<svg
   xmlns:dc="http://purl.org/dc/elements/1.1/"
   xmlns:cc="http://creativecommons.org/ns#"
   xmlns:rdf="http://www.w3.org/1999/02/22-rdf-syntax-ns#"
   xmlns:svg="http://www.w3.org/2000/svg"
   xmlns="http://www.w3.org/2000/svg"
   viewBox="0 0 749.98999 659.08008"
   height="659.08008"
   width="749.98999"
   xml:space="preserve"
   version="1.1"
   id="svg5907"><metadata
     id="metadata5913"><rdf:RDF><cc:Work
         rdf:about=""><dc:format>image/svg+xml</dc:format><dc:type
           rdf:resource="http://purl.org/dc/dcmitype/StillImage" /><dc:title></dc:title></cc:Work></rdf:RDF></metadata><defs
     id="defs5911" /><g
     transform="matrix(1.25,0,0,-1.25,0,659.08005)"
     id="g5915"><g
       id="g5917"><path
         id="path5919"
         style="fill:#ffffff;fill-opacity:1;fill-rule:nonzero;stroke:none"
         d="M 275.754,512.752 4.281,42.541 C 1.816,38.28 0.516,33.432 0.516,28.53 0.516,13.104 13.09,0.534 28.531,0.534 l 542.957,0 c 4.903,0 9.75,1.296 13.985,3.753 13.371,7.719 17.965,24.868 10.257,38.254 L 324.246,512.752 c -2.445,4.243 -5.996,7.785 -10.246,10.246 -13.363,7.711 -30.52,3.118 -38.246,-10.246" /><path
         id="path5921"
         style="fill:#000000;fill-opacity:1;fill-rule:nonzero;stroke:none"
         d="m 300.004,527.264 c -9.844,0 -19.434,-5.102 -24.699,-14.25 L 3.812,42.795 C 1.309,38.455 0,33.537 0,28.53 0,12.784 12.77,0.002 28.516,0.002 l 542.972,0 c 4.996,0 9.91,1.321 14.239,3.832 9.187,5.289 14.293,14.891 14.265,24.778 0,4.82 -1.23,9.711 -3.808,14.183 l -271.5,470.219 c -2.496,4.34 -6.102,7.934 -10.43,10.438 -4.496,2.597 -9.391,3.812 -14.25,3.812 M 28.516,1.057 C 13.375,1.057 1.047,13.37 1.047,28.53 c 0,4.82 1.277,9.578 3.668,13.73 l 271.492,470.219 c 4.883,8.48 14.004,13.738 23.797,13.738 4.801,0 9.551,-1.262 13.738,-3.668 4.153,-2.422 7.637,-5.894 10.035,-10.07 L 595.262,42.26 C 602.848,29.143 598.309,12.303 585.219,4.745 581.051,2.327 576.281,1.057 571.488,1.057 l -542.972,0 z" /><path
         id="path5923"
         style="fill:#c1121c;fill-opacity:1;fill-rule:nonzero;stroke:none"
         d="m 28.531,10.698 c -9.863,0 -17.84,8 -17.84,17.832 0,3.14 0.825,6.199 2.399,8.906 L 284.562,507.67 c 4.93,8.516 15.829,11.446 24.364,6.52 2.691,-1.559 4.949,-3.817 6.523,-6.52 L 586.902,37.436 c 4.942,-8.52 2.016,-19.418 -6.507,-24.348 -2.711,-1.562 -5.782,-2.39 -8.907,-2.39 m -481.211,53.48 419.45,0 L 300.004,427.452 90.277,64.178 Z" /><path
         id="path5925"
         style="fill:#000000;fill-opacity:1;fill-rule:nonzero;stroke:none"
         d="m 328.531,110.537 c 0,-15.757 -12.765,-28.515 -28.527,-28.515 -15.758,0 -28.531,12.754 -28.531,28.515 0,15.75 12.773,28.52 28.531,28.52 15.762,0 28.527,-12.77 28.527,-28.52 m -14.332,55.778 c -0.679,-7.84 -7.613,-13.637 -15.465,-12.942 -6.867,0.618 -12.324,6.063 -12.937,12.942 l -14.195,159.172 c -1.411,15.687 10.183,29.543 25.875,30.953 15.687,1.394 29.531,-10.192 30.933,-25.879 0.149,-1.695 0.149,-3.379 0,-5.074 L 314.199,166.315 Z" /></g></g></svg>