<?xml version="1.0" encoding="UTF-8" standalone="no"?>
<!-- Generator: Adobe Illustrator 15.0.0, SVG Export Plug-In . SVG Version: 6.00 Build 0)  -->

<svg
   xmlns:dc="http://purl.org/dc/elements/1.1/"
   xmlns:cc="http://creativecommons.org/ns#"
   xmlns:rdf="http://www.w3.org/1999/02/22-rdf-syntax-ns#"
   xmlns:svg="http://www.w3.org/2000/svg"
   xmlns="http://www.w3.org/2000/svg"
   xmlns:sodipodi="http://sodipodi.sourceforge.net/DTD/sodipodi-0.dtd"
   xmlns:inkscape="http://www.inkscape.org/namespaces/inkscape"
   version="1.1"
   id="Ebene_1"
   x="0px"
   y="0px"
   width="748.807px"
   height="658.051px"
   viewBox="0 0 748.807 658.051"
   enable-background="new 0 0 748.807 658.051"
   xml:space="preserve"
   inkscape:version="0.48.1 r9760"
   sodipodi:docname="Zeichen_102.svg"><metadata
   id="metadata15"><rdf:RDF><cc:Work
       rdf:about=""><dc:format>image/svg+xml</dc:format><dc:type
         rdf:resource="http://purl.org/dc/dcmitype/StillImage" /><dc:title></dc:title></cc:Work></rdf:RDF></metadata><defs
   id="defs13" /><sodipodi:namedview
   pagecolor="#ffffff"
   bordercolor="#666666"
   borderopacity="1"
   objecttolerance="10"
   gridtolerance="10"
   guidetolerance="10"
   inkscape:pageopacity="0"
   inkscape:pageshadow="2"
   inkscape:window-width="640"
   inkscape:window-height="484"
   id="namedview11"
   showgrid="false"
   inkscape:zoom="0.3586348"
   inkscape:cx="374.4035"
   inkscape:cy="329.02551"
   inkscape:window-x="0"
   inkscape:window-y="0"
   inkscape:window-maximized="0"
   inkscape:current-layer="Ebene_1" />
<path
   fill="#FFFFFF"
   d="M344.148,18.128L344.148,18.128L5.342,604.975c-3.076,5.301-4.701,11.353-4.701,17.47  c0,19.27,15.694,34.939,34.964,34.939h677.629c6.117,0,12.169-1.601,17.453-4.684c16.686-9.619,22.42-31.022,12.802-47.726  L404.667,18.128c-3.051-5.292-7.485-9.718-12.786-12.785C375.204-4.284,353.792,1.451,344.148,18.128"
   id="path3" />
<path
   d="M374.412,0c-12.286,0-24.254,6.385-30.822,17.803L4.759,604.642C1.633,610.06,0,616.21,0,622.444  c0,19.653,15.936,35.606,35.589,35.606h677.646c6.234,0,12.368-1.65,17.769-4.768c11.47-6.602,17.837-18.586,17.804-30.938  c0-6.018-1.533-12.103-4.751-17.703L405.217,17.803c-3.117-5.409-7.618-9.901-13.019-13.027C386.588,1.534,380.479,0,374.412,0   M35.589,656.75c-18.895,0-34.28-15.386-34.28-34.306c0-6.001,1.592-11.935,4.575-17.136L344.715,18.445  c6.093-10.56,17.478-17.136,29.697-17.136c5.992,0,11.918,1.592,17.144,4.593c5.185,3.025,9.535,7.359,12.527,12.543  l338.822,586.864c9.469,16.369,3.801,37.389-12.535,46.824c-5.201,3.017-11.151,4.617-17.136,4.617H35.589z"
   id="path5" />
<path
   fill="#E30613"
   d="M35.605,644.715c-12.31,0-22.262-9.984-22.262-22.271c0-3.901,1.025-7.734,2.993-11.118L355.142,24.479  c6.151-10.635,19.753-14.294,30.405-8.144c3.358,1.942,6.176,4.76,8.143,8.144l338.781,586.847  c6.167,10.651,2.517,24.236-8.118,30.388c-3.384,1.968-7.218,3.001-11.118,3.001 M112.668,577.954h523.487L374.412,124.587  L112.668,577.954z"
   id="path7"
   style="fill:#c1121c;fill-opacity:1" />
<polyline
   points="374.428,477.037 295.773,555.7 264.302,524.229 342.973,445.565 267.46,370.037 298.916,338.589 374.428,414.11   449.958,338.589 481.396,370.037 405.883,445.565 484.563,524.229 453.108,555.7 "
   id="polyline9" />
</svg>