<?xml version="1.0" encoding="UTF-8" standalone="no"?>
<!-- Generator: Adobe Illustrator 15.0.0, SVG Export Plug-In . SVG Version: 6.00 Build 0)  -->

<svg
   xmlns:dc="http://purl.org/dc/elements/1.1/"
   xmlns:cc="http://creativecommons.org/ns#"
   xmlns:rdf="http://www.w3.org/1999/02/22-rdf-syntax-ns#"
   xmlns:svg="http://www.w3.org/2000/svg"
   xmlns="http://www.w3.org/2000/svg"
   xmlns:sodipodi="http://sodipodi.sourceforge.net/DTD/sodipodi-0.dtd"
   xmlns:inkscape="http://www.inkscape.org/namespaces/inkscape"
   version="1.1"
   id="Ebene_1"
   x="0px"
   y="0px"
   width="749.966px"
   height="659.086px"
   viewBox="0 0 749.966 659.086"
   enable-background="new 0 0 749.966 659.086"
   xml:space="preserve"
   inkscape:version="0.48.1 r9760"
   sodipodi:docname="Zeichen_103-20.svg"><metadata
   id="metadata15"><rdf:RDF><cc:Work
       rdf:about=""><dc:format>image/svg+xml</dc:format><dc:type
         rdf:resource="http://purl.org/dc/dcmitype/StillImage" /><dc:title></dc:title></cc:Work></rdf:RDF></metadata><defs
   id="defs13" /><sodipodi:namedview
   pagecolor="#ffffff"
   bordercolor="#666666"
   borderopacity="1"
   objecttolerance="10"
   gridtolerance="10"
   guidetolerance="10"
   inkscape:pageopacity="0"
   inkscape:pageshadow="2"
   inkscape:window-width="640"
   inkscape:window-height="480"
   id="namedview11"
   showgrid="false"
   inkscape:zoom="0.3975202"
   inkscape:cx="374.983"
   inkscape:cy="329.543"
   inkscape:window-x="0"
   inkscape:window-y="0"
   inkscape:window-maximized="0"
   inkscape:current-layer="Ebene_1" />
<path
   fill="#FFFFFF"
   d="M344.682,18.156L344.682,18.156L5.351,605.912c-3.08,5.325-4.708,11.386-4.708,17.514  c0,19.266,15.719,34.993,35.019,34.993h678.678c6.127,0,12.188-1.637,17.479-4.691c16.712-9.667,22.455-31.104,12.822-47.815  L405.293,18.156c-3.056-5.301-7.496-9.733-12.806-12.805C375.785-4.299,354.34,1.453,344.682,18.156"
   id="path3" />
<path
   d="M374.992,0c-12.305,0-24.292,6.386-30.87,17.831L4.767,605.595C1.636,611.004,0,617.147,0,623.426  c0,19.684,15.96,35.66,35.645,35.66h678.695c6.244,0,12.388-1.669,17.797-4.791c11.486-6.628,17.863-18.615,17.83-30.97  c0-6.027-1.535-12.154-4.758-17.73L405.844,17.831c-3.122-5.417-7.63-9.917-13.039-13.047C387.188,1.536,381.069,0,374.992,0   M35.645,657.751c-18.924,0-34.334-15.394-34.334-34.325c0-6.027,1.594-11.987,4.583-17.163L345.249,18.49  c6.102-10.593,17.505-17.179,29.743-17.179c6.002,0,11.938,1.594,17.171,4.599c5.192,3.03,9.55,7.371,12.547,12.58l339.347,587.772  c9.483,16.395,3.807,37.431-12.555,46.88c-5.209,3.039-11.169,4.608-17.162,4.608H35.645z"
   id="path5" />
<path
   fill="#E30613"
   d="M35.661,645.714c-12.33,0-22.296-10.001-22.296-22.288c0-3.924,1.026-7.747,2.997-11.153L355.692,24.517  c6.161-10.651,19.784-14.316,30.452-8.164c3.364,1.954,6.186,4.775,8.155,8.164l339.306,587.755  c6.178,10.652,2.521,24.275-8.13,30.452c-3.39,1.938-7.229,2.989-11.136,2.989 M112.843,578.849H637.14L374.992,124.78  L112.843,578.849z"
   id="path7"
   style="fill:#c1121c;fill-opacity:1" />
<path
   d="M321.517,556.544l-31.195-31.17l-31.204,31.17V449.595c0-59.068,47.891-106.95,106.967-106.95h66.305l54.025,31.204  l-54.025,31.187h-66.305c-24.617,0-44.568,19.968-44.568,44.56"
   id="path9" />
</svg>