<?xml version="1.0" encoding="UTF-8" standalone="no"?>
<!-- Generator: Adobe Illustrator 15.0.0, SVG Export Plug-In . SVG Version: 6.00 Build 0)  -->

<svg
   xmlns:dc="http://purl.org/dc/elements/1.1/"
   xmlns:cc="http://creativecommons.org/ns#"
   xmlns:rdf="http://www.w3.org/1999/02/22-rdf-syntax-ns#"
   xmlns:svg="http://www.w3.org/2000/svg"
   xmlns="http://www.w3.org/2000/svg"
   xmlns:sodipodi="http://sodipodi.sourceforge.net/DTD/sodipodi-0.dtd"
   xmlns:inkscape="http://www.inkscape.org/namespaces/inkscape"
   version="1.1"
   id="Ebene_1"
   x="0px"
   y="0px"
   width="749.966px"
   height="659.078px"
   viewBox="0 0 749.966 659.078"
   enable-background="new 0 0 749.966 659.078"
   xml:space="preserve"
   inkscape:version="0.48.1 r9760"
   sodipodi:docname="Zeichen_103-10.svg"><metadata
   id="metadata15"><rdf:RDF><cc:Work
       rdf:about=""><dc:format>image/svg+xml</dc:format><dc:type
         rdf:resource="http://purl.org/dc/dcmitype/StillImage" /><dc:title></dc:title></cc:Work></rdf:RDF></metadata><defs
   id="defs13" /><sodipodi:namedview
   pagecolor="#ffffff"
   bordercolor="#666666"
   borderopacity="1"
   objecttolerance="10"
   gridtolerance="10"
   guidetolerance="10"
   inkscape:pageopacity="0"
   inkscape:pageshadow="2"
   inkscape:window-width="640"
   inkscape:window-height="480"
   id="namedview11"
   showgrid="false"
   inkscape:zoom="0.39752503"
   inkscape:cx="374.983"
   inkscape:cy="329.539"
   inkscape:window-x="0"
   inkscape:window-y="0"
   inkscape:window-maximized="0"
   inkscape:current-layer="Ebene_1" />
<path
   fill="#FFFFFF"
   d="M344.681,18.156L344.681,18.156L5.351,605.92c-3.08,5.31-4.708,11.354-4.708,17.496  c0,19.283,15.719,34.993,35.018,34.993h678.677c6.128,0,12.188-1.619,17.481-4.675c16.712-9.666,22.454-31.103,12.821-47.814  L405.293,18.156c-3.056-5.301-7.495-9.733-12.805-12.806C375.785-4.291,354.339,1.452,344.681,18.156"
   id="path3" />
<path
   d="M374.992,0c-12.305,0-24.292,6.394-30.869,17.83L4.767,605.587C1.636,610.995,0,617.14,0,623.416  c0,19.701,15.96,35.662,35.645,35.662h678.694c6.245,0,12.389-1.653,17.798-4.775c11.486-6.628,17.864-18.632,17.83-30.986  c0-6.043-1.536-12.138-4.757-17.729L405.844,17.83c-3.121-5.426-7.629-9.917-13.038-13.047C387.188,1.536,381.069,0,374.992,0   M35.645,657.759c-18.924,0-34.334-15.409-34.334-34.343c0-6.01,1.595-11.97,4.583-17.162L345.249,18.481  c6.103-10.585,17.505-17.171,29.743-17.171c6.002,0,11.937,1.594,17.172,4.599c5.191,3.03,9.549,7.371,12.545,12.572  l339.349,587.772c9.482,16.395,3.806,37.431-12.556,46.897c-5.208,3.021-11.169,4.607-17.163,4.607H35.645z"
   id="path5" />
<path
   fill="#E30613"
   d="M35.661,645.721c-12.329,0-22.296-10.017-22.296-22.305c0-3.905,1.026-7.746,2.997-11.152L355.692,24.508  c6.161-10.651,19.784-14.308,30.452-8.147c3.364,1.945,6.186,4.766,8.156,8.147l339.306,587.755  c6.177,10.685,2.521,24.275-8.131,30.452c-3.39,1.954-7.229,3.005-11.137,3.005 M112.843,578.84H637.14L374.992,124.78  L112.843,578.84z"
   id="path7"
   style="fill:#c1121c;fill-opacity:1" />
<path
   d="M424.009,449.603c0-24.592-19.951-44.561-44.568-44.561h-66.28l-54.043-31.186l54.043-31.203h66.28  c59.093,0,106.975,47.882,106.975,106.949v106.949l-31.203-31.17l-31.203,31.17"
   id="path9" />
</svg>