<?xml version="1.0" encoding="UTF-8" standalone="no"?>
<!-- Generator: Adobe Illustrator 15.0.0, SVG Export Plug-In . SVG Version: 6.00 Build 0)  -->

<svg
   xmlns:dc="http://purl.org/dc/elements/1.1/"
   xmlns:cc="http://creativecommons.org/ns#"
   xmlns:rdf="http://www.w3.org/1999/02/22-rdf-syntax-ns#"
   xmlns:svg="http://www.w3.org/2000/svg"
   xmlns="http://www.w3.org/2000/svg"
   xmlns:sodipodi="http://sodipodi.sourceforge.net/DTD/sodipodi-0.dtd"
   xmlns:inkscape="http://www.inkscape.org/namespaces/inkscape"
   version="1.1"
   id="Ebene_1"
   x="0px"
   y="0px"
   width="749.958px"
   height="659.069px"
   viewBox="0 0 749.958 659.069"
   enable-background="new 0 0 749.958 659.069"
   xml:space="preserve"
   inkscape:version="0.48.1 r9760"
   sodipodi:docname="Zeichen_105-20.svg"><metadata
   id="metadata15"><rdf:RDF><cc:Work
       rdf:about=""><dc:format>image/svg+xml</dc:format><dc:type
         rdf:resource="http://purl.org/dc/dcmitype/StillImage" /><dc:title></dc:title></cc:Work></rdf:RDF></metadata><defs
   id="defs13" /><sodipodi:namedview
   pagecolor="#ffffff"
   bordercolor="#666666"
   borderopacity="1"
   objecttolerance="10"
   gridtolerance="10"
   guidetolerance="10"
   inkscape:pageopacity="0"
   inkscape:pageshadow="2"
   inkscape:window-width="640"
   inkscape:window-height="480"
   id="namedview11"
   showgrid="false"
   inkscape:zoom="0.39753047"
   inkscape:cx="374.979"
   inkscape:cy="329.53448"
   inkscape:window-x="0"
   inkscape:window-y="0"
   inkscape:window-maximized="0"
   inkscape:current-layer="Ebene_1" />
<path
   fill="#FFFFFF"
   d="M344.677,18.164L344.677,18.164L5.351,605.912c-3.081,5.31-4.708,11.37-4.708,17.497  c0,19.299,15.718,34.992,35.018,34.992h678.67c6.127,0,12.188-1.603,17.479-4.69c16.712-9.634,22.455-31.07,12.821-47.799  L405.289,18.164c-3.056-5.3-7.496-9.733-12.805-12.805C375.78-4.291,354.335,1.461,344.677,18.164"
   id="path3" />
<path
   d="M374.987,0c-12.304,0-24.292,6.394-30.869,17.839L4.767,605.579C1.636,611.005,0,617.165,0,623.409  c0,19.684,15.96,35.66,35.644,35.66h678.687c6.243,0,12.388-1.652,17.797-4.774c11.486-6.611,17.863-18.632,17.83-30.986  c0-6.026-1.536-12.137-4.758-17.729l-339.36-587.74c-3.122-5.426-7.63-9.917-13.039-13.047C387.183,1.544,381.064,0,374.987,0   M35.644,657.768c-18.924,0-34.333-15.41-34.333-34.358c0-6.011,1.595-11.954,4.583-17.163L345.245,18.481  c6.102-10.576,17.504-17.146,29.742-17.146c6.001,0,11.937,1.578,17.17,4.583c5.192,3.03,9.55,7.371,12.547,12.563l339.343,587.765  c9.482,16.395,3.807,37.447-12.555,46.896c-5.209,3.022-11.169,4.625-17.162,4.625H35.644z"
   id="path5" />
<path
   fill="#E30613"
   d="M35.661,645.714c-12.329,0-22.296-10.001-22.296-22.305c0-3.907,1.026-7.747,2.997-11.136L355.688,24.517  c6.161-10.643,19.784-14.308,30.452-8.155c3.364,1.953,6.186,4.774,8.156,8.155l339.301,587.757  c6.177,10.668,2.521,24.274-8.131,30.435c-3.389,1.971-7.229,3.006-11.135,3.006 M112.842,578.85h524.291L374.987,124.787  L112.842,578.85z"
   id="path7"
   style="fill:#c1121c;fill-opacity:1" />
<path
   d="M256.895,556.563V409.496c0-24.626,19.95-44.56,44.55-44.56c6.753,0,13.39,1.536,19.458,4.475l60.77,29.467v-95.78  l31.212-54.025l31.186,54.025v124.228c0,24.608-19.95,44.575-44.567,44.575c-6.753,0-13.381-1.553-19.433-4.491l-60.795-29.466  v118.618l-31.187-31.187"
   id="path9" />
</svg>