<?xml version="1.0" encoding="UTF-8" standalone="no"?>
<!-- Generator: Adobe Illustrator 15.0.0, SVG Export Plug-In . SVG Version: 6.00 Build 0)  -->

<svg
   xmlns:dc="http://purl.org/dc/elements/1.1/"
   xmlns:cc="http://creativecommons.org/ns#"
   xmlns:rdf="http://www.w3.org/1999/02/22-rdf-syntax-ns#"
   xmlns:svg="http://www.w3.org/2000/svg"
   xmlns="http://www.w3.org/2000/svg"
   xmlns:sodipodi="http://sodipodi.sourceforge.net/DTD/sodipodi-0.dtd"
   xmlns:inkscape="http://www.inkscape.org/namespaces/inkscape"
   version="1.1"
   id="Ebene_1"
   x="0px"
   y="0px"
   width="749.966px"
   height="659.078px"
   viewBox="0 0 749.966 659.078"
   enable-background="new 0 0 749.966 659.078"
   xml:space="preserve"
   inkscape:version="0.48.1 r9760"
   sodipodi:docname="Zeichen_105-10.svg"><metadata
   id="metadata15"><rdf:RDF><cc:Work
       rdf:about=""><dc:format>image/svg+xml</dc:format><dc:type
         rdf:resource="http://purl.org/dc/dcmitype/StillImage" /><dc:title></dc:title></cc:Work></rdf:RDF></metadata><defs
   id="defs13" /><sodipodi:namedview
   pagecolor="#ffffff"
   bordercolor="#666666"
   borderopacity="1"
   objecttolerance="10"
   gridtolerance="10"
   guidetolerance="10"
   inkscape:pageopacity="0"
   inkscape:pageshadow="2"
   inkscape:window-width="640"
   inkscape:window-height="480"
   id="namedview11"
   showgrid="false"
   inkscape:zoom="0.39752503"
   inkscape:cx="374.983"
   inkscape:cy="329.539"
   inkscape:window-x="0"
   inkscape:window-y="0"
   inkscape:window-maximized="0"
   inkscape:current-layer="Ebene_1" />
<path
   fill="#FFFFFF"
   d="M344.682,18.148L344.682,18.148L5.351,605.904c-3.08,5.325-4.708,11.386-4.708,17.513  c0,19.283,15.719,34.993,35.019,34.993h678.678c6.127,0,12.188-1.619,17.479-4.691c16.712-9.649,22.455-31.086,12.822-47.814  L405.293,18.148c-3.056-5.292-7.496-9.725-12.806-12.797C375.785-4.291,354.34,1.453,344.682,18.148"
   id="path3" />
<path
   d="M374.992,0c-12.305,0-24.292,6.395-30.87,17.831L4.767,605.586C1.636,611.012,0,617.156,0,623.417  c0,19.684,15.96,35.661,35.645,35.661h678.695c6.244,0,12.388-1.652,17.797-4.791c11.486-6.611,17.863-18.615,17.83-30.97  c0-6.027-1.535-12.138-4.758-17.73L405.844,17.831c-3.122-5.426-7.63-9.917-13.039-13.047C387.188,1.536,381.069,0,374.992,0   M35.645,657.759c-18.924,0-34.334-15.394-34.334-34.343c0-6.026,1.594-11.97,4.583-17.162L345.249,18.499  c6.102-10.602,17.505-17.171,29.743-17.171c6.002,0,11.938,1.578,17.171,4.583c5.192,3.03,9.55,7.371,12.547,12.588l339.347,587.756  c9.483,16.395,3.807,37.447-12.555,46.896c-5.209,3.022-11.169,4.608-17.162,4.608H35.645z"
   id="path5" />
<path
   fill="#E30613"
   d="M35.661,645.705c-12.33,0-22.296-10-22.296-22.288c0-3.923,1.026-7.746,2.997-11.136L355.692,24.509  c6.161-10.652,19.784-14.308,30.452-8.147c3.364,1.945,6.186,4.767,8.155,8.147l339.306,587.772  c6.178,10.652,2.521,24.275-8.13,30.436c-3.39,1.953-7.229,2.988-11.136,2.988 M112.843,578.857H637.14L374.992,124.78  L112.843,578.857z"
   id="path7"
   style="fill:#c1121c;fill-opacity:1" />
<path
   d="M493.093,556.552l-31.187-31.187l-31.187,31.187V437.95l-60.787,29.467c-22.155,10.735-48.809,1.503-59.561-20.652  c-2.921-6.043-4.466-12.705-4.466-19.433V303.094l31.204-54.026l31.203,54.026v95.789l60.771-29.483  c22.138-10.752,48.816-1.503,59.552,20.669c2.938,6.043,4.457,12.688,4.457,19.433"
   id="path9" />
</svg>