<?xml version="1.0" encoding="UTF-8" standalone="no"?>
<!-- Generator: Adobe Illustrator 15.0.0, SVG Export Plug-In . SVG Version: 6.00 Build 0)  -->

<svg
   xmlns:dc="http://purl.org/dc/elements/1.1/"
   xmlns:cc="http://creativecommons.org/ns#"
   xmlns:rdf="http://www.w3.org/1999/02/22-rdf-syntax-ns#"
   xmlns:svg="http://www.w3.org/2000/svg"
   xmlns="http://www.w3.org/2000/svg"
   xmlns:sodipodi="http://sodipodi.sourceforge.net/DTD/sodipodi-0.dtd"
   xmlns:inkscape="http://www.inkscape.org/namespaces/inkscape"
   version="1.1"
   id="Ebene_1"
   x="0px"
   y="0px"
   width="749.986px"
   height="659.078px"
   viewBox="0 0 749.986 659.078"
   enable-background="new 0 0 749.986 659.078"
   xml:space="preserve"
   inkscape:version="0.48.1 r9760"
   sodipodi:docname="Zeichen_108-50.svg"><metadata
   id="metadata15"><rdf:RDF><cc:Work
       rdf:about=""><dc:format>image/svg+xml</dc:format><dc:type
         rdf:resource="http://purl.org/dc/dcmitype/StillImage" /><dc:title></dc:title></cc:Work></rdf:RDF></metadata><defs
   id="defs13" /><sodipodi:namedview
   pagecolor="#ffffff"
   bordercolor="#666666"
   borderopacity="1"
   objecttolerance="10"
   gridtolerance="10"
   guidetolerance="10"
   inkscape:pageopacity="0"
   inkscape:pageshadow="2"
   inkscape:window-width="640"
   inkscape:window-height="484"
   id="namedview11"
   showgrid="false"
   inkscape:zoom="0.35807598"
   inkscape:cx="374.99301"
   inkscape:cy="329.539"
   inkscape:window-x="0"
   inkscape:window-y="0"
   inkscape:window-maximized="0"
   inkscape:current-layer="Ebene_1" />
<path
   fill="#FFFFFF"
   d="M344.69,18.131L344.69,18.131L5.351,605.919c-3.081,5.31-4.708,11.353-4.708,17.497  c0,19.283,15.719,34.994,35.019,34.994h678.695c6.128,0,12.188-1.62,17.48-4.708c16.713-9.634,22.456-31.071,12.822-47.783  L405.304,18.131c-3.056-5.292-7.497-9.725-12.806-12.797C375.794-4.308,354.349,1.436,344.69,18.131"
   id="path3" />
<path
   d="M375.001,0c-12.305,0-24.292,6.378-30.871,17.814L4.767,605.585C1.636,610.994,0,617.155,0,623.416  c0,19.701,15.961,35.662,35.646,35.662h678.711c6.244,0,12.389-1.67,17.798-4.775c11.486-6.628,17.864-18.632,17.831-30.987  c0-6.044-1.536-12.138-4.759-17.73L405.855,17.814c-3.122-5.426-7.63-9.917-13.039-13.048C387.198,1.52,381.079,0,375.001,0   M35.646,657.759c-18.925,0-34.335-15.41-34.335-34.343c0-6.011,1.595-11.971,4.583-17.163L345.258,18.482  C351.36,7.88,362.763,1.294,375.001,1.294c6.002,0,11.938,1.594,17.171,4.6c5.192,3.03,9.551,7.371,12.547,12.588l339.356,587.771  c9.483,16.395,3.807,37.432-12.556,46.881c-5.209,3.039-11.169,4.625-17.163,4.625H35.646z"
   id="path5" />
<path
   fill="#E30613"
   d="M35.662,645.705c-12.33,0-22.297-10.001-22.297-22.289c0-3.907,1.027-7.747,2.997-11.152L355.701,24.493  c6.161-10.652,19.784-14.308,30.453-8.147c3.364,1.945,6.186,4.767,8.156,8.147l339.314,587.771  c6.177,10.685,2.521,24.275-8.131,30.452c-3.39,1.954-7.229,2.989-11.137,2.989 M112.846,578.839h524.311L375.001,124.767  L112.846,578.839z"
   id="path7"
   style="fill:#c1121c;fill-opacity:1" />
<path
   d="M128.29,569.939l123.364-213.671L621.73,569.939 M312.927,352.078l5.852-10.117l61.34-42.741l13.022,7.521l-60.931,41.998  l20.995,12.121l13.373-23.157l11.57,6.695l-13.364,23.156l6.511,3.757l-6.278,10.853l-6.495-3.757l-7.112,12.305l-11.586-6.695  l7.112-12.305L312.927,352.078z M379.634,407.007l85.14-58.902l7.964,4.591l-85.148,58.92L379.634,407.007z M435.406,357.187  c-3.238,5.594-10.385,7.514-15.961,4.274c-5.609-3.205-7.529-10.385-4.308-15.978l5.877-10.126  c3.206-5.593,10.352-7.521,15.961-4.291c5.594,3.247,7.514,10.394,4.274,15.986L435.406,357.187z M429.613,353.848l5.844-10.117  c1.386-2.421,0.584-5.484-1.82-6.87c-2.404-1.378-5.459-0.543-6.845,1.828l-5.877,10.15c-1.369,2.388-0.534,5.46,1.87,6.846  C425.155,357.07,428.227,356.252,429.613,353.848z M416.974,402.499l-5.86,10.134c-3.222,5.61-1.302,12.756,4.291,15.979  c5.609,3.238,12.756,1.302,15.961-4.274l5.877-10.135c3.223-5.593,1.303-12.738-4.308-15.961  C427.359,394.986,420.18,396.906,416.974,402.499z M422.75,405.838c1.386-2.388,4.441-3.205,6.862-1.819  c2.388,1.369,3.223,4.44,1.82,6.828l-5.844,10.151c-1.369,2.387-4.458,3.205-6.846,1.836c-2.404-1.402-3.222-4.457-1.836-6.845  L422.75,405.838z"
   id="path9" />
</svg>