<?xml version="1.0" encoding="UTF-8" standalone="no"?>
<!-- Generator: Adobe Illustrator 15.0.0, SVG Export Plug-In . SVG Version: 6.00 Build 0)  -->

<svg
   xmlns:dc="http://purl.org/dc/elements/1.1/"
   xmlns:cc="http://creativecommons.org/ns#"
   xmlns:rdf="http://www.w3.org/1999/02/22-rdf-syntax-ns#"
   xmlns:svg="http://www.w3.org/2000/svg"
   xmlns="http://www.w3.org/2000/svg"
   xmlns:sodipodi="http://sodipodi.sourceforge.net/DTD/sodipodi-0.dtd"
   xmlns:inkscape="http://www.inkscape.org/namespaces/inkscape"
   version="1.1"
   id="Ebene_1"
   x="0px"
   y="0px"
   width="749.948px"
   height="659.078px"
   viewBox="0 0 749.948 659.078"
   enable-background="new 0 0 749.948 659.078"
   xml:space="preserve"
   inkscape:version="0.48.1 r9760"
   sodipodi:docname="Zeichen_110-50.svg"><metadata
   id="metadata15"><rdf:RDF><cc:Work
       rdf:about=""><dc:format>image/svg+xml</dc:format><dc:type
         rdf:resource="http://purl.org/dc/dcmitype/StillImage" /><dc:title></dc:title></cc:Work></rdf:RDF></metadata><defs
   id="defs13" /><sodipodi:namedview
   pagecolor="#ffffff"
   bordercolor="#666666"
   borderopacity="1"
   objecttolerance="10"
   gridtolerance="10"
   guidetolerance="10"
   inkscape:pageopacity="0"
   inkscape:pageshadow="2"
   inkscape:window-width="640"
   inkscape:window-height="484"
   id="namedview11"
   showgrid="false"
   inkscape:zoom="0.35807598"
   inkscape:cx="374.974"
   inkscape:cy="329.539"
   inkscape:window-x="0"
   inkscape:window-y="0"
   inkscape:window-maximized="0"
   inkscape:current-layer="Ebene_1" />
<path
   fill="#FFFFFF"
   d="M344.672,18.164L344.672,18.164L5.351,605.905c-3.08,5.309-4.708,11.386-4.708,17.496  c0,19.282,15.718,35.009,35.018,35.009h678.661c6.127,0,12.188-1.636,17.479-4.691c16.711-9.666,22.454-31.103,12.821-47.813  L405.283,18.164c-3.055-5.3-7.495-9.733-12.805-12.805C375.775-4.291,354.331,1.461,344.672,18.164"
   id="path3" />
<path
   d="M374.982,0c-12.304,0-24.291,6.395-30.869,17.839L4.766,605.571C1.636,610.997,0,617.141,0,623.401  c0,19.699,15.96,35.677,35.643,35.677h678.678c6.244,0,12.388-1.67,17.797-4.792c11.485-6.627,17.863-18.614,17.83-30.985  c0-6.01-1.536-12.137-4.759-17.729L405.834,17.839c-3.122-5.426-7.63-9.917-13.039-13.047C387.177,1.544,381.059,0,374.982,0   M35.643,657.759c-18.923,0-34.333-15.409-34.333-34.357c0-6.011,1.594-11.954,4.583-17.162L345.24,18.498  c6.102-10.593,17.504-17.179,29.742-17.179c6.002,0,11.937,1.594,17.171,4.599c5.192,3.03,9.549,7.371,12.546,12.58l339.339,587.741  c9.482,16.394,3.807,37.446-12.555,46.896c-5.209,3.021-11.169,4.624-17.162,4.624H35.643z"
   id="path5" />
<path
   fill="#E30613"
   d="M35.66,645.705c-12.329,0-22.296-10-22.296-22.304c0-3.906,1.026-7.729,2.997-11.136L355.683,24.517  c6.161-10.651,19.784-14.308,30.452-8.155c3.364,1.953,6.186,4.774,8.155,8.155l339.297,587.749  c6.177,10.668,2.521,24.291-8.13,30.451c-3.39,1.937-7.229,2.988-11.136,2.988 M112.84,578.843h524.284L374.982,124.786  L112.84,578.843z"
   id="path7"
   style="fill:#c1121c;fill-opacity:1" />
<path
   d="M128.283,569.911l370.041-213.66l123.374,213.66 M316.951,421.428l-5.852-10.117l-6.344-74.492l13.014-7.513l5.927,73.758  l20.994-12.138l-13.364-23.122l11.569-6.711l13.373,23.172l6.511-3.79l6.26,10.869l-6.519,3.772l7.112,12.305l-11.569,6.678  l-7.112-12.288L316.951,421.428z M397.862,391.109l-8.447-103.182l7.964-4.599l8.422,103.207L397.862,391.109z M382.612,317.928  c3.23,5.576,1.318,12.729-4.291,15.969c-5.593,3.239-12.738,1.319-15.985-4.291l-5.826-10.117  c-3.255-5.593-1.319-12.755,4.274-15.985c5.584-3.23,12.747-1.319,15.977,4.291L382.612,317.928z M376.819,321.258l-5.852-10.134  c-1.386-2.396-4.441-3.213-6.853-1.828c-2.396,1.385-3.214,4.44-1.828,6.836l5.843,10.134c1.386,2.404,4.466,3.222,6.853,1.836  C377.377,326.734,378.196,323.654,376.819,321.258z M412.628,356.534c-3.222-5.575-1.318-12.737,4.291-15.993  c5.576-3.205,12.738-1.269,15.96,4.291l5.844,10.15c3.238,5.593,1.335,12.737-4.274,15.977c-5.593,3.222-12.738,1.319-15.96-4.274  L412.628,356.534z M418.405,353.195l5.86,10.117c1.402,2.421,4.44,3.239,6.845,1.854s3.205-4.441,1.837-6.861l-5.844-10.117  c-1.402-2.388-4.457-3.223-6.845-1.854C417.854,347.72,417.02,350.792,418.405,353.195z"
   id="path9" />
</svg>