<?xml version="1.0" encoding="UTF-8" standalone="no"?>
<!-- Generator: Adobe Illustrator 15.0.0, SVG Export Plug-In . SVG Version: 6.00 Build 0)  -->

<svg
   xmlns:dc="http://purl.org/dc/elements/1.1/"
   xmlns:cc="http://creativecommons.org/ns#"
   xmlns:rdf="http://www.w3.org/1999/02/22-rdf-syntax-ns#"
   xmlns:svg="http://www.w3.org/2000/svg"
   xmlns="http://www.w3.org/2000/svg"
   xmlns:sodipodi="http://sodipodi.sourceforge.net/DTD/sodipodi-0.dtd"
   xmlns:inkscape="http://www.inkscape.org/namespaces/inkscape"
   version="1.1"
   id="Ebene_1"
   x="0px"
   y="0px"
   width="749.966px"
   height="659.077px"
   viewBox="0 0 749.966 659.077"
   enable-background="new 0 0 749.966 659.077"
   xml:space="preserve"
   inkscape:version="0.48.1 r9760"
   sodipodi:docname="Zeichen_112.svg"><metadata
   id="metadata15"><rdf:RDF><cc:Work
       rdf:about=""><dc:format>image/svg+xml</dc:format><dc:type
         rdf:resource="http://purl.org/dc/dcmitype/StillImage" /><dc:title></dc:title></cc:Work></rdf:RDF></metadata><defs
   id="defs13" /><sodipodi:namedview
   pagecolor="#ffffff"
   bordercolor="#666666"
   borderopacity="1"
   objecttolerance="10"
   gridtolerance="10"
   guidetolerance="10"
   inkscape:pageopacity="0"
   inkscape:pageshadow="2"
   inkscape:window-width="640"
   inkscape:window-height="480"
   id="namedview11"
   showgrid="false"
   inkscape:zoom="0.39752561"
   inkscape:cx="374.983"
   inkscape:cy="329.53851"
   inkscape:window-x="0"
   inkscape:window-y="0"
   inkscape:window-maximized="0"
   inkscape:current-layer="Ebene_1" />
<path
   fill="#FFFFFF"
   d="M344.682,18.147L344.682,18.147L5.351,605.903c-3.08,5.326-4.708,11.386-4.708,17.514  c0,19.282,15.719,34.993,35.019,34.993h678.678c6.127,0,12.188-1.62,17.479-4.691c16.712-9.65,22.455-31.087,12.822-47.815  L405.293,18.147c-3.056-5.292-7.496-9.717-12.806-12.805C375.785-4.291,354.34,1.452,344.682,18.147"
   id="path3" />
<path
   d="M374.992,0c-12.305,0-24.292,6.394-30.87,17.83L4.767,605.586C1.636,611.012,0,617.14,0,623.417  c0,19.7,15.96,35.66,35.645,35.66h678.695c6.244,0,12.388-1.652,17.797-4.791c11.486-6.611,17.863-18.615,17.83-30.97  c0-6.027-1.535-12.138-4.758-17.73L405.844,17.83c-3.122-5.426-7.63-9.917-13.039-13.056C387.188,1.536,381.069,0,374.992,0   M35.645,657.759c-18.924,0-34.334-15.394-34.334-34.342c0-6.027,1.594-11.971,4.583-17.163L345.249,18.498  c6.102-10.602,17.505-17.163,29.743-17.163c6.002,0,11.938,1.569,17.171,4.575c5.192,3.021,9.55,7.362,12.547,12.588  l339.347,587.756c9.483,16.395,3.807,37.431-12.555,46.896c-5.209,3.022-11.169,4.608-17.162,4.608H35.645z"
   id="path5" />
<path
   fill="#E30613"
   d="M35.661,645.705c-12.33,0-22.296-10.001-22.296-22.288c0-3.924,1.026-7.747,2.997-11.152L355.692,24.508  c6.161-10.651,19.784-14.308,30.452-8.147c3.364,1.937,6.186,4.758,8.155,8.147l339.306,587.756  c6.178,10.668,2.521,24.291-8.13,30.451c-3.39,1.954-7.229,2.989-11.136,2.989 M112.843,578.84H637.14L374.992,124.78  L112.843,578.84z"
   id="path7"
   style="fill:#c1121c;fill-opacity:1" />
<path
   d="M210.109,543.18v-35.645h8.899c14.041,0,27.238-6.595,35.669-17.831l6.662-8.898c14.775-19.7,42.707-23.69,62.407-8.915  c3.381,2.538,6.369,5.526,8.907,8.915l6.678,8.898c14.775,19.701,42.706,23.708,62.407,8.933c3.372-2.538,6.377-5.543,8.915-8.933  l6.244-8.898c14.775-19.7,42.689-23.69,62.373-8.915c3.406,2.538,6.378,5.526,8.932,8.915l7.129,8.898  c8.415,11.236,21.604,17.831,35.645,17.831h8.898v35.645"
   id="path9" />
</svg>