<?xml version="1.0" encoding="UTF-8" standalone="no"?>
<!-- Generator: Adobe Illustrator 15.0.0, SVG Export Plug-In . SVG Version: 6.00 Build 0)  -->

<svg
   xmlns:dc="http://purl.org/dc/elements/1.1/"
   xmlns:cc="http://creativecommons.org/ns#"
   xmlns:rdf="http://www.w3.org/1999/02/22-rdf-syntax-ns#"
   xmlns:svg="http://www.w3.org/2000/svg"
   xmlns="http://www.w3.org/2000/svg"
   xmlns:sodipodi="http://sodipodi.sourceforge.net/DTD/sodipodi-0.dtd"
   xmlns:inkscape="http://www.inkscape.org/namespaces/inkscape"
   version="1.1"
   id="Ebene_1"
   x="0px"
   y="0px"
   width="749.966px"
   height="659.078px"
   viewBox="0 0 749.966 659.078"
   enable-background="new 0 0 749.966 659.078"
   xml:space="preserve"
   inkscape:version="0.48.1 r9760"
   sodipodi:docname="Zeichen_113.svg"><metadata
   id="metadata15"><rdf:RDF><cc:Work
       rdf:about=""><dc:format>image/svg+xml</dc:format><dc:type
         rdf:resource="http://purl.org/dc/dcmitype/StillImage" /><dc:title></dc:title></cc:Work></rdf:RDF></metadata><defs
   id="defs13" /><sodipodi:namedview
   pagecolor="#ffffff"
   bordercolor="#666666"
   borderopacity="1"
   objecttolerance="10"
   gridtolerance="10"
   guidetolerance="10"
   inkscape:pageopacity="0"
   inkscape:pageshadow="2"
   inkscape:window-width="640"
   inkscape:window-height="484"
   id="namedview11"
   showgrid="false"
   inkscape:zoom="0.35807598"
   inkscape:cx="374.983"
   inkscape:cy="329.539"
   inkscape:window-x="0"
   inkscape:window-y="0"
   inkscape:window-maximized="0"
   inkscape:current-layer="Ebene_1" />
<path
   fill="#FFFFFF"
   d="M344.682,18.165L344.682,18.165L5.351,605.92c-3.08,5.309-4.708,11.386-4.708,17.496  c0,19.3,15.719,35.01,35.019,35.01h678.678c6.127,0,12.188-1.636,17.479-4.708c16.712-9.649,22.455-31.086,12.822-47.798  L405.293,18.165c-3.056-5.309-7.496-9.733-12.806-12.805C375.785-4.291,354.34,1.453,344.682,18.165"
   id="path3" />
<path
   d="M374.992,0c-12.305,0-24.292,6.395-30.87,17.831L4.767,605.586C1.636,611.012,0,617.172,0,623.417  c0,19.701,15.96,35.661,35.645,35.661h678.695c6.244,0,12.388-1.652,17.797-4.774c11.486-6.628,17.863-18.615,17.83-30.986  c0-6.011-1.535-12.138-4.758-17.73L405.844,17.831c-3.122-5.409-7.63-9.917-13.039-13.039C387.188,1.536,381.069,0,374.992,0   M35.645,657.776c-18.924,0-34.334-15.41-34.334-34.359c0-6.01,1.594-11.953,4.583-17.162L345.249,18.482  c6.102-10.585,17.505-17.146,29.743-17.146c6.002,0,11.938,1.586,17.171,4.591c5.192,3.022,9.55,7.363,12.547,12.555  l339.347,587.772c9.483,16.395,3.807,37.447-12.555,46.896c-5.209,3.021-11.169,4.625-17.162,4.625H35.645z"
   id="path5" />
<path
   fill="#E30613"
   d="M35.661,645.721c-12.33,0-22.296-10-22.296-22.305c0-3.906,1.026-7.729,2.997-11.136L355.692,24.525  c6.161-10.651,19.784-14.308,30.452-8.164c3.364,1.954,6.186,4.775,8.155,8.164l339.306,587.755  c6.178,10.669,2.521,24.275-8.13,30.436c-3.39,1.953-7.229,3.005-11.136,3.005 M112.843,578.857H637.14L374.992,124.78  L112.843,578.857z"
   id="path7"
   style="fill:#c1121c;fill-opacity:1" />
<polyline
   points="374.992,300.648 389.633,309.112 389.633,323.921 402.472,316.525 417.097,324.956 417.097,341.852   389.633,357.696 389.633,402.138 428.116,379.933 428.116,348.212 442.741,339.765 457.382,348.212 457.382,363.038   470.205,355.609 484.846,364.073 484.846,380.968 472.024,388.365 484.846,395.777 484.846,412.673 470.205,421.137 442.741,405.26   404.275,427.499 442.741,449.719 470.205,433.859 484.846,442.307 484.846,459.203 472.024,466.598 484.846,474.028   484.846,490.907 470.205,499.355 457.382,491.958 457.382,506.767 442.741,515.199 428.116,506.767 428.116,475.063   389.633,452.841 389.633,497.268 417.097,513.128 417.097,530.024 402.472,538.488 389.633,531.092 389.633,545.901   374.992,554.332 360.358,545.901 360.358,531.092 347.536,538.488 332.903,530.024 332.903,513.128 360.358,497.268   360.358,452.841 321.893,475.063 321.893,506.767 307.259,515.199 292.609,506.767 292.609,491.958 279.787,499.355   265.154,490.907 265.154,474.028 277.976,466.598 265.154,459.203 265.154,442.307 279.787,433.859 307.259,449.719   345.725,427.499 307.259,405.26 279.787,421.137 265.154,412.673 265.154,395.777 277.976,388.365 265.154,380.968 265.154,364.073   279.787,355.609 292.609,363.038 292.609,348.212 307.259,339.765 321.893,348.212 321.893,379.933 360.358,402.138   360.358,357.696 332.903,341.852 332.903,324.956 347.536,316.525 360.358,323.921 360.358,309.112 "
   id="polyline9" />
</svg>