<?xml version="1.0" encoding="UTF-8" standalone="no"?>
<!-- Generator: Adobe Illustrator 15.0.0, SVG Export Plug-In . SVG Version: 6.00 Build 0)  -->

<svg
   xmlns:dc="http://purl.org/dc/elements/1.1/"
   xmlns:cc="http://creativecommons.org/ns#"
   xmlns:rdf="http://www.w3.org/1999/02/22-rdf-syntax-ns#"
   xmlns:svg="http://www.w3.org/2000/svg"
   xmlns="http://www.w3.org/2000/svg"
   xmlns:sodipodi="http://sodipodi.sourceforge.net/DTD/sodipodi-0.dtd"
   xmlns:inkscape="http://www.inkscape.org/namespaces/inkscape"
   version="1.1"
   id="Ebene_1"
   x="0px"
   y="0px"
   width="749.966px"
   height="659.078px"
   viewBox="0 0 749.966 659.078"
   enable-background="new 0 0 749.966 659.078"
   xml:space="preserve"
   inkscape:version="0.48.1 r9760"
   sodipodi:docname="Zeichen_114.svg"><metadata
   id="metadata15"><rdf:RDF><cc:Work
       rdf:about=""><dc:format>image/svg+xml</dc:format><dc:type
         rdf:resource="http://purl.org/dc/dcmitype/StillImage" /><dc:title></dc:title></cc:Work></rdf:RDF></metadata><defs
   id="defs13" /><sodipodi:namedview
   pagecolor="#ffffff"
   bordercolor="#666666"
   borderopacity="1"
   objecttolerance="10"
   gridtolerance="10"
   guidetolerance="10"
   inkscape:pageopacity="0"
   inkscape:pageshadow="2"
   inkscape:window-width="640"
   inkscape:window-height="484"
   id="namedview11"
   showgrid="false"
   inkscape:zoom="0.35807598"
   inkscape:cx="374.983"
   inkscape:cy="329.539"
   inkscape:window-x="0"
   inkscape:window-y="0"
   inkscape:window-maximized="0"
   inkscape:current-layer="Ebene_1" />
<path
   fill="#FFFFFF"
   d="M344.681,18.148L344.681,18.148L5.351,605.903c-3.08,5.327-4.708,11.37-4.708,17.514  c0,19.283,15.719,34.993,35.019,34.993h678.678c6.127,0,12.187-1.619,17.479-4.708c16.713-9.633,22.455-31.069,12.822-47.799  L405.293,18.148c-3.055-5.292-7.496-9.717-12.805-12.806C375.784-4.291,354.339,1.453,344.681,18.148"
   id="path3" />
<path
   d="M374.991,0c-12.305,0-24.292,6.395-30.87,17.831L4.767,605.586C1.636,610.996,0,617.157,0,623.417  c0,19.7,15.96,35.661,35.644,35.661h678.695c6.243,0,12.388-1.653,17.797-4.791c11.486-6.611,17.864-18.615,17.83-30.97  c0-6.044-1.536-12.138-4.758-17.73L405.844,17.831c-3.121-5.426-7.63-9.917-13.038-13.055C387.187,1.536,381.068,0,374.991,0   M35.644,657.759c-18.924,0-34.333-15.41-34.333-34.343c0-6.026,1.594-11.971,4.583-17.162L345.249,18.481  c6.102-10.584,17.505-17.162,29.742-17.162c6.002,0,11.937,1.586,17.171,4.591c5.191,3.022,9.55,7.363,12.547,12.571  l339.347,587.773c9.483,16.395,3.807,37.431-12.555,46.896c-5.209,3.021-11.169,4.608-17.162,4.608H35.644z"
   id="path5" />
<path
   fill="#E30613"
   d="M35.661,645.705c-12.33,0-22.296-10-22.296-22.288c0-3.923,1.027-7.747,2.997-11.152L355.691,24.509  c6.161-10.651,19.784-14.308,30.452-8.147c3.363,1.937,6.186,4.758,8.156,8.147l339.305,587.755  c6.178,10.669,2.521,24.275-8.13,30.452c-3.389,1.954-7.229,2.988-11.136,2.988 M112.843,578.84H637.14L374.991,124.78  L112.843,578.84z"
   id="path7"
   style="fill:#c1121c;fill-opacity:1" />
<path
   d="M337.126,469.654c2.446,0,4.449,1.001,4.449,2.22c0,1.104-1.611,2.055-3.765,2.205l-9.867,0.768  c-56.071,4.34-93.326,15.626-93.326,28.231c0,3.939,4.14,7.563,10.894,9.583l1.261,0.367c1.887,0.568,2.963,2.537,2.396,4.44  c-0.375,1.303-1.485,2.271-2.821,2.505l-1.945,0.317c-15.459,2.57-31.353-3.056-35.527-12.589c-0.667-1.502-0.993-3.056-0.993-4.624  C207.88,484.613,265.737,469.654,337.126,469.654 M256.897,561.01c-8.005,0-15.986-0.802-23.833-2.371  c-4.207-0.868-6.945-4.975-6.085-9.199c0.852-4.224,4.958-6.944,9.183-6.093c0.184,0.032,0.359,0.083,0.526,0.134l3.731,1.018  c7.538,2.087,15.334,3.155,23.165,3.155c27.08,0,49.025-7.997,49.025-17.813c0-3.373-3.74-6.545-9.967-8.365l-8.206-2.471  c-8.064-2.387-13.022-6.778-13.022-11.485c0-15.36,46.889-27.848,104.729-27.848c2.463,0,4.458,1.002,4.458,2.237  c0,1.102-1.569,2.02-3.74,2.187l-7.096,0.585c-44.518,3.672-73.834,12.737-73.834,22.839c0,3.372,3.739,6.493,9.958,8.364  l8.197,2.453c8.081,2.405,13.039,6.762,13.039,11.504C337.126,547.037,301.207,561.01,256.897,561.01z M410.652,489.705  c1.67,0,3.038,0.685,3.038,1.52c0,0.518-0.533,1.002-1.436,1.269l-3.055,0.969c-7.329,2.304-11.912,6.861-11.912,11.837  c0,11.252,20.109,20.735,46.889,22.121l50.419,2.604c26.078,1.353,45.278,8.832,45.278,17.631c0,7.38-12.956,13.356-28.95,13.356  c-0.5,0-0.885-0.401-0.885-0.901c0-0.233,0.101-0.485,0.267-0.652l1.82-1.651c2.104-1.954,3.239-4.342,3.239-6.829  c0-6.845-12.121-12.604-28.049-13.289l-56.463-2.438c-31.737-1.386-55.862-12.37-55.862-25.493  C374.991,498.704,390.96,489.705,410.652,489.705z M273.927,356.092c0.818-3.072,2.613-5.776,5.092-7.745l3.848-2.989  c2.679-2.12,5.109-4.559,7.245-7.229l30.127-37.849c3.022-3.79,8.014-5.426,12.697-4.19l117.852,31.604  c4.707,1.252,8.214,5.159,8.932,9.95l7.162,47.866c0.518,3.389,1.403,6.678,2.671,9.85l1.837,4.524  c1.168,2.938,1.369,6.193,0.534,9.266l-8.197,30.62c-1.754,6.51-8.431,10.384-14.942,8.631l-174.448-46.714  c-6.512-1.77-10.376-8.448-8.632-14.976L273.927,356.092z M301.365,343.221l153.229,41.054l-6.244-41.588  c-0.267-1.904-1.669-3.473-3.556-4.007l-112.159-30.035c-1.887-0.501-3.865,0.15-5.083,1.669L301.365,343.221z M273.067,406.378  l-6.937,25.928c-1.043,3.906,1.26,7.931,5.176,8.966l14.141,3.807c3.898,1.035,7.914-1.286,8.957-5.192l6.962-25.928  L273.067,406.378z M419.234,445.546l28.28,7.579l-6.944,25.927c-1.053,3.907-5.075,6.228-8.982,5.193l-14.123-3.807  c-3.907-1.035-6.245-5.059-5.177-8.966L419.234,445.546z"
   id="path9" />
</svg>