<?xml version="1.0" encoding="UTF-8" standalone="no"?>
<!-- Generator: Adobe Illustrator 15.0.0, SVG Export Plug-In . SVG Version: 6.00 Build 0)  -->

<svg
   xmlns:dc="http://purl.org/dc/elements/1.1/"
   xmlns:cc="http://creativecommons.org/ns#"
   xmlns:rdf="http://www.w3.org/1999/02/22-rdf-syntax-ns#"
   xmlns:svg="http://www.w3.org/2000/svg"
   xmlns="http://www.w3.org/2000/svg"
   xmlns:sodipodi="http://sodipodi.sourceforge.net/DTD/sodipodi-0.dtd"
   xmlns:inkscape="http://www.inkscape.org/namespaces/inkscape"
   version="1.1"
   id="Ebene_1"
   x="0px"
   y="0px"
   width="749.966px"
   height="659.078px"
   viewBox="0 0 749.966 659.078"
   enable-background="new 0 0 749.966 659.078"
   xml:space="preserve"
   inkscape:version="0.48.1 r9760"
   sodipodi:docname="Zeichen_115.svg"><metadata
   id="metadata15"><rdf:RDF><cc:Work
       rdf:about=""><dc:format>image/svg+xml</dc:format><dc:type
         rdf:resource="http://purl.org/dc/dcmitype/StillImage" /><dc:title></dc:title></cc:Work></rdf:RDF></metadata><defs
   id="defs13" /><sodipodi:namedview
   pagecolor="#ffffff"
   bordercolor="#666666"
   borderopacity="1"
   objecttolerance="10"
   gridtolerance="10"
   guidetolerance="10"
   inkscape:pageopacity="0"
   inkscape:pageshadow="2"
   inkscape:window-width="1162"
   inkscape:window-height="981"
   id="namedview11"
   showgrid="false"
   inkscape:zoom="0.56335325"
   inkscape:cx="358.17405"
   inkscape:cy="253.54615"
   inkscape:window-x="614"
   inkscape:window-y="0"
   inkscape:window-maximized="0"
   inkscape:current-layer="Ebene_1" />
<path
   fill="#FFFFFF"
   d="M344.682,18.165L344.682,18.165L5.351,605.92c-3.08,5.309-4.708,11.369-4.708,17.496  c0,19.283,15.719,35.011,35.019,35.011h678.678c6.127,0,12.188-1.637,17.479-4.708c16.712-9.65,22.455-31.087,12.822-47.799  L405.293,18.165c-3.056-5.309-7.496-9.733-12.806-12.805C375.785-4.291,354.34,1.453,344.682,18.165"
   id="path3" /><path
   d="M35.661,645.722c-12.33,0-22.296-10.001-22.296-22.306c0-3.906,1.026-7.729,2.997-11.136L355.692,24.525  c6.161-10.651,19.784-14.308,30.452-8.164c3.364,1.954,6.186,4.775,8.155,8.164l339.306,587.755  c6.178,10.652,2.521,24.275-8.13,30.436c-3.39,1.954-7.229,3.006-11.136,3.006 M112.843,578.857H637.14L374.992,124.78  L112.843,578.857z"
   id="path7"
   style="fill:#c1121c;fill-opacity:1"
   fill="#E30613" />
<path
   d="M374.992,0c-12.305,0-24.292,6.395-30.87,17.831L4.767,605.586C1.636,611.012,0,617.156,0,623.417  c0,19.701,15.96,35.661,35.645,35.661h678.695c6.244,0,12.388-1.652,17.797-4.774c11.486-6.628,17.863-18.615,17.83-30.986  c0-6.027-1.535-12.138-4.758-17.73L405.844,17.831c-3.122-5.409-7.63-9.917-13.039-13.039C387.188,1.536,381.069,0,374.992,0   M35.645,657.776c-18.924,0-34.334-15.41-34.334-34.359c0-6.01,1.594-11.953,4.583-17.162L345.249,18.482  c6.102-10.585,17.505-17.163,29.743-17.163c6.002,0,11.938,1.586,17.171,4.591c5.192,3.039,9.55,7.379,12.547,12.572  l339.347,587.772c9.483,16.395,3.807,37.447-12.555,46.896c-5.209,3.022-11.169,4.625-17.162,4.625H35.645z"
   id="path5" />

<path
   d="m 128.286,569.925 12.872,-22.271 102.367,0 -11.144,-11.152 -13.373,0 -13.365,-24.509 31.204,-33.424 17.83,2.237 13.365,-6.694 31.204,11.136 20.051,17.83 -2.237,26.763 -35.644,17.813 84.67,0 15.593,-84.694 11.169,-8.882 -8.924,-89.153 13.365,-8.898 -8.924,-13.373 8.924,-62.39 44.551,-21.854 179.874,311.516 M 276.262,449.84 l 24.517,-15.594 6.687,-22.305 -15.593,-15.61 -8.924,6.712 -8.907,-6.712 -22.271,17.831 2.221,13.373 2.22,15.609 z m 80.85111,-95.69676 -24.44411,-2.59124 -21.7173,21.03283 -2.87259,25.84406 18.45759,16.84917 6.41365,-10.86265 10.16217,-0.62758 L 358.296,382.755 c -0.91182,-27.52914 0.50237,0.45699 -1.18289,-28.61176 z m 36.62683,-75.47365 -51.8097,7.57893 c -13.24389,-28.37054 1.60609,-0.29511 -13.373,-28.62876 18.75071,-26.26888 -0.12263,0.48326 19.69676,-28.61176 l 35.669,-6.695 17.814,11.152 4.457,-2.237 13.373,11.136 z"
   id="path9"
   style="fill:#000000"
   inkscape:connector-curvature="0"
   sodipodi:nodetypes="cccccccccccccccccccccccccccccccccccccccccccccccccc" />
<path
   style="color:#000000;fill:#000000;stroke:none;stroke-width:1;stroke-linecap:butt;stroke-linejoin:miter;stroke-miterlimit:4;stroke-opacity:1;stroke-dasharray:none;stroke-dashoffset:0;marker:none;visibility:visible;display:inline;overflow:visible;enable-background:accumulate"
   d="m 348.311,341.51878 -29.49661,-12.55175 3.76553,-19.4552 13.17933,1.25517 10.66899,-9.41381 12.55175,5.64829 -2.51035,11.92416 7.53104,3.76552 z"
   id="path3825"
   inkscape:connector-curvature="0" /></svg>