<?xml version="1.0" encoding="UTF-8" standalone="no"?>
<!-- Created with Inkscape (http://www.inkscape.org/) -->

<svg
   xmlns:dc="http://purl.org/dc/elements/1.1/"
   xmlns:cc="http://creativecommons.org/ns#"
   xmlns:rdf="http://www.w3.org/1999/02/22-rdf-syntax-ns#"
   xmlns:svg="http://www.w3.org/2000/svg"
   xmlns="http://www.w3.org/2000/svg"
   xmlns:sodipodi="http://sodipodi.sourceforge.net/DTD/sodipodi-0.dtd"
   xmlns:inkscape="http://www.inkscape.org/namespaces/inkscape"
   version="1.1"
   width="749.96716"
   height="659.05261"
   viewBox="0 0 749.96716 659.05261"
   id="Ebene_1"
   xml:space="preserve"
   inkscape:version="0.48.1 r9760"
   sodipodi:docname="Zeichen_116.svg"><metadata
   id="metadata23"><rdf:RDF><cc:Work
       rdf:about=""><dc:format>image/svg+xml</dc:format><dc:type
         rdf:resource="http://purl.org/dc/dcmitype/StillImage" /><dc:title></dc:title></cc:Work></rdf:RDF></metadata><defs
   id="defs21" /><sodipodi:namedview
   pagecolor="#ffffff"
   bordercolor="#666666"
   borderopacity="1"
   objecttolerance="10"
   gridtolerance="10"
   guidetolerance="10"
   inkscape:pageopacity="0"
   inkscape:pageshadow="2"
   inkscape:window-width="640"
   inkscape:window-height="484"
   id="namedview19"
   showgrid="false"
   inkscape:zoom="0.35808977"
   inkscape:cx="374.98358"
   inkscape:cy="329.52631"
   inkscape:window-x="0"
   inkscape:window-y="0"
   inkscape:window-maximized="0"
   inkscape:current-layer="Ebene_1" />

<g
   transform="matrix(17.095603,0,0,-17.095603,-1991.4839,3494.478)"
   id="g4283">
   <path
   d="m 136.653,203.347 0,0 -19.849,-34.38 c -0.18,-0.311 -0.275,-0.666 -0.275,-1.024 0,-1.128 0.919,-2.047 2.048,-2.047 l 39.698,0 c 0.359,0 0.713,0.095 1.023,0.275 0.977,0.564 1.314,1.818 0.75,2.796 l -19.85,34.38 c -0.179,0.31 -0.438,0.569 -0.749,0.749 -0.977,0.564 -2.231,0.228 -2.796,-0.749"
   id="path4299"
   style="fill:#ffffff;fill-opacity:1;fill-rule:nonzero;stroke:none" /><path
   d="m 118.576,165.934 c -1.107,0 -2.008,0.901 -2.008,2.009 0,0.352 0.093,0.7 0.268,1.004 l 19.85,34.38 c 0.357,0.62 1.024,1.004 1.74,1.004 0.351,0 0.698,-0.093 1.004,-0.268 0.304,-0.177 0.559,-0.431 0.734,-0.736 l 19.85,-34.38 c 0.554,-0.959 0.223,-2.19 -0.735,-2.743 -0.305,-0.177 -0.653,-0.27 -1.004,-0.27 l -39.699,0 z m 19.85,38.474 c -0.72,0 -1.421,-0.373 -1.806,-1.042 l -19.85,-34.38 c -0.183,-0.317 -0.279,-0.677 -0.279,-1.043 0,-1.152 0.934,-2.086 2.085,-2.086 l 39.699,0 c 0.366,0 0.725,0.097 1.042,0.28 0.671,0.387 1.045,1.089 1.043,1.812 0,0.352 -0.09,0.71 -0.279,1.037 l -19.85,34.38 c -0.183,0.317 -0.447,0.58 -0.763,0.763 -0.329,0.19 -0.687,0.279 -1.042,0.279"
   id="path4301"
   style="fill:#231f20;fill-opacity:1;fill-rule:nonzero;stroke:none" /><path
   d="m 123.092,170.55 30.668,0 -15.334,26.56 -15.334,-26.56 z m -4.515,-3.911 c -0.721,0 -1.304,0.585 -1.304,1.304 0,0.229 0.06,0.453 0.175,0.652 l 19.849,34.38 c 0.36,0.623 1.157,0.837 1.781,0.477 0.197,-0.114 0.362,-0.279 0.477,-0.477 l 19.848,-34.38 c 0.36,-0.624 0.147,-1.421 -0.476,-1.781 -0.198,-0.114 -0.423,-0.175 -0.652,-0.175"
   id="path4303"
   style="fill:#c1121c;fill-opacity:1;fill-rule:nonzero;stroke:none" /><path
   d="m 124.146,171.332 0.451,0.783 8.165,0 c -0.269,0 -0.489,0.219 -0.489,0.488 l 0,1.792 1.956,0 0,-1.792 c 0,-0.269 -0.219,-0.488 -0.489,-0.488 l 18.515,0 0.452,-0.783"
   id="path4305"
   style="fill:#231f20;fill-opacity:1;fill-rule:nonzero;stroke:none" /><path
   d="m 134.229,177.165 c 0,0.54 -0.438,0.978 -0.978,0.978 -0.54,0 -0.978,-0.438 -0.978,-0.978 0,-0.54 0.438,-0.977 0.978,-0.977 0.54,0 0.978,0.437 0.978,0.977 z m -3.612,5.377 2.308,0 c 0.325,0 0.618,-0.193 0.747,-0.489 l 1.289,-2.962 c 0.091,-0.21 0.206,-0.408 0.343,-0.59 l 0.195,-0.26 c 0.127,-0.17 0.196,-0.376 0.196,-0.587 l 0,-2.118 c 0,-0.451 -0.365,-0.814 -0.814,-0.814 l -8.779,0 2.446,4.235 5.599,0 -1.12,2.574 c -0.052,0.119 -0.169,0.196 -0.299,0.196 l -2.581,0"
   id="path4307"
   style="fill:#231f20;fill-opacity:1;fill-rule:nonzero;stroke:none" /><path
   d="m 135.93,172.375 -0.044,0.311 8.828,1.24 0.044,-0.309"
   id="path4309"
   style="fill:#231f20;fill-opacity:1;fill-rule:nonzero;stroke:none" /><path
   d="m 137.494,173.314 -0.117,0.289 8.266,3.341 0.117,-0.29"
   id="path4311"
   style="fill:#231f20;fill-opacity:1;fill-rule:nonzero;stroke:none" /><path
   d="m 135.93,172.943 -0.171,0.263 5.684,3.691 0.171,-0.262"
   id="path4313"
   style="fill:#231f20;fill-opacity:1;fill-rule:nonzero;stroke:none" /><path
   d="m 142.811,177.589 -0.626,0.292 0.292,0.627 0.796,0.29 0.627,-0.293 -0.293,-0.626"
   id="path4315"
   style="fill:#231f20;fill-opacity:1;fill-rule:nonzero;stroke:none" /><path
   d="m 145.314,177.798 -0.321,0.321 0.321,0.321 0.556,0 0.322,-0.321 -0.322,-0.321"
   id="path4317"
   style="fill:#231f20;fill-opacity:1;fill-rule:nonzero;stroke:none" /><path
   d="m 146.487,175.504 -0.321,0.32 0.321,0.321 0.557,0 0.321,-0.321 -0.321,-0.32"
   id="path4319"
   style="fill:#231f20;fill-opacity:1;fill-rule:nonzero;stroke:none" /><path
   d="m 143.75,174.226 -0.537,0.25 0.25,0.538 0.683,0.248 0.536,-0.251 -0.25,-0.536"
   id="path4321"
   style="fill:#231f20;fill-opacity:1;fill-rule:nonzero;stroke:none" /><path
   d="m 145.835,172.74 -0.349,0.349 0.349,0.35 0.605,0 0.35,-0.35 -0.35,-0.349"
   id="path4323"
   style="fill:#231f20;fill-opacity:1;fill-rule:nonzero;stroke:none" /><path
   d="m 148.129,172.637 -0.412,0.191 0.193,0.411 0.523,0.19 0.412,-0.191 -0.193,-0.412"
   id="path4325"
   style="fill:#231f20;fill-opacity:1;fill-rule:nonzero;stroke:none" /><path
   d="m 147.086,173.679 -0.626,0.292 0.292,0.626 0.797,0.291 0.626,-0.293 -0.292,-0.626"
   id="path4327"
   style="fill:#231f20;fill-opacity:1;fill-rule:nonzero;stroke:none" />
		   </g>
		   </svg>