<?xml version="1.0" encoding="UTF-8" standalone="no"?>
<!-- Created with Inkscape (http://www.inkscape.org/) -->

<svg
   xmlns:dc="http://purl.org/dc/elements/1.1/"
   xmlns:cc="http://creativecommons.org/ns#"
   xmlns:rdf="http://www.w3.org/1999/02/22-rdf-syntax-ns#"
   xmlns:svg="http://www.w3.org/2000/svg"
   xmlns="http://www.w3.org/2000/svg"
   xmlns:sodipodi="http://sodipodi.sourceforge.net/DTD/sodipodi-0.dtd"
   xmlns:inkscape="http://www.inkscape.org/namespaces/inkscape"
   version="1.0"
   width="753.12"
   height="671.52002"
   id="svg2"
   inkscape:version="0.48.1 r9760"
   sodipodi:docname="Zeichen_117-10.svg">
  <metadata
     id="metadata10">
    <rdf:RDF>
      <cc:Work
         rdf:about="">
        <dc:format>image/svg+xml</dc:format>
        <dc:type
           rdf:resource="http://purl.org/dc/dcmitype/StillImage" />
      </cc:Work>
    </rdf:RDF>
  </metadata>
  <sodipodi:namedview
     pagecolor="#ffffff"
     bordercolor="#666666"
     borderopacity="1"
     objecttolerance="10"
     gridtolerance="10"
     guidetolerance="10"
     inkscape:pageopacity="0"
     inkscape:pageshadow="2"
     inkscape:window-width="1024"
     inkscape:window-height="720"
     id="namedview8"
     showgrid="false"
     inkscape:zoom="0.38867047"
     inkscape:cx="-263.23442"
     inkscape:cy="295.00817"
     inkscape:window-x="0"
     inkscape:window-y="0"
     inkscape:window-maximized="0"
     inkscape:current-layer="svg2" />
  <defs
     id="defs11" />
  <g
     transform="matrix(1.106567,0,0,1.106567,-40.1289,-35.78094)"
     id="g1875">
    <path
       d="M 71.985614,631.52918 C 60.553114,631.52918 49.989054,625.43 44.272794,615.52918 C 38.556554,605.62833 38.556554,593.43 44.272794,583.52918 L 348.84719,55.99085 C 354.56345,46.09002 365.12751,39.99084 376.56,39.99084 C 387.99251,39.99084 398.55659,46.09002 404.27283,55.99085 L 708.84723,583.52918 C 714.56347,593.43 714.56347,605.62833 708.84723,615.52918 C 703.13097,625.42999 692.56691,631.52918 681.13441,631.52918 L 71.985614,631.52918 z "
       style="fill:white;fill-rule:evenodd;stroke:black;stroke-width:2"
       id="path6" />
    <path
       d="M 71.985614,619.52918 C 64.840294,619.52918 58.237754,615.7172 54.665094,609.52918 C 51.092454,603.34114 51.092454,595.7172 54.665094,589.52918 L 359.23951,61.99086 C 362.81215,55.80282 369.41471,51.99084 376.56,51.99084 C 383.70533,51.99084 390.30787,55.80282 393.88053,61.99086 L 698.45493,589.52918 C 702.02757,595.7172 702.02757,603.34114 698.45493,609.52918 C 694.88227,615.7172 688.27973,619.52918 681.13441,619.52918 L 71.985614,619.52918 z M 141.2677,559.52918 L 376.56,151.99085 L 611.85233,559.52918 L 141.2677,559.52918 z "
       style="fill:#c1121c;fill-rule:evenodd;stroke:none;fill-opacity:1"
       id="path8" />
  </g>
  <path
     d="m 389.82909,315.21875 75.59375,20.59375 0.0937,0.375 0,-2.875 12.125,0 0,237 -12.125,0.0937 0,-220.6875 -18.21875,65.9375 -189.125,78.59375 c -1.51788,0.62051 -2.39892,1.86894 -4.75,1.65625 -19.56171,-11.28879 -30.27964,-29.31827 -30.75,-51.28125 15.87344,-13.56917 111.44237,-86.27083 167.15625,-129.40625 z m 13.75,11.6875 c 19.6302,14.33876 36.69303,35.70155 42.625,71.9375 l 13.875,-58.25 -56.5,-13.6875 z m -48.3125,25.5625 -32.53125,24.40625 c 25.42813,14.00818 37.16776,39.1729 38.78125,67.3125 l 36.34375,-15.3125 c -0.54843,-24.09081 -7.12885,-51.55508 -42.59375,-76.40625 z m -68.46875,51.34375 -29.28125,21.96875 c 16.09135,13.595 23.57321,31.3385 29.5,49.8125 l 33.09375,-13.9375 c -3.45509,-21.41613 -11.56686,-41.53194 -33.3125,-57.84375 z m -57.25,42.96875 -1.25,0.9375 -0.28125,-0.15625 c 2.14151,17.78136 12.35983,30.62531 24.46875,42.5625 l 1,-0.4375 c -3.38792,-15.97459 -11.66436,-30.16264 -23.9375,-42.90625 z"
     style="fill:#000000;fill-opacity:1;fill-rule:evenodd;stroke:none"
     id="path1884"
     inkscape:connector-curvature="0" />
</svg>
