<?xml version="1.0" encoding="UTF-8" standalone="no"?>
<svg
   xmlns:dc="http://purl.org/dc/elements/1.1/"
   xmlns:cc="http://creativecommons.org/ns#"
   xmlns:rdf="http://www.w3.org/1999/02/22-rdf-syntax-ns#"
   xmlns:svg="http://www.w3.org/2000/svg"
   xmlns="http://www.w3.org/2000/svg"
   xmlns:sodipodi="http://sodipodi.sourceforge.net/DTD/sodipodi-0.dtd"
   xmlns:inkscape="http://www.inkscape.org/namespaces/inkscape"
   version="1.1"
   width="758.90997"
   height="667.65002"
   id="svg2"
   inkscape:version="0.48.1 r9760"
   sodipodi:docname="Zeichen_125.svg">
  <metadata
     id="metadata26">
    <rdf:RDF>
      <cc:Work
         rdf:about="">
        <dc:format>image/svg+xml</dc:format>
        <dc:type
           rdf:resource="http://purl.org/dc/dcmitype/StillImage" />
        <dc:title></dc:title>
      </cc:Work>
    </rdf:RDF>
  </metadata>
  <defs
     id="defs24" />
  <sodipodi:namedview
     pagecolor="#ffffff"
     bordercolor="#666666"
     borderopacity="1"
     objecttolerance="10"
     gridtolerance="10"
     guidetolerance="10"
     inkscape:pageopacity="0"
     inkscape:pageshadow="2"
     inkscape:window-width="937"
     inkscape:window-height="651"
     id="namedview22"
     showgrid="false"
     showguides="true"
     inkscape:guide-bbox="true"
     inkscape:snap-bbox="true"
     fit-margin-top="0"
     fit-margin-left="0"
     fit-margin-right="0"
     fit-margin-bottom="0"
     inkscape:zoom="1.1714352"
     inkscape:cx="478.50396"
     inkscape:cy="209.54095"
     inkscape:window-x="95"
     inkscape:window-y="0"
     inkscape:window-maximized="0"
     inkscape:current-layer="svg2" />
  <g
     transform="matrix(1.118133,0,0,1.118133,-41.591102,-41.60173)"
     id="g1875">
    <path
       inkscape:connector-curvature="0"
       d="m 71.985614,631.52918 c -11.4325,0 -21.99656,-6.09918 -27.71282,-16 -5.71624,-9.90085 -5.71624,-22.09918 0,-32 L 348.84719,55.99085 c 5.71626,-9.90083 16.28032,-16.00001 27.71281,-16.00001 11.43251,0 21.99659,6.09918 27.71283,16.00001 l 304.5744,527.53833 c 5.71624,9.90082 5.71624,22.09915 0,32 -5.71626,9.90081 -16.28032,16 -27.71282,16 l -609.148796,0 z"
       style="fill:#ffffff;fill-rule:evenodd;stroke:#000000;stroke-width:2"
       id="path6" />
    <path
       inkscape:connector-curvature="0"
       d="m 71.985614,619.52918 c -7.14532,0 -13.74786,-3.81198 -17.32052,-10 -3.57264,-6.18804 -3.57264,-13.81198 0,-20 L 359.23951,61.99086 c 3.57264,-6.18804 10.1752,-10.00002 17.32049,-10.00002 7.14533,0 13.74787,3.81198 17.32053,10.00002 l 304.5744,527.53832 c 3.57264,6.18802 3.57264,13.81196 0,20 -3.57266,6.18802 -10.1752,10 -17.32052,10 l -609.148796,0 z m 69.282086,-60 235.2923,-407.53833 235.29233,407.53833 -470.58463,0 z"
       style="fill:#c1121c;fill-opacity:1;fill-rule:evenodd;stroke:none"
       id="path8" />
  </g>
  <g
     style="fill:#000000;stroke:none"
     id="g12"
     transform="matrix(0.72,0,0,0.72,44.83702,178.13645)">
    <rect
       height="240"
       width="50"
       y="225"
       x="325"
       id="part1" />
    <polygon
       points="260,370 350,460 440,370 440,435 350,525 260,435 "
       id="part2" />
  </g>
  <g
     transform="matrix(-0.72,0,0,-0.72,695.98337,700.13645)"
     id="g3016"
     style="fill:#000000;stroke:none">
    <rect
       id="rect3018"
       x="325"
       y="225"
       width="50"
       height="240"
       style="fill:#000000" />
    <polygon
       id="polygon3020"
       points="440,370 440,435 350,525 260,435 260,370 350,460 "
       style="fill:#000000" />
  </g>
</svg>
