<?xml version="1.0" encoding="UTF-8" standalone="no"?>
<!-- Created with Inkscape (http://www.inkscape.org/) -->
<svg
   xmlns:svg="http://www.w3.org/2000/svg"
   xmlns="http://www.w3.org/2000/svg"
   version="1.0"
   width="753.12"
   height="671.52002"
   id="svg2">
  <defs
     id="defs11" />
  <g
     transform="matrix(1.118133,0,0,1.118133,-44.48418,-39.66434)"
     id="g1875">
    <path
       d="M 71.985614,631.52918 C 60.553114,631.52918 49.989054,625.43 44.272794,615.52918 C 38.556554,605.62833 38.556554,593.43 44.272794,583.52918 L 348.84719,55.99085 C 354.56345,46.09002 365.12751,39.99084 376.56,39.99084 C 387.99251,39.99084 398.55659,46.09002 404.27283,55.99085 L 708.84723,583.52918 C 714.56347,593.43 714.56347,605.62833 708.84723,615.52918 C 703.13097,625.42999 692.56691,631.52918 681.13441,631.52918 L 71.985614,631.52918 z "
       style="fill:white;fill-rule:evenodd;stroke:black;stroke-width:2"
       id="path6" />
    <path
       d="M 71.985614,619.52918 C 64.840294,619.52918 58.237754,615.7172 54.665094,609.52918 C 51.092454,603.34114 51.092454,595.7172 54.665094,589.52918 L 359.23951,61.99086 C 362.81215,55.80282 369.41471,51.99084 376.56,51.99084 C 383.70533,51.99084 390.30787,55.80282 393.88053,61.99086 L 698.45493,589.52918 C 702.02757,595.7172 702.02757,603.34114 698.45493,609.52918 C 694.88227,615.7172 688.27973,619.52918 681.13441,619.52918 L 71.985614,619.52918 z M 141.2677,559.52918 L 376.56,151.99085 L 611.85233,559.52918 L 141.2677,559.52918 z "
       style="fill:#c00;fill-rule:evenodd;stroke:none"
       id="path8" />
  </g>
  <g
     transform="matrix(-0.339445,-9.496738e-2,-9.496738e-2,0.339445,510.7242,410.7256)"
     id="layer1">
    <path
       d="M 640.23853,222.03787 C 640.23853,249.14264 618.26578,271.11539 591.16101,271.11539 C 564.05624,271.11539 542.08349,249.14264 542.08349,222.03787 C 542.08349,194.9331 564.05624,172.96035 591.16101,172.96035 C 618.26578,172.96035 640.23853,194.9331 640.23853,222.03787 L 640.23853,222.03787 z "
       transform="matrix(1.079545,0,0,1.079545,-521.3741,-27.12071)"
       style="opacity:1;fill:black;fill-opacity:1;fill-rule:nonzero;stroke:none;stroke-width:30;stroke-linecap:round;stroke-linejoin:round;stroke-miterlimit:4;stroke-dasharray:none;stroke-dashoffset:0;stroke-opacity:1"
       id="path25345" />
    <path
       d="M 285.83418,10.247082 C 288.65554,6.9807461 291.87058,4.1737036 297.80466,4.5388804 L 554.11195,4.5388804 L 681.49562,105.68157 C 682.90126,108.65248 683.61253,110.92902 683.96915,112.85091 L 684.45326,202.47755 C 682.08558,207.61498 679.30008,212.00034 674.33227,212.45753 L 644.76683,212.45753 C 644.76683,124.83077 515.22193,124.6518 515.22193,212.45753 L 182.38817,212.45753 C 182.38817,125.17065 51.857393,124.83574 51.857393,212.45753 L 15.791737,212.45753 C 12.71653,211.01909 9.9497784,212.35674 5.8866518,202.02701 L 5.492299,137.57457 C 7.5896054,131.71045 10.205427,129.47594 12.815364,127.20023 L 200.16379,96.077198 L 285.83418,10.247082 z "
       style="fill:black;fill-opacity:1;fill-rule:evenodd;stroke:none;stroke-width:1px;stroke-linecap:butt;stroke-linejoin:miter;stroke-opacity:1"
       id="path24454" />
    <path
       d="M 640.23853,222.03787 C 640.23853,249.14264 618.26578,271.11539 591.16101,271.11539 C 564.05624,271.11539 542.08349,249.14264 542.08349,222.03787 C 542.08349,194.9331 564.05624,172.96035 591.16101,172.96035 C 618.26578,172.96035 640.23853,194.9331 640.23853,222.03787 L 640.23853,222.03787 z "
       transform="matrix(1.079545,0,0,1.079545,-58.73586,-27.14299)"
       style="opacity:1;fill:black;fill-opacity:1;fill-rule:nonzero;stroke:none;stroke-width:30;stroke-linecap:round;stroke-linejoin:round;stroke-miterlimit:4;stroke-dasharray:none;stroke-dashoffset:0;stroke-opacity:1"
       id="path25343" />
    <path
       d="M 226.41173,97.07302 L 290.25519,34.075171 C 291.69464,32.851906 292.82676,31.167654 295.32884,31.538345 L 408.85181,31.538345 L 408.85181,108.70014 L 231.27398,108.70014 C 224.51388,106.03369 223.59914,101.99187 226.41173,97.07302 z "
       style="fill:white;fill-opacity:1;fill-rule:evenodd;stroke:none;stroke-width:1px;stroke-linecap:butt;stroke-linejoin:miter;stroke-opacity:1"
       id="path25349" />
    <path
       d="M 585.23723,89.186408 L 530.52565,34.0864 C 529.0862,32.863135 527.95408,31.178883 525.452,31.549574 L 429.94598,31.549574 L 429.94598,108.71136 L 592.71536,108.71136 C 600.41757,107.17544 590.2821,96.783985 585.23723,89.186408 z "
       style="fill:white;fill-opacity:1;fill-rule:evenodd;stroke:none;stroke-width:1px;stroke-linecap:butt;stroke-linejoin:miter;stroke-opacity:1"
       id="path26236" />
  </g>
  <path
     d="M 286.79499,455.92956 L 286.79499,578.88533 L 125.09423,578.88533 L 196.16251,455.92219 L 286.79499,455.92956 z "
     style="fill:black;fill-opacity:1;fill-rule:evenodd;stroke:none;stroke-width:1px;stroke-linecap:butt;stroke-linejoin:miter;stroke-opacity:1"
     id="path5595" />
  <path
     d="M 313.71875,525.15625 C 306.15692,525.17556 300.57881,527.71769 295.09375,530.6875 L 294.84375,546 C 305.64166,541.48899 316.50419,537.05159 334.21875,546 C 344.82812,549.74426 355.32281,553.8077 370.03125,546 C 382.88139,539.7403 396.12529,536.33775 411.25,546 C 421.36699,550.42091 431.80481,553.81518 445.875,546 C 452.23351,543.12923 458.61024,541.23738 464.96875,540.84375 C 470.56045,540.81757 476.86717,542.1759 484.4375,546 C 495.04687,549.74426 505.54154,553.8077 520.25,546 C 533.10014,539.7403 546.37528,536.33775 561.5,546 C 571.61699,550.42091 582.05479,553.81518 596.125,546 C 597.13284,546.24753 602.34723,543.49411 605.65625,541.75 C 606.32244,541.39888 601.27934,533.19469 599.3125,529.34375 C 585.82095,534.34368 572.52576,536.76786 560.5625,530.6875 C 546.68568,523.1339 533.78603,524.48668 521.4375,530.6875 C 509.17424,535.90082 497.54106,535.56701 486.40625,530.8125 L 486.40625,530.6875 C 485.47457,530.33639 484.57224,530.01955 483.65625,529.6875 C 464.34603,521.82014 454.70525,525.61883 445.34375,530.6875 L 445.34375,530.90625 C 433.26329,534.77877 420.94467,536.09134 410.3125,530.6875 C 396.43568,523.1339 383.53605,524.48668 371.1875,530.6875 C 358.81096,535.94898 347.0721,535.56841 335.84375,530.6875 C 326.66903,526.64966 319.60017,525.14123 313.71875,525.15625 z "
     style="fill:black;fill-opacity:1;fill-rule:evenodd;stroke:none;stroke-width:1px;stroke-linecap:butt;stroke-linejoin:miter;stroke-opacity:1"
     id="path5597" />
  <path
     d="M 314.12432,552.9482 C 306.56249,552.96751 300.98438,555.50964 295.49932,558.47945 L 295.24932,573.79195 C 306.04723,569.28094 316.90976,564.84354 334.62432,573.79195 C 345.23369,577.53621 355.72838,581.59965 370.43682,573.79195 C 383.28696,567.53225 396.53086,564.1297 411.65557,573.79195 C 421.77256,578.21286 432.21038,581.60713 446.28057,573.79195 C 452.63908,570.92118 459.01581,569.02933 465.37432,568.6357 C 470.96602,568.60952 477.27274,569.96785 484.84307,573.79195 C 495.45244,577.53621 505.94711,581.59965 520.65557,573.79195 C 533.50571,567.53225 546.78085,564.1297 561.90557,573.79195 C 572.02256,578.21286 582.46036,581.60713 596.53057,573.79195 C 597.53841,574.03948 602.50711,570.70623 606.06182,569.54195 C 613.94415,566.96025 623.07466,570.70165 620.9683,567.49344 C 618.87424,564.30396 614.95095,555.86648 613.14242,553.8703 C 611.92608,552.52776 602.81415,556.37499 599.71807,557.1357 C 586.22652,562.13563 572.93133,564.55981 560.96807,558.47945 C 547.09125,550.92585 534.1916,552.27863 521.84307,558.47945 C 509.57981,563.69277 497.94663,563.35896 486.81182,558.60445 L 486.81182,558.47945 C 485.88014,558.12834 484.97781,557.8115 484.06182,557.47945 C 464.7516,549.61209 455.11082,553.41078 445.74932,558.47945 L 445.74932,558.6982 C 433.66886,562.57072 421.35024,563.88329 410.71807,558.47945 C 396.84125,550.92585 383.94162,552.27863 371.59307,558.47945 C 359.21653,563.74093 347.47767,563.36036 336.24932,558.47945 C 327.0746,554.44161 320.00574,552.93318 314.12432,552.9482 z "
     style="fill:black;fill-opacity:1;fill-rule:evenodd;stroke:none;stroke-width:1px;stroke-linecap:butt;stroke-linejoin:miter;stroke-opacity:1"
     id="path5633" />
</svg>
