<?xml version="1.0" encoding="UTF-8" standalone="no"?>
<!-- Created with Inkscape (http://www.inkscape.org/) -->

<svg
   xmlns:dc="http://purl.org/dc/elements/1.1/"
   xmlns:cc="http://creativecommons.org/ns#"
   xmlns:rdf="http://www.w3.org/1999/02/22-rdf-syntax-ns#"
   xmlns:svg="http://www.w3.org/2000/svg"
   xmlns="http://www.w3.org/2000/svg"
   xmlns:sodipodi="http://sodipodi.sourceforge.net/DTD/sodipodi-0.dtd"
   xmlns:inkscape="http://www.inkscape.org/namespaces/inkscape"
   version="1.0"
   width="753.12"
   height="671.52002"
   id="svg2"
   inkscape:version="0.48.1 r9760"
   sodipodi:docname="Zeichen_134-10.svg">
  <metadata
     id="metadata17">
    <rdf:RDF>
      <cc:Work
         rdf:about="">
        <dc:format>image/svg+xml</dc:format>
        <dc:type
           rdf:resource="http://purl.org/dc/dcmitype/StillImage" />
      </cc:Work>
    </rdf:RDF>
  </metadata>
  <sodipodi:namedview
     pagecolor="#ffffff"
     bordercolor="#666666"
     borderopacity="1"
     objecttolerance="10"
     gridtolerance="10"
     guidetolerance="10"
     inkscape:pageopacity="0"
     inkscape:pageshadow="2"
     inkscape:window-width="640"
     inkscape:window-height="484"
     id="namedview15"
     showgrid="false"
     inkscape:zoom="0.3514415"
     inkscape:cx="376.56"
     inkscape:cy="335.76001"
     inkscape:window-x="0"
     inkscape:window-y="0"
     inkscape:window-maximized="0"
     inkscape:current-layer="svg2" />
  <defs
     id="defs11" />
  <g
     transform="matrix(1.118133,0,0,1.118133,-44.48418,-39.66434)"
     id="g1875">
    <path
       d="M 71.985614,631.52918 C 60.553114,631.52918 49.989054,625.43 44.272794,615.52918 C 38.556554,605.62833 38.556554,593.43 44.272794,583.52918 L 348.84719,55.99085 C 354.56345,46.09002 365.12751,39.99084 376.56,39.99084 C 387.99251,39.99084 398.55659,46.09002 404.27283,55.99085 L 708.84723,583.52918 C 714.56347,593.43 714.56347,605.62833 708.84723,615.52918 C 703.13097,625.42999 692.56691,631.52918 681.13441,631.52918 L 71.985614,631.52918 z "
       style="fill:white;fill-rule:evenodd;stroke:black;stroke-width:2"
       id="path6" />
    <path
       d="M 71.985614,619.52918 C 64.840294,619.52918 58.237754,615.7172 54.665094,609.52918 C 51.092454,603.34114 51.092454,595.7172 54.665094,589.52918 L 359.23951,61.99086 C 362.81215,55.80282 369.41471,51.99084 376.56,51.99084 C 383.70533,51.99084 390.30787,55.80282 393.88053,61.99086 L 698.45493,589.52918 C 702.02757,595.7172 702.02757,603.34114 698.45493,609.52918 C 694.88227,615.7172 688.27973,619.52918 681.13441,619.52918 L 71.985614,619.52918 z M 141.2677,559.52918 L 376.56,151.99085 L 611.85233,559.52918 L 141.2677,559.52918 z "
       style="fill:#c1121c;fill-rule:evenodd;stroke:none;fill-opacity:1"
       id="path8" />
  </g>
  <path
     d="M 391.12255 247.58382 A 21.841908 21.841908 0 1 1  347.43873,247.58382 A 21.841908 21.841908 0 1 1  391.12255 247.58382 z"
     transform="matrix(1.153488,0,0,1.153488,-57.18824,-47.65231)"
     style="opacity:1;fill:black;fill-opacity:1;fill-rule:nonzero;stroke:none;stroke-width:7;stroke-linecap:round;stroke-linejoin:round;stroke-miterlimit:4;stroke-dasharray:none;stroke-dashoffset:0;stroke-opacity:1"
     id="path5663" />
  <path
     d="M 168.20868,564.09605 L 223.85088,564.09605 L 263.39213,474.61408 L 221.52717,474.61408 L 168.20868,564.09605 z "
     style="fill:black;fill-opacity:1;fill-rule:evenodd;stroke:none;stroke-width:1px;stroke-linecap:butt;stroke-linejoin:miter;stroke-opacity:1"
     id="path5645" />
  <path
     d="M 258.09701,564.50241 L 313.16782,564.50241 L 321.6881,518.92963 C 303.94176,529.34316 291.90589,525.49412 280.63586,519.09466 L 305.21893,474.53778 L 288.17838,474.53778 L 258.09701,564.50241 z "
     style="fill:black;fill-opacity:1;fill-rule:evenodd;stroke:none;stroke-width:1px;stroke-linecap:butt;stroke-linejoin:miter;stroke-opacity:1"
     id="path5647" />
  <path
     d="M 348.51858,564.09605 L 405.10038,564.09605 L 396.58011,474.4109 L 356.30244,474.4109 L 348.51858,564.09605 z "
     style="fill:black;fill-opacity:1;fill-rule:evenodd;stroke:none;stroke-width:1px;stroke-linecap:butt;stroke-linejoin:miter;stroke-opacity:1"
     id="path5649" />
  <path
     d="M 438.85142,564.26108 L 494.95056,564.66744 L 463.56138,473.96639 L 457.32667,474.77911 C 465.44479,491.91024 473.81974,510.76848 443.58758,527.66551 L 429.60227,501.41289 L 427.72796,499.97172 L 438.85142,564.26108 z "
     style="fill:black;fill-opacity:1;fill-rule:evenodd;stroke:none;stroke-width:1px;stroke-linecap:butt;stroke-linejoin:miter;stroke-opacity:1"
     id="path5651" />
  <path
     d="M 530.04757,564.66744 L 585.2071,564.66744 L 530.41578,474.00454 L 489.52857,474.4109 L 530.04757,564.66744 z "
     style="fill:black;fill-opacity:1;fill-rule:evenodd;stroke:none;stroke-width:1px;stroke-linecap:butt;stroke-linejoin:miter;stroke-opacity:1"
     id="path5653" />
  <path
     d="M 356.30244,387.59257 L 406.36943,387.59257 L 406.6009,392.09908 L 459.74508,491.64476 C 460.78512,507.9173 453.37536,514.1557 445.95273,520.37882 L 381.58842,401.99446 L 319.52283,512.90797 C 301.98336,524.00988 295.53399,519.35218 287.91536,516.35605 L 355.82869,392.99113 L 356.30244,387.59257 z "
     style="fill:black;fill-opacity:1;fill-rule:evenodd;stroke:none;stroke-width:1px;stroke-linecap:butt;stroke-linejoin:miter;stroke-opacity:1"
     id="path5659" />
  <path
     d="M 293.59588,377.11142 L 356.37867,282.83564 C 364.03192,272.67677 375.57167,267.6999 394.57661,272.67662 L 444.15266,313.31273 L 449.43536,323.06539 L 449.43536,362.07606 C 444.63074,372.27526 437.76225,379.20666 426.47596,379.14322 L 426.47596,328.95763 L 406.76744,311.4841 L 406.76744,381.98775 L 355.76913,381.98775 L 355.76913,325.50356 L 320.61889,376.90823 C 310.49068,382.57864 301.03125,384.90517 293.59588,377.11142 z "
     style="fill:black;fill-opacity:1;fill-rule:evenodd;stroke:none;stroke-width:1px;stroke-linecap:butt;stroke-linejoin:miter;stroke-opacity:1"
     id="path5661" />
</svg>
