<?xml version="1.0" encoding="UTF-8" standalone="no"?>
<!-- Created with Inkscape (http://www.inkscape.org/) -->

<svg
   xmlns:dc="http://purl.org/dc/elements/1.1/"
   xmlns:cc="http://creativecommons.org/ns#"
   xmlns:rdf="http://www.w3.org/1999/02/22-rdf-syntax-ns#"
   xmlns:svg="http://www.w3.org/2000/svg"
   xmlns="http://www.w3.org/2000/svg"
   xmlns:sodipodi="http://sodipodi.sourceforge.net/DTD/sodipodi-0.dtd"
   xmlns:inkscape="http://www.inkscape.org/namespaces/inkscape"
   version="1.0"
   width="753.12"
   height="671.52002"
   id="svg2"
   inkscape:version="0.48.1 r9760"
   sodipodi:docname="Zeichen_140-10.svg">
  <metadata
     id="metadata11">
    <rdf:RDF>
      <cc:Work
         rdf:about="">
        <dc:format>image/svg+xml</dc:format>
        <dc:type
           rdf:resource="http://purl.org/dc/dcmitype/StillImage" />
      </cc:Work>
    </rdf:RDF>
  </metadata>
  <sodipodi:namedview
     pagecolor="#ffffff"
     bordercolor="#666666"
     borderopacity="1"
     objecttolerance="10"
     gridtolerance="10"
     guidetolerance="10"
     inkscape:pageopacity="0"
     inkscape:pageshadow="2"
     inkscape:window-width="640"
     inkscape:window-height="484"
     id="namedview9"
     showgrid="false"
     inkscape:zoom="0.3514415"
     inkscape:cx="376.56"
     inkscape:cy="335.76001"
     inkscape:window-x="0"
     inkscape:window-y="0"
     inkscape:window-maximized="0"
     inkscape:current-layer="svg2" />
  <defs
     id="defs11" />
  <g
     transform="matrix(1.118133,0,0,1.118133,-44.48418,-39.66434)"
     id="g1875">
    <path
       d="M 71.985614,631.52918 C 60.553114,631.52918 49.989054,625.43 44.272794,615.52918 C 38.556554,605.62833 38.556554,593.43 44.272794,583.52918 L 348.84719,55.99085 C 354.56345,46.09002 365.12751,39.99084 376.56,39.99084 C 387.99251,39.99084 398.55659,46.09002 404.27283,55.99085 L 708.84723,583.52918 C 714.56347,593.43 714.56347,605.62833 708.84723,615.52918 C 703.13097,625.42999 692.56691,631.52918 681.13441,631.52918 L 71.985614,631.52918 z "
       style="fill:white;fill-rule:evenodd;stroke:black;stroke-width:2"
       id="path6" />
    <path
       d="M 71.985614,619.52918 C 64.840294,619.52918 58.237754,615.7172 54.665094,609.52918 C 51.092454,603.34114 51.092454,595.7172 54.665094,589.52918 L 359.23951,61.99086 C 362.81215,55.80282 369.41471,51.99084 376.56,51.99084 C 383.70533,51.99084 390.30787,55.80282 393.88053,61.99086 L 698.45493,589.52918 C 702.02757,595.7172 702.02757,603.34114 698.45493,609.52918 C 694.88227,615.7172 688.27973,619.52918 681.13441,619.52918 L 71.985614,619.52918 z M 141.2677,559.52918 L 376.56,151.99085 L 611.85233,559.52918 L 141.2677,559.52918 z "
       style="fill:#c1121c;fill-rule:evenodd;stroke:none;fill-opacity:1"
       id="path8" />
  </g>
  <g
     transform="matrix(0.559931,0,0,0.559931,234.259,376.2467)"
     style="fill:black"
     id="layer1">
    <path
       d="M 0,107.46706 C 2.6406914,100.7933 50.773488,53.053348 78.505879,27.72301 L 30.247665,3.050815 L 93.792453,2.926998 L 112.74757,23.138076 L 129.41392,6.5673646 C 135.97495,12.87042 135.92319,27.78109 129.66155,43.812541 L 212.56479,55.197028 L 483.37841,55.027243 C 489.07662,58.144853 503.82382,55.371694 510.55882,84.220611 L 510.69673,194.62974 L 518.92203,204.91396 C 514.46061,218.13141 510.29531,231.71901 504.58003,243.36914 C 498.76012,233.01359 494.50125,219.09378 493.63075,200.15925 L 493.46096,82.12981 C 488.11829,74.007569 481.80193,68.968661 472.52108,73.317306 C 476.38297,79.87317 479.81006,86.663156 479.44445,95.495368 L 479.56827,346.80894 L 448.62366,346.93275 C 463.67595,309.05339 454.22451,271.3084 424.43265,236.3998 L 377.04115,347.0106 L 347.64612,347.0106 C 357.70692,330.60416 369.4145,316.83256 371.61077,287.84288 C 371.13578,258.92453 367.3052,232.30538 349.1638,215.49179 L 261.35015,230.82433 L 270.58008,346.88678 L 240.73575,346.97871 C 251.70918,312.74347 239.80505,269.95579 218.83719,245.45994 L 205.5176,347.0106 L 174.57301,346.93275 C 216.5578,238.86207 152.61888,185.07857 105.60844,129.04013 L 22.008277,128.94818 C 11.283857,126.30558 5.1805853,117.50144 0,107.46706 z "
       style="fill:black;fill-opacity:1;fill-rule:evenodd;stroke:none;stroke-width:1px;stroke-linecap:butt;stroke-linejoin:miter;stroke-opacity:1"
       id="path33566" />
  </g>
</svg>
