<?xml version="1.0" encoding="UTF-8" standalone="no"?>
<!-- Created with Inkscape (http://www.inkscape.org/) -->

<svg
   xmlns:dc="http://purl.org/dc/elements/1.1/"
   xmlns:cc="http://creativecommons.org/ns#"
   xmlns:rdf="http://www.w3.org/1999/02/22-rdf-syntax-ns#"
   xmlns:svg="http://www.w3.org/2000/svg"
   xmlns="http://www.w3.org/2000/svg"
   xmlns:sodipodi="http://sodipodi.sourceforge.net/DTD/sodipodi-0.dtd"
   xmlns:inkscape="http://www.inkscape.org/namespaces/inkscape"
   version="1.0"
   width="753.12"
   height="671.52002"
   id="svg2"
   inkscape:version="0.48.1 r9760"
   sodipodi:docname="Zeichen_142-10.svg">
  <metadata
     id="metadata10">
    <rdf:RDF>
      <cc:Work
         rdf:about="">
        <dc:format>image/svg+xml</dc:format>
        <dc:type
           rdf:resource="http://purl.org/dc/dcmitype/StillImage" />
      </cc:Work>
    </rdf:RDF>
  </metadata>
  <sodipodi:namedview
     pagecolor="#ffffff"
     bordercolor="#666666"
     borderopacity="1"
     objecttolerance="10"
     gridtolerance="10"
     guidetolerance="10"
     inkscape:pageopacity="0"
     inkscape:pageshadow="2"
     inkscape:window-width="640"
     inkscape:window-height="484"
     id="namedview8"
     showgrid="false"
     inkscape:zoom="0.3514415"
     inkscape:cx="376.56"
     inkscape:cy="335.76001"
     inkscape:window-x="0"
     inkscape:window-y="0"
     inkscape:window-maximized="0"
     inkscape:current-layer="svg2" />
  <defs
     id="defs11" />
  <g
     transform="matrix(1.118133,0,0,1.118133,-44.48418,-39.66434)"
     id="g1875">
    <path
       d="M 71.985614,631.52918 C 60.553114,631.52918 49.989054,625.43 44.272794,615.52918 C 38.556554,605.62833 38.556554,593.43 44.272794,583.52918 L 348.84719,55.99085 C 354.56345,46.09002 365.12751,39.99084 376.56,39.99084 C 387.99251,39.99084 398.55659,46.09002 404.27283,55.99085 L 708.84723,583.52918 C 714.56347,593.43 714.56347,605.62833 708.84723,615.52918 C 703.13097,625.42999 692.56691,631.52918 681.13441,631.52918 L 71.985614,631.52918 z "
       style="fill:white;fill-rule:evenodd;stroke:black;stroke-width:2"
       id="path6" />
    <path
       d="M 71.985614,619.52918 C 64.840294,619.52918 58.237754,615.7172 54.665094,609.52918 C 51.092454,603.34114 51.092454,595.7172 54.665094,589.52918 L 359.23951,61.99086 C 362.81215,55.80282 369.41471,51.99084 376.56,51.99084 C 383.70533,51.99084 390.30787,55.80282 393.88053,61.99086 L 698.45493,589.52918 C 702.02757,595.7172 702.02757,603.34114 698.45493,609.52918 C 694.88227,615.7172 688.27973,619.52918 681.13441,619.52918 L 71.985614,619.52918 z M 141.2677,559.52918 L 376.56,151.99085 L 611.85233,559.52918 L 141.2677,559.52918 z "
       style="fill:#c1121c;fill-rule:evenodd;stroke:none;fill-opacity:1"
       id="path8" />
  </g>
  <path
     d="M 293.21959,325.5209 L 329.96978,315.35595 L 339.35281,307.92772 L 351.08159,283.29728 C 353.27934,280.90801 355.50684,278.31796 356.55503,283.68824 L 352.64543,304.01813 L 357.91848,301.95964 C 365.42107,294.94537 367.95645,284.8266 372.97532,276.26001 L 376.88492,276.65097 L 373.75724,291.89838 L 376.103,293.46222 C 383.44784,287.69479 387.63208,280.66313 390.5685,273.13233 C 392.05243,273.13421 393.24033,271.21192 395.26001,274.69617 C 395.18636,283.48804 391.64346,290.35255 386.26795,296.19894 L 351.47255,316.91979 L 351.86351,318.87459 L 373.75724,319.65651 C 371.52104,324.19694 368.09373,327.54626 363.20134,329.43049 L 354.60023,331.38529 C 359.93957,361.94437 370.52203,388.435 391.35042,399.8032 L 482.83493,427.17036 C 496.9318,434.56658 516.74462,437.10424 507.07442,464.70247 L 507.07442,475.25837 C 511.41207,487.8053 519.46499,499.62981 538.74214,509.27184 L 557.50819,546.41299 C 561.01191,549.55272 560.71332,552.66884 570.64425,553.91821 L 573.69495,574.01542 C 555.1299,567.31484 542.21339,548.9137 529.35911,530.38365 C 515.10251,520.90764 499.20744,516.29987 484.16351,510.36687 C 463.95814,496.27736 458.65518,485.23607 456.64065,474.86741 C 425.49874,472.74719 394.28452,471.18746 364.76518,456.49232 L 361.6375,462.35671 L 312.37661,449.45505 C 319.2755,457.23501 317.76718,473.18866 338.17993,467.83014 L 349.1268,486.20524 C 335.33332,485.16641 321.40948,484.93579 309.63989,471.34878 L 291.2648,438.50818 C 290.09569,433.57811 292.09262,430.35283 296.34727,428.34324 L 342.79015,437.17702 C 337.85584,433.26962 335.98637,427.61089 333.87938,422.08788 L 324.88731,345.45983 L 292.43768,336.46776 L 293.21959,325.5209 z "
     style="fill:black;fill-opacity:1;fill-rule:evenodd;stroke:none;stroke-width:1px;stroke-linecap:butt;stroke-linejoin:miter;stroke-opacity:1"
     id="path5712" />
</svg>
