<?xml version="1.0" encoding="UTF-8" standalone="no"?>
<svg xmlns:svg="http://www.w3.org/2000/svg" xmlns="http://www.w3.org/2000/svg" version="1.0" width="753.12" height="1400">
  <title>Zeichen 156 – dreistreifige Bake (rechts) vor unbeschranktem Bahnübergang</title>
  <g id="sign1">
    <path d="M 71.985614,631.52918 C 60.553114,631.52918 49.989054,625.43 44.272794,615.52918 C 38.556554,605.62833 38.556554,593.43 44.272794,583.52918 L 348.84719,55.99085 C 354.56345,46.09002 365.12751,39.99084 376.56,39.99084 C 387.99251,39.99084 398.55659,46.09002 404.27283,55.99085 L 708.84723,583.52918 C 714.56347,593.43 714.56347,605.62833 708.84723,615.52918 C 703.13097,625.42999 692.56691,631.52918 681.13441,631.52918 L 71.985614,631.52918 z "
          transform="matrix(1.118133,0,0,1.118133,-44.48418,-39.66434)"
          style="fill:white;fill-rule:evenodd;stroke:black;stroke-width:2" />
    <path d="M 71.985614,619.52918 C 64.840294,619.52918 58.237754,615.7172 54.665094,609.52918 C 51.092454,603.34114 51.092454,595.7172 54.665094,589.52918 L 359.23951,61.99086 C 362.81215,55.80282 369.41471,51.99084 376.56,51.99084 C 383.70533,51.99084 390.30787,55.80282 393.88053,61.99086 L 698.45493,589.52918 C 702.02757,595.7172 702.02757,603.34114 698.45493,609.52918 C 694.88227,615.7172 688.27973,619.52918 681.13441,619.52918 L 71.985614,619.52918 z M 141.2677,559.52918 L 376.56,151.99085 L 611.85233,559.52918 L 141.2677,559.52918 z "
          transform="matrix(1.118133,0,0,1.118133,-44.48418,-39.66434)"
          style="fill:#C00;fill-rule:evenodd;stroke:none" />
    <g transform="matrix(0.724525,0,0,0.724525,241.5422,314.7778)" id="trainsymbol">
      <g transform="matrix(1.678818,0,0,1.678818,-1258.525,-55.28905)">
        <path
           d="M 1009.2409,214.27547 L 778.51034,214.27547 C 767.62857,214.27547 754.64651,197.1834 754.64651,186.04954 C 754.40757,167.2221 755.3126,148.96663 755.91728,130.561 C 758.8462,109.58406 766.90603,90.391773 774.90005,71.176601 C 776.86018,67.160472 779.21612,63.236208 784.00517,63.236208 L 867.61359,63.236208 C 875.20749,66.657776 883.41863,69.267175 886.87666,78.130673 C 910.87184,137.18871 958.2811,165.41624 1012.6455,175.37682 L 1012.688,211.1328 C 1012.688,212.54459 1010.7322,214.27547 1009.2409,214.27547 z "
           style="fill:black;fill-opacity:1;fill-rule:evenodd;stroke:none;stroke-width:1px;stroke-linecap:butt;stroke-linejoin:miter;stroke-opacity:1"
           id="path2251" />
        <path
           d="M 793.875,37.03125 C 790.72173,37.03125 790.81823,43.156249 793.875,43.15625 L 807.46875,43.15625 C 818.96113,47.799678 825.74527,54.403373 828.90625,63.28125 L 834.125,63.28125 L 834.125,63.25 L 839.28125,63.25 C 842.44212,54.37242 849.22708,47.799652 860.71875,43.15625 L 874,43.15625 C 877.27802,43.15625 876.78185,37.03125 874,37.03125 L 793.875,37.03125 z M 821.53125,43.15625 L 846.59375,43.15625 C 841.19066,47.706706 835.34374,52.334774 835.34375,59.4375 L 834.125,59.4375 L 832.84375,59.4375 C 832.84372,52.31253 826.94842,47.720599 821.53125,43.15625 z "
           style="fill:black;fill-opacity:1;fill-rule:evenodd;stroke:none;stroke-width:1px;stroke-linecap:butt;stroke-linejoin:miter;stroke-opacity:1"
           id="path2253" />
        <path
           d="M 770.43133,114.13629 L 875.52,114.13629 C 878.07188,114.13629 879.0233,108.86338 877.81594,105.56774 C 874.02206,95.426493 869.39273,75.603781 864.13539,75.603781 L 783.34848,75.603781 C 778.97076,75.603781 773.13152,95.745774 768.02304,105.81677 C 767.00828,109.81958 768.01345,114.13629 770.43133,114.13629 z "
           style="fill:white;fill-opacity:1;fill-rule:evenodd;stroke:none;stroke-width:1px;stroke-linecap:butt;stroke-linejoin:miter;stroke-opacity:1"
           id="path2260" />
        <path
           d="M 787.9841,164.9391 C 787.9841,170.24006 783.68682,174.53733 778.38587,174.53733 C 773.08491,174.53733 768.78763,170.24006 768.78763,164.9391 C 768.78763,159.63814 773.08491,155.34087 778.38587,155.34087 C 783.68682,155.34087 787.9841,159.63814 787.9841,164.9391 z "
           transform="translate(1.548102,-0.619241)"
           style="opacity:1;fill:white;fill-opacity:1;fill-rule:nonzero;stroke:none;stroke-width:2;stroke-linecap:round;stroke-linejoin:round;stroke-miterlimit:4;stroke-dasharray:none;stroke-dashoffset:0;stroke-opacity:1"
           id="path2265" />
        <path
           d="M 787.9841,164.9391 C 787.9841,170.24006 783.68682,174.53733 778.38587,174.53733 C 773.08491,174.53733 768.78763,170.24006 768.78763,164.9391 C 768.78763,159.63814 773.08491,155.34087 778.38587,155.34087 C 783.68682,155.34087 787.9841,159.63814 787.9841,164.9391 z "
           transform="translate(80.81094,-0.619236)"
           style="opacity:1;fill:white;fill-opacity:1;fill-rule:nonzero;stroke:none;stroke-width:2;stroke-linecap:round;stroke-linejoin:round;stroke-miterlimit:4;stroke-dasharray:none;stroke-dashoffset:0;stroke-opacity:1"
           id="path2267" />
        <path
           d="M 913.61464,136.35817 L 913.61464,171.27826 L 897.63241,163.94395 C 896.11238,149.20714 895.97165,134.19446 895.88093,119.17179 C 901.79166,124.90194 908.13437,132.76415 913.61464,136.35817 z "
           style="fill:white;fill-opacity:1;fill-rule:evenodd;stroke:none;stroke-width:1px;stroke-linecap:butt;stroke-linejoin:miter;stroke-opacity:1"
           id="path2271" />
        <path
           d="M 937.80693,155.40549 L 938.04009,182.28151 L 922.75735,175.87984 C 922.40312,161.14303 922.8453,159.53714 922.75458,144.51447 C 929.36479,150.12804 932.0935,151.22857 937.80693,155.40549 z "
           style="fill:white;fill-opacity:1;fill-rule:evenodd;stroke:none;stroke-width:1px;stroke-linecap:butt;stroke-linejoin:miter;stroke-opacity:1"
           id="path2273" />
        <path
           d="M 945.69493,160.17743 L 945.69493,184.16603 C 950.07313,186.52004 955.14,187.77217 960.61567,188.37022 L 960.61567,166.27763 L 945.69493,160.17743 z "
           style="fill:white;fill-opacity:1;fill-rule:evenodd;stroke:none;stroke-width:1px;stroke-linecap:butt;stroke-linejoin:miter;stroke-opacity:1"
           id="path2275" />
        <path
           d="M 966.7983,169.24529 L 966.7983,190.18379 C 970.62585,191.67422 974.62319,192.14594 978.66895,192.3271 L 978.66895,172.29538 L 966.7983,169.24529 z "
           style="fill:white;fill-opacity:1;fill-rule:evenodd;stroke:none;stroke-width:1px;stroke-linecap:butt;stroke-linejoin:miter;stroke-opacity:1"
           id="path2277" />
        <path
           d="M 984.76914,174.35626 L 984.76914,193.15145 C 987.91261,194.03102 991.13362,194.5229 994.49648,194.30554 L 994.49648,176.25227 L 984.76914,174.35626 z "
           style="fill:white;fill-opacity:1;fill-rule:evenodd;stroke:none;stroke-width:1px;stroke-linecap:butt;stroke-linejoin:miter;stroke-opacity:1"
           id="path2279" />

        <path
           d="M 999.68988,177.24149 L 999.68988,195.04746 L 1007.5212,196.36642 L 1007.5212,178.31314 L 999.68988,177.24149 z "
           style="fill:white;fill-opacity:1;fill-rule:evenodd;stroke:none;stroke-width:1px;stroke-linecap:butt;stroke-linejoin:miter;stroke-opacity:1"
           id="path2281" />
        <path
           d="M 754.65511,229.21337 L 774.58951,229.21337 L 774.58951,219.23069 L 804.62563,219.23069 L 804.62563,229.09314 L 848.63107,229.09314 L 848.63107,219.20093 L 1012.7369,219.20093 L 1012.7369,229.24313 C 966.49324,230.93241 919.38423,232.25082 894.91493,243.27197 L 754.62535,243.27197 L 754.65511,229.21337 z "
           style="fill:black;fill-opacity:1;fill-rule:evenodd;stroke:none;stroke-width:1px;stroke-linecap:butt;stroke-linejoin:miter;stroke-opacity:1"
           id="path2283" />
      </g>
    </g>
  </g>
  <g id="sign2">
    <rect width="215.51418" height="718.8183" rx="25" ry="25" x="268.6907" y="674.6825"
          style="fill:white;fill-opacity:1;stroke:black;stroke-width:2px;stroke-linecap:round;stroke-linejoin:round;stroke-dasharray:none;stroke-opacity:1" />
    <path d="M 469.94184,851.95329 L 283.12962,958.57295 L 283.12962,1036.943 L 471.7644,926.67818 L 469.94184,851.95329 z "
          style="fill:#c00;fill-opacity:1;fill-rule:evenodd;stroke:none;stroke-width:1px;stroke-linecap:butt;stroke-linejoin:miter;stroke-opacity:1" />
    <path d="M 470.4862,1009.1489 L 283.67398,1115.7686 L 283.67398,1194.1386 L 472.30876,1083.8738 L 470.4862,1009.1489 z "
          style="fill:#c00;fill-opacity:1;fill-rule:evenodd;stroke:none;stroke-width:1px;stroke-linecap:butt;stroke-linejoin:miter;stroke-opacity:1" />
    <path d="M 470.4862,1168.1671 L 283.67398,1274.7868 L 283.67398,1353.1568 L 472.30876,1242.892 L 470.4862,1168.1671 z "
          style="fill:#c00;fill-opacity:1;fill-rule:evenodd;stroke:none;stroke-width:1px;stroke-linecap:butt;stroke-linejoin:miter;stroke-opacity:1" />
    <rect width="192.30368" height="695.0387" rx="12" ry="12" x="280.64328" y="687.01025"
          style="fill:none;stroke:black;stroke-width:7px;stroke-linecap:round;stroke-linejoin:round;stroke-dasharray:none;stroke-opacity:1" />
  </g>
</svg>
