<?xml version="1.0" encoding="UTF-8" standalone="no"?>
<svg
   xmlns:dc="http://purl.org/dc/elements/1.1/"
   xmlns:cc="http://creativecommons.org/ns#"
   xmlns:rdf="http://www.w3.org/1999/02/22-rdf-syntax-ns#"
   xmlns:svg="http://www.w3.org/2000/svg"
   xmlns="http://www.w3.org/2000/svg"
   xmlns:sodipodi="http://sodipodi.sourceforge.net/DTD/sodipodi-0.dtd"
   xmlns:inkscape="http://www.inkscape.org/namespaces/inkscape"
   width="702.5"
   height="702.5"
   viewBox="-362 -362 702.5 702.5"
   id="svg2"
   version="1.1"
   inkscape:version="0.48.1 r9760"
   sodipodi:docname="Zeichen_209-30.svg">
  <metadata
     id="metadata16">
    <rdf:RDF>
      <cc:Work
         rdf:about="">
        <dc:format>image/svg+xml</dc:format>
        <dc:type
           rdf:resource="http://purl.org/dc/dcmitype/StillImage" />
      </cc:Work>
    </rdf:RDF>
  </metadata>
  <defs
     id="defs14" />
  <sodipodi:namedview
     pagecolor="#ffffff"
     bordercolor="#666666"
     borderopacity="1"
     objecttolerance="10"
     gridtolerance="10"
     guidetolerance="10"
     inkscape:pageopacity="0"
     inkscape:pageshadow="2"
     inkscape:window-width="640"
     inkscape:window-height="484"
     id="namedview12"
     showgrid="false"
     fit-margin-top="0"
     fit-margin-left="0"
     fit-margin-right="0"
     fit-margin-bottom="0"
     inkscape:zoom="0.32551724"
     inkscape:cx="351.75"
     inkscape:cy="350.75"
     inkscape:window-x="0"
     inkscape:window-y="0"
     inkscape:window-maximized="0"
     inkscape:current-layer="svg2" />
  <g
     id="g4"
     style="fill:#ffffff"
     transform="translate(-10.75,-10.75)">
    <circle
       r="350"
       id="circle6"
       cx="0"
       cy="0"
       sodipodi:cx="0"
       sodipodi:cy="0"
       sodipodi:rx="350"
       sodipodi:ry="350"
       style="stroke:#000000;stroke-width:2.5"
       d="M 350,0 C 350,193.29966 193.29966,350 0,350 -193.29966,350 -350,193.29966 -350,0 c 0,-193.29966 156.70034,-350 350,-350 193.29966,0 350,156.70034 350,350 z" />
    <circle
       r="328"
       id="circle8"
       cx="0"
       cy="0"
       sodipodi:cx="0"
       sodipodi:cy="0"
       sodipodi:rx="328"
       sodipodi:ry="328"
       style="fill:#154889;fill-opacity:1"
       d="M 328,0 C 328,181.1494 181.1494,328 0,328 -181.1494,328 -328,181.1494 -328,0 c 0,-181.1494 146.8506,-328 328,-328 181.1494,0 328,146.8506 328,328 z" />
    <path
       d="m 0,-264 -163,163 V -9 L -38,-134 V 266 H 36 V -134 L 161,-9 v -92"
       id="path10"
       inkscape:connector-curvature="0" />
  </g>
</svg>
