<?xml version="1.0" encoding="UTF-8" standalone="no"?>
<!-- Created with Inkscape (http://www.inkscape.org/) -->

<svg
   xmlns:dc="http://purl.org/dc/elements/1.1/"
   xmlns:cc="http://creativecommons.org/ns#"
   xmlns:rdf="http://www.w3.org/1999/02/22-rdf-syntax-ns#"
   xmlns:svg="http://www.w3.org/2000/svg"
   xmlns="http://www.w3.org/2000/svg"
   xmlns:sodipodi="http://sodipodi.sourceforge.net/DTD/sodipodi-0.dtd"
   xmlns:inkscape="http://www.inkscape.org/namespaces/inkscape"
   version="1.0"
   width="480"
   height="480"
   id="svg2"
   inkscape:version="0.48.1 r9760"
   sodipodi:docname="Zeichen_223.3.svg">
  <metadata
     id="metadata13">
    <rdf:RDF>
      <cc:Work
         rdf:about="">
        <dc:format>image/svg+xml</dc:format>
        <dc:type
           rdf:resource="http://purl.org/dc/dcmitype/StillImage" />
      </cc:Work>
    </rdf:RDF>
  </metadata>
  <sodipodi:namedview
     pagecolor="#ffffff"
     bordercolor="#666666"
     borderopacity="1"
     objecttolerance="10"
     gridtolerance="10"
     guidetolerance="10"
     inkscape:pageopacity="0"
     inkscape:pageshadow="2"
     inkscape:window-width="640"
     inkscape:window-height="484"
     id="namedview11"
     showgrid="false"
     inkscape:zoom="0.49166667"
     inkscape:cx="240"
     inkscape:cy="240"
     inkscape:window-x="0"
     inkscape:window-y="0"
     inkscape:window-maximized="0"
     inkscape:current-layer="svg2" />
  <defs
     id="defs4" />
  <g
     id="layer1">
    <path
       d="M 459.88133,470.56878 C 347.54851,470.56878 135.61431,470.53239 21.196637,470.54862 C 14.992682,470.54956 9.5845151,464.75475 9.5051374,460.43651 L 9.4845292,21.199304 C 9.4845292,15.845684 14.028691,9.493764 21.069546,9.493764 L 458.3981,9.4312236 C 465.26696,9.4312236 470.48361,15.053392 470.48361,21.783544 L 470.51547,460.33871 C 470.51547,465.30612 464.53164,470.56878 459.88133,470.56878 z "
       style="fill:white;fill-opacity:1;fill-rule:evenodd;stroke:black;stroke-width:0.75669003;stroke-linecap:butt;stroke-linejoin:miter;stroke-miterlimit:4;stroke-dasharray:none;stroke-opacity:1"
       id="path9154" />
    <path
       d="M 459.12142,462.54764 L 20.883413,462.52819 C 19.531572,462.52819 17.605994,460.98012 17.605994,459.74074 L 17.58611,20.778092 C 17.58611,19.519793 18.86897,17.640326 20.224621,17.640326 L 459.75829,17.656557 C 461.17686,17.656557 462.42021,19.482904 462.42021,20.843962 L 462.45093,459.30171 C 462.45093,460.80124 460.23625,462.54764 459.12142,462.54764 z "
       style="fill:#154889;fill-opacity:1;fill-rule:evenodd;stroke:none;stroke-width:1px;stroke-linecap:butt;stroke-linejoin:miter;stroke-opacity:1"
       id="path9156" />
    <path
       d="M 89.8047,70.953374 L 89.8047,70.987992 L 60.475865,114.68412 C 59.058974,118.14704 62.810681,120.83351 64.999532,120.15983 L 79.909174,116.35739 L 79.972645,116.35739 L 79.914947,409.39766 L 99.73485,409.39766 L 99.73485,116.34585 L 114.63295,120.14829 C 116.8218,120.82197 120.56773,118.12971 119.15085,114.66679 L 89.822009,70.976453 L 89.822009,70.964913 L 89.81624,70.970702 L 89.8047,70.953374 z "
       style="fill:white;fill-opacity:1;fill-rule:evenodd;stroke:none;stroke-width:1px;stroke-linecap:butt;stroke-linejoin:miter;stroke-opacity:1"
       id="path9158" />
    <path
       d="M 197.26437,70.893444 L 197.26437,70.928063 L 167.93552,114.62419 C 166.51864,118.08711 170.27035,120.77358 172.45919,120.0999 L 187.36884,116.29746 L 187.43231,116.29746 L 187.37462,409.33773 L 207.19451,409.33773 L 207.19451,116.28592 L 222.09261,120.08836 C 224.28148,120.76204 228.0274,118.06978 226.61052,114.60686 L 197.28167,70.916523 L 197.28167,70.904984 L 197.27591,70.910772 L 197.26437,70.893444 z "
       style="fill:white;fill-opacity:1;fill-rule:evenodd;stroke:none;stroke-width:1px;stroke-linecap:butt;stroke-linejoin:miter;stroke-opacity:1"
       id="path9161" />
    <path
       d="M 334.75,154.125 L 344.8125,205.78125 C 346.25313,209.23437 350.83128,208.49097 351.90625,206.46875 L 359.78125,193.25 C 371.71193,205.65473 380.625,216.22213 380.625,220.65625 L 381.0625,410.78125 L 400.875,410.78125 L 400.875,221.4375 C 399.99194,203.0451 386.47745,191.19982 374.125,179.09375 L 387.03125,171.40625 C 389.05726,170.33845 389.82294,165.79667 386.375,164.34375 L 334.75,154.125 z "
       style="fill:white;fill-opacity:1;fill-rule:evenodd;stroke:none;stroke-width:1px;stroke-linecap:butt;stroke-linejoin:miter;stroke-opacity:1"
       id="path9163" />
    <path
       d="M 273.24556,55.401011 L 285.76054,55.401011 L 285.76025,424.71072 L 273.21377,424.74224 L 273.24556,55.401011 z "
       style="fill:white;fill-opacity:1;fill-rule:evenodd;stroke:none;stroke-width:1px;stroke-linecap:butt;stroke-linejoin:miter;stroke-opacity:1"
       id="path9165" />
  </g>
</svg>
