<?xml version="1.0" encoding="UTF-8" standalone="no"?>
<!-- Created with Inkscape (http://www.inkscape.org/) -->

<svg
   xmlns:dc="http://purl.org/dc/elements/1.1/"
   xmlns:cc="http://creativecommons.org/ns#"
   xmlns:rdf="http://www.w3.org/1999/02/22-rdf-syntax-ns#"
   xmlns:svg="http://www.w3.org/2000/svg"
   xmlns="http://www.w3.org/2000/svg"
   xmlns:sodipodi="http://sodipodi.sourceforge.net/DTD/sodipodi-0.dtd"
   xmlns:inkscape="http://www.inkscape.org/namespaces/inkscape"
   version="1.0"
   width="480"
   height="480"
   id="svg2"
   inkscape:version="0.48.1 r9760"
   sodipodi:docname="Zeichen_223.2.svg">
  <metadata
     id="metadata14">
    <rdf:RDF>
      <cc:Work
         rdf:about="">
        <dc:format>image/svg+xml</dc:format>
        <dc:type
           rdf:resource="http://purl.org/dc/dcmitype/StillImage" />
      </cc:Work>
    </rdf:RDF>
  </metadata>
  <sodipodi:namedview
     pagecolor="#ffffff"
     bordercolor="#666666"
     borderopacity="1"
     objecttolerance="10"
     gridtolerance="10"
     guidetolerance="10"
     inkscape:pageopacity="0"
     inkscape:pageshadow="2"
     inkscape:window-width="640"
     inkscape:window-height="484"
     id="namedview12"
     showgrid="false"
     inkscape:zoom="0.49166667"
     inkscape:cx="240"
     inkscape:cy="240"
     inkscape:window-x="0"
     inkscape:window-y="0"
     inkscape:window-maximized="0"
     inkscape:current-layer="svg2" />
  <defs
     id="defs4" />
  <g
     id="layer1">
    <path
       d="M 459.88133,470.56879 C 347.54851,470.56879 135.61431,470.5324 21.196636,470.54863 C 14.992681,470.54957 9.5845144,464.75476 9.5051366,460.43652 L 9.4845285,21.199318 C 9.4845285,15.845698 14.02869,9.4937775 21.069545,9.4937775 L 458.3981,9.4312371 C 465.26696,9.4312371 470.48361,15.053406 470.48361,21.783558 L 470.51547,460.33872 C 470.51547,465.30613 464.53164,470.56879 459.88133,470.56879 z "
       style="fill:white;fill-opacity:1;fill-rule:evenodd;stroke:black;stroke-width:0.75669003;stroke-linecap:butt;stroke-linejoin:miter;stroke-miterlimit:4;stroke-dasharray:none;stroke-opacity:1"
       id="path2888" />
    <path
       d="M 459.12142,462.54765 L 20.883412,462.5282 C 19.531571,462.5282 17.605993,460.98013 17.605993,459.74075 L 17.586109,20.778106 C 17.586109,19.519807 18.868969,17.64034 20.22462,17.64034 L 459.75829,17.656571 C 461.17686,17.656571 462.42021,19.482918 462.42021,20.843976 L 462.45093,459.30172 C 462.45093,460.80125 460.23625,462.54765 459.12142,462.54765 z "
       style="fill:#154889;fill-opacity:1;fill-rule:evenodd;stroke:none;stroke-width:1px;stroke-linecap:butt;stroke-linejoin:miter;stroke-opacity:1"
       id="path2886" />
    <path
       d="M 105.3047,70.953388 L 105.3047,70.988006 L 75.975864,114.68413 C 74.558973,118.14705 78.31068,120.83352 80.499531,120.15984 L 95.409173,116.3574 L 95.472644,116.3574 L 95.414946,409.39767 L 115.23484,409.39767 L 115.23484,116.34586 L 130.13295,120.1483 C 132.3218,120.82198 136.06773,118.12972 134.65085,114.6668 L 105.32201,70.976467 L 105.32201,70.964927 L 105.31624,70.970716 L 105.3047,70.953388 z "
       style="fill:white;fill-opacity:1;fill-rule:evenodd;stroke:none;stroke-width:1px;stroke-linecap:butt;stroke-linejoin:miter;stroke-opacity:1"
       id="path2849" />
    <path
       d="M 212.76437,70.893458 L 212.76437,70.928077 L 183.43552,114.6242 C 182.01864,118.08712 185.77035,120.77359 187.95919,120.09991 L 202.86884,116.29747 L 202.93231,116.29747 L 202.87462,409.33774 L 222.69451,409.33774 L 222.69451,116.28593 L 237.59261,120.08837 C 239.78148,120.76205 243.5274,118.06979 242.11052,114.60687 L 212.78167,70.916537 L 212.78167,70.904998 L 212.77591,70.910786 L 212.76437,70.893458 z "
       style="fill:white;fill-opacity:1;fill-rule:evenodd;stroke:none;stroke-width:1px;stroke-linecap:butt;stroke-linejoin:miter;stroke-opacity:1"
       id="path2860" />
    <path
       d="M 374.5946,70.893458 L 374.5946,70.928077 L 345.26577,114.6242 C 343.84888,118.08712 347.60059,120.77359 349.78944,120.09991 L 364.69908,116.29747 L 364.76256,116.29747 L 364.70486,409.33774 L 384.52476,409.33774 L 384.52476,116.28593 L 399.42285,120.08837 C 401.61172,120.76205 405.35764,118.06979 403.94078,114.60687 L 374.61193,70.916537 L 374.61193,70.904998 L 374.60614,70.910786 L 374.5946,70.893458 z "
       style="fill:white;fill-opacity:1;fill-rule:evenodd;stroke:none;stroke-width:1px;stroke-linecap:butt;stroke-linejoin:miter;stroke-opacity:1"
       id="path2862" />
    <path
       d="M 288.24556,55.401025 L 300.76054,55.401025 L 300.76025,424.71073 L 288.21377,424.74225 L 288.24556,55.401025 z "
       style="fill:white;fill-opacity:1;fill-rule:evenodd;stroke:none;stroke-width:1px;stroke-linecap:butt;stroke-linejoin:miter;stroke-opacity:1"
       id="path2884" />
    <path
       d="M 443.50734,17.600623 L 296.48582,462.56843 L 323.11197,462.56843 L 462.44572,35.656961 L 462.36213,21.086395 C 462.36213,19.65231 461.45925,17.705024 459.76417,17.671575 L 443.50734,17.600623 z "
       style="fill:#c1121c;fill-opacity:1;fill-rule:evenodd;stroke:none;stroke-width:1px;stroke-linecap:butt;stroke-linejoin:miter;stroke-opacity:1"
       id="path8252" />
  </g>
</svg>
