<?xml version="1.0" encoding="UTF-8" standalone="no"?>
<!-- Created with Inkscape (http://www.inkscape.org/) -->

<svg
   xmlns:dc="http://purl.org/dc/elements/1.1/"
   xmlns:cc="http://creativecommons.org/ns#"
   xmlns:rdf="http://www.w3.org/1999/02/22-rdf-syntax-ns#"
   xmlns:svg="http://www.w3.org/2000/svg"
   xmlns="http://www.w3.org/2000/svg"
   xmlns:sodipodi="http://sodipodi.sourceforge.net/DTD/sodipodi-0.dtd"
   xmlns:inkscape="http://www.inkscape.org/namespaces/inkscape"
   version="1.0"
   width="561.39221"
   height="841.28351"
   id="svg2"
   inkscape:version="0.48.1 r9760"
   sodipodi:docname="Zeichen_229.svg">
  <metadata
     id="metadata17">
    <rdf:RDF>
      <cc:Work
         rdf:about="">
        <dc:format>image/svg+xml</dc:format>
        <dc:type
           rdf:resource="http://purl.org/dc/dcmitype/StillImage" />
      </cc:Work>
    </rdf:RDF>
  </metadata>
  <sodipodi:namedview
     pagecolor="#ffffff"
     bordercolor="#666666"
     borderopacity="1"
     objecttolerance="10"
     gridtolerance="10"
     guidetolerance="10"
     inkscape:pageopacity="0"
     inkscape:pageshadow="2"
     inkscape:window-width="640"
     inkscape:window-height="484"
     id="namedview15"
     showgrid="false"
     fit-margin-top="0"
     fit-margin-left="0"
     fit-margin-right="0"
     fit-margin-bottom="0"
     inkscape:zoom="0.35640741"
     inkscape:cx="268.32627"
     inkscape:cy="1123.3133"
     inkscape:window-x="0"
     inkscape:window-y="0"
     inkscape:window-maximized="0"
     inkscape:current-layer="svg2" />
  <defs
     id="defs4" />
  <g
     id="layer1"
     transform="translate(-4.3416995,-4.3953519)">
    <path
       d="m 42.602666,845.07953 485.461054,0.0729 c 17.24223,0 37.14369,-18.67588 37.14369,-30.38855 L 565.05756,35.148157 c 0,-15.142937 -19.62127,-30.2262985 -31.96865,-30.2262985 L 37.891605,5.2201649 c -16.255015,0 -33.0233989,19.3200641 -33.0233989,32.9128901 l 0.07423,773.635335 c 0,17.69929 21.1667639,33.31114 37.6602299,33.31114 z"
       style="fill:#ffffff;fill-opacity:1;fill-rule:evenodd;stroke:#000000;stroke-width:1.05301321px;stroke-linecap:butt;stroke-linejoin:miter;stroke-opacity:1"
       id="path9209"
       inkscape:connector-curvature="0" />
    <path
       d="m 36.958148,830.23519 496.169632,-0.21543 c 6.98477,0 18.05507,-11.77351 18.05507,-18.04364 l 0,-775.088328 c 0,-8.397519 -13.79601,-17.747258 -19.9711,-17.747258 L 38.887885,18.996913 c -8.320871,0 -19.834328,10.533306 -19.834328,17.879451 l -0.07181,776.239586 c 0,5.70862 10.292591,17.11924 17.976402,17.11924 z"
       style="fill:#154889;fill-opacity:1;fill-rule:evenodd;stroke:none;stroke-width:1px;stroke-linecap:butt;stroke-linejoin:miter;stroke-opacity:1"
       id="path9207"
       inkscape:connector-curvature="0" />
    <path
       d="M 171.26134,193.65651 398.73865,421.13379"
       style="fill:none;stroke:#c1121c;stroke-width:54.62581252999999748;stroke-linecap:butt;stroke-linejoin:miter;stroke-miterlimit:4;stroke-opacity:1;stroke-dasharray:none"
       id="path9229"
       inkscape:connector-curvature="0" />
    <path
       d="m 284.99999,97.085773 c -115.77071,0 -210.309379,94.538667 -210.309379,210.309377 0,115.77071 94.538669,210.30938 210.309379,210.30938 115.77071,0 210.30938,-94.53867 210.30938,-210.30938 0,-115.77071 -94.53867,-210.309377 -210.30938,-210.309377 z m 0,58.527657 c 84.10357,0 151.78172,67.67815 151.78172,151.78172 0,84.10358 -67.67815,151.78172 -151.78172,151.78172 -84.10357,0 -151.78172,-67.67814 -151.78172,-151.78172 0,-84.10357 67.67815,-151.78172 151.78172,-151.78172 z"
       style="fill:#c1121c;fill-opacity:1;fill-rule:evenodd;stroke:none"
       id="path9225"
       inkscape:connector-curvature="0" />
    <path
       d="M 171.26134,421.13379 398.73865,193.65651"
       style="fill:none;stroke:#c1121c;stroke-width:54.62581252999999748;stroke-linecap:butt;stroke-linejoin:miter;stroke-miterlimit:4;stroke-opacity:1;stroke-dasharray:none"
       id="path9231"
       inkscape:connector-curvature="0" />
    <path
       d="m 69.440837,597.50451 112.292313,-0.0541 -0.16222,22.07996 -42.86217,0.0541 -0.0541,135.98138 -25.12525,0 0,-136.05922 -44.027997,0.10814 -0.06061,-22.11025 z"
       style="fill:#ffffff;fill-opacity:1;fill-rule:evenodd;stroke:none"
       id="path9258"
       inkscape:connector-curvature="0" />
    <path
       style="fill:#ffffff;fill-opacity:1;fill-rule:evenodd;stroke:none"
       d="M 245.5625 592.78125 L 225.21875 592.90625 L 167.40625 751.375 L 194.125 751.21875 L 206.5 716.46875 L 264.59375 716.34375 L 277.6875 752.59375 L 304.09375 752.59375 L 245.5625 592.78125 z M 235.8125 628.3125 L 257.1875 694.0625 L 213.3125 694.1875 L 235.8125 628.3125 z "
       id="path9262"
       transform="translate(4.3416995,4.3953519)" />
    <path
       d="m 322.92034,597.20156 46.38834,76.95429 -49.26513,81.54215 29.84675,0 32.8866,-57.80858 32.92011,57.80858 29.48716,0 -48.64453,-81.18255 46.48693,-76.95429 -30.20636,0 -29.84675,53.58032 -30.56596,-53.58032 -29.48716,-0.3596 z"
       style="fill:#ffffff;fill-opacity:1;fill-rule:evenodd;stroke:none"
       id="path10151"
       inkscape:connector-curvature="0" />
    <path
       d="m 466.50725,755.51584 -0.0402,-158.03898 25.00901,0 -0.0402,158.08075 -24.92864,-0.0418 z"
       style="fill:#ffffff;fill-opacity:1;fill-rule:evenodd;stroke:none"
       id="path10153"
       inkscape:connector-curvature="0" />
  </g>
</svg>
