<?xml version="1.0" encoding="UTF-8" standalone="no"?>
<!-- Created with Inkscape (http://www.inkscape.org/) -->

<svg
   xmlns:dc="http://purl.org/dc/elements/1.1/"
   xmlns:cc="http://creativecommons.org/ns#"
   xmlns:rdf="http://www.w3.org/1999/02/22-rdf-syntax-ns#"
   xmlns:svg="http://www.w3.org/2000/svg"
   xmlns="http://www.w3.org/2000/svg"
   xmlns:sodipodi="http://sodipodi.sourceforge.net/DTD/sodipodi-0.dtd"
   xmlns:inkscape="http://www.inkscape.org/namespaces/inkscape"
   version="1.0"
   width="760"
   height="760"
   id="svg2"
   inkscape:version="0.48.1 r9760"
   sodipodi:docname="Zeichen_244.svg">
  <metadata
     id="metadata28">
    <rdf:RDF>
      <cc:Work
         rdf:about="">
        <dc:format>image/svg+xml</dc:format>
        <dc:type
           rdf:resource="http://purl.org/dc/dcmitype/StillImage" />
        <dc:title></dc:title>
      </cc:Work>
    </rdf:RDF>
  </metadata>
  <sodipodi:namedview
     pagecolor="#ffffff"
     bordercolor="#666666"
     borderopacity="1"
     objecttolerance="10"
     gridtolerance="10"
     guidetolerance="10"
     inkscape:pageopacity="0"
     inkscape:pageshadow="2"
     inkscape:window-width="869"
     inkscape:window-height="737"
     id="namedview26"
     showgrid="false"
     showguides="true"
     inkscape:guide-bbox="true"
     inkscape:zoom="0.37652115"
     inkscape:cx="388.89282"
     inkscape:cy="743.11013"
     inkscape:window-x="0"
     inkscape:window-y="0"
     inkscape:window-maximized="0"
     inkscape:current-layer="svg2">
    <sodipodi:guide
       orientation="1,0"
       position="379.79274,-62.413492"
       id="guide3863" />
  </sodipodi:namedview>
  <defs
     id="defs4" />
  <path
     inkscape:connector-curvature="0"
     id="rect2841"
     style="fill:#ffffff;stroke:#000000;stroke-width:2.01808;stroke-linecap:round;stroke-linejoin:round;stroke-miterlimit:4;stroke-opacity:1;stroke-dashoffset:0"
     d="m 45.824811,3.3417118 667.440239,0 c 17.26431,0 44.40426,16.0701922 44.40426,44.6040572 l 0,663.062641 c 0,28.18463 -26.23171,45.64977 -47.01218,45.64977 l -662.224403,0 c -16.898243,0 -44.6781525,-12.01705 -44.6781525,-37.91916 l 0,-672.469767 c 0,-27.062379 22.7368545,-42.9275412 42.0702365,-42.9275412 z"
     sodipodi:nodetypes="sssssssss" />
  <path
     inkscape:connector-curvature="0"
     id="path1882"
     style="fill:#154889;fill-opacity:1;fill-rule:nonzero;stroke:none"
     d="m 620.29687,319.82557 a 239.28563,239.28563 0 0 1 -478.57126,0 239.28563,239.28563 0 1 1 478.57126,0 z" />
  <path
     inkscape:connector-curvature="0"
     id="path1934"
     style="fill:none;stroke:#000000;stroke-width:17;stroke-linecap:butt;stroke-linejoin:miter;stroke-miterlimit:4;stroke-opacity:1;stroke-dasharray:none"
     d="m 25.443662,52.632534 0,658.329506 c 0,15.81111 15.542175,24.19269 27.474772,24.19269 l 657.360006,-0.25172 c 11.21703,0 24.66493,-13.41694 24.66493,-25.92349 l 0,-654.891497 c 0.17207,-19.416771 -15.69419,-29.40446 -26.88735,-29.40446 l -654.202941,0.25171 c -19.69216,0 -28.409417,14.141544 -28.409417,27.697261 z" />
  <g
     id="g12681">
    <circle
       sodipodi:ry="161"
       sodipodi:rx="161"
       sodipodi:cy="409"
       sodipodi:cx="215"
       d="m 376,409 c 0,88.91784 -72.08216,161 -161,161 -88.91784,0 -161,-72.08216 -161,-161 0,-88.91784 72.08216,-161 161,-161 88.91784,0 161,72.08216 161,161 z"
       id="circle11777"
       style="fill:none;stroke:#ffffff;stroke-width:40px;stroke-opacity:1"
       transform="matrix(0.404263,0,0,0.404263,177.6268,199.8607)"
       r="161"
       cy="409"
       cx="215" />
    <circle
       sodipodi:ry="161"
       sodipodi:rx="161"
       sodipodi:cy="406"
       sodipodi:cx="790"
       d="m 951,406 c 0,88.91784 -72.08216,161 -161,161 -88.91784,0 -161,-72.08216 -161,-161 0,-88.91784 72.08216,-161 161,-161 88.91784,0 161,72.08216 161,161 z"
       id="circle11779"
       style="fill:none;stroke:#ffffff;stroke-width:40px;stroke-opacity:1"
       transform="matrix(0.404263,0,0,0.404263,177.6268,199.8607)"
       r="161"
       cy="406"
       cx="790" />
    <path
       inkscape:connector-curvature="0"
       id="path11781"
       style="fill:#ffffff;fill-rule:evenodd;stroke:#ffffff;stroke-opacity:1"
       d="m 351.25144,206.11348 c -53.59172,0.52234 -44.50307,-5.53676 -73.33604,87.12573 -23.48869,74.03725 -20.93021,65.96322 -21.05305,71.15653 -0.0861,4.03463 3.17077,7.23353 7.26337,7.50734 8.51119,-0.86058 4.93119,0.9205 34.43938,-90.71243 107.82185,113.74166 67.3698,95.29738 125.39558,97.60727 76.26112,-0.73127 82.45951,3.96976 83.3649,-7.20825 -0.10447,-3.79564 -1.88041,-6.0591 -54.21853,-122.54013 l 5.01443,-13.78968 17.2371,-0.3134 -0.6268,-14.41649 -64.24739,0 c -5.67605,7.7654 2.29829,7.73058 31.02679,14.10308 l -5.01443,14.10309 -128.18137,0.3134 c 8.63597,-30.15622 3.76082,-28.27581 42.62266,-28.20617 l 0.3134,-14.72989 z m -46.63991,58.39296 125.428,-0.22238 -36.24958,97.40685 -89.17842,-97.18447 z m 140.55052,5.78215 -35.58241,93.40383 77.83652,0.22239 -42.25411,-93.62622 z" />
  </g>
  <g
     style="font-size:97.52655792px;font-style:normal;font-variant:normal;font-weight:normal;font-stretch:normal;text-align:start;line-height:125%;letter-spacing:0px;word-spacing:0px;writing-mode:lr-tb;text-anchor:start;fill:#000000;fill-opacity:1;stroke:none;font-family:DINEngschrift-Alternate;-inkscape-font-specification:DINEngschrift-Alternate"
     id="text3773">
    <path
       d="m 110.6441,614.56621 0,-9.46008 -44.374579,0 0,69.43891 10.532868,0 0,-29.35549 28.867861,0 0,-9.46008 -28.867861,0 0,-21.16326 33.841711,0"
       style="font-weight:500;fill:#000000;font-family:DIN;-inkscape-font-specification:DIN Medium"
       id="path3866" />
    <path
       d="m 158.62107,674.54504 0,-33.0615 c 0,-11.21554 -6.82687,-16.96962 -20.38305,-16.96962 -8.19222,0 -13.06856,1.65796 -17.74983,7.11944 l 6.53428,6.14417 c 2.73074,-3.51095 5.36397,-4.7788 10.82545,-4.7788 7.70459,0 10.82545,3.02333 10.82545,9.26502 l 0,3.51096 -13.06856,0 c -11.31307,0 -17.06715,5.94913 -17.06715,14.23888 0,4.19363 1.36537,7.99718 3.90106,10.63039 3.02332,3.02332 7.11945,4.48622 13.26361,4.48622 6.14417,0 9.55761,-1.4629 13.16609,-5.07138 l 0,4.48622 9.75265,0 m -9.9477,-17.84736 c 0,3.51096 -0.68269,5.8516 -2.14559,7.3145 -2.63321,2.53568 -5.46149,2.82827 -9.26502,2.82827 -6.2417,0 -9.06997,-2.5357 -9.06997,-7.02192 0,-4.48621 3.02333,-7.11944 8.87492,-7.11944 l 11.60566,0 0,3.99859"
       style="font-weight:500;fill:#000000;font-family:DIN;-inkscape-font-specification:DIN Medium"
       id="path3868" />
    <path
       d="m 213.75253,674.54504 0,-31.89118 c 0,-10.72791 -6.14418,-18.13994 -17.16467,-18.13994 -4.87632,0 -9.36255,1.85301 -12.77598,5.55901 l 0,-24.9668 -9.94771,0 0,69.43891 9.94771,0 0,-30.33076 c 0,-7.41201 4.48623,-10.82544 10.04524,-10.82544 5.559,0 9.9477,3.31591 9.9477,10.82544 l 0,30.33076 9.94771,0"
       style="font-weight:500;fill:#000000;font-family:DIN;-inkscape-font-specification:DIN Medium"
       id="path3870" />
    <path
       d="m 263.82328,629.19519 c -3.41343,-3.41342 -7.02192,-4.68127 -11.80071,-4.68127 -5.55901,0 -10.6304,2.43817 -13.16609,5.94912 l 0,-5.36396 -9.75265,0 0,49.44596 9.9477,0 0,-30.03818 c 0,-6.82685 4.48623,-11.11802 9.85019,-11.11802 3.41342,0 5.16891,1.07279 7.41201,3.3159 l 7.50955,-7.50955"
       style="font-weight:500;fill:#000000;font-family:DIN;-inkscape-font-specification:DIN Medium"
       id="path3872" />
    <path
       d="m 306.68163,629.19519 c -3.41342,-3.41342 -7.02191,-4.68127 -11.80071,-4.68127 -5.55901,0 -10.6304,2.43817 -13.16609,5.94912 l 0,-5.36396 -9.75265,0 0,49.44596 9.94771,0 0,-30.03818 c 0,-6.82685 4.48622,-11.11802 9.85018,-11.11802 3.41343,0 5.16891,1.07279 7.41202,3.3159 l 7.50954,-7.50955"
       style="font-weight:500;fill:#000000;font-family:DIN;-inkscape-font-specification:DIN Medium"
       id="path3874" />
    <path
       d="m 351.19792,674.54504 0,-33.0615 c 0,-11.21554 -6.82687,-16.96962 -20.38305,-16.96962 -8.19222,0 -13.06856,1.65796 -17.74983,7.11944 l 6.53428,6.14417 c 2.73074,-3.51095 5.36396,-4.7788 10.82544,-4.7788 7.70459,0 10.82545,3.02333 10.82545,9.26502 l 0,3.51096 -13.06856,0 c -11.31307,0 -17.06714,5.94913 -17.06714,14.23888 0,4.19363 1.36537,7.99718 3.90106,10.63039 3.02332,3.02332 7.11944,4.48622 13.26361,4.48622 6.14417,0 9.55761,-1.4629 13.16609,-5.07138 l 0,4.48622 9.75265,0 m -9.94771,-17.84736 c 0,3.51096 -0.68268,5.8516 -2.14558,7.3145 -2.63322,2.53568 -5.46149,2.82827 -9.26502,2.82827 -6.2417,0 -9.06997,-2.5357 -9.06997,-7.02192 0,-4.48621 3.02332,-7.11944 8.87491,-7.11944 l 11.60566,0 0,3.99859"
       style="font-weight:500;fill:#000000;font-family:DIN;-inkscape-font-specification:DIN Medium"
       id="path3876" />
    <path
       d="m 404.57391,674.54504 0,-69.43891 -9.94771,0 0,24.9668 c -3.60847,-4.29116 -7.7046,-5.55901 -12.97103,-5.55901 -4.97385,0 -9.26502,1.65795 -11.99576,4.38869 -4.97385,4.97385 -5.55902,13.36115 -5.55902,20.87069 0,7.50954 0.58517,15.99436 5.55902,20.96821 2.73074,2.73074 7.11944,4.38869 12.09329,4.38869 5.36395,0 9.36255,-1.36537 13.06856,-5.85159 l 0,5.26643 9.75265,0 M 394.6262,649.7733 c 0,8.77738 -1.26785,16.48199 -10.24028,16.48199 -8.97244,0 -10.33782,-7.70461 -10.33782,-16.48199 0,-8.77738 1.36538,-16.38446 10.33782,-16.38446 8.97243,0 10.24028,7.60708 10.24028,16.38446"
       style="font-weight:500;fill:#000000;font-family:DIN;-inkscape-font-specification:DIN Medium"
       id="path3878" />
    <path
       d="m 456.91977,659.42843 c 0,-8.77738 -5.4615,-13.16609 -14.72651,-13.9463 l -7.80213,-0.68269 c -5.26642,-0.48763 -6.82685,-2.73074 -6.82685,-5.65654 0,-3.706 3.02332,-6.33922 8.97244,-6.33922 4.68127,0 9.06997,0.97527 12.19082,3.60848 l 6.2417,-6.33923 c -4.58375,-3.99858 -10.92298,-5.55901 -18.335,-5.55901 -10.3378,0 -18.62757,5.4615 -18.62757,15.11662 0,8.67985 5.36397,12.8735 14.62899,13.65371 l 7.89965,0.68269 c 4.77879,0.39011 6.6318,2.53569 6.6318,5.85159 0,4.68127 -4.7788,6.82686 -10.82544,6.82686 -4.87633,0 -10.2403,-1.07279 -14.23888,-5.1689 l -6.53428,6.53427 c 5.85159,5.75407 12.67846,7.11944 20.77316,7.11944 11.8007,0 20.5781,-5.36397 20.5781,-15.70177"
       style="font-weight:500;fill:#000000;font-family:DIN;-inkscape-font-specification:DIN Medium"
       id="path3880" />
    <path
       d="m 489.59572,674.54504 0,-8.48481 -4.09611,0 c -3.70601,0 -5.46149,-2.14558 -5.46149,-5.75406 l 0,-26.72228 9.5576,0 0,-7.60707 -9.5576,0 0,-15.01909 -9.94771,0 0,15.01909 -5.65654,0 0,7.60707 5.65654,0 0,27.20991 c 0,7.11943 4.29118,13.75124 13.55619,13.75124 l 5.94912,0"
       style="font-weight:500;fill:#000000;font-family:DIN;-inkscape-font-specification:DIN Medium"
       id="path3882" />
    <path
       d="m 536.97384,629.19519 c -3.41343,-3.41342 -7.02192,-4.68127 -11.80072,-4.68127 -5.559,0 -10.63039,2.43817 -13.16608,5.94912 l 0,-5.36396 -9.75266,0 0,49.44596 9.94771,0 0,-30.03818 c 0,-6.82685 4.48623,-11.11802 9.85018,-11.11802 3.41343,0 5.16891,1.07279 7.41202,3.3159 l 7.50955,-7.50955"
       style="font-weight:500;fill:#000000;font-family:DIN;-inkscape-font-specification:DIN Medium"
       id="path3884" />
    <path
       d="m 581.49013,674.54504 0,-33.0615 c 0,-11.21554 -6.82688,-16.96962 -20.38305,-16.96962 -8.19223,0 -13.06857,1.65796 -17.74984,7.11944 l 6.53428,6.14417 c 2.73074,-3.51095 5.36397,-4.7788 10.82545,-4.7788 7.70459,0 10.82545,3.02333 10.82545,9.26502 l 0,3.51096 -13.06856,0 c -11.31307,0 -17.06715,5.94913 -17.06715,14.23888 0,4.19363 1.36538,7.99718 3.90106,10.63039 3.02332,3.02332 7.11945,4.48622 13.26362,4.48622 6.14416,0 9.5576,-1.4629 13.16608,-5.07138 l 0,4.48622 9.75266,0 m -9.94771,-17.84736 c 0,3.51096 -0.68269,5.8516 -2.14559,7.3145 -2.63321,2.53568 -5.46149,2.82827 -9.26502,2.82827 -6.24169,0 -9.06997,-2.5357 -9.06997,-7.02192 0,-4.48621 3.02333,-7.11944 8.87492,-7.11944 l 11.60566,0 0,3.99859"
       style="font-weight:500;fill:#000000;font-family:DIN;-inkscape-font-specification:DIN Medium"
       id="path3886" />
    <path
       d="m 637.69439,659.72101 0,-16.09188 c 0,-6.2417 -1.95054,-9.06998 -6.14417,-11.21556 3.51095,-2.24311 6.04664,-5.55902 6.04664,-11.31308 0,-11.50812 -8.67987,-16.67704 -19.99294,-16.67704 -12.28834,0 -20.87068,6.33924 -20.87068,19.21273 l 0,50.90886 10.04523,0 0,-50.3237 c 0,-6.72933 2.82828,-11.0205 10.53287,-11.0205 3.60848,0 6.14417,0.68269 7.89965,2.34064 1.4629,1.36537 2.43816,3.51095 2.43816,5.85159 0,4.7788 -3.12085,7.31449 -7.21696,7.31449 l -3.02332,0 0,7.89965 3.41342,0 c 2.14559,0 3.90107,0.68269 5.07139,1.85301 1.26784,1.17032 1.75547,2.73074 1.75547,5.16891 l 0,15.21414 c 0,2.53569 -0.68268,4.48622 -2.04805,5.55901 -1.36537,1.17032 -2.63322,1.65795 -5.07138,1.65795 l -3.12085,0 0,8.48481 5.1689,0 c 5.07138,0 8.38729,-1.26784 11.11803,-3.80353 2.63321,-2.43816 3.99859,-6.33923 3.99859,-11.0205"
       style="font-weight:500;fill:#000000;font-family:DIN;-inkscape-font-specification:DIN Medium"
       id="path3888" />
    <path
       d="m 691.1831,652.69909 0,-4.38869 c 0,-14.04381 -7.70461,-23.79648 -20.96821,-23.79648 -12.67844,0 -20.96821,9.26504 -20.96821,25.25938 0,18.82261 9.85019,25.3569 22.23605,25.3569 8.67986,0 13.45867,-2.63322 18.53005,-7.70459 l -6.33923,-5.94912 c -3.51095,3.51095 -6.43676,5.07138 -11.99576,5.07138 -8.0947,0 -12.58093,-5.36397 -12.58093,-13.84878 l 32.08624,0 m -9.85018,-6.92438 -22.23606,0 c 0.0975,-3.02332 0.29258,-4.48622 1.26785,-6.72933 1.56042,-3.70601 5.16891,-6.2417 9.85018,-6.2417 4.68127,0 8.19223,2.53569 9.75265,6.2417 0.97527,2.24311 1.26785,3.70601 1.36538,6.72933"
       style="font-weight:500;fill:#000000;font-family:DIN;-inkscape-font-specification:DIN Medium"
       id="path3890" />
  </g>
</svg>
