<?xml version="1.0" encoding="UTF-8" standalone="no"?>
<!-- Created with Inkscape (http://www.inkscape.org/) -->

<svg
   xmlns:dc="http://purl.org/dc/elements/1.1/"
   xmlns:cc="http://creativecommons.org/ns#"
   xmlns:rdf="http://www.w3.org/1999/02/22-rdf-syntax-ns#"
   xmlns:svg="http://www.w3.org/2000/svg"
   xmlns="http://www.w3.org/2000/svg"
   xmlns:sodipodi="http://sodipodi.sourceforge.net/DTD/sodipodi-0.dtd"
   xmlns:inkscape="http://www.inkscape.org/namespaces/inkscape"
   version="1.0"
   width="725"
   height="725"
   id="svg2"
   inkscape:version="0.48.1 r9760"
   sodipodi:docname="Zeichen_245.svg">
  <metadata
     id="metadata17">
    <rdf:RDF>
      <cc:Work
         rdf:about="">
        <dc:format>image/svg+xml</dc:format>
        <dc:type
           rdf:resource="http://purl.org/dc/dcmitype/StillImage" />
      </cc:Work>
    </rdf:RDF>
  </metadata>
  <sodipodi:namedview
     pagecolor="#ffffff"
     bordercolor="#666666"
     borderopacity="1"
     objecttolerance="10"
     gridtolerance="10"
     guidetolerance="10"
     inkscape:pageopacity="0"
     inkscape:pageshadow="2"
     inkscape:window-width="843"
     inkscape:window-height="707"
     id="namedview15"
     showgrid="false"
     inkscape:zoom="0.64125499"
     inkscape:cx="451.58898"
     inkscape:cy="394.75636"
     inkscape:window-x="0"
     inkscape:window-y="0"
     inkscape:window-maximized="0"
     inkscape:current-layer="svg2" />
  <defs
     id="defs9" />
  <circle
     cx="362.5"
     cy="362.5"
     r="350"
     style="fill:white;stroke:black;stroke-width:2.5px"
     id="circle4" />
  <path
     d="M -176.30905,369.66949 C -176.30905,540.44638 -314.75107,678.88839 -485.52795,678.88839 C -656.30484,678.8884 -794.74686,540.44638 -794.74686,369.66949 C -794.74686,198.8926 -656.30484,60.450585 -485.52795,60.450585 C -314.75107,60.450585 -176.30905,198.8926 -176.30905,369.66949 z "
     transform="matrix(1.061206,0,0,1.061206,877.7452,-29.79549)"
     style="opacity:1;fill:#154889;fill-opacity:1;fill-rule:nonzero;stroke:none;stroke-width:2;stroke-linecap:round;stroke-linejoin:round;stroke-miterlimit:4;stroke-dasharray:none;stroke-dashoffset:0;stroke-opacity:1"
     id="path1883" />
  <path
     style="fill:white;fill-opacity:1;fill-rule:evenodd;stroke:none;stroke-width:1px;stroke-linecap:butt;stroke-linejoin:miter;stroke-opacity:1"
     d="M 597.65625 254.125 L 113.46875 254.4375 C 111.90993 254.38679 111.70841 255.7003 111.34375 256.84375 L 111.71875 273.84375 C 114.05885 276.3613 119.73608 275.97829 118.75 281.40625 L 90.4375 363.125 L 89.65625 425.15625 C 91.595059 428.54684 93.736907 431.50799 96.90625 432.4375 L 163.78125 432.4375 C 163.78125 369.78369 256.8125 369.80083 256.8125 432.4375 L 450.4375 432.4375 C 450.4375 369.92123 545.8125 369.57099 545.8125 432.4375 L 617.90625 433 C 623.83988 430.78792 629.80985 429.72349 635.34375 416.71875 L 635.34375 347.53125 C 623.9834 315.62915 619.62148 258.49658 597.65625 254.125 z M 333.625 276.125 C 335.55287 276.90085 337.40902 278.16353 338.75 282.65625 L 355.15625 339.625 C 354.79314 343.7802 352.40443 345.64338 350.09375 347.65625 L 292.1875 347.8125 C 289.46513 346.84186 288.48361 344.5105 287.5 342.1875 L 270.8125 285.21875 C 270.72299 281.12642 271.71576 277.90584 274.59375 276.1875 L 333.625 276.125 z M 415.6875 276.125 C 417.61537 276.90085 419.47151 278.16353 420.8125 282.65625 L 437.21875 339.625 C 436.85564 343.7802 434.49819 345.64338 432.1875 347.65625 L 374.25 347.8125 C 371.52763 346.84186 370.54611 344.5105 369.5625 342.1875 L 352.875 285.21875 C 352.78549 281.12642 353.77826 277.90585 356.65625 276.1875 L 415.6875 276.125 z M 498.25 276.125 C 500.17787 276.90084 502.03401 278.16352 503.375 282.65625 L 519.78125 339.625 C 519.41814 343.7802 517.02944 345.64338 514.71875 347.65625 L 456.8125 347.8125 C 454.09013 346.84186 453.10861 344.5105 452.125 342.1875 L 435.40625 285.21875 C 435.31673 281.12642 436.34077 277.90584 439.21875 276.1875 L 498.25 276.125 z M 206.34375 276.15625 L 250.96875 276.21875 C 252.89662 276.99459 254.75276 278.28853 256.09375 282.78125 L 272.5 339.71875 C 272.13689 343.87395 269.74818 345.76838 267.4375 347.78125 L 207.28125 348 C 204.55888 347.02936 202.85861 344.823 201.875 342.5 L 201.875 281.25 C 202.82573 277.90069 203.46577 277.87459 206.34375 276.15625 z M 581.46875 276.21875 C 583.39662 276.99459 585.25276 278.28852 586.59375 282.78125 L 603 339.71875 C 602.63689 343.87395 600.24819 345.76838 597.9375 347.78125 L 540 347.90625 C 537.27763 346.93562 536.32736 344.60425 535.34375 342.28125 L 518.625 285.3125 C 518.53548 281.22017 519.55952 278.03084 522.4375 276.3125 L 581.46875 276.21875 z M 135.0625 276.3125 L 183.6875 276.5 C 186.56548 278.21835 187.55826 279.03267 187.46875 283.125 L 187.375 342.375 C 186.39139 344.698 185.40987 347.02936 182.6875 348 L 114.59375 347.65625 C 112.28306 345.64338 109.89436 343.7802 109.53125 339.625 L 129.9375 282.875 C 131.27849 278.38228 133.13463 277.08835 135.0625 276.3125 z "
     id="path1966" />
  <path
     d="M 536.20947,432.64648 C 536.21851,453.64193 519.20087,470.66689 498.20543,470.66689 C 477.20998,470.66689 460.19234,453.64193 460.20138,432.64648 C 460.19234,411.65103 477.20998,394.62607 498.20543,394.62607 C 519.20087,394.62607 536.21851,411.65103 536.20947,432.64648 L 536.20947,432.64648 z "
     style="fill:white;fill-opacity:1;fill-rule:nonzero;stroke:none;stroke-width:2;stroke-linecap:round;stroke-linejoin:round;stroke-miterlimit:4;stroke-dasharray:8, 2;stroke-dashoffset:0;stroke-opacity:1"
     id="path2856" />
  <path
     d="M 248.6529,432.86618 C 248.66194,453.86163 231.6443,470.88659 210.64886,470.88659 C 189.65341,470.88659 172.63577,453.86163 172.64481,432.86618 C 172.63577,411.87073 189.65341,394.84577 210.64886,394.84577 C 231.6443,394.84577 248.66194,411.87073 248.6529,432.86618 L 248.6529,432.86618 z "
     style="fill:white;fill-opacity:1;fill-rule:nonzero;stroke:none;stroke-width:2;stroke-linecap:round;stroke-linejoin:round;stroke-miterlimit:4;stroke-dasharray:8, 2;stroke-dashoffset:0;stroke-opacity:1"
     id="path3745" />
</svg>
