<?xml version="1.0" encoding="UTF-8" standalone="no"?>
<!-- Created with Inkscape (http://www.inkscape.org/) -->

<svg
   xmlns:dc="http://purl.org/dc/elements/1.1/"
   xmlns:cc="http://creativecommons.org/ns#"
   xmlns:rdf="http://www.w3.org/1999/02/22-rdf-syntax-ns#"
   xmlns:svg="http://www.w3.org/2000/svg"
   xmlns="http://www.w3.org/2000/svg"
   version="1.1"
   width="725"
   height="725"
   id="svg4169"
   xml:space="preserve"><metadata
     id="metadata4175"><rdf:RDF><cc:Work
         rdf:about=""><dc:format>image/svg+xml</dc:format><dc:type
           rdf:resource="http://purl.org/dc/dcmitype/StillImage" /><dc:title></dc:title></cc:Work></rdf:RDF></metadata><defs
     id="defs4173" /><g
     transform="matrix(1.25,0,0,-1.25,0,725)"
     id="g4177"><g
       id="g4179"><g
         transform="matrix(1,0,0,-1,0,580)"
         id="g4181"><path
           d="M 570,290 C 570,444.641 444.641,570 290,570 135.359,570 10,444.641 10,290 10,135.359 135.359,10 290,10 444.641,10 570,135.359 570,290 z"
           id="path4183"
           style="fill:#ffffff;fill-opacity:1;fill-rule:nonzero;stroke:#000000;stroke-width:2;stroke-linecap:butt;stroke-linejoin:miter;stroke-miterlimit:4;stroke-opacity:1;stroke-dasharray:none" /></g><path
         d="M 558.109,290 C 558.109,141.926 438.074,21.891 290,21.891 141.926,21.891 21.891,141.926 21.891,290 21.891,438.074 141.926,558.109 290,558.109 438.074,558.109 558.109,438.074 558.109,290 z"
         id="path4185"
         style="fill:#c1121c;fill-opacity:1;fill-rule:nonzero;stroke:none" /><path
         d="m 44,333.602 491.199,0 0,-87.203 -491.199,0 0,87.203 z"
         id="path4187"
         style="fill:#ffffff;fill-opacity:1;fill-rule:nonzero;stroke:none" /></g></g></svg>