<svg xmlns="http://www.w3.org/2000/svg" viewBox="0 0 702.5 702.5"><circle cx="362.5" cy="362.5" r="350" transform="translate(-11.25 -11.25)" fill="#fff" stroke="#000" stroke-width="2.5"/><path d="m 679.39 351.25 c 0 181.23 -146.92 328.14 -328.14 328.14 -181.23 0 -328.14 -146.92 -328.14 -328.14 0 -181.23 146.92 -328.14 328.14 -328.14 181.23 0 328.14 146.92 328.14 328.14 z" fill="#154889"/><path d="m 318.2 646.43 c -136.93 -25.18 -158.91 -118.26 -182.37 -266.98 -20.03 -126.94 53.39 -288.88 152.04 -315.71 c 10.238 -2.785 19.883 -5.194 30.609 -4.853 0 0 159.52 -18.34 223.47 111.06 1.877 8.225 41.39 77.81 40.723 171.89 -0.405 57.26 -13.12 118.63 -42.876 188.92 -21.492 50.772 -60.63 83.965 -103.46 100.17 -43.46 16.442 -90.65 15.514 -118.14 15.514 z" fill="#fff" fill-rule="evenodd"/><g stroke="#000"><g fill="none" stroke-width="10"><path d="m 379.05 641.98 c 236.81 19.369 297.65 -547.12 9.401 -580.83 l -24.452 0.563"/><path d="m 558.63 368.92 a 39.672 101.28 0 1 1 -79.34 0 39.672 101.28 0 1 1 79.34 0 z" transform="matrix(0.94536 0 0 1.22095 -75.27 -98.35)" stroke-linejoin="round" stroke-linecap="round"/></g><path d="m 575.4 405.37 a 30.641 79.02 0 1 1 -61.28 0 30.641 79.02 0 1 1 61.28 0 z" transform="matrix(1.01213 0 0 1.41064 -146.66 -220.28)" stroke-width="8.369"/><g fill="none"><path d="m 252.87 396.91 a 73.41 108.76 0 1 1 -146.83 0 73.41 108.76 0 1 1 146.83 0 z" transform="matrix(1.07341 0 0 1.72547 259.7 -333.76)" stroke-width="4.409"/><path d="m 726.96 418.03 a 79.28 120.75 0 1 1 -158.57 0 79.28 120.75 0 1 1 158.57 0 z" transform="matrix(1.24247 0 0 1.81577 -353.29 -409.19)" stroke-width="6.658"/><path d="m 390.45 613.73 c -162.22 -90.42 -143.89 -454.13 4.066 -526.92" stroke-width="6"/><path d="m 379.04 642.21 l -49.47 -0.583 c -223.6 24.875 -298.13 -546.16 -9.882 -579.87 l 12.439 -0.475 l 3.929 0.437" stroke-width="10"/></g><path d="m 246.61 374.67 c 0 8.359 -6.776 15.14 -15.14 15.14 -8.359 0 -15.14 -6.776 -15.14 -15.14 0 -8.359 6.776 -15.14 15.14 -15.14 8.359 0 15.14 6.776 15.14 15.14 z m -102.2 -99.82 c 0 8.465 -6.863 15.328 -15.328 15.328 -8.465 0 -15.328 -6.863 -15.328 -15.328 0 -8.465 6.863 -15.328 15.328 -15.328 8.465 0 15.328 6.863 15.328 15.328 z m -177.19 -30.28 c 0 8.679 -7.04 15.714 -15.714 15.714 -8.679 0 -15.714 -7.04 -15.714 -15.714 0 -8.679 7.04 -15.714 15.714 -15.714 8.679 0 15.714 7.04 15.714 15.714 z m 280.29 -501.17 c 0 8.572 -6.949 15.521 -15.521 15.521 -8.572 0 -15.521 -6.949 -15.521 -15.521 0 -8.572 6.949 -15.521 15.521 -15.521 8.572 0 15.521 6.949 15.521 15.521 z m -101.23 98.54 c 0 8.785 -7.122 15.907 -15.907 15.907 -8.785 0 -15.907 -7.122 -15.907 -15.907 0 -8.785 7.122 -15.907 15.907 -15.907 8.785 0 15.907 7.122 15.907 15.907 z m -177.77 33.617 c 0 9.105 -7.381 16.485 -16.485 16.485 -9.105 0 -16.485 -7.381 -16.485 -16.485 0 -9.105 7.381 -16.485 16.485 -16.485 9.105 0 16.485 7.381 16.485 16.485 z m 137.67 103.67 c 0 8.892 -7.208 16.1 -16.1 16.1 -8.892 0 -16.1 -7.208 -16.1 -16.1 0 -8.892 7.208 -16.1 16.1 -16.1 8.892 0 16.1 7.208 16.1 16.1 z m -163.65 79.29 c 0 9.637 -7.813 17.45 -17.45 17.45 -9.637 0 -17.45 -7.813 -17.45 -17.45 0 -9.637 7.813 -17.45 17.45 -17.45 9.637 0 17.45 7.813 17.45 17.45 z m 165.26 81.09 c 0 9.637 -7.813 17.45 -17.45 17.45 -9.637 0 -17.45 -7.813 -17.45 -17.45 0 -9.637 7.813 -17.45 17.45 -17.45 9.637 0 17.45 7.813 17.45 17.45 z m 47.5 -387.68 c -15.499 -0.171 -12.533 -27.854 5.95 -27.651 l 42.45 2.135 c 11.328 0.125 16.848 25.464 -3.742 25.24 0 0 -44.657 0.278 -44.657 0.278 z m -68.5 10.1 c -14.305 1.889 -14.955 -26.25 2.104 -28.504 l 39.38 -3.502 c 10.456 -1.381 18.641 23.282 -0.364 25.792 0 0 -41.12 6.215 -41.12 6.215 z m -50.985 18.632 c -11.149 -1.39 -7.525 -30.12 5.771 -28.468 l 30.447 5.552 c 8.149 1.016 10.761 27.961 -4.051 26.11 0 0 -32.17 -3.199 -32.17 -3.199 z m 41.776 10.146 c -10.636 -10.04 9.04 -27.446 21.723 -15.473 l 28.07 28.664 c 7.774 7.339 -4.526 28.542 -18.656 15.203 0 0 -31.14 -28.394 -31.14 -28.394 z m -92.96 78.66 c -15.07 3.603 -18.929 -23.971 -0.952 -28.27 l 41.694 -8.25 c 11.02 -2.634 22.534 20.603 2.506 25.39 0 0 -43.25 11.128 -43.25 11.128 z m 67.51 -14.443 c -15.486 0.656 -14 -27.15 4.467 -27.929 l 42.502 -0.132 c 11.319 -0.48 18.18 24.529 -2.391 25.401 0 0 -44.578 2.66 -44.578 2.66 z m 213.73 512.7 c -7.507 12.407 -27.321 -3.834 -18.369 -18.629 l 21.84 -33.15 c 5.487 -9.07 27.542 -0.84 17.569 15.642 0 0 -21.04 36.13 -21.04 36.13 z m -226.94 -4.37 c -11.825 3.184 -14.983 -20.568 -0.881 -24.366 l 32.713 -7.329 c 8.643 -2.328 17.799 17.646 2.089 21.876 0 0 -33.921 9.818 -33.921 9.818 z m 117.52 32.994 c -14.77 1.146 -14.268 -25.2 3.345 -26.567 l 40.592 -1.565 c 10.795 -0.837 18.18 22.584 -1.446 24.11 0 0 -42.492 4.03 -42.492 4.03 z m -73.899 -12.995 c -14.02 -2.885 -6.399 -29.947 10.326 -26.506 l 38.12 9.565 c 10.251 2.109 10.739 28.321 -7.893 24.488 0 0 -40.548 -7.547 -40.548 -7.547 z m 14.383 -37.14 c -10.145 10.703 -27.31 -9.496 -15.212 -22.259 l 28.936 -28.22 c 7.415 -7.823 28.454 4.919 14.977 19.14 0 0 -28.7 31.342 -28.7 31.342 z m -45.926 -56.848 c -15.489 -0.576 -11.8 -28.17 6.671 -27.486 l 42.38 3.245 c 11.321 0.421 16.177 25.895 -4.401 25.13 0 0 -44.649 -0.889 -44.649 -0.889 z m -77.22 -16.404 c -14.994 -3.925 -5.401 -30.06 12.48 -25.381 l 40.663 12.369 c 10.96 2.869 10.168 28.79 -9.753 23.575 0 0 -43.39 -10.563 -43.39 -10.563 z m 13.996 -26.15 c -13.774 7.108 -24.12 -18.742 -7.692 -27.22 l 38.506 -17.993 c 10.07 -5.195 26.811 14.608 8.512 24.05 0 0 -39.33 21.16 -39.33 21.16 z m 68.43 -38.465 c -10.708 11.206 -28.907 -9.865 -16.14 -23.23 l 30.547 -29.552 c 7.827 -8.191 30.11 5.08 15.881 19.967 0 0 -30.29 32.814 -30.29 32.814 z m -116.84 -112.17 c -13.543 -7.539 2.262 -30.46 18.412 -21.47 l 36.3 22.11 c 9.899 5.51 2.671 30.416 -15.321 20.401 0 0 -39.39 -21.04 -39.39 -21.04 z m 69.877 36.866 c -14.688 -4.948 -3.318 -30.363 14.198 -24.462 l 39.715 15.14 c 10.736 3.617 8.161 29.422 -11.353 22.848 0 0 -42.56 -13.526 -42.56 -13.526 z m 109.1 -142.87 c -15.443 -1.324 -10.423 -28.71 7.993 -27.13 l 42.17 5.291 c 11.288 0.968 14.905 26.648 -5.611 24.888 0 0 -44.554 -3.048 -44.554 -3.048 z m -161.74 57.11 c -13.03 8.401 -25.811 -16.332 -10.277 -26.35 l 36.595 -21.617 c 9.521 -6.141 28.09 11.958 10.789 23.12 c 0 0 -37.11 24.848 -37.11 24.848 z m 61.48 -35.14 c -14.512 5.445 -21.756 -21.438 -4.45 -27.931 l 40.35 -13.358 c 10.607 -3.98 24.915 17.649 5.636 24.883 0 0 -41.535 16.406 -41.535 16.406 z m -40.577 -116.63 c -13.578 -7.475 2.119 -30.47 18.312 -21.556 l 36.4 21.943 c 9.925 5.464 2.814 30.403 -15.225 20.472 0 0 -39.487 -20.86 -39.487 -20.86 z m 60.15 35.27 c -10.96 -10.96 10.519 -28.675 23.589 -15.605 l 28.851 31.21 c 8.01 8.01 -5.762 29.984 -20.323 15.424 0 0 -32.12 -31.03 -32.12 -31.03 z m 83.07 222.17 c -15.492 0.489 -13.706 -27.3 4.769 -27.879 l 42.501 0.328 c 11.323 -0.357 17.916 24.724 -2.666 25.373 0 0 -44.605 2.177 -44.605 2.177 z m 31.11 -292.7 c -13.153 -8.2 3.768 -30.31 19.453 -20.531 l 35.16 23.885 c 9.614 5.994 1.161 30.511 -16.313 19.616 0 0 -38.3 -22.97 -38.3 -22.97 z m 15.854 420.21 c -12.921 8.561 -26.01 -16.01 -10.601 -26.22 l 36.33 -22.07 c 9.444 -6.257 28.24 11.612 11.07 22.985 0 0 -36.798 25.303 -36.798 25.303 z m 78.81 -518.58 c -6.934 -12.96 19.276 -22.22 27.545 -6.763 l 17.493 36.2 c 5.068 9.473 -15.16 24.795 -24.368 7.577 0 0 -20.669 -37.02 -20.669 -37.02 z" transform="matrix(0.86735 0 0 0.86735 202.86 299.75)" fill="#fff" stroke-width="9.223"/></g></svg>