<svg xmlns="http://www.w3.org/2000/svg" viewBox="0 0 725 725"><circle cx="362.5" cy="362.5" r="350" fill="#fff" stroke="#000" stroke-width="2.5"/><circle cx="362.5" cy="362.5" r="290" fill="none" stroke="#c1121c" stroke-width="93.75"/><path d="m 226.02 513.14 c 13.929 -5.28 28.27 -9.229 58.23 0 16.04 4.881 32.806 5.261 50.49 0 17.639 -6.201 36.05 -7.554 55.87 0 17.09 6.08 37.23 3.636 56.5 -1.364 19.08 -6.598 34.55 -3.295 52.21 1.364 v 15.315 c -19.297 -7.829 -38.593 -6.099 -57.89 0 -20.1 7.815 -35.02 4.421 -49.48 0 -21.605 -9.662 -40.544 -6.26 -58.899 0 -21.01 7.808 -36 3.744 -51.16 0 -25.304 -8.948 -40.783 -4.511 -56.21 0 l 0.337 -15.315 z m 0 -28.26 c 13.929 -5.28 28.27 -9.229 58.23 0 16.04 4.881 32.806 5.261 50.49 0 17.639 -6.201 36.05 -7.554 55.87 0 17.09 6.08 37.23 3.636 56.5 -1.364 19.08 -6.598 34.55 -3.295 52.21 1.364 v 15.315 c -19.297 -7.829 -38.593 -6.099 -57.89 0 -20.1 7.815 -35.02 4.421 -49.48 0 -21.605 -9.662 -40.544 -6.26 -58.899 0 -21.01 7.808 -36 3.744 -51.16 0 -25.304 -8.948 -40.783 -4.511 -56.21 0 l 0.337 -15.315 z" fill="#154889" fill-rule="evenodd"/><path d="m 225.06 336.53 v 41.863 h 274 l 0.147 -41.877 l -37.72 0.002 c -55.978 33.918 -141.91 33.11 -198.47 0.001 l -37.958 0.002 z m 229.04 47.01 h 28.21 l 3.409 5.164 l 0.106 72.52 l -5.294 5.153 l -25.473 0.318 l -4.372 -4.4 l 0.212 -75.19 l 3.197 -3.573 z m -170.38 0.597 l -3.214 3.563 l -0.218 75.19 l 4.4 4.406 l 25.462 -0.313 l 5.305 -5.156 l -0.031 -23.75 l 2.902 -3.063 l 20.1 -0.094 l 0.031 0.938 l 2.808 -0.063 c 0.085 2.01 11.227 12.25 21.499 12.25 v -0.063 c 10.263 -0.021 21.352 -10.215 21.437 -12.219 l 2.808 0.063 l 0.062 -0.969 l 20.1 0.125 l 2.777 2.906 l -0.062 25 l 4.368 4.406 l 25.462 -0.313 l 5.305 -5.156 l -0.125 -72.53 l -3.401 -5.156 h -28.21 l -3.214 3.563 l -0.062 23.75 l -4.03 4.156 l -18.941 -0.063 l 0.031 -0.969 l -3.058 -0.031 c 0 -2.891 -10.992 -12.06 -21.281 -12.06 v 0.031 c -10.279 0.019 -21.25 9.206 -21.25 12.09 h -3.058 v 1 l -18.941 0.031 l -4.119 -4.25 l -0.031 -22.09 l -3.401 -5.156 h -28.21 z m -41.15 -0.504 h 28.21 l 3.409 5.164 l 0.106 72.52 l -5.294 5.153 l -25.473 0.318 l -4.372 -4.4 l 0.212 -75.19 l 3.197 -3.573 z"/><path d="m 463.86 273.59 a 128.21 73.02 0 1 1 -256.41 0 128.21 73.02 0 1 1 256.41 0 z" transform="matrix(0.99386 0 0 1.10854 28.905 -34.673)" fill="#ec7c25" stroke="#000" stroke-width="15.243"/></svg>