<?xml version="1.0" encoding="UTF-8" standalone="no"?>
<!-- Created with Inkscape (http://www.inkscape.org/) -->
<svg
   xmlns:svg="http://www.w3.org/2000/svg"
   xmlns="http://www.w3.org/2000/svg"
   version="1.0"
   width="600"
   height="600"
   id="svg1961">
  <defs
     id="defs1963" />
  <g
     transform="translate(0.62188,-134.606)"
     id="layer1">
    <g
       transform="translate(-104.0664,-118.1725)"
       id="g3782">
      <g
         transform="translate(-7.49158,-12.56212)"
         id="g5575">
        <path
           d="M 156.81192,858.43316 L 154.73913,858.43316 L 149.76444,857.60406 L 145.20429,856.36036 L 141.05871,854.70216 L 136.91313,852.62936 L 132.76755,850.14196 L 126.13462,843.50906 L 123.64727,839.36346 L 121.57448,835.2179 L 119.91624,830.65776 L 118.67257,826.09762 L 117.84345,821.53748 L 117.84345,309.14375 L 118.67257,304.16905 L 119.91624,299.60891 L 121.57448,295.46333 L 123.64727,291.31775 L 126.13462,287.17217 L 132.76755,280.54614 L 136.91313,278.0588 L 141.05871,275.986 L 145.20429,274.32777 L 149.76444,273.0841 L 154.73913,272.25498 L 667.13305,272.25498 L 671.69325,273.0841 L 676.25335,274.32777 L 680.81345,275.986 L 684.95905,278.0588 L 689.10465,280.54614 L 695.73755,287.17217 L 698.22495,291.31775 L 700.29775,295.46333 L 701.95595,299.60891 L 703.19965,304.16905 L 704.02875,309.14375 L 704.02875,821.53748 L 703.19965,826.09762 L 701.95595,830.65776 L 700.29775,835.2179 L 698.22495,839.36346 L 695.73755,843.50906 L 689.10465,850.14196 L 684.95905,852.62936 L 680.81345,854.70216 L 676.25335,856.36036 L 671.69325,857.60406 L 667.13305,858.43316 L 156.81192,858.43316"
           style="fill:#fffefe;fill-rule:evenodd;stroke:none"
           id="path64" />
        <path
           d="M 156.81192,858.43316 L 154.73913,858.43316 M 154.73913,858.43316 L 149.76444,857.60406 M 149.76444,857.60406 L 145.20429,856.36036 M 145.20429,856.36036 L 141.05871,854.70216 M 141.05871,854.70216 L 136.91313,852.62936 M 136.91313,852.62936 L 132.76755,850.14196 M 132.76755,850.14196 L 129.45108,846.82556 L 126.13462,843.50906 M 126.13462,843.50906 L 123.64727,839.36346 M 123.64727,839.36346 L 121.57448,835.2179 M 121.57448,835.2179 L 119.91624,830.65776 M 119.91624,830.65776 L 118.67257,826.09762 M 118.67257,826.09762 L 117.84345,821.53748 M 117.84345,821.53748 L 117.84345,819.05013 L 117.84345,311.21654 L 117.84345,309.14375 M 117.84345,309.14375 L 118.67257,304.16905 M 118.67257,304.16905 L 119.91624,299.60891 M 119.91624,299.60891 L 121.57448,295.46333 M 121.57448,295.46333 L 123.64727,291.31775 M 123.64727,291.31775 L 126.13462,287.17217 M 126.13462,287.17217 L 129.45108,283.8557 L 132.76755,280.53923 M 132.76755,280.53923 L 136.91313,278.05189 M 136.91313,278.05189 L 141.05871,275.97909 M 141.05871,275.97909 L 145.20429,274.32086 M 145.20429,274.32086 L 149.76444,273.07719 M 149.76444,273.07719 L 154.73913,272.24807 M 154.73913,272.24807 L 156.81192,272.24807 L 664.64575,272.24807 L 667.13305,272.24807 M 667.13305,272.24807 L 671.69325,273.07719 M 671.69325,273.07719 L 676.25335,274.32086 M 676.25335,274.32086 L 680.81345,275.97909 M 680.81345,275.97909 L 684.95905,278.05189 M 684.95905,278.05189 L 689.10465,280.53923 M 689.10465,280.53923 L 692.42115,283.8557 L 695.73755,287.17217 M 695.73755,287.17217 L 698.22495,291.31775 M 698.22495,291.31775 L 700.29775,295.46333 M 700.29775,295.46333 L 701.95595,299.60891 M 701.95595,299.60891 L 703.19965,304.16905 M 703.19965,304.16905 L 704.02875,309.14375 M 704.02875,309.14375 L 704.02875,311.21654 L 704.02875,819.05013 L 704.02875,821.53748 M 704.02875,821.53748 L 703.19965,826.09762 M 703.19965,826.09762 L 701.95595,830.65776 M 701.95595,830.65776 L 700.29775,835.2179 M 700.29775,835.2179 L 698.22495,839.36346 M 698.22495,839.36346 L 695.73755,843.50906 M 695.73755,843.50906 L 692.42115,846.82556 L 689.10465,850.14196 M 689.10465,850.14196 L 684.95905,852.62936 M 684.95905,852.62936 L 680.81345,854.70216 M 680.81345,854.70216 L 676.25335,856.36036 M 676.25335,856.36036 L 671.69325,857.60406 M 671.69325,857.60406 L 667.13305,858.43316 M 667.13305,858.43316 L 664.64575,858.43316 M 664.64575,858.43316 L 156.81192,858.43316"
           style="stroke:black;stroke-opacity:1"
           id="path66" />
        <path
           d="M 156.81192,848.48376 C 148.23057,848.45616 142.26093,845.56806 136.08401,839.77806 L 134.01122,837.29066 L 131.93843,834.38878 L 130.2802,831.07232 L 129.03653,828.17041 L 128.20741,824.43939 L 127.79285,821.12292 L 127.79285,311.21654 C 127.97249,301.65407 130.59803,297.79867 136.08401,290.48863 L 141.88783,286.34305 L 144.78974,284.68482 L 148.1062,283.44114 L 151.83723,282.61203 L 155.15369,282.19747 L 664.64575,282.19747 C 672.60525,281.96255 679.58365,285.15465 685.37365,290.48863 L 687.86095,293.39054 L 689.93375,296.29245 L 691.59205,299.19435 L 692.83565,302.51082 L 693.66475,306.24184 L 694.07935,309.55831 L 694.07935,819.05013 C 694.37645,826.40854 691.03925,834.96917 685.37365,839.77806 L 682.88625,842.26536 L 679.98435,844.33816 L 676.66795,845.99646 L 673.76605,847.24006 L 670.03495,848.06916 L 666.71855,848.48376 L 156.81192,848.48376"
           style="fill:black;fill-rule:evenodd;stroke:none"
           id="path68" />
        <path
           d="M 207.80258,833.97423 L 679.56985,362.2072 L 679.56985,820.29381 L 678.32615,825.2685 L 677.49705,826.92674 L 672.52235,831.90144 L 670.86405,832.73055 L 665.88935,833.97423 L 207.80258,833.97423"
           style="fill:#fffefe;fill-rule:evenodd;stroke:none"
           id="path70" />
        <path
           d="M 193.29305,833.97423 L 679.56985,347.69766 L 679.56985,333.18813 L 178.78351,833.97423 L 193.29305,833.97423"
           style="fill:#fffefe;fill-rule:evenodd;stroke:none"
           id="path72" />
        <path
           d="M 164.27397,833.97423 L 155.98281,833.97423 L 154.73913,833.55967 L 153.0809,833.55967 L 151.83723,832.73055 L 151.00811,832.73055 L 678.32615,305.41273 L 678.32615,306.24184 L 679.15525,307.48552 L 679.15525,309.14375 L 679.56985,310.38743 L 679.56985,318.67859 L 164.27397,833.97423"
           style="fill:#fffefe;fill-rule:evenodd;stroke:none"
           id="path74" />
        <path
           d="M 142.30239,812.00264 L 657.59825,296.707 L 665.47485,296.707 L 667.13305,297.12156 L 668.79135,297.12156 L 670.03495,297.53612 L 670.86405,297.95068 L 143.54606,825.2685 L 143.1315,824.43939 L 142.71695,823.19571 L 142.71695,821.53748 L 142.30239,819.87925 L 142.30239,812.00264"
           style="fill:#fffefe;fill-rule:evenodd;stroke:none"
           id="path76" />
        <path
           d="M 142.30239,797.4931 L 643.08865,296.707 L 628.57915,296.707 L 142.30239,782.98357 L 142.30239,797.4931"
           style="fill:#fffefe;fill-rule:evenodd;stroke:none"
           id="path78" />
        <path
           d="M 142.30239,768.47403 L 614.06965,296.707 L 155.98281,296.707 L 151.00811,297.95068 L 149.34988,298.7798 L 144.37518,303.75449 L 143.54606,305.41273 L 142.30239,310.38743 L 142.30239,768.47403"
           style="fill:#fffefe;fill-rule:evenodd;stroke:none"
           id="path80" />
        <path
           d="M 587.53785,453.82456 C 632.77315,597.05442 498.58755,731.73726 354.97074,686.39171 L 396.01205,645.76501 C 483.53905,654.38091 555.71365,582.50343 546.91115,494.86582 L 587.53785,453.82456 z M 536.96175,373.81483 C 463.55045,305.6131 350.88735,308.57028 279.52115,378.37497 C 209.3779,451.09539 206.75237,561.14677 274.96101,636.23017 L 309.36934,601.40728 C 198.93795,468.08537 369.05881,297.82631 502.55345,408.22316 L 536.96175,373.81483 z M 584.22145,443.04605 L 581.73405,437.65679 L 579.66125,432.68209 L 541.93645,470.40689 L 542.76565,473.3088 L 544.00925,479.11261 L 544.83845,482.01452 L 584.22145,443.04605 z M 344.19223,683.07525 L 338.80297,681.00246 L 333.82828,678.51511 L 371.55307,640.79031 L 374.45495,641.61943 L 380.25875,642.8631 L 383.16075,643.69222 L 344.19223,683.07525 z M 575.10115,423.14726 L 572.19925,418.17256 L 569.71185,414.02698 L 533.64535,449.67898 L 534.88905,452.16633 L 536.96175,457.14103 L 538.20545,459.62838 L 575.10115,423.14726 z M 324.29344,673.95497 L 319.31874,671.05306 L 314.7586,668.56571 L 350.82516,632.49915 L 353.31251,633.74282 L 358.28721,635.81561 L 360.77456,637.05929 L 324.29344,673.95497 z M 563.90805,404.9067 L 561.00615,400.76111 L 557.68975,396.61553 L 522.86685,431.43842 L 524.52505,433.51121 L 527.42695,438.07135 L 528.67065,440.14414 L 563.90805,404.9067 z M 306.05288,662.7619 L 301.90729,659.85999 L 297.76171,656.54352 L 332.5846,621.72063 L 334.65739,623.37887 L 339.21753,626.28077 L 341.29032,627.52445 L 306.05288,662.7619 z M 551.47135,388.73893 L 548.15485,384.59334 L 544.42385,380.86232 L 510.01555,415.68521 L 511.67375,417.34344 L 514.99025,421.07447 L 516.64845,423.14726 L 551.47135,388.73893 z M 289.88511,650.32515 L 285.73953,647.00868 L 282.0085,643.27766 L 316.83139,608.86933 L 318.48962,610.52756 L 322.22065,613.84403 L 324.29344,615.50226 L 289.88511,650.32515"
           style="fill:#999;fill-opacity:1;fill-rule:evenodd;stroke:none"
           id="path82" />
        <path
           d="M 306.05288,549.58751 L 328.85358,549.58751 C 330.73982,556.90446 336.70255,564.36651 344.19223,566.58439 L 327.19535,583.58128 C 316.4652,577.77747 306.57798,561.78243 306.05288,549.58751 z M 376.11325,535.07797 C 371.22834,519.0553 357.80356,515.33809 342.534,516.83741 L 342.534,496.93862 C 356.22133,496.89716 360.78147,498.3412 370.72396,488.23289 C 376.14775,481.9247 377.04595,468.45847 371.55307,462.11573 C 361.45167,444.28972 333.57263,450.00372 330.09725,469.99233 L 307.29655,469.99233 C 310.35737,434.50615 351.98593,416.06522 380.25875,438.07135 C 402.57585,455.65553 405.27735,489.7253 381.08795,506.88801 C 387.36155,511.36524 388.21835,512.22199 392.69555,518.49564 L 376.11325,535.07797 z M 399.32845,540.46723 L 349.16693,590.62877 L 347.09414,590.62877 L 342.94856,589.79965 L 339.21753,588.97054 L 337.14474,588.14142 L 357.87265,567.41351 L 359.11633,566.99895 L 362.01823,566.16984 L 364.09103,565.34072 L 366.57837,563.68249 L 368.65117,562.02425 L 370.72396,559.95146 L 372.38215,557.87867 L 373.62585,555.80588 L 374.86955,553.31853 L 375.69865,550.83118 L 376.11325,549.17986 L 397.67025,528.03739 C 399.25245,533.77902 399.49425,535.3198 399.32845,541.29634 L 399.32845,540.47414 L 399.32845,540.46723 z M 397.67025,556.635 C 393.62825,572.20166 380.77695,584.96314 365.3347,589.38509 L 397.67025,556.635 z M 422.12915,488.64745 C 417.73485,451.20594 442.15925,421.73085 480.58185,430.19475 L 456.53755,454.65368 L 455.29385,455.06824 L 453.63555,456.72647 L 451.56285,457.97015 L 449.90455,460.04294 L 448.66085,461.70117 L 447.83175,462.94484 L 422.12915,488.64745 z M 490.53125,434.75489 L 492.18955,435.584 L 495.09145,437.65679 L 497.57875,439.72958 L 498.82245,440.97326 L 482.65465,457.14103 C 478.14285,453.13363 478.54365,453.61728 473.11985,452.16633 L 490.53125,434.75489 z M 490.53125,478.2835 C 490.20655,471.76111 491.53315,471.77493 488.87305,465.43219 L 505.45535,448.84986 L 506.69905,450.09354 L 510.01555,456.72647 L 510.43005,458.3847 L 490.53125,478.2835 z M 490.53125,507.30257 L 490.53125,492.79303 L 513.33195,469.99233 L 513.33195,484.50187 L 490.53125,507.30257 z M 490.53125,536.32165 L 490.53125,521.81211 L 513.33195,499.01141 L 513.33195,513.52094 L 490.53125,536.32165 z M 513.33195,528.03048 C 519.12195,568.21499 493.19825,599.09958 452.80645,588.55598 L 473.94895,567.41351 L 475.19265,566.99895 L 480.16735,564.5116 L 481.82555,563.26793 L 483.89835,561.6097 L 487.21485,557.46411 L 488.45845,555.39132 L 489.70215,551.6603 L 513.33195,528.03048 z M 451.14825,561.19514 L 451.97735,562.02425 L 455.29385,564.5116 L 456.95205,565.34072 L 459.02485,566.58439 L 460.26855,566.58439 L 443.27165,583.58128 L 441.61345,582.75216 L 439.12605,580.67937 L 436.22415,578.60658 L 435.39505,577.36291 L 451.14825,561.19514 z M 444.92985,538.39444 C 444.77785,543.45896 444.56365,547.36962 446.17355,552.07486 L 428.76215,569.07174 L 426.27475,564.09704 L 425.03105,560.78058 L 424.20195,559.12235 L 444.92985,538.39444 z M 422.12915,546.6856 L 422.12915,532.17606 L 444.92985,509.37536 L 444.92985,523.8849 L 422.12915,546.6856 z M 422.12915,517.66653 L 422.12915,503.15699 L 444.92985,480.35629 L 444.92985,494.86582 L 422.12915,517.66653"
           style="fill:#999;fill-opacity:1;fill-rule:evenodd;stroke:none"
           id="path84" />
        <path
           d="M 274.54645,806.19883 L 274.54645,796.24943 L 311.85669,735.30937 L 306.05288,735.30937 L 317.24595,724.1163 L 327.6099,724.1163 L 327.6099,733.65114 L 290.29967,794.5912 L 327.6099,794.5912 L 327.6099,806.19883 L 274.54645,806.19883 z M 291.54334,735.30937 L 302.73641,724.1163 L 288.22687,724.1163 L 277.0338,735.30937 L 291.54334,735.30937 z M 339.21753,778.00887 C 337.93931,753.43939 335.87343,729.72666 364.92014,723.70174 C 382.76685,721.9606 397.53895,734.99155 397.67025,752.72082 C 399.43215,776.74447 400.40635,801.29322 371.96765,807.02794 C 354.74965,808.776 339.10007,795.33049 339.21753,778.00887 z M 351.65428,778.00887 C 351.78556,763.9968 346.14065,739.57241 366.16382,736.13849 C 376.00265,734.93627 385.44765,742.66087 385.23345,752.72082 C 383.65125,770.07699 392.02535,788.96702 370.72396,794.5912 C 360.8782,795.8556 351.7441,787.96518 351.65428,778.00887 z M 413.83805,806.19883 L 413.83805,724.1163 L 425.44565,724.1163 L 462.75585,782.98357 L 462.75585,724.1163 L 475.19265,724.1163 L 475.19265,806.19883 L 463.58495,806.19883 L 426.27475,747.74612 L 426.27475,806.19883 L 413.83805,806.19883 z M 494.26235,806.19883 L 494.26235,724.1163 L 546.91115,724.1163 L 546.91115,736.13849 L 506.69905,736.13849 L 506.69905,759.35375 L 541.10735,759.35375 L 541.10735,770.54682 L 506.69905,770.54682 L 506.69905,794.5912 L 546.91115,794.5912 L 546.91115,806.19883 L 494.26235,806.19883"
           style="fill:#999;fill-opacity:1;fill-rule:evenodd;stroke:none"
           id="path86" />
      </g>
    </g>
  </g>
</svg>
