<?xml version="1.0" encoding="UTF-8" standalone="no"?>
<!-- Created with Inkscape (http://www.inkscape.org/) -->
<svg
   xmlns:svg="http://www.w3.org/2000/svg"
   xmlns="http://www.w3.org/2000/svg"
   version="1.0"
   width="725"
   height="725"
   id="svg2">
  <defs
     id="defs9" />
  <circle
     cx="362.5"
     cy="362.5"
     r="350"
     style="fill:white;stroke:black;stroke-width:2.5px"
     id="circle4" />
  <path
     d="M 378.84385,376.4499 C 378.2381,331.79707 375.81508,370.21925 402.72793,304.01885 C 422.19864,259.01987 402.46833,271.13497 503.19678,269.49077 C 592.84861,271.30804 574.76249,258.32757 595.35817,306.09571 C 621.14604,367.27702 619.15571,335.25852 618.98264,375.15183 C 618.03074,418.93931 634.21307,407.68956 498.52382,409.16069 C 363.87304,407.34342 379.79576,418.76623 378.84385,376.4499 z M 406.10283,333.35471 L 424.53513,290.77876 C 427.97415,283.2159 426.87695,284.33232 434.91951,284.28852 L 563.78838,284.27464 C 570.76472,284.30027 569.74123,283.84728 572.6151,290.50526 L 590.94482,332.83548 L 406.10283,333.35471 z M 392.92046,414.0452 L 427.39083,413.96826 C 427.28507,457.24612 430.87151,454.83273 412.07386,455.11156 C 389.68976,455.02504 393.22815,457.28459 392.92046,414.0452 z M 570.43565,414.35287 L 604.96371,414.35287 C 604.73296,457.69805 607.88672,454.73657 588.34871,454.85195 C 568.14725,454.58273 570.71449,457.77496 570.43565,414.35287 z "
     style="fill:#999;fill-opacity:1;fill-rule:evenodd;stroke:none"
     id="path1899" />
  <circle
     cx="362.5"
     cy="362.5"
     r="290"
     transform="matrix(1.143036,0,0,1.143036,-51.85055,-51.85055)"
     style="fill:none;stroke:black;stroke-width:10;stroke-miterlimit:4;stroke-dasharray:none;stroke-opacity:1"
     id="circle6" />
  <path
     d="M 103.9559,376.55431 C 103.35095,331.96075 100.93115,370.33195 127.80827,304.21941 C 147.25314,259.28016 127.54901,271.37918 228.14377,269.73717 C 317.67658,271.55203 299.61447,258.58878 320.18281,306.29352 C 345.93645,367.39361 343.94875,335.41761 343.77592,375.25797 C 342.82528,418.98733 358.98614,407.75251 223.477,409.22168 C 89.004957,407.40683 104.90654,418.81447 103.9559,376.55431 z M 131.1787,333.51633 L 149.58653,290.99689 C 153.02097,283.44407 151.92523,284.55902 159.95711,284.51527 L 288.65493,284.5014 C 295.62201,284.52701 294.59988,284.07463 297.46992,290.72375 L 315.77532,332.9978 L 131.1787,333.51633 z M 118.01382,414.09971 L 152.43843,414.02288 C 152.33282,457.24329 155.9145,454.8331 137.14179,455.11156 C 114.78741,455.02515 118.3211,457.2817 118.01382,414.09971 z M 295.29337,414.40698 L 329.77561,414.40698 C 329.54516,457.69461 332.69474,454.73707 313.18266,454.8523 C 293.00801,454.58344 295.57184,457.77142 295.29337,414.40698 z "
     style="fill:#999;fill-opacity:1;fill-rule:evenodd;stroke:none"
     id="Car" />
  <path
     d="M 1527.1882,368.42609 L 1526.6952,346.24279 M 1526.6952,346.24279 L 1521.2727,301.38322 M 1521.2727,301.38322 L 1509.9345,258.00253 M 1509.9345,258.00253 L 1493.6668,216.10074 M 1493.6668,216.10074 L 1471.9764,177.15672 M 1471.9764,177.15672 L 1445.3565,140.67751 M 1445.3565,140.67751 L 1414.7928,108.14199 M 1414.7928,108.14199 L 1380.2854,79.550179 M 1380.2854,79.550179 L 1342.3273,55.395027 M 1342.3273,55.395027 L 1301.9044,36.169497 M 1301.9044,36.169497 L 1259.0167,22.366552 M 1259.0167,22.366552 L 1214.6501,13.986193 M 1214.6501,13.986193 L 1170.2835,11.02842 M 1170.2835,11.02842 L 1125.4239,13.986193 M 1125.4239,13.986193 L 1081.5503,22.366552 M 1081.5503,22.366552 L 1038.6626,36.169497 M 1038.6626,36.169497 L 998.23965,55.395027 M 998.23965,55.395027 L 960.28155,79.550179 M 960.28155,79.550179 L 925.77419,108.14199 M 925.77419,108.14199 L 895.21053,140.67751 M 895.21053,140.67751 L 868.59056,177.15672 M 868.59056,177.15672 L 846.90022,216.10074 M 846.90022,216.10074 L 830.63247,258.00253 M 830.63247,258.00253 L 819.29433,301.38322 M 819.29433,301.38322 L 813.37878,346.24279 M 813.37878,346.24279 L 813.37878,390.60939 M 813.37878,390.60939 L 819.29433,435.46896 M 819.29433,435.46896 L 830.63247,478.84965 M 830.63247,478.84965 L 846.90022,520.25848 M 846.90022,520.25848 L 868.59056,559.69546 M 868.59056,559.69546 L 895.21053,596.17467 M 895.21053,596.17467 L 925.77419,628.71019 M 925.77419,628.71019 L 960.28155,657.30199 M 960.28155,657.30199 L 998.23965,681.45714 M 998.23965,681.45714 L 1038.6626,700.68268 M 1038.6626,700.68268 L 1081.5503,714.48562 M 1081.5503,714.48562 L 1125.4239,722.86599 M 1125.4239,722.86599 L 1170.2835,725.3308 M 1170.2835,725.3308 L 1214.6501,722.86599 M 1214.6501,722.86599 L 1259.0167,714.48562 M 1259.0167,714.48562 L 1301.9044,700.68268 M 1301.9044,700.68268 L 1342.3273,681.45714 M 1342.3273,681.45714 L 1380.2854,657.30199 M 1380.2854,657.30199 L 1414.7928,628.71019 M 1414.7928,628.71019 L 1445.3565,596.17467 M 1445.3565,596.17467 L 1471.9764,559.69546 M 1471.9764,559.69546 L 1493.6668,520.25848 M 1493.6668,520.25848 L 1509.9345,478.84965 M 1509.9345,478.84965 L 1521.2727,435.46896 M 1521.2727,435.46896 L 1526.6952,390.60939 M 1526.6952,390.60939 L 1527.1882,368.42609"
     id="path86" />
  <path
     d="M 1443.8776,188.98781 C 1631.9838,491.51057 1293.3762,830.12636 990.84521,642.02017 L 1443.8776,188.98781"
     style="fill:none;fill-opacity:1;fill-rule:evenodd;stroke:none"
     id="path100" />
  <g
     transform="translate(-795.9656,1.917989)"
     id="g2830">
    <path
       d="M 1360.911,104.19829 L 1366.3336,108.14199 L 1371.2632,111.59273 L 908.85799,573.63824 L 901.46355,563.28603 L 1360.911,104.19829"
       style="fill:black;fill-rule:evenodd;stroke:none"
       id="path92" />
    <path
       d="M 1386.9233,122.4379 L 1391.36,126.87456 L 1395.7967,130.81826 L 931.46616,595.14872 L 923.08581,586.2754 L 1386.9233,122.4379"
       style="fill:black;fill-rule:evenodd;stroke:none"
       id="path94" />
    <path
       d="M 1417.3723,152.01564 L 1412.9356,147.57898 L 1408.499,142.64935 L 944.34835,606.97982 L 953.71463,615.85314 L 1417.3723,152.01564"
       style="fill:black;fill-rule:evenodd;stroke:none"
       id="path96" />
    <path
       d="M 1434.5113,175.18487 L 1430.5676,169.76228 L 1426.6239,164.83266 L 966.69006,624.76649 L 971.61968,628.71019 L 977.04227,632.65388 L 1434.5113,175.18487"
       style="fill:black;fill-rule:evenodd;stroke:none"
       id="path98" />
    <path
       d="M 1339.8283,86.393619 L 1345.2509,90.337319 L 1350.1805,93.788059 L 889.75367,554.21485 L 886.30293,549.28523 L 882.35923,543.86264 L 1339.8283,86.393619"
       style="fill:black;fill-rule:evenodd;stroke:none"
       id="path2828" />
  </g>
</svg>
