<?xml version="1.0" encoding="UTF-8" standalone="no"?>
<!-- Created with Inkscape (http://www.inkscape.org/) -->

<svg
   xmlns:dc="http://purl.org/dc/elements/1.1/"
   xmlns:cc="http://creativecommons.org/ns#"
   xmlns:rdf="http://www.w3.org/1999/02/22-rdf-syntax-ns#"
   xmlns:svg="http://www.w3.org/2000/svg"
   xmlns="http://www.w3.org/2000/svg"
   xmlns:sodipodi="http://sodipodi.sourceforge.net/DTD/sodipodi-0.dtd"
   xmlns:inkscape="http://www.inkscape.org/namespaces/inkscape"
   id="svg12514"
   version="1.1"
   inkscape:version="0.48.5 r10040"
   width="600"
   height="600"
   xml:space="preserve"
   sodipodi:docname="Zeichen_282.pdf"><metadata
     id="metadata12520"><rdf:RDF><cc:Work
         rdf:about=""><dc:format>image/svg+xml</dc:format><dc:type
           rdf:resource="http://purl.org/dc/dcmitype/StillImage" /><dc:title></dc:title></cc:Work></rdf:RDF></metadata><defs
     id="defs12518" /><sodipodi:namedview
     pagecolor="#ffffff"
     bordercolor="#666666"
     borderopacity="1"
     objecttolerance="10"
     gridtolerance="10"
     guidetolerance="10"
     inkscape:pageopacity="0"
     inkscape:pageshadow="2"
     inkscape:window-width="640"
     inkscape:window-height="480"
     id="namedview12516"
     showgrid="false"
     inkscape:zoom="0.39333333"
     inkscape:cx="300"
     inkscape:cy="300"
     inkscape:window-x="0"
     inkscape:window-y="0"
     inkscape:window-maximized="0"
     inkscape:current-layer="g12522" /><g
     id="g12522"
     inkscape:groupmode="layer"
     inkscape:label="Zeichen_282"
     transform="matrix(1.25,0,0,-1.25,0,600)"><g
       id="g12524"><g
         id="g12526"
         transform="matrix(1,0,0,-1,0,480)"><path
           d="M 473.602,240 C 473.602,369.016 369.016,473.602 240,473.602 110.984,473.602 6.398,369.016 6.398,240 6.398,110.984 110.984,6.398 240,6.398 369.016,6.398 473.602,110.984 473.602,240 z"
           style="fill:#ffffff;fill-opacity:1;fill-rule:nonzero;stroke:#000000;stroke-opacity:1;stroke-width:0.8;stroke-linecap:butt;stroke-linejoin:miter;stroke-miterlimit:4;stroke-dasharray:none"
           id="path12528" /></g><g
         id="g12530"
         transform="matrix(1,0,0,-1,0,480)"><path
           d="m 364.801,60.801 -304,304 m 13.597,13.597 304,-304 M 392,88 88,392 m 13.602,13.602 304,-304 m 13.597,13.597 -304,304"
           style="fill:#000000;fill-opacity:1;fill-rule:nonzero;stroke:#000000;stroke-opacity:1;stroke-width:10.8;stroke-linecap:butt;stroke-linejoin:miter;stroke-miterlimit:4;stroke-dasharray:none"
           id="path12532" /></g><g
         id="g12534"
         transform="matrix(1,0,0,-1,0,480)"><path
           d="M 459.922,240 C 459.922,361.457 361.457,459.922 240,459.922 118.543,459.922 20.078,361.457 20.078,240 20.078,118.543 118.543,20.078 240,20.078 c 121.457,0 219.922,98.465 219.922,219.922 z"
           style="fill:none;stroke:#000000;stroke-opacity:1;stroke-width:11.84;stroke-linecap:butt;stroke-linejoin:miter;stroke-miterlimit:4;stroke-dasharray:none"
           id="path12536" /></g></g></g></svg>