<svg xmlns="http://www.w3.org/2000/svg" viewBox="0 0 600 600"><g stroke="#000"><path d="m 46.34 592.52 c -8.699 -0.028 -21.667 -5.02 -27.58 -11.701 l -2.925 -3.343 l -2.507 -3.761 l -2.507 -4.179 l -1.672 -4.597 l -0.836 -4.597 l -0.836 -4.597 v -509.4 c 0.731 -12.62 3.496 -17.878 11.283 -27.58 l 3.761 -2.925 l 3.761 -2.507 l 4.179 -2.507 l 4.597 -1.672 l 9.193 -1.672 h 508.98 c 11.763 0.494 18.86 3.315 27.58 11.283 l 3.343 3.761 l 2.507 3.761 l 2.089 4.179 l 1.672 4.597 l 1.254 4.597 l 0.836 4.597 v 508.98 c 0.306 7.8 -5.04 22.872 -11.701 27.58 l -3.343 3.343 l -3.761 2.507 l -4.179 2.089 l -4.597 1.672 l -4.597 1.254 l -4.597 0.836 h -509.4" fill="#fffefe" fill-rule="evenodd"/><path d="m 52.971 575.52 c -7.385 0.095 -14.628 -3.109 -19.957 -8.146 l -2.444 -2.444 l -2.036 -3.258 l -1.222 -2.851 l -1.222 -3.258 l -0.815 -3.258 l -0.407 -3.258 l -0.407 -2.036 v -494.04 c 1.154 -6.795 2.681 -15.45 8.553 -19.957 l 2.444 -2.444 l 2.851 -2.036 l 6.517 -2.444 l 3.258 -0.815 l 3.258 -0.407 l 1.629 -0.401 h 494.04 c 7.25 1.011 15.368 2.695 20.364 8.553 l 2.036 2.444 l 2.036 2.844 l 1.629 3.258 l 1.222 3.258 l 0.815 3.258 l 0.407 3.258 v 495.67 c 0.312 7.589 -3.224 14.784 -8.146 20.364 l -2.444 2.036 l -3.258 2.036 l -2.851 1.629 l -3.258 1.222 l -3.258 0.815 l -3.258 0.407 h -496.07" fill="none" stroke-width="15"/></g><g fill-rule="evenodd"><path d="m 299.86 60.855 c -102.08 0 -185.44 83.36 -185.44 185.44 0 102.08 83.36 185.44 185.44 185.44 102.08 0 185.44 -83.36 185.44 -185.44 0 -102.08 -83.36 -185.44 -185.44 -185.44 z m 0 51.607 c 74.16 0 133.83 59.675 133.83 133.83 0 74.16 -59.675 133.83 -133.83 133.83 -74.16 0 -133.83 -59.675 -133.83 -133.83 0 -74.16 59.675 -133.83 133.83 -133.83 z" fill="#c1121c"/><path d="m 437.48 246.3 c 0 75.965 -61.65 137.62 -137.62 137.62 -75.965 0 -137.62 -61.65 -137.62 -137.62 0 -75.965 61.65 -137.62 137.62 -137.62 75.965 0 137.62 61.65 137.62 137.62 z" fill="#154889"/></g><path d="m 199.57 146.01 l 200.58 200.58" fill="none" stroke="#c1121c" stroke-width="48.17"/><path d="m 46.34 592.52 h -2.089 m 0 0 l -4.597 -0.836 m 0 0 l -4.597 -1.254 m 0 0 l -4.597 -1.672 m 0 0 l -4.179 -2.089 m 0 0 l -3.761 -2.507 m 0 0 l -3.761 -3.343 m 0 0 l -2.925 -3.343 m 0 0 l -2.507 -3.761 m 0 0 l -2.507 -4.179 m 0 0 l -1.672 -4.597 m 0 0 l -0.836 -4.597 m 0 0 l -0.836 -4.597 m 0 0 v -2.507 v -506.89 v -2.089 m 0 0 l 0.836 -4.597 m 0 0 l 0.836 -4.597 m 0 0 l 1.672 -4.597 m 0 0 l 2.507 -4.179 m 0 0 l 2.507 -3.761 m 0 0 l 2.925 -3.761 m 0 0 l 3.761 -2.925 m 0 0 l 3.761 -2.507 m 0 0 l 4.179 -2.507 m 0 0 l 4.597 -1.672 m 0 0 l 4.597 -0.836 l 4.597 -0.836 m 0 0 h 2.089 h 506.89 h 2.507 m 0 0 l 4.597 0.836 l 4.597 0.836 m 0 0 l 4.597 1.672 m 0 0 l 4.179 2.507 m 0 0 l 3.761 2.507 m 0 0 l 3.343 2.925 m 0 0 l 3.343 3.761 m 0 0 l 2.507 3.761 m 0 0 l 2.089 4.179 m 0 0 l 1.672 4.597 m 0 0 l 1.254 4.597 m 0 0 l 0.836 4.597 m 0 0 v 2.089 v 506.89 v 2.507 m 0 0 l -0.836 4.597 m 0 0 l -1.254 4.597 m 0 0 l -1.672 4.597 m 0 0 l -2.089 4.179 m 0 0 l -2.507 3.761 m 0 0 l -3.343 3.343 l -3.343 3.343 m 0 0 l -3.761 2.507 m 0 0 l -4.179 2.089 m 0 0 l -4.597 1.672 m 0 0 l -4.597 1.254 m 0 0 l -4.597 0.836 m 0 0 h -2.507 m 0 0 h -506.89"/><path d="m 164.18 540.7 v -10.447 l 37.19 -60.59 h -35.938 v -10.865 h 51.4 v 9.193 l -37.609 61.01 h 37.609 v 11.701 h -52.653 z m 64.35 -28.834 c -2.222 -22.11 -2.236 -49.972 25.491 -53.49 8.149 -1.295 17.969 1.588 23.819 7.522 7.536 8.149 7.445 10.844 9.193 21.312 1.86 22.809 1.86 49.34 -25.909 53.907 -17.21 2.145 -33.24 -11.784 -32.595 -29.25 z m 12.12 0 c 1.47 -16.882 -6.456 -36.31 14.626 -41.37 9.987 -1.114 19.271 6.408 19.223 16.715 0.432 13.09 5.063 38.793 -14.626 41.37 -10.05 1.665 -19.32 -6.554 -19.223 -16.715 z m 62.26 28.834 v -81.905 h 11.701 l 37.19 58.5 v -58.5 h 12.536 v 81.905 h -11.701 l -37.19 -58.5 v 58.5 h -12.536 z m 80.23 0 v -81.905 h 52.653 v 11.701 h -40.12 v 23.401 h 34.27 v 10.865 h -34.27 v 24.24 h 40.12 v 11.701 h -52.653" fill-rule="evenodd"/></svg>