<svg xmlns="http://www.w3.org/2000/svg" viewBox="0 0 800 1090.91"><path d="m 0 1090.91 v -1090.91 h 800 v 1090.91 h -800 z" fill="#154889"/><path d="m 273.94 1018.18 c -10.711 0 -19.393 -8.684 -19.393 -19.394 v -252.12 c 0 -10.714 8.682 -19.396 19.393 -19.396 h 252.12 c 10.711 0 19.396 8.682 19.396 19.396 v 252.12 c 0 10.71 -8.685 19.394 -19.396 19.394 h -252.12 z m 0 -7.274 h 252.12 c 6.696 0 12.12 -5.426 12.12 -12.12 v -252.12 c 0 -6.696 -5.425 -12.12 -12.12 -12.12 h -252.12 c -6.693 0 -12.12 5.428 -12.12 12.12 v 252.12 c 0 6.694 5.426 12.12 12.12 12.12 z m 55.757 -36.36 v -203.64 h 80 c 34.14 0 61.816 27.678 61.816 61.819 0 34.14 -27.675 61.818 -61.816 61.818 h -49.09 v 80 h -30.908 z m 30.908 -109.09 h 47.28 c 18.07 0 32.728 -14.652 32.728 -32.728 0 -18.07 -14.655 -32.727 -32.728 -32.727 h -47.28 v 65.45 m 39.4 -392.73 l -63.33 -236.37 h 126.67 l -63.33 236.37 m -178.09 -327.27 l 13.313 -36.36 h 4.544 l 13.313 36.36 h -5.845 l -2.737 -8.116 h -14.01 l -2.735 8.116 h -5.845 z m 10.221 -12.986 h 10.724 l -5.361 -15.911 l -5.363 15.911 z m 26.14 12.986 v -36.36 h 5.195 l 16.558 25.973 v -25.973 h 5.519 v 36.36 h -5.195 l -16.556 -25.973 v 25.973 h -5.521 z m 35.714 0 v -36.36 h 5.521 v 18.83 l 15.255 -18.83 h 6.496 l -11.687 14.286 l 12.983 22.08 h -6.493 l -10.06 -17.857 l -6.493 6.82 v 11.04 h -5.521 z m 31.817 -36.36 h 5.52 v 23.701 c 0 4.126 3.344 7.469 7.469 7.469 4.123 0 7.466 -3.344 7.466 -7.469 v -23.701 h 5.517 v 23.701 c 0 7.174 -5.813 12.986 -12.983 12.986 -7.174 0 -12.989 -5.813 -12.989 -12.986 v -23.701 z m 33.768 36.36 v -36.36 h 5.194 l 16.558 25.973 v -25.973 h 5.517 v 36.36 h -5.191 l -16.558 -25.973 v 25.973 h -5.52 z m 35.714 0 v -36.36 h 23.377 v 5.194 h -17.857 v 10.714 h 15.259 v 4.871 h -15.259 v 15.585 h -5.52 z m 36.687 0 v -31.496 h -10.07 v -4.868 h 25.656 v 4.868 h -10.07 v 31.496 h -5.52 z m 17.534 -4.68 l 3.565 -4.212 c 2.814 2.383 6.385 3.691 10.07 3.691 1.275 0 2.543 -0.154 3.778 -0.465 c 2.167 -0.542 3.688 -2.491 3.688 -4.726 0 -2.441 -1.81 -4.507 -4.23 -4.828 l -5.899 -0.779 c -5.169 -0.687 -9.03 -5.092 -9.03 -10.302 0 -5.256 3.925 -9.68 9.141 -10.314 c 0.847 -0.102 1.696 -0.154 2.549 -0.154 4.289 0 8.479 1.302 12.01 3.738 l -3.131 4.544 c -2.614 -1.798 -5.711 -2.765 -8.882 -2.765 -0.631 0 -1.259 0.04 -1.887 0.117 c -2.445 0.296 -4.283 2.371 -4.283 4.834 0 2.441 1.81 4.507 4.23 4.828 l 5.902 0.782 c 5.163 0.683 9.02 5.089 9.02 10.299 0 4.769 -3.245 8.925 -7.869 10.08 c -1.675 0.422 -3.393 0.631 -5.117 0.631 -4.994 0 -9.828 -1.77 -13.636 -5 z m 31.17 4.68 v -4.544 l 16.561 -26.952 h -15.911 v -4.868 h 22.728 v 4.221 l -16.558 26.949 h 16.558 v 5.194 h -23.377 z m 30.523 0 v -36.36 h 23.374 v 5.194 h -17.857 v 10.388 h 15.259 v 4.874 h -15.259 v 10.714 h 17.857 v 5.194 h -23.374 z m 30.517 0 v -36.36 h 5.517 v 36.36 h -5.517 z m 20.779 0 v -31.496 h -10.06 v -4.868 h 25.65 v 4.868 h -10.06 v 31.496 h -5.52 m -273.93 311.67 l -139.25 116.87 c 62.18 74.11 153.93 116.93 250.67 116.93 96.74 0 188.55 -42.824 250.73 -116.93 l -139.32 -116.87 c -27.638 32.937 -68.42 51.955 -111.41 51.955 -42.996 0 -83.78 -19.02 -111.41 -51.955 z" fill="#fff"/><path d="m 320.49 494.09 l 6.293 3.633 l -10.908 18.895 l -6.296 -3.636 l 10.911 -18.892 z m -60.31 74.35 l 10.796 6.235 l -1.947 3.371 c -0.546 0.948 -0.833 2.023 -0.833 3.119 0 3.442 2.789 6.231 6.232 6.231 2.226 0 4.284 -1.188 5.397 -3.116 l 10.52 -18.22 c 0.546 -0.945 0.836 -2.023 0.836 -3.116 0 -3.445 -2.791 -6.235 -6.235 -6.235 -1.687 0 -3.307 0.687 -4.479 1.9 l -9.589 -5.588 l 23.378 -40.489 l 31.04 17.922 l -5.844 10.126 l -21.597 -12.469 l -11.743 20.342 c 1.107 -0.259 2.237 -0.391 3.373 -0.391 8.177 0 14.805 6.629 14.805 14.806 0 2.599 -0.683 5.151 -1.983 7.401 l -11.687 20.246 c -3.34 5.785 -9.515 9.347 -16.196 9.347 -10.327 0 -18.701 -8.371 -18.701 -18.698 0 -3.285 0.865 -6.509 2.506 -9.353 l 1.947 -3.371 z m -19.27 39.56 l 2.206 -3.824 l 5.157 -0.625 l 3.601 2.084 l -14.545 25.19 l -3.599 -2.078 l 12.338 -21.37 l -5.157 0.622 z m 3.618 26.983 l 21.02 -16.663 l -6.751 -3.892 l -2.078 3.599 l -3.597 -2.078 l 4.154 -7.201 l 14.398 8.313 l -1.95 3.374 l -21.14 16.884 l -4.048 -2.337 z m 151.84 -118.61 h 7.272 v 21.816 h -7.272 v -21.816 z m 3.645 29.09 h 14.03 l -14.381 36.779 c 1.604 -0.616 3.313 -0.936 5.03 -0.936 7.746 0 14.03 6.281 14.03 14.03 l -0.003 19.48 c 0 10.329 -8.371 18.704 -18.701 18.704 -10.329 0 -18.701 -8.374 -18.701 -18.704 v -16.364 c 0 -2.254 0.406 -4.489 1.204 -6.598 l 17.497 -46.39 z m -6.235 69.35 c 0 3.445 2.792 6.235 6.235 6.235 3.442 0 6.235 -2.789 6.235 -6.235 v -16.364 c 0 -3.442 -2.792 -6.232 -6.235 -6.232 -3.442 0 -6.235 2.789 -6.235 6.232 v 16.364 z m -9.886 40 v -4.415 l 4.156 -3.119 h 4.156 v 29.09 h -4.156 v -24.674 l -4.156 3.119 z m 17.928 6.425 c -1.807 -1.429 -2.863 -3.602 -2.863 -5.908 c 0 -4.587 3.722 -8.313 8.313 -8.313 4.591 0 8.313 3.725 8.313 8.313 c 0 2.306 -1.056 4.48 -2.863 5.908 c 2.121 1.512 3.381 3.956 3.381 6.558 c 0 4.877 -3.953 8.833 -8.83 8.833 -4.877 0 -8.83 -3.956 -8.83 -8.833 0 -2.602 1.259 -5.05 3.381 -6.558 z m 0.776 6.558 c 0 -2.58 2.094 -4.674 4.674 -4.674 2.586 0 4.677 2.094 4.677 4.674 0 2.586 -2.091 4.68 -4.677 4.68 -2.58 0 -4.674 -2.094 -4.674 -4.68 z m 0.517 -12.466 c 0 -2.294 1.863 -4.156 4.156 -4.156 2.297 0 4.156 1.863 4.156 4.156 0 2.294 -1.86 4.156 -4.156 4.156 -2.294 0 -4.156 -1.863 -4.156 -4.156 z m 70.1 -157.6 l 6.299 -3.633 l 10.908 18.892 l -6.299 3.636 l -10.908 -18.895 z m 12.417 51.616 l -10.911 -18.895 l 32.392 -18.701 l 5.847 10.12 l 19.572 75.979 l -11.475 6.623 l -18.895 -76.37 l -12.149 7.01 l 5.068 8.775 l -9.449 5.453 z m 46.44 74.26 l -2.208 -3.821 l 2.041 -4.778 l 3.599 -2.078 l 14.544 25.19 l -3.602 2.075 l -12.337 -21.367 l -2.038 4.775 z m 30.12 7.503 l -4.049 2.34 l -0.853 -13.892 c -1.278 1.656 -3.251 2.629 -5.348 2.629 -2.414 0 -4.643 -1.284 -5.85 -3.377 l -1.17 -2.023 c -0.727 -1.265 -1.111 -2.697 -1.111 -4.156 0 -4.591 3.719 -8.313 8.313 -8.313 2.968 0 5.711 1.586 7.198 4.156 l 0.647 1.124 c 0.643 1.111 1.019 2.352 1.099 3.633 l 1.124 17.879 z m -13.67 -16.401 l 0.65 1.124 c 0.742 1.287 2.115 2.078 3.602 2.078 2.291 0 4.156 -1.863 4.156 -4.156 0 -0.73 -0.194 -1.447 -0.557 -2.078 l -0.653 -1.124 c -0.742 -1.287 -2.112 -2.078 -3.596 -2.078 -2.297 0 -4.156 1.86 -4.156 4.156 0 0.73 0.194 1.447 0.554 2.078 z m -110.75 -103.07 l 3.51 -0.939 l 5.65 21.07 l -3.513 0.942 l -5.647 -21.08 z m 68.935 -38.713 l 2.571 -2.571 l 15.428 15.428 l -2.571 2.568 l -15.428 -15.425 z m -215.99 -2.571 l 2.571 2.571 l -15.428 15.425 l -2.57 -2.568 l 15.427 -15.428 z m 67.995 40.34 l 3.513 0.939 l -5.647 21.08 l -3.513 -0.942 l 5.647 -21.07" fill="#231f20" fill-rule="evenodd"/></svg>