<?xml version="1.0" encoding="UTF-8" standalone="no"?>
<!-- Created with Inkscape (http://www.inkscape.org/) -->

<svg
   xmlns:dc="http://purl.org/dc/elements/1.1/"
   xmlns:cc="http://creativecommons.org/ns#"
   xmlns:rdf="http://www.w3.org/1999/02/22-rdf-syntax-ns#"
   xmlns:svg="http://www.w3.org/2000/svg"
   xmlns="http://www.w3.org/2000/svg"
   version="1.1"
   width="753.12"
   height="671.52002"
   id="svg3023"
   xml:space="preserve"><metadata
     id="metadata3029"><rdf:RDF><cc:Work
         rdf:about=""><dc:format>image/svg+xml</dc:format><dc:type
           rdf:resource="http://purl.org/dc/dcmitype/StillImage" /><dc:title></dc:title></cc:Work></rdf:RDF></metadata><defs
     id="defs3027" /><g
     transform="matrix(1.25,0,0,-1.25,0,671.52)"
     id="g3031"><g
       id="g3033"><g
         transform="matrix(1,0,0,-1,0,537.216)"
         id="g3035"><path
           d="m 31.621,530.438 c -10.121,0 -19.473,-5.399 -24.531,-14.165 -5.063,-8.761 -5.063,-19.562 0,-28.328 L 276.715,20.941 c 5.062,-8.765 14.414,-14.164 24.531,-14.164 10.121,0 19.473,5.399 24.535,14.164 l 269.625,467.004 c 5.059,8.766 5.059,19.567 0,28.328 -5.058,8.766 -14.41,14.165 -24.531,14.165 l -539.254,0 z"
           id="path3037"
           style="fill:#ffffff;fill-opacity:1;fill-rule:evenodd;stroke:#000000;stroke-width:1.77050698;stroke-linecap:butt;stroke-linejoin:miter;stroke-miterlimit:4;stroke-opacity:1;stroke-dasharray:none" /></g><path
         d="m 31.621,17.4 c -6.324,0 -12.168,3.375 -15.332,8.851 -3.164,5.481 -3.164,12.231 0,17.707 l 269.625,467.004 c 3.164,5.481 9.008,8.856 15.332,8.856 6.328,0 12.172,-3.375 15.336,-8.856 L 586.207,43.958 c 3.164,-5.476 3.164,-12.226 0,-17.707 -3.164,-5.476 -9.008,-8.851 -15.332,-8.851 l -539.254,0 z M 92.953,70.517 301.246,431.29 509.543,70.517 l -416.59,0 z"
         id="path3039"
         style="fill:#c1121c;fill-opacity:1;fill-rule:evenodd;stroke:none" /><path
         d="m 300.773,322.915 -48.648,-47.449 0,-56.852 -50.074,0.5 -0.25,-29.546 50.25,0 0,-96.352 48.722,48.023 48.801,-48.046 0,96.347 50.227,0 -0.25,29.551 -50.051,-0.5 0,56.852 -48.727,47.472 z"
         id="path3041"
         style="fill:#000000;fill-opacity:1;fill-rule:evenodd;stroke:none" /></g></g></svg>