<?xml version="1.0" encoding="UTF-8" standalone="no"?>
<!-- Created with Inkscape (http://www.inkscape.org/) -->

<svg
   xmlns:dc="http://purl.org/dc/elements/1.1/"
   xmlns:cc="http://creativecommons.org/ns#"
   xmlns:rdf="http://www.w3.org/1999/02/22-rdf-syntax-ns#"
   xmlns:svg="http://www.w3.org/2000/svg"
   xmlns="http://www.w3.org/2000/svg"
   version="1.1"
   width="735"
   height="735"
   id="svg3077"
   xml:space="preserve"><metadata
     id="metadata3083"><rdf:RDF><cc:Work
         rdf:about=""><dc:format>image/svg+xml</dc:format><dc:type
           rdf:resource="http://purl.org/dc/dcmitype/StillImage" /><dc:title></dc:title></cc:Work></rdf:RDF></metadata><defs
     id="defs3081" /><g
     transform="matrix(1.25,0,0,-1.25,0,735)"
     id="g3085"><g
       id="g3087"><g
         transform="matrix(1,0,0,-1,0,588)"
         id="g3089"><path
           d="m 313.535,11.395 264.59,264.773 c 12.121,12.121 7.758,27.91 -0.625,36.766 L 314.477,576.766 c -13.473,13.472 -32.418,8.316 -41.047,-0.313 L 11.973,315.438 C -0.562,302.902 -0.836,286.156 11.344,273.973 L 273.117,11.707 c 13.844,-12.418 29.836,-10.73 40.418,-0.312 z"
           id="path3091"
           style="fill:#ffffff;fill-opacity:1;fill-rule:nonzero;stroke:#000000;stroke-width:1.62553704;stroke-linecap:round;stroke-linejoin:round;stroke-miterlimit:4;stroke-opacity:1;stroke-dasharray:none" /></g><g
         transform="matrix(1,0,0,-1,0,588)"
         id="g3093"><path
           d="m 310.184,24.398 254.347,254.18 c 11.399,11.402 9.164,20.649 1.278,28.977 L 309.027,564.418 c -12.675,12.676 -21.316,8.676 -29.437,0.555 L 24.961,310.594 C 13.172,298.801 12.066,289.672 23.523,278.215 L 280.316,21.805 c 13.024,-11.684 19.914,-7.207 29.868,2.593 z"
           id="path3095"
           style="fill:none;stroke:#000000;stroke-width:9.7393856;stroke-linecap:round;stroke-linejoin:round;stroke-miterlimit:4;stroke-opacity:1;stroke-dasharray:none" /></g><g
         transform="matrix(1,1,1,-1,0,588)"
         id="g3097"><path
           d="m -82.979,211.021 165.958,0 0.001,165.959 -165.96,0 0.001,-165.959 z"
           id="path3099"
           style="fill:#f7ba0b;fill-opacity:1;fill-rule:nonzero;stroke:#000000;stroke-width:3.02392912;stroke-linecap:round;stroke-linejoin:miter;stroke-miterlimit:4;stroke-opacity:1;stroke-dasharray:none" /></g></g></g></svg>