<svg xmlns="http://www.w3.org/2000/svg" viewBox="0 0 480 480"><g fill-rule="evenodd"><path d="m 30.856 5.772 h 420 c 10.816 0.791 23.07 11.844 23.666 24.865 v 418.81 c 0.05 10.319 -11.794 24.19 -25.16 24.865 h -419.41 c -9.524 -0.583 -24.431 -15.379 -24.865 -25.16 l 0.599 -418.21 c -1.082 -6.302 14.286 -25.298 25.16 -25.16 z" fill="#fff" stroke="#000" stroke-width="2"/><path d="m 35.19 16.781 c -11.761 -0.515 -18.473 7.519 -18.03 20.375 v 406.41 c 0.047 8.667 3.728 19.07 15.688 19.281 l 414.44 -0.031 c 11.959 -0.211 15.672 -10.614 15.719 -19.281 v -406.44 c 0.442 -12.856 -6.271 -20.89 -18.03 -20.375 l -409.78 0.063 z" fill="#154889"/><path d="m 250.16 164.22 v 55.31 l 64.62 -64.62 v 225.16 l 44.594 0.094 v -225.19 l 64.62 64.62 v -55.28 l -86.91 -85.91 l -86.94 85.81 z" fill="#fff"/><path d="m 230.42 314.95 v -55.31 l -64.62 64.62 v -225.16 l -44.594 -0.094 v 225.19 l -64.63 -64.62 v 55.28 l 86.91 85.91 l 86.94 -85.81 z" fill="#c1121c"/></g></svg>