<?xml version="1.0" encoding="UTF-8" standalone="no"?>
<!-- Created with Inkscape (http://www.inkscape.org/) -->

<svg
   xmlns:dc="http://purl.org/dc/elements/1.1/"
   xmlns:cc="http://creativecommons.org/ns#"
   xmlns:rdf="http://www.w3.org/1999/02/22-rdf-syntax-ns#"
   xmlns:svg="http://www.w3.org/2000/svg"
   xmlns="http://www.w3.org/2000/svg"
   xmlns:sodipodi="http://sodipodi.sourceforge.net/DTD/sodipodi-0.dtd"
   xmlns:inkscape="http://www.inkscape.org/namespaces/inkscape"
   version="1.0"
   width="1250"
   height="840"
   id="svg2"
   inkscape:version="0.48.4 r9939"
   sodipodi:docname="Zeichen_311.svg">
  <metadata
     id="metadata15">
    <rdf:RDF>
      <cc:Work
         rdf:about="">
        <dc:format>image/svg+xml</dc:format>
        <dc:type
           rdf:resource="http://purl.org/dc/dcmitype/StillImage" />
        <dc:title />
      </cc:Work>
    </rdf:RDF>
  </metadata>
  <sodipodi:namedview
     pagecolor="#ffffff"
     bordercolor="#666666"
     borderopacity="1"
     objecttolerance="10"
     gridtolerance="10"
     guidetolerance="10"
     inkscape:pageopacity="0"
     inkscape:pageshadow="2"
     inkscape:window-width="809"
     inkscape:window-height="852"
     id="namedview13"
     showgrid="false"
     showguides="true"
     inkscape:guide-bbox="true"
     inkscape:zoom="0.39732667"
     inkscape:cx="785.90673"
     inkscape:cy="508.10441"
     inkscape:window-x="0"
     inkscape:window-y="0"
     inkscape:window-maximized="0"
     inkscape:current-layer="svg2" />
  <defs
     id="defs9" />
  <path
     d="M 4.9628067,51.943165 L 4.6368247,783.36624 C 4.6368247,802.5473 28.351504,833.79315 60.07416,833.79315 L 1195.3067,833.79315 C 1217.9248,833.79315 1244.8933,805.77757 1244.8933,783.00108 L 1245.3632,58.713816 C 1245.3632,31.512403 1218.2476,6.206847 1192.5377,6.206847 L 55.460194,6.676638 C 26.798206,6.676638 4.9628067,36.996606 4.9628067,51.943165 z "
     style="fill:#f0c900;fill-opacity:1;fill-rule:evenodd;stroke:black;stroke-width:2.12588738999999993;stroke-linecap:butt;stroke-linejoin:miter;stroke-miterlimit:4;stroke-dasharray:none;stroke-opacity:1"
     id="path3829" />
  <path
     d="M 30.447968,763.35511 L 1069.8786,424.22774 L 1224.2183,424.22774 L 1222.1185,478.8241 L 222.58515,805.35231 L 53.546427,806.40224 L 30.447969,788.55343 L 30.447968,763.35511 z "
     style="fill:#c1121c;fill-opacity:1;fill-rule:evenodd;stroke:none;stroke-width:1px;stroke-linecap:butt;stroke-linejoin:miter;stroke-opacity:1"
     id="path6529" />
  <path
     d="M 184.64491,726.72675 L 128.18211,501.33965 L 164.38018,501.33965 L 199.80478,661.60117 L 200.42355,661.60117 L 244.20155,501.33965 L 268.79767,501.33965 L 312.57568,661.60117 L 313.19445,661.60117 L 348.61905,501.33965 L 384.81712,501.33965 L 328.35432,726.72675 L 299.89089,726.72675 L 256.73165,564.29953 L 256.11288,564.29953 L 213.10834,726.72675 L 184.64491,726.72675 z M 418.18669,726.72675 L 418.18669,566.15584 L 450.51744,566.15584 L 450.51744,726.72675 L 418.18669,726.72675 z M 418.18669,533.6704 L 418.18669,501.33965 L 450.51744,501.33965 L 450.51744,533.6704 L 418.18669,533.6704 z M 501.3673,687.89891 L 501.3673,501.33965 L 533.69805,501.33965 L 533.69805,685.26914 C 533.698,692.69442 537.72,696.40703 545.76407,696.407 L 556.74725,696.407 L 556.74725,726.72675 L 542.51553,726.72675 C 530.75884,726.72675 520.96165,723.86494 513.12394,718.14131 C 505.28615,712.4177 501.36728,702.33691 501.3673,687.89891 L 501.3673,687.89891 z M 573.25532,699.96493 L 595.84044,677.6892 C 609.86586,691.40531 626.72734,698.26334 646.42492,698.26332 C 655.60326,698.26334 663.18319,696.53594 669.16473,693.08111 C 675.14607,689.62635 678.13679,684.49572 678.1369,677.6892 C 678.13679,668.30458 671.58815,663.04503 658.49094,661.91056 L 630.0275,659.28078 C 616.72389,658.24957 605.68917,653.86661 596.92329,646.13191 C 588.15736,638.39737 583.77441,627.62046 583.77442,613.80116 C 583.77441,597.507 589.49803,585.18317 600.9453,576.82963 C 612.39251,568.47639 626.62421,564.29969 643.64045,564.29953 C 657.66583,564.29969 669.68027,566.28491 679.68383,570.2552 C 689.68716,574.22579 698.65932,579.51112 706.60034,586.11119 L 686.64499,609.62446 C 680.25092,605.29319 673.65071,601.73526 666.84434,598.95067 C 660.03778,596.16634 652.30316,594.7741 643.64045,594.77397 C 633.32755,594.7741 626.16013,596.60463 622.13818,600.26556 C 618.11613,603.92674 616.10513,608.54173 616.10517,614.11055 C 616.10513,617.61702 617.60049,620.86556 620.59126,623.85618 C 623.58193,626.847 629.15085,628.65175 637.29806,629.27042 L 663.90518,631.12673 C 680.50874,632.26124 692.42006,637.39187 699.63917,646.51864 C 706.85802,655.64558 710.46751,666.55139 710.46765,679.23613 C 710.46751,695.0148 704.02199,707.18394 691.13108,715.74358 C 678.23992,724.30324 662.51286,728.58306 643.94984,728.58306 C 617.23954,728.58306 593.67472,719.04369 573.25532,699.96493 L 573.25532,699.96493 z M 753.11878,566.15584 L 753.11878,517.42768 L 785.44953,517.42768 L 785.44953,566.15584 L 808.96281,566.15584 L 808.96281,590.90666 L 785.44953,590.90666 L 785.44953,684.34098 C 785.44948,692.38503 789.26522,696.40703 796.89678,696.407 L 808.96281,696.407 L 808.96281,726.72675 L 792.10131,726.72675 C 780.86027,726.72675 771.55294,723.32352 764.1793,716.51704 C 756.8056,709.71058 753.11876,699.96496 753.11878,687.28014 L 753.11878,590.90666 L 737.03075,590.90666 L 737.03075,566.15584 L 753.11878,566.15584 z M 971.50073,658.66201 L 871.56932,658.66201 C 871.56927,671.8625 875.15298,681.76282 882.32045,688.36299 C 889.48781,694.96324 898.64045,698.26334 909.77839,698.26332 C 923.08185,698.26334 934.83848,693.10693 945.0483,682.79406 L 968.40688,702.7494 C 960.46586,712.03097 951.51948,718.65696 941.56771,722.6274 C 931.61572,726.59784 921.22554,728.58306 910.39716,728.58306 C 893.89655,728.58306 877.91166,723.24617 862.44245,712.57238 C 846.97317,701.89862 839.23855,680.0612 839.23857,647.06007 C 839.23855,615.81228 846.38019,594.2069 860.66349,582.24387 C 874.94672,570.28114 889.87454,564.29969 905.44699,564.29953 C 923.08185,564.29969 938.49953,570.41005 951.70008,582.6306 C 964.90037,594.85145 971.50059,611.32619 971.50073,632.05489 L 971.50073,658.66201 z M 871.56932,632.05489 L 939.32467,632.05489 C 938.80892,619.98897 935.40568,610.75899 929.11496,604.36491 C 922.82403,597.97108 914.93472,594.7741 905.44699,594.77397 C 895.85598,594.7741 887.88932,597.97108 881.54699,604.36491 C 875.20454,610.75899 871.87866,619.98897 871.56932,632.05489 L 871.56932,632.05489 z M 1013.5331,726.72675 L 1013.5331,566.15584 L 1045.8638,566.15584 L 1045.8638,583.32672 L 1046.4826,583.32672 C 1056.486,570.64208 1070.4083,564.29969 1088.2496,564.29953 C 1100.0061,564.29969 1111.1955,568.42483 1121.8179,576.67494 L 1098.4593,604.51961 C 1091.4465,599.26018 1084.3306,596.63041 1077.1117,596.63028 C 1069.1708,596.63041 1061.9776,599.28597 1055.5321,604.59695 C 1049.0865,609.90818 1045.8638,618.44205 1045.8638,630.19858 L 1045.8638,726.72675 L 1013.5331,726.72675 z "
     style="font-size:316.8104248px;font-style:normal;font-variant:normal;font-weight:normal;font-stretch:normal;text-align:center;line-height:100%;letter-spacing:8px;writing-mode:lr-tb;text-anchor:middle;fill:black;fill-opacity:1;stroke:none;stroke-width:1px;stroke-linecap:butt;stroke-linejoin:miter;stroke-opacity:1;font-family:DIN 1451 Mittelschrift"
     id="text2030" />
  <path
     d="M 96.677005,230.18743 L 112.51841,212.17598 C 118.44987,216.95013 125.28553,220.78389 133.02543,223.67727 C 140.76524,226.5707 148.86677,228.0174 157.33004,228.01738 C 167.09522,228.0174 174.76274,225.99202 180.33263,221.94122 C 185.90234,217.89049 188.68724,212.57386 188.68734,205.99132 C 188.68724,193.54973 181.81541,186.42472 168.07182,184.61628 C 164.45499,184.18233 161.09141,183.74832 157.98106,183.31424 C 154.87059,182.8803 151.25383,182.37395 147.13079,181.7952 C 133.4594,179.91456 123.04314,174.90536 115.88199,166.76757 C 108.7208,158.62996 105.14021,148.81047 105.14022,137.30908 C 105.14021,123.85486 109.64307,112.78759 118.64881,104.10723 C 127.65451,95.427168 140.33123,91.087063 156.67903,91.086903 C 166.4442,91.087063 175.63076,92.642267 184.23873,95.752522 C 192.84651,98.863085 200.76721,102.80535 208.00083,107.57932 L 194.65499,127.32682 C 188.86808,123.71019 182.64726,120.78062 175.99252,118.5381 C 169.33761,116.29584 162.53811,115.17465 155.594,115.17451 C 148.21576,115.17465 141.95877,117.05536 136.82302,120.81666 C 131.68719,124.57821 129.11929,130.22035 129.11933,137.74309 C 129.11929,142.22798 130.85534,146.42341 134.32746,150.32941 C 137.7995,154.2356 143.55014,156.8035 151.5794,158.0331 C 153.67706,158.39487 156.20879,158.77463 159.17459,159.17238 C 162.14026,159.57032 165.54001,159.98624 169.37385,160.42016 C 184.13013,162.22863 195.03465,167.58143 202.08743,176.47857 C 209.13999,185.37586 212.66633,195.21343 212.66645,205.99132 C 212.66633,220.53072 207.63904,231.81499 197.58457,239.84418 C 187.52988,247.87338 174.03939,251.88798 157.11304,251.88798 C 133.31473,251.88798 113.1694,244.65447 96.677005,230.18743 L 96.677005,230.18743 z M 308.28973,217.49261 L 324.99915,232.46599 C 320.08027,238.10815 314.23921,242.75568 307.47596,246.40859 C 300.71255,250.06152 293.06311,251.88798 284.52762,251.88798 C 271.50725,251.88798 259.73471,247.45746 249.20998,238.5964 C 238.6852,229.73536 233.42282,214.99708 233.42283,194.38152 C 233.42282,173.76608 238.6852,158.99163 249.20998,150.05815 C 259.73471,141.12487 271.50725,136.65817 284.52762,136.65806 C 293.06311,136.65817 300.71255,138.50272 307.47596,142.1917 C 314.23921,145.8809 320.08027,150.54651 324.99915,156.18856 L 308.28973,171.05343 C 301.92416,163.24132 294.29281,159.33523 285.39565,159.33513 C 265.86511,159.33523 256.09987,171.01734 256.0999,194.38152 C 256.09987,217.67348 265.86511,229.31943 285.39565,229.31941 C 294.36514,229.31943 301.99649,225.37717 308.28973,217.49261 L 308.28973,217.49261 z M 346.62354,250.58595 L 346.62354,92.497439 L 369.30062,92.497439 L 369.30062,150.0039 L 369.73463,150.0039 C 376.75109,141.10678 386.51633,136.65817 399.03037,136.65806 C 407.78285,136.65817 416.22797,139.98559 424.36576,146.64031 C 432.50337,153.29525 436.57222,162.98815 436.57232,175.71905 L 436.57232,250.58595 L 413.89525,250.58595 L 413.89525,183.53125 C 413.89517,175.93613 411.77936,170.00465 407.54784,165.7368 C 403.31616,161.46911 398.05378,159.33523 391.76069,159.33513 C 385.25047,159.33523 379.87959,161.46911 375.64803,165.7368 C 371.41638,170.00465 369.30058,175.93613 369.30062,183.53125 L 369.30062,250.58595 L 346.62354,250.58595 z M 466.44294,194.16452 C 466.44293,182.08461 467.38329,173.07889 469.26401,167.14733 C 471.14472,161.21594 474.25512,155.86314 478.59525,151.08893 C 481.70564,147.68928 485.99149,144.4342 491.45283,141.32368 C 496.91409,138.21338 504.05718,136.65817 512.88212,136.65806 C 521.56228,136.65817 528.65112,138.21338 534.14866,141.32368 C 539.64605,144.4342 543.94999,147.68928 547.06049,151.08893 C 551.4005,155.86314 554.51091,161.21594 556.39173,167.14733 C 558.27234,173.07889 559.21269,182.08461 559.2128,194.16452 C 559.21269,206.46154 558.27234,215.57576 556.39173,221.50721 C 554.51091,227.43872 551.4005,232.79152 547.06049,237.56562 C 543.94999,241.03772 539.64605,244.2928 534.14866,247.33087 C 528.65112,250.36894 521.56228,251.88798 512.88212,251.88798 C 504.05718,251.88798 496.91409,250.36894 491.45283,247.33087 C 485.99149,244.2928 481.70564,241.03772 478.59525,237.56562 C 474.25512,232.79152 471.14472,227.43872 469.26401,221.50721 C 467.38329,215.57576 466.44293,206.46154 466.44294,194.16452 L 466.44294,194.16452 z M 536.64422,194.38152 C 536.64414,186.20771 536.22822,180.45707 535.39644,177.12959 C 534.56451,173.80225 533.13589,170.6195 531.11058,167.58134 C 527.13208,162.08396 521.05593,159.33523 512.88212,159.33513 C 504.56353,159.33523 498.48738,162.08396 494.65366,167.58134 C 492.48357,170.6195 491.01878,173.80225 490.2593,177.12959 C 489.49975,180.45707 489.11999,186.13538 489.12002,194.16452 C 489.11999,202.41078 489.49975,208.21567 490.2593,211.57921 C 491.01878,214.94283 492.48357,218.10749 494.65366,221.0732 C 498.48738,226.5707 504.56353,229.31943 512.88212,229.31941 C 521.05593,229.31943 527.13208,226.5707 531.11058,221.0732 C 533.13589,218.10749 534.56451,214.96092 535.39644,211.63346 C 536.22822,208.30609 536.64414,202.55545 536.64422,194.38152 L 536.64422,194.38152 z M 590.38543,137.96009 L 590.38543,103.78173 L 613.0625,103.78173 L 613.0625,137.96009 L 629.55492,137.96009 L 629.55492,155.32053 L 613.0625,155.32053 L 613.0625,220.8562 C 613.06246,226.49836 615.73886,229.31943 621.09171,229.31941 L 629.55492,229.31941 L 629.55492,250.58595 L 617.72812,250.58595 C 609.84355,250.58595 603.31531,248.19889 598.14337,243.42477 C 592.97139,238.65066 590.38541,231.81499 590.38543,222.91775 L 590.38543,155.32053 L 579.10114,155.32053 L 579.10114,137.96009 L 590.38543,137.96009 z M 658.01501,137.96009 L 658.01501,103.78173 L 680.69208,103.78173 L 680.69208,137.96009 L 697.1845,137.96009 L 697.1845,155.32053 L 680.69208,155.32053 L 680.69208,220.8562 C 680.69204,226.49836 683.36844,229.31943 688.72128,229.31941 L 697.1845,229.31941 L 697.1845,250.58595 L 685.3577,250.58595 C 677.47313,250.58595 670.94489,248.19889 665.77295,243.42477 C 660.60097,238.65066 658.01499,231.81499 658.01501,222.91775 L 658.01501,155.32053 L 646.73072,155.32053 L 646.73072,137.96009 L 658.01501,137.96009 z M 811.5787,202.84474 L 741.48592,202.84474 C 741.48589,212.10368 743.99954,219.04785 749.02687,223.67727 C 754.05412,228.30674 760.47386,230.62146 768.2861,230.62144 C 777.61727,230.62146 785.86347,227.00471 793.02473,219.77117 L 809.40865,233.76802 C 803.83875,240.2782 797.56368,244.92573 790.58342,247.71063 C 783.603,250.49553 776.31524,251.88798 768.72012,251.88798 C 757.14644,251.88798 745.9345,248.14464 735.08426,240.65795 C 724.23397,233.17128 718.80884,217.85432 718.80885,194.70703 C 718.80884,172.78955 723.81804,157.63535 733.83648,149.24438 C 743.85487,140.85361 754.32537,136.65817 765.24803,136.65806 C 777.61727,136.65817 788.43137,140.94403 797.69035,149.51564 C 806.94915,158.08745 811.5786,169.64298 811.5787,184.18227 L 811.5787,202.84474 z M 741.48592,184.18227 L 789.01013,184.18227 C 788.64838,175.71913 786.26132,169.24513 781.84895,164.76027 C 777.43644,160.27558 771.9028,158.03319 765.24803,158.0331 C 758.52081,158.03319 752.93292,160.27558 748.48435,164.76027 C 744.0357,169.24513 741.7029,175.71913 741.48592,184.18227 L 741.48592,184.18227 z M 841.44936,250.58595 L 841.44936,137.96009 L 864.12644,137.96009 L 864.12644,150.0039 L 864.56045,150.0039 C 871.57691,141.10678 881.34215,136.65817 893.85619,136.65806 C 902.60867,136.65817 911.05379,139.98559 919.19158,146.64031 C 927.32919,153.29525 931.39804,162.98815 931.39814,175.71905 L 931.39814,250.58595 L 908.72107,250.58595 L 908.72107,183.53125 C 908.72099,175.93613 906.60519,170.00465 902.37366,165.7368 C 898.14198,161.46911 892.8796,159.33523 886.58651,159.33513 C 880.07629,159.33523 874.70541,161.46911 870.47385,165.7368 C 866.2422,170.00465 864.1264,175.93613 864.12644,183.53125 L 864.12644,250.58595 L 841.44936,250.58595 z "
     style="font-size:222.21363831px;font-style:normal;font-variant:normal;font-weight:normal;font-stretch:normal;text-align:center;line-height:100%;letter-spacing:6px;writing-mode:lr-tb;text-anchor:middle;fill:black;fill-opacity:1;stroke:none;stroke-width:1px;stroke-linecap:butt;stroke-linejoin:miter;stroke-opacity:1;font-family:DIN 1451 Mittelschrift"
     id="text6509" />
  <path
     d="M 425.09674,331.81113 L 449.21798,283.56865 L 463.59202,283.56865 L 444.65284,321.57039 L 444.8996,321.57039 C 446.91482,320.78903 449.19739,320.39832 451.74732,320.39826 C 457.42287,320.39832 462.41984,322.39299 466.73827,326.3823 C 471.0566,330.37171 473.21578,336.72589 473.21584,345.44487 C 473.21578,355.76787 470.46025,363.13996 464.94923,367.56115 C 459.43811,371.98235 453.35125,374.19294 446.68865,374.19295 C 440.39613,374.19294 434.64857,371.75615 429.44597,366.88254 C 424.24334,362.00895 421.64203,355.33604 421.64204,346.86377 C 421.64203,341.43498 422.7936,336.41744 425.09674,331.81113 L 425.09674,331.81113 z M 447.42894,331.81113 C 443.85083,331.81117 440.8074,333.01414 438.29865,335.42006 C 435.78986,337.82605 434.53547,341.5378 434.53549,346.55531 C 434.53547,356.42591 438.83328,361.3612 447.42894,361.36119 C 450.39008,361.3612 453.27928,360.24048 456.09655,357.99902 C 458.91373,355.75759 460.32235,351.94303 460.32239,346.55531 C 460.32235,341.5378 459.05768,337.82605 456.52838,335.42006 C 453.99901,333.01414 450.96587,331.81117 447.42894,331.81113 L 447.42894,331.81113 z "
     style="font-size:126.34347534px;font-style:normal;font-variant:normal;font-weight:normal;font-stretch:normal;text-align:center;line-height:100%;writing-mode:lr-tb;text-anchor:middle;fill:black;fill-opacity:1;stroke:none;stroke-width:1px;stroke-linecap:butt;stroke-linejoin:miter;stroke-opacity:1;font-family:DIN 1451 Mittelschrift"
     id="text6514" />
  <path
     d="M 533.55553,374.18042 L 533.55553,285.12528 L 546.33008,285.12528 L 546.33008,340.56317 L 546.57457,340.56317 L 570.96235,310.7355 L 586.24292,310.7355 L 564.36115,335.55114 L 589.23791,374.18042 L 573.22388,374.18042 L 556.35413,344.53612 L 546.33008,355.96598 L 546.33008,374.18042 L 533.55553,374.18042 z M 599.32308,374.18042 L 599.32308,310.7355 L 612.09764,310.7355 L 612.09764,317.52008 L 612.34212,317.52008 C 616.37617,312.50811 621.87717,310.0021 628.84514,310.00204 C 633.28664,310.0021 636.81136,310.79669 639.41929,312.38581 C 642.02712,313.97504 644.47201,315.93096 646.75396,318.25354 C 651.76592,312.7526 658.44862,310.0021 666.80206,310.00204 C 671.73251,310.0021 676.48986,311.87652 681.07411,315.62529 C 685.65819,319.37417 687.95027,324.83442 687.95037,332.00605 L 687.95037,374.18042 L 675.17581,374.18042 L 675.17581,336.40686 C 675.17573,332.12834 673.97366,328.78699 671.5696,326.3828 C 669.16538,323.97871 666.19076,322.77664 662.64575,322.77659 C 658.97834,322.77664 655.95279,323.97871 653.56909,326.3828 C 651.18526,328.78699 649.99338,332.12834 649.99344,336.40686 L 649.99344,374.18042 L 637.28001,374.18042 L 637.28001,336.40686 C 637.27996,332.12834 636.07789,328.78699 633.6738,326.3828 C 631.26961,323.97871 628.295,322.77664 624.74994,322.77659 C 621.08258,322.77664 618.05703,323.97871 615.67329,326.3828 C 613.2895,328.78699 612.09761,332.12834 612.09764,336.40686 L 612.09764,374.18042 L 599.32308,374.18042 z "
     style="font-size:125.17839813px;font-style:normal;font-variant:normal;font-weight:normal;font-stretch:normal;text-align:center;line-height:100%;writing-mode:lr-tb;text-anchor:middle;fill:black;fill-opacity:1;stroke:none;stroke-width:1px;stroke-linecap:butt;stroke-linejoin:miter;stroke-opacity:1;font-family:DIN 1451 Mittelschrift"
     id="text6518" />
  <path
     d="M 991,149.34375 L 991.34375,193.75 L 1049.625,136.09375 L 1049.625,342.25 L 1085.5313,342.59375 L 1085.5313,136.4375 L 1143.8438,194.09375 L 1144.1563,149.6875 L 1067.6563,74.3125 L 991,149.34375 z "
     style="fill:black;fill-opacity:1;fill-rule:evenodd;stroke:none;stroke-width:1px;stroke-linecap:butt;stroke-linejoin:miter;stroke-opacity:1"
     id="path6524" />
  <path
     d="M 32.50209,420.22307 L 1220.0785,420.22307"
     style="fill:none;fill-opacity:1;fill-rule:evenodd;stroke:black;stroke-width:18;stroke-linecap:butt;stroke-linejoin:miter;stroke-miterlimit:4;stroke-dasharray:none;stroke-opacity:1"
     id="path5622" />
  <path
     d="M 29.179051,60.080509 L 28.872378,775.82864 C 28.872378,793.87387 41.774315,809.1568 66.620238,809.1568 L 1192.2551,809.1568 C 1208.2416,809.1568 1220.3825,795.14877 1220.3825,773.72102 L 1220.8245,65.862201 C 1220.8245,40.271544 1207.0752,30.57716 1182.8877,30.57716 L 58.457319,31.01913 C 39.138544,31.01913 29.179051,46.019031 29.179051,60.080509 z "
     style="fill:none;fill-opacity:1;fill-rule:evenodd;stroke:black;stroke-width:18;stroke-linecap:butt;stroke-linejoin:miter;stroke-miterlimit:4;stroke-dasharray:none;stroke-opacity:1"
     id="path2057" />
</svg>
