<?xml version="1.0" encoding="UTF-8" standalone="no"?>
<!-- Created with Inkscape (http://www.inkscape.org/) -->

<svg
   xmlns:dc="http://purl.org/dc/elements/1.1/"
   xmlns:cc="http://creativecommons.org/ns#"
   xmlns:rdf="http://www.w3.org/1999/02/22-rdf-syntax-ns#"
   xmlns:svg="http://www.w3.org/2000/svg"
   xmlns="http://www.w3.org/2000/svg"
   xmlns:sodipodi="http://sodipodi.sourceforge.net/DTD/sodipodi-0.dtd"
   xmlns:inkscape="http://www.inkscape.org/namespaces/inkscape"
   version="1.0"
   width="480"
   height="480"
   id="svg2"
   inkscape:version="0.48.1 r9760"
   sodipodi:docname="Zeichen_316.svg">
  <metadata
     id="metadata13">
    <rdf:RDF>
      <cc:Work
         rdf:about="">
        <dc:format>image/svg+xml</dc:format>
        <dc:type
           rdf:resource="http://purl.org/dc/dcmitype/StillImage" />
      </cc:Work>
    </rdf:RDF>
  </metadata>
  <sodipodi:namedview
     pagecolor="#ffffff"
     bordercolor="#666666"
     borderopacity="1"
     objecttolerance="10"
     gridtolerance="10"
     guidetolerance="10"
     inkscape:pageopacity="0"
     inkscape:pageshadow="2"
     inkscape:window-width="640"
     inkscape:window-height="484"
     id="namedview11"
     showgrid="false"
     inkscape:zoom="0.49166667"
     inkscape:cx="240"
     inkscape:cy="240"
     inkscape:window-x="0"
     inkscape:window-y="0"
     inkscape:window-maximized="0"
     inkscape:current-layer="svg2" />
  <defs
     id="defs4" />
  <path
     d="M 30.856274,5.7720243 L 450.86109,5.7720243 C 461.67691,6.5627045 473.93298,17.615789 474.52755,30.636789 L 474.52755,449.4433 C 474.57722,459.76184 462.73404,473.63554 449.36321,474.30807 L 29.957547,474.30807 C 20.433732,473.72489 5.5262338,458.92955 5.0927831,449.14373 L 5.691934,30.936364 C 4.6103723,24.633922 19.978002,5.6381226 30.856274,5.7720243 z "
     style="fill:white;fill-opacity:1;fill-rule:evenodd;stroke:black;stroke-width:2;stroke-linecap:butt;stroke-linejoin:miter;stroke-miterlimit:4;stroke-dasharray:none;stroke-opacity:1"
     id="path3669" />
  <path
     d="M 393.71875,16.71875 L 393.71875,16.75 L 84.75,16.75 L 84.75,16.78125 L 35.1875,16.78125 C 23.426887,16.266334 16.714331,24.30046 17.15625,37.15625 L 17.15625,443.5625 C 17.202803,452.2297 20.884421,462.63293 32.84375,462.84375 L 84.15625,462.84375 L 86.4375,462.84375 L 393.71875,462.78125 L 393.71875,462.8125 L 447.28125,462.8125 C 459.24058,462.6017 462.95345,452.19845 463,443.53125 L 463,37.09375 C 463.44191,24.237959 456.72937,16.20383 444.96875,16.71875 L 393.71875,16.71875 z M 393.71875,83.21875 L 393.71875,396.125 L 86.4375,396.34375 L 86.4375,83.28125 L 393.71875,83.21875 z "
     style="fill:#154889;fill-opacity:1;fill-rule:evenodd;stroke:none;stroke-width:1px;stroke-linecap:butt;stroke-linejoin:miter;stroke-opacity:0.94117647000000004"
     id="path3661" />
  <path
     d="M 107.89619,171.26504 L 371.81753,171.26504 C 371.81753,157.44023 363.14776,145.1892 349.73504,142.41534 L 129.97868,142.41534 C 116.04205,145.00889 107.89619,157.47374 107.89619,171.26504 z "
     style="fill:black;fill-opacity:1;fill-rule:evenodd;stroke:none;stroke-width:1px;stroke-linecap:butt;stroke-linejoin:miter;stroke-opacity:1"
     id="path19064" />
  <path
     d="M 212.65107,231.23776 L 229.38647,231.23776 L 229.38648,214.97391 L 246.19035,215.06386 L 246.21766,231.23776 L 262.93135,231.23776 L 262.93135,248.75562 L 246.21766,248.75562 L 246.17039,264.87764 L 229.36499,264.79685 L 229.38647,248.75562 L 212.65107,248.75562 L 212.65107,231.23776 z "
     style="fill:black;fill-opacity:1;fill-rule:evenodd;stroke:none;stroke-width:1px;stroke-linecap:butt;stroke-linejoin:miter;stroke-opacity:1"
     id="path19965" />
  <path
     d="M 107.82108,308.73498 L 371.74242,308.73498 C 371.74242,322.55979 363.07265,334.81083 349.65993,337.58468 L 129.90357,337.58468 C 115.96694,334.99114 107.82108,322.52629 107.82108,308.73498 z "
     style="fill:black;fill-opacity:1;fill-rule:evenodd;stroke:none;stroke-width:1px;stroke-linecap:butt;stroke-linejoin:miter;stroke-opacity:1"
     id="path19953" />
  <path
     d="M 111.8125,178.8125 L 111.8125,300.78125 L 130.28125,300.78125 L 130.28125,253.4375 L 163.3125,253.4375 C 212.79709,242.96552 203.14191,183.67474 164.34375,178.78125 L 111.8125,178.8125 z M 130.28125,196.875 L 161.4375,196.875 C 181.42139,204.01091 184.29495,225.66474 163.03125,235.125 L 130.28125,235.125 L 130.28125,196.875 z "
     style="fill:black;fill-opacity:1;fill-rule:evenodd;stroke:none;stroke-width:1px;stroke-linecap:butt;stroke-linejoin:miter;stroke-opacity:1"
     id="path20852" />
  <path
     d="M 283.0625,178.875 L 283.0625,300.96875 L 301.59375,301 L 301.59375,248.5 L 324.875,248.5 L 350.5,300.9375 L 372.1875,300.9375 L 344.96875,247.3125 C 374.66391,235.68586 378.40924,189.52791 338.0625,179 L 283.0625,178.875 z M 301.59375,195.875 L 334.21875,195.875 C 356.68876,202.65686 353.08533,224.32877 335.21875,232.03125 L 301.59375,232.03125 L 301.59375,195.875 z "
     style="fill:black;fill-opacity:1;fill-rule:evenodd;stroke:none;stroke-width:1px;stroke-linecap:butt;stroke-linejoin:miter;stroke-opacity:1"
     id="path22626" />
</svg>
