<?xml version="1.0" encoding="UTF-8" standalone="no"?>
<!-- Created with Inkscape (http://www.inkscape.org/) -->

<svg
   xmlns:dc="http://purl.org/dc/elements/1.1/"
   xmlns:cc="http://creativecommons.org/ns#"
   xmlns:rdf="http://www.w3.org/1999/02/22-rdf-syntax-ns#"
   xmlns:svg="http://www.w3.org/2000/svg"
   xmlns="http://www.w3.org/2000/svg"
   version="1.0"
   width="480"
   height="720"
   id="svg2">
  <metadata
     id="metadata18">
    <rdf:RDF>
      <cc:Work
         rdf:about="">
        <dc:format>image/svg+xml</dc:format>
        <dc:type
           rdf:resource="http://purl.org/dc/dcmitype/StillImage" />
        <dc:title></dc:title>
      </cc:Work>
    </rdf:RDF>
  </metadata>
  <defs
     id="defs4" />
  <path
     d="m 30.856274,5.7720243 420.004816,0 c 10.81582,0.7906802 23.07189,11.8437647 23.66646,24.8647647 l 0,655.809401 c 0.0497,10.31854 -11.79351,24.19224 -25.16434,24.86477 l -419.405663,0 C 20.433732,710.72778 5.5262338,695.93244 5.0927831,686.14662 L 5.691934,30.936364 C 5.4925171,19.341053 19.978002,5.6381226 30.856274,5.7720243 z"
     id="path3669"
     style="fill:#ffffff;fill-opacity:1;fill-rule:evenodd;stroke:#000000;stroke-width:2;stroke-linecap:butt;stroke-linejoin:miter;stroke-miterlimit:4;stroke-opacity:1;stroke-dasharray:none" />
  <path
     d="m 35.1875,16.78125 c -11.760613,-0.514916 -18.473169,7.51921 -18.03125,20.375 l 0,642.84375 c 0.04655,8.6672 3.728171,19.07046 15.6875,19.28125 l 414.4375,0.53125 C 459.24058,699.60169 462.95345,689.19845 463,680.53125 l 0,-643.4375 c 0.44191,-12.855791 -6.27063,-20.88992 -18.03125,-20.375 L 35.1875,16.78125 z"
     id="path2774"
     style="fill:#154889;fill-opacity:1;fill-rule:evenodd;stroke:none" />
  <path
     d="m 97.67666,336.42028 -0.05056,283.26426 284.781029,-0.0506 0,-283.31482 -284.73047,0.10112 z"
     id="path1886"
     style="fill:#ffffff;fill-opacity:1;fill-rule:evenodd;stroke:none" />
  <path
     d="m 136.54347,86.246749 0,82.758771 57.75506,0 c 14.43863,1.4e-4 25.20899,-4.34323 32.31114,-13.03011 7.10183,-8.68657 10.65282,-18.13632 10.65299,-28.34928 -1.7e-4,-15.49506 -5.57611,-26.88172 -16.72784,-34.160001 -7.16083,-4.8127 -16.3758,-7.21916 -27.64495,-7.21938 l -56.3464,0 z M 97.629241,305.9977 l 0,-256.552195 93.147639,0 c 9.97788,2.57e-4 19.57436,1.056751 28.78949,3.169485 9.21482,2.113241 18.81131,7.043546 28.78948,14.79093 7.74745,5.987037 14.32119,14.233559 19.72124,24.739589 5.39966,10.506461 8.09959,22.685491 8.0998,36.537121 -2.1e-4,18.31274 -6.83807,35.74489 -20.51361,52.2965 -13.67591,16.55186 -33.66126,24.82773 -59.95609,24.82763 l -59.16372,0 0,100.19094 -38.914229,0 z"
     id="text1885"
     style="font-size:360.61694336px;font-style:normal;font-variant:normal;font-weight:normal;font-stretch:normal;text-align:center;line-height:100%;writing-mode:lr-tb;text-anchor:middle;fill:#ffffff;fill-opacity:1;stroke:none;font-family:DIN 1451 Mittelschrift" />
  <g
     id="g1967"
     style="fill:#000000">
    <path
       d="m 305.47137,379.90744 c 0,10.69416 -8.66935,19.36352 -19.36351,19.36352 -10.69418,0 -19.36352,-8.66936 -19.36352,-19.36352 0,-10.69418 8.66934,-19.36353 19.36352,-19.36353 10.69416,0 19.36351,8.66935 19.36351,19.36353 l 0,0 z"
       id="path5663"
       style="fill:#000000;fill-opacity:1;fill-rule:nonzero;stroke:none" />
    <path
       d="m 276.52373,494.9308 38.47974,0 0.1779,3.46354 40.84476,76.50733 c 0.79934,12.50651 -4.89555,17.30112 -10.60032,22.08399 l -49.46816,-90.98607 -47.70144,85.24424 c -13.48022,8.53254 -18.43698,4.95279 -24.29239,2.65007 l 52.19581,-94.81396 0.3641,-4.14914 z"
       id="path5659"
       style="fill:#000000;fill-opacity:1;fill-rule:evenodd;stroke:none" />
    <path
       d="m 252.0663,477.51136 23.61675,-23.4092 -0.40733,-39.68387 c 5.88202,-7.80775 16.05767,-11.6328 30.6642,-7.80787 l 41.91274,64.96262 c -0.64131,8.41088 -0.95462,18.16604 -9.65291,18.11277 l -23.63971,-38.76222 -0.49956,39.44976 -38.1644,0.032 -0.22986,-12.39686 c 0.41297,1.78952 -16.64738,10.85747 -23.59992,-0.49714 z"
       id="path5661"
       style="fill:#000000;fill-opacity:1;fill-rule:evenodd;stroke:none" />
    <g
       transform="translate(525.4094,-19.18652)"
       id="g1954"
       style="fill:#000000">
      <path
         d="m -315.45043,399.09396 c 0,10.69416 -8.66935,19.36352 -19.36351,19.36352 -10.69418,0 -19.36352,-8.66936 -19.36352,-19.36352 0,-10.69418 8.66934,-19.36353 19.36352,-19.36353 10.69416,0 19.36351,8.66935 19.36351,19.36353 l 0,0 z"
         id="path1956"
         style="fill:#000000;fill-opacity:1;fill-rule:nonzero;stroke:none" />
      <path
         d="m -344.39807,514.11732 38.47974,0 0.1779,3.46354 40.84476,76.50733 c 0.79934,12.50651 -4.89555,17.30112 -10.60032,22.08399 l -49.46816,-90.98607 -47.70144,85.24424 c -13.48022,8.53254 -18.43698,4.95279 -24.29239,2.65007 l 52.19581,-94.81396 0.3641,-4.14914 z"
         id="path1958"
         style="fill:#000000;fill-opacity:1;fill-rule:evenodd;stroke:none" />
      <path
         d="m -399.83568,473.09124 54.74687,-42.34692 c 7.1965,-7.1965 15.5004,-8.77231 30.10693,-4.94738 l 33.8562,26.7355 4.0601,7.49556 0,27.73423 c -3.69267,7.83875 -8.97155,13.16598 -17.64579,13.11722 l 0,-36.32288 -10.90106,-8.93356 0,54.18664 -39.19552,0 0,-57.59381 -36.54198,30.0563 69.36294,128.86341 -8.38659,5.08785 -71.68159,-129.30078 c -5.08937,3.63526 -12.74839,-9.56925 -7.78051,-13.83138 z"
         id="path1960"
         style="fill:#000000;fill-opacity:1;fill-rule:evenodd;stroke:none" />
    </g>
  </g>
  <g
     transform="matrix(1.25,0,0,-1.25,0.19054999,721.46047)"
     id="g3037">
    <g
       id="g3039">
      <g
         transform="matrix(1,0,0,-1,0,576)"
         id="g3041">
        <path
           d="m 24.684,4.617 336.004,0 c 8.652,0.633 18.457,9.477 18.933,19.891 l 0,524.648 c 0.039,8.254 -9.433,19.356 -20.129,19.891 l -335.527,0 C 16.348,568.582 4.422,556.746 4.074,548.918 L 4.555,24.75 C 4.395,15.473 15.98,4.512 24.684,4.617 z"
           id="path3043"
           style="fill:#ffffff;fill-opacity:1;fill-rule:evenodd;stroke:#000000;stroke-width:1.60000002;stroke-linecap:butt;stroke-linejoin:miter;stroke-miterlimit:4;stroke-opacity:1;stroke-dasharray:none" />
      </g>
      <path
         d="m 28.148,562.574 c -9.406,0.414 -14.777,-6.015 -14.421,-16.301 L 13.727,32 c 0.035,-6.934 2.98,-15.258 12.546,-15.426 l 331.551,-0.426 c 9.567,0.172 12.539,8.493 12.574,15.426 l 0,514.75 c 0.356,10.285 -5.015,16.711 -14.421,16.301 L 28.148,562.574 z"
         id="path3045"
         style="fill:#154889;fill-opacity:1;fill-rule:evenodd;stroke:none" />
      <path
         d="m 78.141,306.863 -0.039,-226.609 227.824,0.039 0,226.652 -227.785,-0.082 z"
         id="path3047"
         style="fill:#ffffff;fill-opacity:1;fill-rule:evenodd;stroke:none" />
      <path
         d="m 109.234,507.004 0,-66.207 46.204,0 c 11.55,0 20.167,3.473 25.851,10.422 5.68,6.949 8.52,14.511 8.52,22.679 0,12.399 -4.461,21.508 -13.379,27.329 -5.731,3.851 -13.102,5.777 -22.117,5.777 l -45.079,0 z m -31.132,-175.801 0,205.242 74.519,0 c 7.984,0 15.66,-0.847 23.031,-2.539 7.371,-1.687 15.051,-5.633 23.032,-11.832 6.199,-4.789 11.457,-11.386 15.777,-19.789 4.32,-8.406 6.48,-18.148 6.48,-29.23 0,-14.653 -5.468,-28.598 -16.41,-41.84 -10.941,-13.238 -26.929,-19.86 -47.965,-19.86 l -47.332,0 0,-80.152 -31.132,0 z"
         id="path3049"
         style="fill:#ffffff;fill-opacity:1;fill-rule:nonzero;stroke:none" />
      <path
         d="m 244.379,272.074 c 0,-8.554 -6.938,-15.492 -15.492,-15.492 -8.555,0 -15.492,6.938 -15.492,15.492 0,8.555 6.937,15.492 15.492,15.492 8.554,0 15.492,-6.937 15.492,-15.492 z"
         id="path3051"
         style="fill:#000000;fill-opacity:1;fill-rule:nonzero;stroke:none" />
      <path
         d="m 221.219,180.055 30.785,0 0.141,-2.77 32.675,-61.207 c 0.641,-10.004 -3.914,-13.84 -8.48,-17.668 l -39.574,72.789 -38.161,-68.195 c -10.785,-6.824 -14.75,-3.961 -19.433,-2.117 l 41.754,75.847 0.293,3.321 z"
         id="path3053"
         style="fill:#000000;fill-opacity:1;fill-rule:evenodd;stroke:none" />
      <path
         d="m 201.652,193.992 18.895,18.727 -0.328,31.746 c 4.707,6.246 12.847,9.308 24.531,6.246 l 33.531,-51.969 c -0.511,-6.73 -0.761,-14.535 -7.722,-14.492 l -18.911,31.012 -0.398,-31.559 -30.531,-0.027 -0.188,9.918 c 0.332,-1.434 -13.316,-8.688 -18.879,0.398 z"
         id="path3055"
         style="fill:#000000;fill-opacity:1;fill-rule:evenodd;stroke:none" />
      <path
         d="m 167.969,272.074 c 0,-8.554 -6.938,-15.492 -15.492,-15.492 -8.555,0 -15.493,6.938 -15.493,15.492 0,8.555 6.938,15.492 15.493,15.492 8.554,0 15.492,-6.937 15.492,-15.492 z"
         id="path3057"
         style="fill:#000000;fill-opacity:1;fill-rule:nonzero;stroke:none" />
      <path
         d="m 144.809,180.055 30.785,0 0.14,-2.77 32.676,-61.207 c 0.641,-10.004 -3.914,-13.84 -8.48,-17.668 l -39.575,72.789 -38.16,-68.195 c -10.785,-6.824 -14.75,-3.961 -19.433,-2.117 l 41.758,75.847 0.289,3.321 z"
         id="path3059"
         style="fill:#000000;fill-opacity:1;fill-rule:evenodd;stroke:none" />
      <path
         d="m 100.457,212.875 43.801,33.879 c 5.758,5.758 12.398,7.019 24.086,3.957 l 27.082,-21.387 3.25,-5.996 0,-22.187 c -2.953,-6.274 -7.18,-10.536 -14.117,-10.496 l 0,29.058 -8.723,7.149 0,-43.352 -31.356,0 0,46.078 -29.234,-24.047 55.492,-103.09 -6.711,-4.07 -57.343,103.442 c -4.071,-2.911 -10.2,7.652 -6.227,11.062 z"
         id="path3061"
         style="fill:#000000;fill-opacity:1;fill-rule:evenodd;stroke:none" />
    </g>
  </g>
</svg>
