<?xml version="1.0" encoding="UTF-8" standalone="no"?>
<!-- Created with Inkscape (http://www.inkscape.org/) -->

<svg
   xmlns:dc="http://purl.org/dc/elements/1.1/"
   xmlns:cc="http://creativecommons.org/ns#"
   xmlns:rdf="http://www.w3.org/1999/02/22-rdf-syntax-ns#"
   xmlns:svg="http://www.w3.org/2000/svg"
   xmlns="http://www.w3.org/2000/svg"
   xmlns:sodipodi="http://sodipodi.sourceforge.net/DTD/sodipodi-0.dtd"
   xmlns:inkscape="http://www.inkscape.org/namespaces/inkscape"
   version="1.0"
   width="471.43494"
   height="470.53604"
   id="svg2"
   inkscape:version="0.48.1 r9760"
   sodipodi:docname="Zeichen_328.svg">
  <metadata
     id="metadata17">
    <rdf:RDF>
      <cc:Work
         rdf:about="">
        <dc:format>image/svg+xml</dc:format>
        <dc:type
           rdf:resource="http://purl.org/dc/dcmitype/StillImage" />
      </cc:Work>
    </rdf:RDF>
  </metadata>
  <sodipodi:namedview
     pagecolor="#ffffff"
     bordercolor="#666666"
     borderopacity="1"
     objecttolerance="10"
     gridtolerance="10"
     guidetolerance="10"
     inkscape:pageopacity="0"
     inkscape:pageshadow="2"
     inkscape:window-width="640"
     inkscape:window-height="484"
     id="namedview15"
     showgrid="false"
     fit-margin-top="0"
     fit-margin-left="0"
     fit-margin-right="0"
     fit-margin-bottom="0"
     inkscape:zoom="0.49166667"
     inkscape:cx="235.90722"
     inkscape:cy="235.30807"
     inkscape:window-x="0"
     inkscape:window-y="0"
     inkscape:window-maximized="0"
     inkscape:current-layer="svg2" />
  <defs
     id="defs4" />
  <path
     d="M 26.763491,1 446.76831,1 c 10.81582,0.7906802 23.07189,11.843765 23.66646,24.864765 l 0,418.806515 c 0.0497,10.31854 -11.79351,24.19224 -25.16434,24.86477 l -419.405666,0 C 12.842327,469.53605 1,457.97898 1,444.37171 L 1.5991509,26.16434 C 1.5991509,12.652085 10.402202,1 26.763491,1 z"
     style="fill:#ffffff;fill-opacity:1;fill-rule:evenodd;stroke:#000000;stroke-width:2;stroke-linecap:butt;stroke-linejoin:miter;stroke-miterlimit:4;stroke-opacity:1;stroke-dasharray:none"
     id="path3669"
     inkscape:connector-curvature="0" />
  <path
     d="m 241.2554,135.12985 0,47.87909 23.31465,0 0,-47.87909 -23.31465,0 z"
     style="color:#000000;fill:#000000;fill-opacity:1;fill-rule:nonzero;stroke:none;stroke-width:1;marker:none;visibility:visible;display:inline;overflow:visible"
     id="path8246"
     inkscape:connector-curvature="0" />
  <path
     d="m 241.25097,50.696726 0,52.375004 97.84375,52.40625 0,162.53125 -97.84375,52.40625 0,52.40625 22.96875,0 0,-37.03125 98.5,-52.8125 0,-192.46875 -98.5,-52.781254 0,-37.03125 -22.96875,0 z"
     style="color:#000000;fill:#000000;fill-opacity:1;fill-rule:nonzero;stroke:none;stroke-width:1;marker:none;visibility:visible;display:inline;overflow:visible"
     id="path8252"
     inkscape:connector-curvature="0" />
  <path
     d="m 389.62597,11.946726 0,0.03125 -308.968753,0 0,0.03125 -49.5625,0 c -11.760613,-0.514916 -18.473169,7.51921 -18.03125,20.375 l 0,406.406254 c 0.04655,8.6672 3.728171,19.07043 15.6875,19.28125 l 51.3125,0 309.562503,-0.0625 0,0.0312 53.5625,0 c 11.95933,-0.21075 15.6722,-10.614 15.71875,-19.2812 l 0,-406.437504 c 0.44191,-12.855791 -6.27063,-20.88992 -18.03125,-20.375 l -51.25,0 z m 0,21.599283 0,402.208791 -307.281253,0.21875 0,-402.365041 307.281253,-0.0625 z"
     style="fill:#154889;fill-opacity:1;fill-rule:evenodd;stroke:none;stroke-width:1px;stroke-linecap:butt;stroke-linejoin:miter;stroke-opacity:1"
     id="path3661"
     inkscape:connector-curvature="0" />
  <path
     d="m 113.55774,250.79275 c 0.49958,0 0.49958,0 0,0 z"
     style="fill:none;stroke:none"
     id="path3709"
     inkscape:connector-curvature="0" />
  <path
     d="m 119.24513,49.825874 0,75.853786 16.61648,0 0,-75.853786 -16.61648,0 z"
     style="color:#000000;fill:#000000;fill-opacity:1;fill-rule:nonzero;stroke:none;stroke-width:1;marker:none;visibility:visible;display:inline;overflow:visible"
     id="path8236"
     inkscape:connector-curvature="0" />
  <path
     d="m 119.24513,147.77998 0,75.85378 16.61648,0 0,-75.85378 -16.61648,0 z"
     style="color:#000000;fill:#000000;fill-opacity:1;fill-rule:nonzero;stroke:none;stroke-width:1;marker:none;visibility:visible;display:inline;overflow:visible"
     id="path8240"
     inkscape:connector-curvature="0" />
  <path
     d="m 119.24513,248.04215 0,75.85378 16.61648,0 0,-75.85378 -16.61648,0 z"
     style="color:#000000;fill:#000000;fill-opacity:1;fill-rule:nonzero;stroke:none;stroke-width:1;marker:none;visibility:visible;display:inline;overflow:visible"
     id="path8242"
     inkscape:connector-curvature="0" />
  <path
     d="m 119.24513,347.5533 0,75.85378 16.61648,0 0,-75.85378 -16.61648,0 z"
     style="color:#000000;fill:#000000;fill-opacity:1;fill-rule:nonzero;stroke:none;stroke-width:1;marker:none;visibility:visible;display:inline;overflow:visible"
     id="path8244"
     inkscape:connector-curvature="0" />
  <path
     d="m 241.2554,211.53349 0,47.87909 23.31465,0 0,-47.87909 -23.31465,0 z"
     style="color:#000000;fill:#000000;fill-opacity:1;fill-rule:nonzero;stroke:none;stroke-width:1;marker:none;visibility:visible;display:inline;overflow:visible"
     id="path8248"
     inkscape:connector-curvature="0" />
  <path
     d="m 241.2554,287.57737 0,47.87909 23.31465,0 0,-47.87909 -23.31465,0 z"
     style="color:#000000;fill:#000000;fill-opacity:1;fill-rule:nonzero;stroke:none;stroke-width:1;marker:none;visibility:visible;display:inline;overflow:visible"
     id="path8250"
     inkscape:connector-curvature="0" />
</svg>
