<?xml version="1.0" encoding="UTF-8" standalone="no"?>
<!-- Created with Inkscape (http://www.inkscape.org/) -->

<svg
   xmlns:dc="http://purl.org/dc/elements/1.1/"
   xmlns:cc="http://creativecommons.org/ns#"
   xmlns:rdf="http://www.w3.org/1999/02/22-rdf-syntax-ns#"
   xmlns:svg="http://www.w3.org/2000/svg"
   xmlns="http://www.w3.org/2000/svg"
   xmlns:sodipodi="http://sodipodi.sourceforge.net/DTD/sodipodi-0.dtd"
   xmlns:inkscape="http://www.inkscape.org/namespaces/inkscape"
   version="1.0"
   width="740"
   height="620"
   id="svg2"
   inkscape:version="0.48.1 r9760"
   sodipodi:docname="Zeichen_332.svg">
  <metadata
     id="metadata11">
    <rdf:RDF>
      <cc:Work
         rdf:about="">
        <dc:format>image/svg+xml</dc:format>
        <dc:type
           rdf:resource="http://purl.org/dc/dcmitype/StillImage" />
      </cc:Work>
    </rdf:RDF>
  </metadata>
  <sodipodi:namedview
     pagecolor="#ffffff"
     bordercolor="#666666"
     borderopacity="1"
     objecttolerance="10"
     gridtolerance="10"
     guidetolerance="10"
     inkscape:pageopacity="0"
     inkscape:pageshadow="2"
     inkscape:window-width="640"
     inkscape:window-height="484"
     id="namedview9"
     showgrid="false"
     inkscape:zoom="0.38064516"
     inkscape:cx="370"
     inkscape:cy="310"
     inkscape:window-x="0"
     inkscape:window-y="0"
     inkscape:window-maximized="0"
     inkscape:current-layer="svg2" />
  <defs
     id="defs4" />
  <path
     d="M 30.856274,3.1934704 L 710.00576,3.1934704 C 720.82158,3.9841506 733.07765,15.037235 733.67222,28.058235 L 733.67222,589.75042 C 733.72189,600.06896 721.87871,613.94266 708.50788,614.61519 L 29.957547,614.61519 C 20.433732,614.03201 5.5262338,599.23667 5.0927831,589.45085 L 5.691934,28.35781 C 5.4925171,16.762499 19.978002,3.0595687 30.856274,3.1934704 z "
     style="fill:white;fill-opacity:1;fill-rule:evenodd;stroke:black;stroke-width:2;stroke-linecap:butt;stroke-linejoin:miter;stroke-miterlimit:4;stroke-dasharray:none;stroke-opacity:1"
     id="path3669" />
  <path
     d="M 35.1875,14.202696 C 23.426887,13.68778 16.714331,21.721906 17.15625,34.577696 L 17.15625,584.59351 C 17.202803,593.26071 20.884421,603.66397 32.84375,603.87476 L 709.00447,604.40601 C 720.9638,604.1952 724.67667,593.79196 724.72322,585.12476 L 724.72322,34.515196 C 725.16513,21.659405 718.45259,13.625276 706.69197,14.140196 L 35.1875,14.202696 z "
     style="fill:#154889;fill-opacity:1;fill-rule:evenodd;stroke:none;stroke-width:1px;stroke-linecap:butt;stroke-linejoin:miter;stroke-opacity:0.94117647000000004"
     id="path2774" />
  <path
     d="M 457.22698,349.74561 C 466.23913,348.08939 468.99168,351.53177 467.59606,360.11468 L 448.66838,454.42392 C 447.64381,459.0094 441.90057,458.50245 439.7806,455.41145 L 418.05491,421.17703 L 298.47149,545.52172 L 271.65536,518.51345 L 396.32922,398.79299 L 362.75316,378.71319 C 357.92468,376.01912 359.95115,369.7018 365.71575,367.85035 L 457.22698,349.74561 z "
     style="fill:white;fill-opacity:1;fill-rule:evenodd;stroke:none;stroke-width:1px;stroke-linecap:butt;stroke-linejoin:miter;stroke-opacity:1"
     id="path2014" />
  <path
     d="M 87.974796,159.62945 L 87.974796,74.083407 L 100.24599,74.083407 L 124.78837,129.86154 L 148.80232,74.083407 L 161.07351,74.083407 L 161.07351,159.62945 L 148.09776,159.62945 L 148.09776,106.25858 L 147.8629,106.25858 L 129.95518,147.41698 L 119.15184,147.41698 L 101.24412,106.25858 L 100.95055,106.25858 L 100.95055,159.62945 L 87.974796,159.62945 z M 210.04085,159.62945 L 210.04085,154.22778 L 209.74728,154.22778 C 207.28126,158.29861 202.27102,160.33402 194.71654,160.33402 C 187.90572,160.33402 182.62148,158.56282 178.8638,155.02042 C 175.10611,151.47803 173.22727,147.04514 173.22728,141.72174 C 173.22727,136.90723 174.89083,132.6994 178.21795,129.09826 C 181.54506,125.49718 186.49659,123.69663 193.07255,123.69659 L 210.04085,123.69659 L 210.04085,117.3555 C 210.04081,112.14959 205.87213,109.54661 197.5348,109.54656 C 191.74168,109.54661 187.88614,111.09274 185.96818,114.18495 L 176.33911,106.90444 C 180.60564,100.95483 187.45558,97.979997 196.88895,97.979935 C 204.40428,97.979997 210.51052,99.447841 215.20766,102.38347 C 219.90472,105.31922 222.25327,110.54474 222.25332,118.06006 L 222.25332,159.62945 L 210.04085,159.62945 z M 210.04085,138.25762 L 210.04085,133.79537 L 195.36239,133.79537 C 188.27757,133.7954 184.73517,136.2418 184.73519,141.1346 C 184.73517,143.20917 185.62566,145.00973 187.40667,146.53627 C 189.18763,148.06284 192.15268,148.82612 196.30181,148.82611 C 201.39031,148.82612 204.95228,148.25855 206.98773,147.12341 C 209.0231,145.98829 210.04081,143.03303 210.04085,138.25762 L 210.04085,138.25762 z M 238.51706,159.62945 L 238.51706,98.684501 L 250.78825,98.684501 L 250.78825,159.62945 L 238.51706,159.62945 z M 238.51706,86.354597 L 238.51706,74.083407 L 250.78825,74.083407 L 250.78825,86.354597 L 238.51706,86.354597 z M 267.05198,159.62945 L 267.05198,98.684501 L 279.32317,98.684501 L 279.32317,105.20174 L 279.55803,105.20174 C 283.35483,100.38726 288.63907,97.979997 295.41076,97.979935 C 300.14697,97.979997 304.71686,99.780552 309.12044,103.38161 C 313.52392,106.98277 315.72569,112.22787 315.72574,119.11691 L 315.72574,159.62945 L 303.45455,159.62945 L 303.45455,123.34431 C 303.45451,119.23438 302.30959,116.02469 300.01979,113.71524 C 297.72992,111.40588 294.8823,110.25117 291.47693,110.25112 C 287.95407,110.25117 285.04774,111.40588 282.75793,113.71524 C 280.46807,116.02469 279.32315,119.23438 279.32317,123.34431 L 279.32317,159.62945 L 267.05198,159.62945 z M 327.64465,159.62945 L 327.64465,149.94167 L 358.17584,109.54656 L 329.34735,109.54656 L 329.34735,98.684501 L 373.08915,98.684501 L 373.08915,108.431 L 342.55796,148.12154 L 373.08915,148.12154 L 373.08915,159.62945 L 327.64465,159.62945 z "
     style="font-size:120.24591827px;font-style:normal;font-variant:normal;font-weight:normal;font-stretch:normal;text-align:center;line-height:100%;writing-mode:lr-tb;text-anchor:middle;fill:white;fill-opacity:1;stroke:none;stroke-width:1px;stroke-linecap:butt;stroke-linejoin:miter;stroke-opacity:1;font-family:DIN 1451 Mittelschrift"
     id="text2004" />
  <path
     d="M 106.52283,291.29309 L 85.092285,205.74704 L 98.83132,205.74704 L 112.27679,266.57457 L 112.51164,266.57457 L 129.12766,205.74704 L 138.46315,205.74704 L 155.07917,266.57457 L 155.31402,266.57457 L 168.75949,205.74704 L 182.49852,205.74704 L 161.06798,291.29309 L 150.26463,291.29309 L 133.88348,229.64357 L 133.64862,229.64357 L 117.32618,291.29309 L 106.52283,291.29309 z M 195.12759,291.29309 L 195.12759,230.34814 L 207.39878,230.34814 L 207.39878,291.29309 L 195.12759,291.29309 z M 195.12759,218.01823 L 195.12759,205.74704 L 207.39878,205.74704 L 207.39878,218.01823 L 195.12759,218.01823 z M 273.86843,265.459 L 235.93929,265.459 C 235.93928,270.46927 237.29948,274.22695 240.01991,276.73206 C 242.74029,279.23719 246.21419,280.48976 250.44161,280.48974 C 255.49096,280.48976 259.95321,278.53263 263.82836,274.61836 L 272.69415,282.19245 C 269.68012,285.71528 266.28451,288.23019 262.5073,289.73717 C 258.73,291.24416 254.7864,291.99765 250.67646,291.99765 C 244.41363,291.99765 238.34654,289.97203 232.47518,285.92077 C 226.60379,281.86953 223.6681,273.5811 223.6681,261.05547 C 223.6681,249.19532 226.37872,240.99496 231.79997,236.45437 C 237.22119,231.9139 242.88707,229.64363 248.79762,229.64357 C 255.49096,229.64363 261.34277,231.96283 266.35306,236.60116 C 271.36325,241.2396 273.86837,247.49262 273.86843,255.36023 L 273.86843,265.459 z M 235.93929,255.36023 L 261.65595,255.36023 C 261.46019,250.78059 260.16849,247.27733 257.78084,244.85045 C 255.39311,242.42366 252.3987,241.21024 248.79762,241.21019 C 245.15734,241.21024 242.13358,242.42366 239.72634,244.85045 C 237.31905,247.27733 236.0567,250.78059 235.93929,255.36023 L 235.93929,255.36023 z M 283.03339,281.1356 L 291.60561,272.68081 C 296.92898,277.88678 303.32878,280.48976 310.80503,280.48974 C 314.28868,280.48976 317.16566,279.83412 319.43596,278.52283 C 321.70619,277.21157 322.84132,275.26423 322.84136,272.68081 C 322.84132,269.11886 320.35577,267.12259 315.38471,266.692 L 304.58136,265.69386 C 299.53196,265.30246 295.34371,263.6389 292.01661,260.70318 C 288.68948,257.76753 287.02592,253.67713 287.02593,248.43199 C 287.02592,242.24752 289.19833,237.56999 293.54317,234.39939 C 297.88797,231.2289 303.28964,229.64363 309.74818,229.64357 C 315.07154,229.64363 319.63164,230.39713 323.4285,231.90405 C 327.22529,233.4111 330.63068,235.41715 333.64471,237.92222 L 326.07063,246.84672 C 323.64375,245.20278 321.13862,243.85236 318.55526,242.79547 C 315.97181,241.73867 313.03612,241.21024 309.74818,241.21019 C 305.8339,241.21024 303.1135,241.90502 301.58696,243.29454 C 300.06038,244.68414 299.2971,246.43577 299.29712,248.54942 C 299.2971,249.88031 299.86467,251.1133 300.99982,252.24839 C 302.13493,253.38357 304.24863,254.06856 307.34091,254.30338 L 317.43969,255.00794 C 323.7416,255.43855 328.26256,257.38589 331.00259,260.84997 C 333.74251,264.31411 335.1125,268.45343 335.11255,273.26794 C 335.1125,279.25677 332.66609,283.87558 327.77333,287.12441 C 322.88047,290.37324 316.91123,291.99765 309.86561,291.99765 C 299.72767,291.99765 290.78361,288.37697 283.03339,281.1356 L 283.03339,281.1356 z M 350.55989,291.29309 L 350.55989,205.74704 L 362.83108,205.74704 L 362.83108,236.86537 C 365.10133,234.71259 367.49881,232.97075 370.02353,231.63984 C 372.54819,230.30905 375.39581,229.64363 378.56639,229.64357 C 382.28489,229.64363 385.49458,230.39713 388.19546,231.90405 C 390.89625,233.4111 393.12737,235.29972 394.88883,237.56994 C 396.57191,239.76197 397.71683,242.31602 398.32359,245.23209 C 398.93025,248.14825 399.2336,253.32485 399.23366,260.7619 C 399.2336,268.27729 398.93025,273.5126 398.32359,276.46785 C 397.71683,279.42312 396.57191,281.97717 394.88883,284.13 C 393.12737,286.43942 390.89625,288.32804 388.19546,289.79589 C 385.49458,291.26373 382.28489,291.99765 378.56639,291.99765 C 372.30355,291.99765 367.05846,289.6491 362.83108,284.952 L 362.83108,291.29309 L 350.55989,291.29309 z M 374.86742,241.91476 C 369.11344,241.91481 365.6689,243.96979 364.53379,248.07971 C 363.39863,252.18972 362.83106,256.41711 362.83108,260.7619 C 362.83106,265.22418 363.39863,269.51028 364.53379,273.62023 C 365.6689,277.73021 369.11344,279.78519 374.86742,279.78518 C 380.62134,279.78519 384.07566,277.80849 385.23041,273.85508 C 386.38507,269.90171 386.96242,265.53732 386.96247,260.7619 C 386.96242,256.10397 386.38507,251.79829 385.23041,247.84486 C 384.07566,243.89151 380.62134,241.91481 374.86742,241.91476 L 374.86742,241.91476 z M 448.03043,291.29309 L 448.03043,285.89142 L 447.73686,285.89142 C 445.27084,289.96224 440.2606,291.99765 432.70612,291.99765 C 425.8953,291.99765 420.61106,290.22646 416.85338,286.68405 C 413.09569,283.14166 411.21685,278.70877 411.21686,273.38537 C 411.21685,268.57086 412.88041,264.36304 416.20753,260.7619 C 419.53464,257.16082 424.48617,255.36026 431.06213,255.36023 L 448.03043,255.36023 L 448.03043,249.01913 C 448.03039,243.81322 443.86171,241.21024 435.52438,241.21019 C 429.73126,241.21024 425.87572,242.75637 423.95776,245.84859 L 414.32869,238.56807 C 418.59522,232.61846 425.44516,229.64363 434.87853,229.64357 C 442.39386,229.64363 448.5001,231.11148 453.19724,234.04711 C 457.8943,236.98285 460.24285,242.20838 460.2429,249.7237 L 460.2429,291.29309 L 448.03043,291.29309 z M 448.03043,269.92126 L 448.03043,265.459 L 433.35197,265.459 C 426.26715,265.45903 422.72475,267.90544 422.72477,272.79823 C 422.72475,274.8728 423.61524,276.67336 425.39625,278.19991 C 427.17721,279.72648 430.14226,280.48976 434.29139,280.48974 C 439.37989,280.48976 442.94186,279.92219 444.97731,278.78704 C 447.01268,277.65192 448.03039,274.69666 448.03043,269.92126 L 448.03043,269.92126 z M 515.55692,291.29309 L 515.55692,284.952 C 511.29034,289.6491 506.04524,291.99765 499.82161,291.99765 C 496.0639,291.99765 492.83465,291.26373 490.13383,289.79589 C 487.43298,288.32804 485.22143,286.43942 483.49917,284.13 C 481.77689,281.97717 480.62218,279.42312 480.03505,276.46785 C 479.44791,273.5126 479.15434,268.27729 479.15435,260.7619 C 479.15434,253.32485 479.44791,248.14825 480.03505,245.23209 C 480.62218,242.31602 481.77689,239.76197 483.49917,237.56994 C 485.22143,235.29972 487.43298,233.4111 490.13383,231.90405 C 492.83465,230.39713 496.0639,229.64363 499.82161,229.64357 C 502.95299,229.64363 505.79082,230.30905 508.33512,231.63984 C 510.87934,232.97075 513.28661,234.71259 515.55692,236.86537 L 515.55692,205.74704 L 527.82811,205.74704 L 527.82811,291.29309 L 515.55692,291.29309 z M 503.5793,241.91476 C 497.78617,241.91481 494.31228,243.89151 493.15759,247.84486 C 492.00287,251.79829 491.42552,256.10397 491.42554,260.7619 C 491.42552,265.53732 492.00287,269.90171 493.15759,273.85508 C 494.31228,277.80849 497.78617,279.78519 503.5793,279.78518 C 509.25493,279.78519 512.67011,277.73021 513.82486,273.62023 C 514.97952,269.51028 515.55687,265.22418 515.55692,260.7619 C 515.55687,256.41711 514.97952,252.18972 513.82486,248.07971 C 512.67011,243.96979 509.25493,241.91481 503.5793,241.91476 L 503.5793,241.91476 z M 591.83179,265.459 L 553.90266,265.459 C 553.90264,270.46927 555.26284,274.22695 557.98327,276.73206 C 560.70365,279.23719 564.17755,280.48976 568.40497,280.48974 C 573.45433,280.48976 577.91657,278.53263 581.79173,274.61836 L 590.65751,282.19245 C 587.64349,285.71528 584.24787,288.23019 580.47066,289.73717 C 576.69337,291.24416 572.74976,291.99765 568.63983,291.99765 C 562.37699,291.99765 556.30991,289.97203 550.43854,285.92077 C 544.56715,281.86953 541.63146,273.5811 541.63147,261.05547 C 541.63146,249.19532 544.34208,240.99496 549.76333,236.45437 C 555.18456,231.9139 560.85044,229.64363 566.76099,229.64357 C 573.45433,229.64363 579.30613,231.96283 584.31642,236.60116 C 589.32661,241.2396 591.83174,247.49262 591.83179,255.36023 L 591.83179,265.459 z M 553.90266,255.36023 L 579.61931,255.36023 C 579.42356,250.78059 578.13186,247.27733 575.7442,244.85045 C 573.35647,242.42366 570.36207,241.21024 566.76099,241.21019 C 563.1207,241.21024 560.09694,242.42366 557.6897,244.85045 C 555.28241,247.27733 554.02007,250.78059 553.90266,255.36023 L 553.90266,255.36023 z M 607.7488,291.29309 L 607.7488,230.34814 L 620.01999,230.34814 L 620.01999,236.86537 L 620.25484,236.86537 C 624.05165,232.0509 629.33589,229.64363 636.10758,229.64357 C 640.84378,229.64363 645.41367,231.44419 649.81726,235.04524 C 654.22074,238.64641 656.4225,243.89151 656.42256,250.78055 L 656.42256,291.29309 L 644.15137,291.29309 L 644.15137,255.00794 C 644.15133,250.89802 643.00641,247.68833 640.71661,245.37888 C 638.42673,243.06951 635.57912,241.91481 632.17375,241.91476 C 628.65089,241.91481 625.74456,243.06951 623.45475,245.37888 C 621.16489,247.68833 620.01997,250.89802 620.01999,255.00794 L 620.01999,291.29309 L 607.7488,291.29309 z "
     style="font-size:120.24591827px;font-style:normal;font-variant:normal;font-weight:normal;font-stretch:normal;text-align:center;line-height:100%;letter-spacing:3px;writing-mode:lr-tb;text-anchor:middle;fill:white;fill-opacity:1;stroke:none;stroke-width:1px;stroke-linecap:butt;stroke-linejoin:miter;stroke-opacity:1;font-family:DIN 1451 Mittelschrift"
     id="text2008" />
</svg>
