<?xml version="1.0" encoding="UTF-8" standalone="no"?>
<!-- Created with Inkscape (http://www.inkscape.org/) -->
<svg
   xmlns:svg="http://www.w3.org/2000/svg"
   xmlns="http://www.w3.org/2000/svg"
   version="1.0"
   width="2580"
   height="840"
   id="svg2">
  <defs
     id="defs4" />
  <g
     id="layer1">
    <path
       d="M 475.96313,835.09678 L 2111.6091,835.31419 L 2448,3.8451427 L 1638.8252,4.8061647 L 475.96313,835.09678 z "
       style="fill:#999;fill-opacity:1;fill-rule:evenodd;stroke:none;stroke-width:1px;stroke-linecap:butt;stroke-linejoin:miter;stroke-opacity:1"
       id="path3657" />
    <path
       d="M 4.6681081,835.52092 C 41.810965,804.09235 1511.1669,5.9759981 1511.1669,5.9759981 L 1645.4286,6.2857139 L 478.28571,834.28571 L 4.6681081,835.52092 z "
       style="fill:white;fill-opacity:1;fill-rule:evenodd;stroke:black;stroke-width:3;stroke-linecap:butt;stroke-linejoin:miter;stroke-miterlimit:4;stroke-dasharray:none;stroke-opacity:1"
       id="path1882" />
    <path
       d="M 2102.8571,834.28571 L 2348.5714,834.28571 L 2573.1429,6.2857139 L 2440.5715,5.428571 L 2102.8571,834.28571 z "
       style="fill:white;fill-opacity:1;fill-rule:evenodd;stroke:black;stroke-width:3;stroke-linecap:butt;stroke-linejoin:miter;stroke-miterlimit:4;stroke-dasharray:none;stroke-opacity:1"
       id="path1884" />
    <path
       d="M 1972.569,87.313512 L 2012.1841,87.313512 L 2085.8485,6.773766 L 2052.7813,6.773766 L 1972.569,87.313512 z "
       style="fill:white;fill-opacity:1;fill-rule:evenodd;stroke:black;stroke-width:1px;stroke-linecap:butt;stroke-linejoin:miter;stroke-opacity:1"
       id="path3659" />
    <path
       d="M 1773.184,287.02589 L 1820.984,287.02589 L 1940.484,163.2697 L 1898.9046,163.2697 L 1773.184,287.02589 z "
       style="fill:white;fill-opacity:1;fill-rule:evenodd;stroke:black;stroke-width:1px;stroke-linecap:butt;stroke-linejoin:miter;stroke-opacity:1"
       id="path3661" />
    <path
       d="M 1563.9771,499.83416 L 1624.5456,499.83416 L 1754.8498,359.7081 L 1701.484,359.7081 L 1563.9771,499.83416 z "
       style="fill:white;fill-opacity:1;fill-rule:evenodd;stroke:black;stroke-width:1px;stroke-linecap:butt;stroke-linejoin:miter;stroke-opacity:1"
       id="path3663" />
    <path
       d="M 1274.6659,790.92097 L 1352.4515,790.92097 L 1514.0419,617.75531 L 1446.9055,617.75531 L 1274.6659,790.92097 z "
       style="fill:white;fill-opacity:1;fill-rule:evenodd;stroke:black;stroke-width:1px;stroke-linecap:butt;stroke-linejoin:miter;stroke-opacity:1"
       id="path3665" />
  </g>
</svg>
