<?xml version="1.0" encoding="UTF-8" standalone="no"?>
<!-- Created with Inkscape (http://www.inkscape.org/) -->
<svg
   xmlns:svg="http://www.w3.org/2000/svg"
   xmlns="http://www.w3.org/2000/svg"
   version="1.0"
   width="2370"
   height="1570"
   id="svg2">
  <defs
     id="defs4" />
  <g
     id="layer1">
    <path
       d="M 2332.8556,972.85419 L 2048.9799,1034.4958 C 2006.3446,1041.3837 2006.2895,1061.3732 2027.892,1088.0266 L 2334.8197,1443.5629 L 2333.8634,1538.0179 L 2213.6149,1536.8565 L 1828.6907,1054.2843 C 1799.3748,987.93896 1837.3895,951.46198 1888.3874,937.55349 L 2333.184,843.28473 L 2332.8556,972.85419 z "
       style="fill:white;fill-opacity:1;fill-rule:evenodd;stroke:none;stroke-width:1px;stroke-linecap:butt;stroke-linejoin:miter;stroke-opacity:1"
       id="path4580" />
    <path
       d="M 2332.8556,93.650591 L 2332.8556,231.53308 L 1427.2268,421.70799 C 1333.2513,430.22861 1289.1648,388.49938 1255.7501,358.06053 L 988.09588,7.6768082 L 1146.2521,7.6768082 L 1344.9682,249.37669 C 1363.9665,276.83505 1419.0171,277.88564 1484.4728,263.97601 L 2332.8556,93.650591 z "
       style="fill:white;fill-opacity:1;fill-rule:evenodd;stroke:none;stroke-width:1px;stroke-linecap:butt;stroke-linejoin:miter;stroke-opacity:1"
       id="path4582" />
    <path
       d="M 504.07183,7.795209 L 745.82744,425.15625 C 765.99415,499.68728 725.6615,518.67936 678.96118,535.18244 L 35.56184,637.34465 L 35.858802,1380.8275 L 970.20969,1160.7211 C 1063.1741,1147.0939 1125.2625,1183.5446 1150.9846,1226.7183 L 1320.6024,1537.7604 L 2211.9882,1537.0655 L 1831.0427,1054.5517 C 1802.6176,991.49905 1828.4971,952.62891 1899.9094,934.03508 L 2332.7708,843.32266 L 2333.6891,228.44896 L 1439.3637,418.96999 C 1373.0361,431.55621 1310.598,412.67256 1252.8499,355.84223 L 987.42635,7.2048517 L 504.07183,7.795209 z "
       style="fill:#999;fill-opacity:1;fill-rule:evenodd;stroke:none;stroke-width:1px;stroke-linecap:butt;stroke-linejoin:miter;stroke-opacity:1"
       id="path13460" />
    <path
       d="M 505.40509,8.066531 L 366.63173,8.066531 L 552.60697,382.39273 C 564.74383,420.21617 553.38818,421.89237 523.40833,427.21892 L 35.895681,495.94301 L 35.301757,638.69193 C 251.05799,603.81624 468.5205,574.5258 682.14261,535.38187 C 756.88822,512.03062 765.23489,470.20664 738.28527,413.21352 L 505.40509,8.066531 z "
       style="fill:white;fill-opacity:1;fill-rule:evenodd;stroke:none;stroke-width:1px;stroke-linecap:butt;stroke-linejoin:miter;stroke-opacity:1"
       id="path4584" />
    <path
       d="M 35.713769,1380.6293 L 35.416807,1560.9623 L 974.04712,1336.592 C 1012.1284,1330.937 1026.7748,1337.6479 1044.871,1383.2574 L 1113.0012,1537.3613 L 1319.5726,1537.0688 L 1158.4213,1234.0198 C 1099.8064,1156.5303 1032.4324,1154.9526 964.0602,1162.0262 L 35.713769,1380.6293 z "
       style="fill:white;fill-opacity:1;fill-rule:evenodd;stroke:none;stroke-width:1px;stroke-linecap:butt;stroke-linejoin:miter;stroke-opacity:1"
       id="path4586" />
    <path
       d="M 35.371023,1381.4812 L 964.55448,1160.8072 C 1056.0478,1149.9955 1121.8168,1175.4734 1161.2835,1238.0563 L 1319.8182,1536.8375"
       style="fill:none;fill-opacity:1;fill-rule:evenodd;stroke:black;stroke-width:3;stroke-linecap:butt;stroke-linejoin:miter;stroke-miterlimit:4;stroke-dasharray:none;stroke-opacity:1"
       id="path4588" />
    <path
       d="M 1112.6968,1536.863 L 1034.9581,1363.2706 C 1021.2901,1339.8357 1004.5163,1326.283 980.66529,1335.2485 L 36.056251,1561.9646"
       style="fill:none;fill-opacity:1;fill-rule:evenodd;stroke:black;stroke-width:3;stroke-linecap:butt;stroke-linejoin:miter;stroke-miterlimit:4;stroke-dasharray:none;stroke-opacity:1"
       id="path4590" />
    <path
       d="M 2213.1325,1536.6861 L 1828.4668,1051.8304 C 1802.4636,1005.3107 1826.2794,952.68688 1898.4305,934.56728 L 2332.5893,842.53308"
       style="fill:none;fill-opacity:1;fill-rule:evenodd;stroke:black;stroke-width:3;stroke-linecap:butt;stroke-linejoin:miter;stroke-miterlimit:4;stroke-dasharray:none;stroke-opacity:1"
       id="path6362" />
    <path
       d="M 2333.0882,974.57736 L 2036.387,1036.0639 C 2016.2794,1039.8016 2006.1895,1053.1979 2016.679,1072.5239 L 2334.6735,1441.2687"
       style="fill:none;fill-opacity:1;fill-rule:evenodd;stroke:black;stroke-width:3;stroke-linecap:butt;stroke-linejoin:miter;stroke-miterlimit:4;stroke-dasharray:none;stroke-opacity:1"
       id="path6364" />
    <path
       d="M 2238.594,1536.098 L 1846.2041,1049.8596 C 1833.1973,1032.6503 1820.0475,1015.5354 1824.5252,986.7937"
       style="fill:none;fill-opacity:1;fill-rule:evenodd;stroke:black;stroke-width:3;stroke-linecap:butt;stroke-linejoin:miter;stroke-miterlimit:4;stroke-dasharray:none;stroke-opacity:1"
       id="path6366" />
    <path
       d="M 2333.3755,229.68022 L 1436.208,420.20378 C 1337.3138,433.27644 1280.8165,383.46255 1246.3922,345.52516 L 988.18504,8.234507"
       style="fill:none;fill-opacity:1;fill-rule:evenodd;stroke:black;stroke-width:3;stroke-linecap:butt;stroke-linejoin:miter;stroke-miterlimit:4;stroke-dasharray:none;stroke-opacity:1"
       id="path8138" />
    <path
       d="M 1008.2249,8.0354221 L 1268.7933,337.54469 C 1312.6763,377.71747 1355.9697,404.86245 1431.9293,397.11603 L 2332.0287,209.81503"
       style="fill:none;fill-opacity:1;fill-rule:evenodd;stroke:black;stroke-width:3;stroke-linecap:butt;stroke-linejoin:miter;stroke-miterlimit:4;stroke-dasharray:none;stroke-opacity:1"
       id="path9025" />
    <path
       d="M 1145.6597,8.520251 L 1340.1606,246.87524 C 1366.2811,271.24358 1408.414,279.42322 1446.5474,271.23861 L 2331.8409,94.634485"
       style="fill:none;fill-opacity:1;fill-rule:evenodd;stroke:black;stroke-width:3;stroke-linecap:butt;stroke-linejoin:miter;stroke-miterlimit:4;stroke-dasharray:none;stroke-opacity:1"
       id="path9912" />
    <path
       d="M 35.326492,497.70509 L 531.23126,425.00847 C 552.14293,422.67357 564.81657,413.89153 554.77758,387.33437 L 367.54224,8.451398"
       style="fill:none;fill-opacity:1;fill-rule:evenodd;stroke:black;stroke-width:3;stroke-linecap:butt;stroke-linejoin:miter;stroke-miterlimit:4;stroke-dasharray:none;stroke-opacity:1"
       id="path10799" />
    <path
       d="M 504.11087,8.451398 L 745.14105,426.54747 C 754.62374,447.95616 773.68907,509.94725 683.105,535.67616 L 35.549729,638.69655"
       style="fill:none;fill-opacity:1;fill-rule:evenodd;stroke:black;stroke-width:3;stroke-linecap:butt;stroke-linejoin:miter;stroke-miterlimit:4;stroke-dasharray:none;stroke-opacity:1"
       id="path11686" />
    <path
       d="M 35.664159,613.32592 L 688.05315,511.72395 C 745.79335,496.39467 747.09752,459.8952 745.87973,428.53482"
       style="fill:none;fill-opacity:1;fill-rule:evenodd;stroke:black;stroke-width:3;stroke-linecap:butt;stroke-linejoin:miter;stroke-miterlimit:4;stroke-dasharray:none;stroke-opacity:1"
       id="path12573" />
    <path
       d="M 114.49412,1090.1538 L 124.88604,1121.3295 L 354.80728,1074.5659 L 344.41536,1044.6891 L 114.49412,1090.1538 z "
       style="fill:white;fill-opacity:1;fill-rule:evenodd;stroke:black;stroke-width:1px;stroke-linecap:butt;stroke-linejoin:miter;stroke-opacity:1"
       id="path14347" />
    <path
       d="M 389.60916,1036.6907 L 403.0081,1066.28 L 610.13344,1022.1751 L 596.7345,993.14407 L 389.60916,1036.6907 z "
       style="fill:white;fill-opacity:1;fill-rule:evenodd;stroke:black;stroke-width:1px;stroke-linecap:butt;stroke-linejoin:miter;stroke-opacity:1"
       id="path14349" />
    <path
       d="M 634.13988,987.00288 L 643.07251,1013.8008 L 828.98286,978.07025 L 798.83524,914.98356 L 775.38709,920.00816 L 792.13577,955.18039 L 634.13988,987.00288 z "
       style="fill:white;fill-opacity:1;fill-rule:evenodd;stroke:black;stroke-width:1px;stroke-linecap:butt;stroke-linejoin:miter;stroke-opacity:1"
       id="path14351" />
    <path
       d="M 756.40525,884.83594 L 780.96998,879.25304 L 755.84696,826.21556 L 732.39881,831.24016 L 756.40525,884.83594 z "
       style="fill:white;fill-opacity:1;fill-rule:evenodd;stroke:black;stroke-width:1px;stroke-linecap:butt;stroke-linejoin:miter;stroke-opacity:1"
       id="path14353" />
    <path
       d="M 711.7421,793.27648 L 737.42341,788.25188 L 703.92605,720.14058 L 38.445165,838.49792 L 38.445165,866.41239 L 691.0854,748.05505 L 711.7421,793.27648 z "
       style="fill:white;fill-opacity:1;fill-rule:evenodd;stroke:black;stroke-width:1px;stroke-linecap:butt;stroke-linejoin:miter;stroke-opacity:1"
       id="path14355" />
    <path
       d="M 562.67885,830.12358 L 540.34728,877.57817 L 580.54411,868.64554 C 591.31266,880.40988 582.75711,887.3432 569.93661,893.21028 L 131.12119,955.18039 L 140.05382,985.8863 L 593.38476,906.60922 C 615.82643,900.46706 616.07401,880.4536 615.15805,859.71292 L 649.2137,852.45515 L 562.67885,830.12358 z "
       style="fill:white;fill-opacity:1;fill-rule:evenodd;stroke:black;stroke-width:1px;stroke-linecap:butt;stroke-linejoin:miter;stroke-opacity:1"
       id="path14357" />
    <path
       d="M 1783.5692,1524.63 L 1753.728,1524.63 L 1677.9152,1407.6847 L 1702.9173,1402.039 L 1783.5692,1524.63 z "
       style="fill:white;fill-opacity:1;fill-rule:evenodd;stroke:black;stroke-width:1px;stroke-linecap:butt;stroke-linejoin:miter;stroke-opacity:1"
       id="path14359" />
    <path
       d="M 1653.7196,1369.7783 C 1656.9457,1368.9717 1677.9152,1363.3261 1677.9152,1363.3261 L 1612.5871,1260.8981 L 1662.5913,1247.9938 L 1642.4283,1213.3134 L 1565.0024,1232.6699 L 1653.7196,1369.7783 z "
       style="fill:white;fill-opacity:1;fill-rule:evenodd;stroke:black;stroke-width:1px;stroke-linecap:butt;stroke-linejoin:miter;stroke-opacity:1"
       id="path14361" />
    <path
       d="M 1713.402,1234.2829 L 1806.1518,1210.8939 L 1790.0214,1179.4396 L 1695.6586,1203.6352 L 1713.402,1234.2829 z "
       style="fill:white;fill-opacity:1;fill-rule:evenodd;stroke:black;stroke-width:1px;stroke-linecap:butt;stroke-linejoin:miter;stroke-opacity:1"
       id="path14363" />
    <path
       d="M 1847.2843,1202.0222 L 1931.9689,1181.0526 L 1906.1602,1151.2114 L 1827.9278,1168.9548 L 1847.2843,1202.0222 z "
       style="fill:white;fill-opacity:1;fill-rule:evenodd;stroke:black;stroke-width:1px;stroke-linecap:butt;stroke-linejoin:miter;stroke-opacity:1"
       id="path14365" />
    <path
       d="M 1749.6954,800.37532 L 2333.6157,678.59084 L 2333.6157,656.81481 L 1762.5997,776.17973 L 1723.8868,730.2081 L 1697.2716,736.66026 L 1749.6954,800.37532 z "
       style="fill:white;fill-opacity:1;fill-rule:evenodd;stroke:black;stroke-width:1px;stroke-linecap:butt;stroke-linejoin:miter;stroke-opacity:1"
       id="path14367" />
    <path
       d="M 1671.463,706.01251 L 1696.4651,700.36687 L 1654.5261,647.13657 L 1628.7175,653.58873 L 1671.463,706.01251 z "
       style="fill:white;fill-opacity:1;fill-rule:evenodd;stroke:black;stroke-width:1px;stroke-linecap:butt;stroke-linejoin:miter;stroke-opacity:1"
       id="path14369" />
    <path
       d="M 1601.2958,622.13446 L 1627.9109,615.6823 L 1596.4567,575.35632 L 1786.7953,535.83685 L 1773.0845,515.67386 L 1555.3242,561.64548 L 1601.2958,622.13446 z "
       style="fill:white;fill-opacity:1;fill-rule:evenodd;stroke:black;stroke-width:1px;stroke-linecap:butt;stroke-linejoin:miter;stroke-opacity:1"
       id="path14371" />
    <path
       d="M 1822.2822,508.41518 L 1835.993,526.96513 L 2005.3622,491.47827 L 1993.2644,472.12179 L 1822.2822,508.41518 z "
       style="fill:white;fill-opacity:1;fill-rule:evenodd;stroke:black;stroke-width:1px;stroke-linecap:butt;stroke-linejoin:miter;stroke-opacity:1"
       id="path14373" />
    <path
       d="M 2035.2034,462.44356 L 2047.3012,484.21959 L 2205.3791,448.73272 L 2193.2813,429.37625 L 2035.2034,462.44356 z "
       style="fill:white;fill-opacity:1;fill-rule:evenodd;stroke:black;stroke-width:1px;stroke-linecap:butt;stroke-linejoin:miter;stroke-opacity:1"
       id="path14375" />
    <path
       d="M 2235.2203,421.31105 L 2246.8617,440.11358 L 2333.564,420.50453 L 2333.564,397.92198 L 2235.2203,421.31105 z "
       style="fill:white;fill-opacity:1;fill-rule:evenodd;stroke:black;stroke-width:1px;stroke-linecap:butt;stroke-linejoin:miter;stroke-opacity:1"
       id="path14377" />
    <path
       d="M 1879.185,685.58178 L 1902.1972,638.45351 L 1866.0184,647.69433 C 1855.4203,635.77622 1866.146,625.41615 1882.3043,621.80539 L 2211.0094,559.05613 L 2189.2049,529.40837 L 1855.2049,609.84567 C 1832.6772,615.6642 1824.1527,634.48848 1824.77,655.2402 L 1792.9805,662.00707 L 1879.185,685.58178 z "
       style="fill:white;fill-opacity:1;fill-rule:evenodd;stroke:black;stroke-width:1px;stroke-linecap:butt;stroke-linejoin:miter;stroke-opacity:1"
       id="path14382" />
    <path
       d="M 1976.6683,1165.1851 L 1976.6683,899.52946 L 1989.5642,899.52946 L 1989.6786,1165.3342 C 1989.6786,1171.0947 1976.6683,1170.3758 1976.6683,1165.1851 z "
       style="fill:black;fill-opacity:1;fill-rule:evenodd;stroke:black;stroke-width:1px;stroke-linecap:butt;stroke-linejoin:miter;stroke-opacity:1"
       id="path14384" />
    <path
       d="M 668.30186,376.45521 L 668.30186,185.99762 L 677.54737,185.99762 L 677.62939,376.56211 C 677.62939,380.69201 668.30186,380.1766 668.30186,376.45521 z "
       style="fill:black;fill-opacity:1;fill-rule:evenodd;stroke:black;stroke-width:0.71693414px;stroke-linecap:butt;stroke-linejoin:miter;stroke-opacity:1"
       id="path14386" />
    <g
       transform="matrix(0.312048,-5.623279e-2,0,-0.312048,1867.699,936.0977)"
       style="fill-opacity:1"
       id="g1875">
      <path
         d="M 71.985614,631.52918 C 60.553114,631.52918 49.989054,625.43 44.272794,615.52918 C 38.556554,605.62833 38.556554,593.43 44.272794,583.52918 L 348.84719,55.99085 C 354.56345,46.09002 365.12751,39.99084 376.56,39.99084 C 387.99251,39.99084 398.55659,46.09002 404.27283,55.99085 L 708.84723,583.52918 C 714.56347,593.43 714.56347,605.62833 708.84723,615.52918 C 703.13097,625.42999 692.56691,631.52918 681.13441,631.52918 L 71.985614,631.52918 z "
         style="fill:white;fill-opacity:1;fill-rule:evenodd;stroke:black;stroke-width:2"
         id="path6" />
      <path
         d="M 71.985614,619.52918 C 64.840294,619.52918 58.237754,615.7172 54.665094,609.52918 C 51.092454,603.34114 51.092454,595.7172 54.665094,589.52918 L 359.23951,61.99086 C 362.81215,55.80282 369.41471,51.99084 376.56,51.99084 C 383.70533,51.99084 390.30787,55.80282 393.88053,61.99086 L 698.45493,589.52918 C 702.02757,595.7172 702.02757,603.34114 698.45493,609.52918 C 694.88227,615.7172 688.27973,619.52918 681.13441,619.52918 L 71.985614,619.52918 z M 141.2677,559.52918 L 376.56,151.99085 L 611.85233,559.52918 L 141.2677,559.52918 z "
         style="fill:#c00;fill-opacity:1;fill-rule:evenodd;stroke:none"
         id="path8" />
    </g>
    <path
       d="M 607.10732,71.386497 C 604.60643,71.427468 602.29551,72.79954 601.04506,74.985859 C 599.79461,77.172185 599.79461,79.840606 601.04506,81.985955 L 667.67162,196.29506 C 668.92207,198.44041 671.23299,199.73677 673.73388,199.6958 C 676.23478,199.65483 678.5457,198.28275 679.79614,196.09643 L 746.42271,79.604337 C 747.67315,77.418018 747.67315,74.749596 746.42271,72.604241 C 745.17226,70.458894 742.86134,69.162536 740.36045,69.203507 L 607.10732,71.386497 z "
       style="fill:black;fill-opacity:1;fill-rule:evenodd;stroke:black;stroke-width:0.43750599"
       id="path14401" />
    <path
       d="M 735.44318,406.92244 L 802.19222,397.99 L 790.40904,373.94292 L 721.15206,383.83678 L 735.44318,406.92244 z "
       style="fill:white;fill-opacity:1;fill-rule:evenodd;stroke:black;stroke-width:1px;stroke-linecap:butt;stroke-linejoin:miter;stroke-opacity:1"
       id="path15394" />
    <path
       d="M 827.33861,395.13926 L 901.44008,386.03541 L 888.24827,360.75112 L 814.59402,370.64497 L 827.33861,395.13926 z "
       style="fill:white;fill-opacity:1;fill-rule:evenodd;stroke:black;stroke-width:1px;stroke-linecap:butt;stroke-linejoin:miter;stroke-opacity:1"
       id="path15396" />
    <path
       d="M 917.92983,383.83678 L 990.07105,372.67221 L 919.71475,267.13776 L 897.04281,270.60711 L 950.90935,351.95658 L 904.73803,358.55248 L 917.92983,383.83678 z "
       style="fill:white;fill-opacity:1;fill-rule:evenodd;stroke:black;stroke-width:1px;stroke-linecap:butt;stroke-linejoin:miter;stroke-opacity:1"
       id="path15398" />
    <path
       d="M 886.04964,250.8194 L 907.14155,247.55494 L 868.80336,192.07488 L 847.57353,194.75423 L 886.04964,250.8194 z "
       style="fill:white;fill-opacity:1;fill-rule:evenodd;stroke:black;stroke-width:1px;stroke-linecap:butt;stroke-linejoin:miter;stroke-opacity:1"
       id="path15400" />
    <path
       d="M 835.48105,176.06583 L 854.78805,173.38649 L 808.68372,103.373 L 787.31598,105.29582 L 835.48105,176.06583 z "
       style="fill:white;fill-opacity:1;fill-rule:evenodd;stroke:black;stroke-width:1px;stroke-linecap:butt;stroke-linejoin:miter;stroke-opacity:1"
       id="path15402" />
    <path
       d="M 776.11792,88.12046 L 797.00495,87.021143 L 745.33704,7.8703073 L 725.54933,8.0417062 L 776.11792,88.12046 z "
       style="fill:white;fill-opacity:1;fill-rule:evenodd;stroke:black;stroke-width:1px;stroke-linecap:butt;stroke-linejoin:miter;stroke-opacity:1"
       id="path15404" />
  </g>
</svg>
