<?xml version="1.0" encoding="UTF-8" standalone="no"?>
<!-- Created with Inkscape (http://www.inkscape.org/) -->

<svg
   xmlns:dc="http://purl.org/dc/elements/1.1/"
   xmlns:cc="http://creativecommons.org/ns#"
   xmlns:rdf="http://www.w3.org/1999/02/22-rdf-syntax-ns#"
   xmlns:svg="http://www.w3.org/2000/svg"
   xmlns="http://www.w3.org/2000/svg"
   xmlns:sodipodi="http://sodipodi.sourceforge.net/DTD/sodipodi-0.dtd"
   xmlns:inkscape="http://www.inkscape.org/namespaces/inkscape"
   version="1.0"
   width="471.43494"
   height="470.53674"
   id="svg2"
   inkscape:version="0.48.1 r9760"
   sodipodi:docname="Zeichen_350-10.svg">
  <metadata
     id="metadata18">
    <rdf:RDF>
      <cc:Work
         rdf:about="">
        <dc:format>image/svg+xml</dc:format>
        <dc:type
           rdf:resource="http://purl.org/dc/dcmitype/StillImage" />
      </cc:Work>
    </rdf:RDF>
  </metadata>
  <sodipodi:namedview
     pagecolor="#ffffff"
     bordercolor="#666666"
     borderopacity="1"
     objecttolerance="10"
     gridtolerance="10"
     guidetolerance="10"
     inkscape:pageopacity="0"
     inkscape:pageshadow="2"
     inkscape:window-width="640"
     inkscape:window-height="484"
     id="namedview16"
     showgrid="false"
     fit-margin-top="0"
     fit-margin-left="0"
     fit-margin-right="0"
     fit-margin-bottom="0"
     inkscape:zoom="0.49166667"
     inkscape:cx="235.90722"
     inkscape:cy="235.30807"
     inkscape:window-x="0"
     inkscape:window-y="0"
     inkscape:window-maximized="0"
     inkscape:current-layer="svg2" />
  <defs
     id="defs4" />
  <path
     d="m 26.763491,1.0007043 420.004819,0 c 10.81582,0.7906802 23.07189,11.8437647 23.66646,24.8647647 l 0,418.806511 c 0.0497,10.31854 -11.79351,24.19224 -25.16434,24.86477 l -419.405666,0 C 16.340949,468.95357 1.4334507,454.15823 1,444.37241 L 1.5991509,26.165044 C 0.5175892,19.862602 15.885219,0.86680262 26.763491,1.0007043 z"
     style="fill:#ffffff;fill-opacity:1;fill-rule:evenodd;stroke:#000000;stroke-width:2;stroke-linecap:butt;stroke-linejoin:miter;stroke-miterlimit:4;stroke-opacity:1;stroke-dasharray:none"
     id="path3669"
     inkscape:connector-curvature="0" />
  <path
     d="m 31.094717,12.00993 c -11.760613,-0.514916 -18.473169,7.51921 -18.03125,20.375 l 0,406.40625 c 0.04655,8.6672 3.728171,19.07043 15.6875,19.28125 l 414.437503,-0.0312 c 11.95933,-0.21085 15.6722,-10.6141 15.71875,-19.2813 l 0,-406.4375 c 0.44191,-12.855791 -6.27063,-20.88992 -18.03125,-20.375 l -409.781253,0.0625 z"
     style="fill:#154889;fill-opacity:1;fill-rule:evenodd;stroke:none"
     id="path3661"
     inkscape:connector-curvature="0" />
  <path
     d="M 236.54214,56.815981 41.621503,395.18772 l 389.206357,0 L 236.54214,56.815981 z"
     style="fill:#ffffff;fill-opacity:1;fill-rule:evenodd;stroke:none"
     id="path5511"
     inkscape:connector-curvature="0" />
  <g
     transform="matrix(0.768565,0,0,0.768565,484.23132,-188.93142)"
     id="g5501">
    <path
       d="m -305.84183,421.68087 c 0,13.91446 -11.27992,25.19438 -25.19438,25.19438 -13.91447,0 -25.19438,-11.27992 -25.19438,-25.19438 0,-13.91447 11.27991,-25.19439 25.19438,-25.19439 13.91446,0 25.19438,11.27992 25.19438,25.19439 l 0,0 z"
       style="fill:#000000;fill-opacity:1;fill-rule:nonzero;stroke:none"
       id="path5663"
       inkscape:connector-curvature="0" />
    <path
       d="m -531.60012,747.84425 55.6422,0 39.54125,-89.48197 -41.86496,0 -53.31849,89.48197 z"
       style="fill:#000000;fill-opacity:1;fill-rule:evenodd;stroke:none"
       id="path5645"
       inkscape:connector-curvature="0" />
    <path
       d="m -441.71179,748.25061 55.07081,0 8.52028,-45.57278 c -17.74634,10.41353 -29.78221,6.56449 -41.05224,0.16503 l 24.58307,-44.55688 -17.04055,0 -30.08137,89.96463 z"
       style="fill:#000000;fill-opacity:1;fill-rule:evenodd;stroke:none"
       id="path5647"
       inkscape:connector-curvature="0" />
    <path
       d="m -351.29022,747.84425 56.5818,0 -8.52027,-89.68515 -40.27767,0 -7.78386,89.68515 z"
       style="fill:#000000;fill-opacity:1;fill-rule:evenodd;stroke:none"
       id="path5649"
       inkscape:connector-curvature="0" />
    <path
       d="m -260.95738,748.00928 56.09914,0.40636 -31.38918,-90.70105 -6.23471,0.81272 c 8.11812,17.13113 16.49307,35.98937 -13.73909,52.8864 l -13.98531,-26.25262 -1.87431,-1.44117 11.12346,64.28936 z"
       style="fill:#000000;fill-opacity:1;fill-rule:evenodd;stroke:none"
       id="path5651"
       inkscape:connector-curvature="0" />
    <path
       d="m -169.76123,748.41564 55.15953,0 -54.79132,-90.6629 -40.88721,0.40636 40.519,90.25654 z"
       style="fill:#000000;fill-opacity:1;fill-rule:evenodd;stroke:none"
       id="path5653"
       inkscape:connector-curvature="0" />
    <path
       d="m -343.50636,571.34077 50.06699,0 0.23147,4.50651 53.14418,99.54568 c 1.04004,16.27254 -6.36972,22.51094 -13.79235,28.73406 l -64.36431,-118.38436 -62.06559,110.91351 c -17.53947,11.10191 -23.98884,6.44421 -31.60747,3.44808 l 67.91333,-123.36492 0.47375,-5.39856 z"
       style="fill:#000000;fill-opacity:1;fill-rule:evenodd;stroke:none"
       id="path5659"
       inkscape:connector-curvature="0" />
    <path
       d="m -406.21292,560.85962 62.78279,-94.27578 c 7.65325,-10.15887 19.193,-15.13574 38.19794,-10.15902 l 49.57605,40.63611 5.2827,9.75266 0,39.01067 c -4.80462,10.1992 -11.67311,17.1306 -22.9594,17.06716 l 0,-50.18559 -19.70852,-17.47353 0,70.50365 -50.99831,0 0,-56.48419 -35.15024,51.40467 c -10.12821,5.67041 -19.58764,7.99694 -27.02301,0.20319 z"
       style="fill:#000000;fill-opacity:1;fill-rule:evenodd;stroke:none"
       id="path5661"
       inkscape:connector-curvature="0" />
  </g>
</svg>
