<?xml version="1.0" encoding="UTF-8" standalone="no"?>
<!-- Created with Inkscape (http://www.inkscape.org/) -->

<svg
   xmlns:dc="http://purl.org/dc/elements/1.1/"
   xmlns:cc="http://creativecommons.org/ns#"
   xmlns:rdf="http://www.w3.org/1999/02/22-rdf-syntax-ns#"
   xmlns:svg="http://www.w3.org/2000/svg"
   xmlns="http://www.w3.org/2000/svg"
   version="1.1"
   width="589.32294"
   height="588.18903"
   id="svg23087"
   xml:space="preserve"><metadata
     id="metadata23093"><rdf:RDF><cc:Work
         rdf:about=""><dc:format>image/svg+xml</dc:format><dc:type
           rdf:resource="http://purl.org/dc/dcmitype/StillImage" /><dc:title></dc:title></cc:Work></rdf:RDF></metadata><defs
     id="defs23091"><clipPath
       id="clipPath23103"><path
         d="M 0,0 472,0 472,471 0,471 0,0 z"
         id="path23105" /></clipPath><clipPath
       id="clipPath23107"><path
         d="M 0,0 472,0 472,471 0,471 0,0 z"
         id="path23109" /></clipPath></defs><g
     transform="matrix(1.25,0,0,-1.25,0,588.18901)"
     id="g23095"><g
       id="g23097"><g
         transform="translate(0,-0.448792)"
         id="g23099"><g
           id="g23101" /><g
           id="g23111"><g
             clip-path="url(#clipPath23103)"
             id="g23113"><g
               id="g23115"><g
                 id="g23117"><g
                   id="g23119" /><g
                   id="g23121"><g
                     clip-path="url(#clipPath23107)"
                     id="g23123"><g
                       id="g23125"><g
                         transform="matrix(1,0,0,-1,0,471)"
                         id="g23127"><path
                           d="m 26.773,1.008 420.008,0 c 10.801,0.793 23.074,11.847 23.672,24.859 l 0,418.817 c 0.027,10.32 -11.793,24.179 -25.172,24.859 l -419.414,0 C 12.855,469.543 1.008,457.98 1.008,444.375 L 1.602,26.18 c 0,-13.524 8.816,-25.172 25.171,-25.172 z"
                           id="path23129"
                           style="fill:#ffffff;fill-opacity:1;fill-rule:nonzero;stroke:#000000;stroke-width:2.01259804;stroke-linecap:butt;stroke-linejoin:round;stroke-miterlimit:4;stroke-opacity:1;stroke-dasharray:none" /></g><path
                         d="m 31.195,458.91 c -11.765,0.512 -18.48,-7.512 -18.027,-20.383 l 0,-406.402 C 13.223,23.453 16.91,13.047 28.844,12.852 l 414.453,0.027 C 455.258,13.078 458.973,23.48 459,32.156 l 0,406.43 c 0.453,12.871 -6.266,20.891 -18.027,20.383 L 31.195,458.91 z"
                         id="path23131"
                         style="fill:#003399;fill-opacity:1;fill-rule:nonzero;stroke:none" /><g
                         transform="matrix(1,0,0,-1,0,471)"
                         id="g23133"><path
                           d="M 31.195,12.09 C 19.43,11.578 12.715,19.602 13.168,32.473 l 0,406.402 c 0.055,8.672 3.742,19.078 15.676,19.273 l 414.453,-0.027 C 455.258,457.922 458.973,447.52 459,438.844 l 0,-406.43 C 459.453,19.543 452.734,11.523 440.973,12.031 L 31.195,12.09 z"
                           id="path23135"
                           style="fill:#154889;fill-opacity:1;fill-rule:nonzero;stroke:#003399;stroke-width:0.99212599;stroke-linecap:butt;stroke-linejoin:round;stroke-miterlimit:4;stroke-opacity:1;stroke-dasharray:none" /></g><path
                         d="m 328.863,252.008 c 0.028,-0.113 0.028,-0.227 0.028,-0.309 0,-1.105 -0.2,-2.156 -0.567,-3.035 -0.34,-0.906 -0.851,-1.699 -1.504,-2.324 -0.652,-0.652 -1.445,-1.16 -2.297,-1.504 -0.878,-0.34 -1.839,-0.535 -2.863,-0.535 -0.765,0 -1.586,0.113 -2.406,0.34 l 0.113,0.453 -0.113,-0.453 c -6.664,1.644 -37.192,7.339 -56.184,11.082 l 0.594,-194.399 0,-0.512 -0.508,0 c -3.801,0 -7.058,0.028 -9.953,0.028 l -20.633,0 c -2.129,-0.028 -4.367,-0.028 -6.918,-0.028 l -17.914,0 0,0.512 0.567,194.399 c -18.938,-3.743 -49.465,-9.438 -56.125,-11.082 -0.825,-0.227 -1.645,-0.34 -2.41,-0.34 -1.024,0 -2.012,0.195 -2.864,0.535 -0.879,0.344 -1.644,0.852 -2.324,1.504 -0.625,0.652 -1.164,1.418 -1.531,2.351 -0.34,0.911 -0.539,1.903 -0.539,3.036 0,0.906 0.14,1.925 0.426,2.976 0.312,1.047 0.738,2.152 1.359,3.317 3.344,6.179 60.32,103.804 90.484,155.707 l 0.907,1.558 0,0.027 0.027,0 0,-0.027 0.906,-1.558 c 30.16,-51.903 87.137,-149.528 90.484,-155.707 0.594,-1.079 1.02,-2.157 1.301,-3.149 0.285,-1.019 0.457,-1.953 0.457,-2.863 z"
                         id="path23137"
                         style="fill:#ffffff;fill-opacity:1;fill-rule:nonzero;stroke:none" /></g></g></g></g></g></g></g></g></g></g></svg>