<?xml version="1.0" encoding="UTF-8" standalone="no"?>
<!-- Created with Inkscape (http://www.inkscape.org/) -->

<svg
   xmlns:dc="http://purl.org/dc/elements/1.1/"
   xmlns:cc="http://creativecommons.org/ns#"
   xmlns:rdf="http://www.w3.org/1999/02/22-rdf-syntax-ns#"
   xmlns:svg="http://www.w3.org/2000/svg"
   xmlns="http://www.w3.org/2000/svg"
   xmlns:sodipodi="http://sodipodi.sourceforge.net/DTD/sodipodi-0.dtd"
   xmlns:inkscape="http://www.inkscape.org/namespaces/inkscape"
   version="1.0"
   width="480"
   height="720"
   id="svg2"
   inkscape:version="0.48.1 r9760"
   sodipodi:docname="Zeichen_354.svg">
  <metadata
     id="metadata21">
    <rdf:RDF>
      <cc:Work
         rdf:about="">
        <dc:format>image/svg+xml</dc:format>
        <dc:type
           rdf:resource="http://purl.org/dc/dcmitype/StillImage" />
      </cc:Work>
    </rdf:RDF>
  </metadata>
  <sodipodi:namedview
     pagecolor="#ffffff"
     bordercolor="#666666"
     borderopacity="1"
     objecttolerance="10"
     gridtolerance="10"
     guidetolerance="10"
     inkscape:pageopacity="0"
     inkscape:pageshadow="2"
     inkscape:window-width="640"
     inkscape:window-height="484"
     id="namedview19"
     showgrid="false"
     inkscape:zoom="0.4990681"
     inkscape:cx="228.81356"
     inkscape:cy="446.94915"
     inkscape:window-x="0"
     inkscape:window-y="0"
     inkscape:window-maximized="0"
     inkscape:current-layer="svg2" />
  <defs
     id="defs4" />
  <path
     d="M 30.856274,5.7720243 L 450.86109,5.7720243 C 461.67691,6.5627045 473.93298,17.615789 474.52755,30.636789 L 474.52755,686.44619 C 474.57722,696.76473 462.73404,710.63843 449.36321,711.31096 L 29.957547,711.31096 C 20.433732,710.72778 5.5262338,695.93244 5.0927831,686.14662 L 5.691934,30.936364 C 5.4925171,19.341053 19.978002,5.6381226 30.856274,5.7720243 z "
     style="fill:white;fill-opacity:1;fill-rule:evenodd;stroke:black;stroke-width:2;stroke-linecap:butt;stroke-linejoin:miter;stroke-miterlimit:4;stroke-dasharray:none;stroke-opacity:1"
     id="path3669" />
  <path
     d="M 35.1875,16.78125 C 23.426887,16.266334 16.714331,24.30046 17.15625,37.15625 L 17.15625,680 C 17.202803,688.6672 20.884421,699.07046 32.84375,699.28125 L 447.28125,699.8125 C 459.24058,699.60169 462.95345,689.19845 463,680.53125 L 463,37.09375 C 463.44191,24.237959 456.72937,16.20383 444.96875,16.71875 L 35.1875,16.78125 z "
     style="fill:#154889;fill-opacity:1;fill-rule:evenodd;stroke:none;stroke-width:1px;stroke-linecap:butt;stroke-linejoin:miter;stroke-opacity:1"
     id="path2774" />
  <path
     d="M 99.246197,97.424998 L 99.196335,383.84811 L 380.05178,383.79699 L 380.05178,97.322746 L 99.246197,97.424998 z "
     style="fill:white;fill-opacity:1;fill-rule:evenodd;stroke:none;stroke-width:1px;stroke-linecap:butt;stroke-linejoin:miter;stroke-opacity:1"
     id="path1886" />
  <g
     transform="matrix(0.680521,0,0,0.680521,508.5331,-79.91254)"
     id="g1944">
    <g
       transform="translate(-756.8714,117.5)"
       style="fill-opacity:1"
       id="g3776">
      <path
         d="M 226.10768,484.87409 C 240.03676,479.59445 254.37822,475.64475 284.33382,484.87409 C 300.37289,489.75503 317.13972,490.13557 334.81893,484.87409 C 352.45815,478.6733 370.86684,477.32049 390.68911,484.87409 C 407.77794,490.95448 427.91826,488.51014 447.1902,483.51021 C 466.27121,476.91195 481.73978,480.2148 499.40036,484.87409 L 499.40036,500.18926 C 480.10384,492.35999 460.80731,494.09027 441.51078,500.18926 C 421.41231,508.00442 406.48694,504.61017 392.03538,500.18926 C 370.43056,490.52699 351.49181,493.92956 333.13609,500.18926 C 312.12588,507.99694 297.13276,503.93352 281.97786,500.18926 C 256.67357,491.24083 241.19533,495.67825 225.77111,500.18926 L 226.10768,484.87409 z "
         style="fill:#154889;fill-opacity:1;fill-rule:evenodd;stroke:none;stroke-width:1px;stroke-linecap:butt;stroke-linejoin:miter;stroke-opacity:1"
         id="path5599" />
      <path
         d="M 226.10768,513.13535 C 240.03676,507.85571 254.37822,503.90601 284.33382,513.13535 C 300.37289,518.01629 317.13972,518.39683 334.81893,513.13535 C 352.45815,506.93456 370.86684,505.58175 390.68911,513.13535 C 407.77794,519.21574 427.91826,516.7714 447.1902,511.77147 C 466.27121,505.17321 481.73978,508.47606 499.40036,513.13535 L 499.40036,528.45052 C 480.10384,520.62125 460.80731,522.35153 441.51078,528.45052 C 421.41231,536.26568 406.48694,532.87143 392.03538,528.45052 C 370.43056,518.78825 351.49181,522.19082 333.13609,528.45052 C 312.12588,536.2582 297.13276,532.19478 281.97786,528.45052 C 256.67357,519.50209 241.19533,523.93951 225.77111,528.45052 L 226.10768,513.13535 z "
         style="fill:#154889;fill-opacity:1;fill-rule:evenodd;stroke:none;stroke-width:1px;stroke-linecap:butt;stroke-linejoin:miter;stroke-opacity:1"
         id="path5597" />
    </g>
    <g
       transform="matrix(0.998512,0,0,1,98.5067,-303.0174)"
       style="fill:black;fill-opacity:1"
       id="g3818">
      <path
         d="M -613.62771,804.14653 L -585.37101,804.14653 L -581.95688,809.31013 L -581.85085,881.83388 L -587.15229,886.98689 L -612.66285,887.30498 L -617.04184,882.90477 L -616.82978,807.7197 L -613.62771,804.14653 z "
         style="fill:black;fill-opacity:1;fill-rule:evenodd;stroke:none;stroke-width:1px;stroke-linecap:butt;stroke-linejoin:miter;stroke-opacity:1"
         id="path3780" />
      <path
         d="M -572.4182,804.6503 L -575.63695,808.2128 L -575.8557,883.4003 L -571.44945,887.80655 L -545.94945,887.49405 L -540.63695,882.3378 L -540.6682,858.5878 L -537.76195,855.5253 L -517.63695,855.43155 L -517.6057,856.36905 L -514.7932,856.30655 C -514.70819,858.3126 -503.54907,868.55653 -493.26195,868.55655 L -493.26195,868.49405 C -482.98355,868.47348 -471.87813,858.27932 -471.7932,856.2753 L -468.9807,856.3378 L -468.9182,855.36905 L -448.7932,855.49405 L -446.01195,858.4003 L -446.07445,883.4003 L -441.69945,887.80655 L -416.19945,887.49405 L -410.88695,882.3378 L -411.01195,809.80655 L -414.4182,804.6503 L -442.6682,804.6503 L -445.88695,808.2128 L -445.94945,831.9628 L -449.9807,836.11905 L -468.94945,836.05655 L -468.9182,835.0878 L -471.9807,835.05655 C -471.98069,832.16599 -482.9894,822.99405 -493.2932,822.99405 L -493.2932,823.0253 C -503.58777,823.04443 -514.57446,832.23148 -514.57445,835.11905 L -517.63695,835.11905 L -517.63695,836.11905 L -536.6057,836.1503 L -540.7307,831.9003 L -540.76195,809.80655 L -544.1682,804.6503 L -572.4182,804.6503 z "
         style="fill:black;fill-opacity:1;fill-rule:evenodd;stroke:none;stroke-width:1px;stroke-linecap:butt;stroke-linejoin:miter;stroke-opacity:1"
         id="path3784" />
      <path
         d="M -401.78864,804.05321 L -373.53194,804.05321 L -370.11781,809.21681 L -370.01178,881.74056 L -375.31322,886.89357 L -400.82378,887.21166 L -405.20277,882.81145 L -404.99071,807.62638 L -401.78864,804.05321 z "
         style="fill:black;fill-opacity:1;fill-rule:evenodd;stroke:none;stroke-width:1px;stroke-linecap:butt;stroke-linejoin:miter;stroke-opacity:1"
         id="path3788" />
    </g>
    <path
       d="M -531.72767,454.02885 L -531.72767,495.8915 L -257.72394,495.8915 L -257.57725,454.01488 L -295.29761,454.0168 C -351.27513,487.93438 -437.20411,487.12551 -493.76978,454.02692 L -531.72767,454.02885 z "
       style="fill:black;fill-opacity:1;fill-rule:evenodd;stroke:none;stroke-width:1px;stroke-linecap:butt;stroke-linejoin:miter;stroke-opacity:1"
       id="path3823" />
    <path
       d="M -266.86795,386.10637 C -266.8483,430.82194 -323.90093,467.0777 -394.28572,467.0777 C -464.67051,467.0777 -521.72315,430.82194 -521.70349,386.10637 C -521.72315,341.39079 -464.67051,305.13504 -394.28572,305.13504 C -323.90093,305.13504 -266.8483,341.39079 -266.86795,386.10637 z "
       style="fill:#ec7c25;fill-opacity:1;fill-rule:nonzero;stroke:black;stroke-width:15.74450206999999935;stroke-linecap:round;stroke-linejoin:round;stroke-miterlimit:4;stroke-dasharray:none;stroke-dashoffset:0;stroke-opacity:1"
       id="path3827" />
  </g>
  <path
     d="M 129.60321,484.7597 L 117.18379,435.18408 L 125.14583,435.18408 L 132.93775,470.43483 L 133.07385,470.43483 L 142.70316,435.18408 L 148.11326,435.18408 L 157.74257,470.43483 L 157.87868,470.43483 L 165.67059,435.18408 L 173.63263,435.18408 L 161.21321,484.7597 L 154.95245,484.7597 L 145.45925,449.03259 L 145.32315,449.03259 L 135.86397,484.7597 L 129.60321,484.7597 z M 197.55279,484.7597 L 197.55279,481.62933 L 197.38266,481.62933 C 195.95355,483.98845 193.05002,485.16801 188.67205,485.16801 C 184.72504,485.16801 181.66272,484.14157 179.48508,482.08868 C 177.30742,480.03579 176.21859,477.46684 176.2186,474.38183 C 176.21859,471.59172 177.18266,469.15321 179.11079,467.06627 C 181.03891,464.97938 183.90842,463.93592 187.71933,463.9359 L 197.55279,463.9359 L 197.55279,460.26111 C 197.55277,457.24418 195.13693,455.7357 190.30529,455.73567 C 186.94806,455.7357 184.7137,456.63172 183.6022,458.42371 L 178.02196,454.20451 C 180.4945,450.7566 184.46418,449.03262 189.931,449.03259 C 194.28629,449.03262 197.82497,449.88327 200.54706,451.58452 C 203.2691,453.28585 204.63013,456.31414 204.63016,460.66942 L 204.63016,484.7597 L 197.55279,484.7597 z M 197.55279,472.3743 L 197.55279,469.78834 L 189.04633,469.78834 C 184.94054,469.78836 182.88765,471.2061 182.88766,474.04157 C 182.88765,475.24382 183.40371,476.28728 184.43583,477.17194 C 185.46794,478.05662 187.18624,478.49896 189.59075,478.49895 C 192.53963,478.49896 194.60386,478.17004 195.78345,477.5122 C 196.96299,476.85438 197.55277,475.14175 197.55279,472.3743 L 197.55279,472.3743 z M 209.93819,478.87324 L 214.90596,473.97352 C 217.99096,476.99048 221.69977,478.49896 226.0324,478.49895 C 228.05125,478.49896 229.71851,478.119 231.0342,477.35909 C 232.34984,476.59918 233.00767,475.47066 233.0077,473.97352 C 233.00767,471.9093 231.56725,470.75242 228.68642,470.50288 L 222.42566,469.92444 C 219.49943,469.69762 217.07226,468.73356 215.14414,467.03225 C 213.216,465.33098 212.25194,462.96051 212.25194,459.92085 C 212.25194,456.33683 213.51089,453.6261 216.02881,451.78868 C 218.54671,449.95132 221.67708,449.03262 225.41994,449.03259 C 228.50493,449.03262 231.14759,449.46929 233.34795,450.34258 C 235.54826,451.21594 237.52176,452.37849 239.26845,453.83023 L 234.87912,459.00215 C 233.47269,458.04946 232.02092,457.26686 230.52381,456.65437 C 229.02665,456.04194 227.32536,455.7357 225.41994,455.73567 C 223.15153,455.7357 221.57501,456.13834 220.69035,456.94359 C 219.80566,457.7489 219.36333,458.764 219.36334,459.9889 C 219.36333,460.76018 219.69225,461.47472 220.35009,462.13253 C 221.00791,462.79038 222.23284,463.18735 224.02488,463.32343 L 229.87732,463.73174 C 233.5294,463.98129 236.14939,465.10981 237.73729,467.11731 C 239.32513,469.12485 240.11906,471.52367 240.11909,474.31377 C 240.11906,477.78442 238.70132,480.46111 235.86586,482.34387 C 233.03036,484.22663 229.57107,485.16801 225.48799,485.16801 C 219.61285,485.16801 214.42959,483.06976 209.93819,478.87324 L 209.93819,478.87324 z M 243.4196,478.87324 L 248.38737,473.97352 C 251.47237,476.99048 255.18118,478.49896 259.51382,478.49895 C 261.53266,478.49896 263.19993,478.119 264.51561,477.35909 C 265.83125,476.59918 266.48909,475.47066 266.48911,473.97352 C 266.48909,471.9093 265.04866,470.75242 262.16783,470.50288 L 255.90708,469.92444 C 252.98085,469.69762 250.55367,468.73356 248.62555,467.03225 C 246.69742,465.33098 245.73335,462.96051 245.73336,459.92085 C 245.73335,456.33683 246.99231,453.6261 249.51022,451.78868 C 252.02812,449.95132 255.1585,449.03262 258.90135,449.03259 C 261.98634,449.03262 264.62901,449.46929 266.82937,450.34258 C 269.02968,451.21594 271.00317,452.37849 272.74986,453.83023 L 268.36053,459.00215 C 266.95411,458.04946 265.50234,457.26686 264.00522,456.65437 C 262.50807,456.04194 260.80678,455.7357 258.90135,455.73567 C 256.63295,455.7357 255.05642,456.13834 254.17176,456.94359 C 253.28708,457.7489 252.84474,458.764 252.84475,459.9889 C 252.84474,460.76018 253.17366,461.47472 253.8315,462.13253 C 254.48932,462.79038 255.71425,463.18735 257.50629,463.32343 L 263.35873,463.73174 C 267.01082,463.98129 269.6308,465.10981 271.2187,467.11731 C 272.80654,469.12485 273.60048,471.52367 273.60051,474.31377 C 273.60048,477.78442 272.18274,480.46111 269.34728,482.34387 C 266.51177,484.22663 263.05248,485.16801 258.9694,485.16801 C 253.09427,485.16801 247.911,483.06976 243.4196,478.87324 L 243.4196,478.87324 z M 308.17075,469.78834 L 286.19007,469.78834 C 286.19006,472.69189 286.97832,474.86954 288.55486,476.3213 C 290.13138,477.77307 292.14457,478.49896 294.59444,478.49895 C 297.52064,478.49896 300.1066,477.36476 302.35233,475.09637 L 307.49023,479.4857 C 305.74354,481.52725 303.77572,482.98469 301.58675,483.85802 C 299.39773,484.73135 297.11233,485.16801 294.73055,485.16801 C 291.10111,485.16801 287.58511,483.99412 284.18254,481.64634 C 280.77995,479.29856 279.07867,474.49526 279.07867,467.2364 C 279.07867,460.36321 280.64952,455.61094 283.79124,452.97958 C 286.93295,450.34829 290.21644,449.03262 293.64172,449.03259 C 297.52064,449.03262 300.91188,450.37664 303.81544,453.06465 C 306.71895,455.75272 308.17072,459.37646 308.17075,463.9359 L 308.17075,469.78834 z M 286.19007,463.9359 L 301.09338,463.9359 C 300.97993,461.28191 300.23137,459.2517 298.84767,457.84528 C 297.46393,456.4389 295.72862,455.7357 293.64172,455.73567 C 291.5321,455.7357 289.77978,456.4389 288.38473,457.84528 C 286.98966,459.2517 286.25811,461.28191 286.19007,463.9359 L 286.19007,463.9359 z M 315.65642,484.7597 L 315.65642,449.4409 L 322.76782,449.4409 L 322.76782,453.21776 L 322.90392,453.21776 C 325.10425,450.42768 328.16657,449.03262 332.0909,449.03259 C 334.67684,449.03262 337.13803,449.93998 339.4745,451.75465 L 334.3366,457.8793 C 332.79408,456.72245 331.22889,456.14401 329.64104,456.14398 C 327.89436,456.14401 326.31216,456.72812 324.89443,457.89631 C 323.47668,459.06456 322.76781,460.94165 322.76782,463.52759 L 322.76782,484.7597 L 315.65642,484.7597 z M 341.82229,469.03977 L 341.82229,461.92837 L 362.81622,461.92837 L 362.81622,469.03977 L 341.82229,469.03977 z "
     style="font-size:69.68489075px;font-style:normal;font-variant:normal;font-weight:normal;font-stretch:normal;text-indent:0;text-align:center;text-decoration:none;line-height:100%;letter-spacing:normal;word-spacing:normal;text-transform:none;direction:ltr;block-progression:tb;writing-mode:lr-tb;text-anchor:middle;color:black;fill:white;fill-opacity:1;fill-rule:nonzero;stroke:none;stroke-width:1;stroke-linecap:round;stroke-linejoin:miter;marker:none;marker-start:none;marker-mid:none;marker-end:none;stroke-miterlimit:4;stroke-dashoffset:0;stroke-opacity:1;visibility:visible;display:inline;overflow:visible;font-family:DIN 1451 Mittelschrift"
     id="text1936" />
  <path
     d="M 54.38911,561.44088 L 59.356881,555.79259 C 61.216951,557.28974 63.360576,558.49199 65.787762,559.39933 C 68.214923,560.30669 70.755515,560.76037 73.409547,560.76037 C 76.471848,560.76037 78.876337,560.12522 80.623022,558.85492 C 82.369652,557.58463 83.24298,555.91737 83.24301,553.85312 C 83.24298,549.95151 81.088014,547.71715 76.778103,547.15003 C 75.643887,547.01395 74.589087,546.87785 73.613702,546.74172 C 72.638275,546.60564 71.504082,546.44686 70.211119,546.26536 C 65.923853,545.6756 62.657377,544.10475 60.411681,541.55279 C 58.165972,539.00088 57.043121,535.92154 57.043125,532.31477 C 57.043121,528.09561 58.455191,524.62498 61.27934,521.90287 C 64.103473,519.18085 68.078819,517.81982 73.205392,517.81977 C 76.267693,517.81982 79.148544,518.30753 81.847951,519.28288 C 84.547302,520.25834 87.031185,521.49461 89.299607,522.9917 L 85.114431,529.1844 C 83.29969,528.05024 81.348878,527.13155 79.261989,526.42831 C 77.175048,525.72515 75.042765,525.37355 72.865133,525.37351 C 70.55136,525.37355 68.589206,525.96333 66.978666,527.14285 C 65.368098,528.32245 64.562821,530.09179 64.562832,532.45088 C 64.562821,533.85731 65.107234,535.17298 66.196072,536.39787 C 67.284884,537.62283 69.088251,538.42811 71.606178,538.81371 C 72.263992,538.92716 73.057927,539.04625 73.987986,539.17098 C 74.918003,539.29577 75.984145,539.4262 77.186413,539.56228 C 81.813897,540.1294 85.233489,541.80801 87.4452,544.5981 C 89.656842,547.38824 90.76268,550.47324 90.762718,553.85312 C 90.76268,558.41259 89.186152,561.95127 86.033128,564.46918 C 82.880039,566.98709 78.649499,568.24605 73.341495,568.24605 C 65.878485,568.24605 59.56103,565.97766 54.38911,561.44088 L 54.38911,561.44088 z M 118.86805,557.45986 L 124.10803,562.15542 C 122.56549,563.92477 120.73377,565.38221 118.61286,566.52774 C 116.49189,567.67328 114.09307,568.24605 111.41639,568.24605 C 107.33328,568.24605 103.64148,566.85666 100.34099,564.07788 C 97.040478,561.29911 95.390227,556.67728 95.390229,550.21236 C 95.390227,543.74748 97.040478,539.1143 100.34099,536.31281 C 103.64148,533.51138 107.33328,532.11066 111.41639,532.11062 C 114.09307,532.11066 116.49189,532.68909 118.61286,533.84594 C 120.73377,535.00285 122.56549,536.46596 124.10803,538.23527 L 118.86805,542.89681 C 116.87184,540.44697 114.4787,539.22205 111.6886,539.22202 C 105.56394,539.22205 102.50162,542.88549 102.50163,550.21236 C 102.50162,557.51658 105.56394,561.16868 111.6886,561.16867 C 114.50138,561.16868 116.89453,559.93241 118.86805,557.45986 L 118.86805,557.45986 z M 129.00775,567.83774 L 129.00775,518.26211 L 136.11914,518.26211 L 136.11914,536.2958 L 136.25525,536.2958 C 138.45557,533.50571 141.51789,532.11066 145.44222,532.11062 C 148.18695,532.11066 150.83529,533.15411 153.38725,535.241 C 155.93916,537.32794 157.21512,540.36758 157.21516,544.35992 L 157.21516,567.83774 L 150.10376,567.83774 L 150.10376,546.80978 C 150.10373,544.42799 149.44023,542.56792 148.11325,541.22954 C 146.78622,539.89122 145.13597,539.22205 143.16249,539.22202 C 141.12092,539.22205 139.43665,539.89122 138.10965,541.22954 C 136.78263,542.56792 136.11913,544.42799 136.11914,546.80978 L 136.11914,567.83774 L 129.00775,567.83774 z M 166.43615,555.99675 L 166.43615,532.51893 L 173.54755,532.51893 L 173.54755,553.58092 C 173.54754,555.98542 174.21104,557.85117 175.53806,559.17816 C 176.86505,560.50518 178.54933,561.16868 180.59089,561.16867 C 182.56437,561.16868 184.21462,560.50518 185.54165,559.17816 C 186.86863,557.85117 187.53214,555.98542 187.53216,553.58092 L 187.53216,532.51893 L 194.64356,532.51893 L 194.64356,567.83774 L 187.53216,567.83774 L 187.53216,564.0949 L 187.39606,564.0949 C 185.1957,566.86233 182.15606,568.24605 178.27714,568.24605 C 175.48701,568.24605 172.81598,567.20826 170.26406,565.13268 C 167.71211,563.05711 166.43615,560.0118 166.43615,555.99675 L 166.43615,555.99675 z M 204.27287,532.51893 L 204.27287,521.80079 L 211.38426,521.80079 L 211.38426,532.51893 L 216.55619,532.51893 L 216.55619,537.96306 L 211.38426,537.96306 L 211.38426,558.51466 C 211.38425,560.28401 212.22356,561.16868 213.90218,561.16867 L 216.55619,561.16867 L 216.55619,567.83774 L 212.84738,567.83774 C 210.37482,567.83774 208.3276,567.08917 206.70571,565.59203 C 205.08381,564.0949 204.27286,561.95127 204.27287,559.16115 L 204.27287,537.96306 L 200.73418,537.96306 L 200.73418,532.51893 L 204.27287,532.51893 z M 220.87748,567.83774 L 220.87748,562.22348 L 238.57091,538.81371 L 221.86423,538.81371 L 221.86423,532.51893 L 247.21347,532.51893 L 247.21347,538.16722 L 229.52004,561.16867 L 247.21347,561.16867 L 247.21347,567.83774 L 220.87748,567.83774 z M 273.92374,567.80371 L 273.92374,564.16295 C 271.45117,566.88501 268.41153,568.24605 264.80481,568.24605 C 262.49105,568.24605 260.55725,567.7867 259.00341,566.868 C 257.44956,565.94931 256.27567,564.97957 255.48174,563.95879 C 254.46096,562.64313 253.76343,561.24808 253.38915,559.77362 C 253.01486,558.29917 252.82772,555.11209 252.82772,550.21236 C 252.82772,545.31266 253.01486,542.12558 253.38915,540.6511 C 253.76343,539.17668 254.46096,537.77028 255.48174,536.4319 C 256.27567,535.43384 257.44956,534.46411 259.00341,533.52269 C 260.55725,532.58135 262.49105,532.11066 264.80481,532.11062 C 268.25275,532.11066 271.29238,533.50571 273.92374,536.2958 L 273.92374,532.51893 L 281.03513,532.51893 L 281.03513,567.02112 C 281.0351,572.32914 279.48693,576.24211 276.39061,578.76003 C 273.29423,581.27792 269.73854,582.53688 265.72351,582.53689 C 263.45511,582.53688 261.23209,581.99247 259.05445,580.90365 C 256.87679,579.81482 255.00537,578.38573 253.44019,576.6164 L 258.95237,572.22707 C 259.81435,573.08905 260.84079,573.83762 262.03171,574.47277 C 263.2226,575.10791 264.49857,575.42549 265.85962,575.4255 C 268.21872,575.42549 270.15252,574.76766 271.66102,573.452 C 273.16947,572.13633 273.92371,570.25357 273.92374,567.80371 L 273.92374,567.80371 z M 259.93912,550.21236 C 259.93911,553.04786 260.01283,554.93062 260.16029,555.86065 C 260.30772,556.7907 260.69902,557.65268 261.33418,558.44661 C 261.81053,559.08177 262.51373,559.69423 263.44378,560.284 C 264.37381,560.87379 265.55337,561.16868 266.98247,561.16867 C 268.36617,561.16868 269.51737,560.87379 270.43609,560.284 C 271.35476,559.69423 272.06363,559.08177 272.5627,558.44661 C 273.17514,557.65268 273.5551,556.7907 273.70257,555.86065 C 273.84999,554.93062 273.92371,553.04786 273.92374,550.21236 C 273.92371,547.37689 273.84999,545.49413 273.70257,544.56407 C 273.5551,543.63406 273.17514,542.76073 272.5627,541.94408 C 272.06363,541.33165 271.35476,540.72485 270.43609,540.1237 C 269.51737,539.52261 268.36617,539.22205 266.98247,539.22202 C 265.55337,539.22205 264.37381,539.52261 263.44378,540.1237 C 262.51373,540.72485 261.81053,541.33165 261.33418,541.94408 C 260.69902,542.76073 260.30772,543.63406 260.16029,544.56407 C 260.01283,545.49413 259.93911,547.37689 259.93912,550.21236 L 259.93912,550.21236 z M 317.64692,552.86637 L 295.66624,552.86637 C 295.66623,555.76992 296.45449,557.94757 298.03103,559.39933 C 299.60755,560.85111 301.62074,561.57699 304.07061,561.57698 C 306.99681,561.57699 309.58277,560.4428 311.8285,558.1744 L 316.9664,562.56373 C 315.21971,564.60529 313.25189,566.06272 311.06292,566.93605 C 308.8739,567.80938 306.5885,568.24605 304.20672,568.24605 C 300.57728,568.24605 297.06128,567.07216 293.65871,564.72437 C 290.25612,562.3766 288.55484,557.57329 288.55484,550.31444 C 288.55484,543.44124 290.12569,538.68898 293.26742,536.05762 C 296.40912,533.42632 299.69261,532.11066 303.11789,532.11062 C 306.99681,532.11066 310.38805,533.45467 313.29161,536.14268 C 316.19512,538.83075 317.64689,542.4545 317.64692,547.01393 L 317.64692,552.86637 z M 295.66624,547.01393 L 310.56955,547.01393 C 310.4561,544.35994 309.70754,542.32974 308.32384,540.92331 C 306.9401,539.51694 305.20479,538.81374 303.11789,538.81371 C 301.00828,538.81374 299.25595,539.51694 297.8609,540.92331 C 296.46583,542.32974 295.73428,544.35994 295.66624,547.01393 L 295.66624,547.01393 z M 325.13259,567.83774 L 325.13259,518.26211 L 332.24399,518.26211 L 332.24399,536.2958 C 333.55964,535.04822 334.94903,534.03878 336.41215,533.2675 C 337.87525,532.49628 339.5255,532.11066 341.36291,532.11062 C 343.51786,532.11066 345.37793,532.54732 346.94315,533.42061 C 348.50831,534.29398 349.80129,535.38847 350.82209,536.70411 C 351.79747,537.97443 352.46097,539.45456 352.8126,541.14448 C 353.16417,542.83445 353.33997,545.83439 353.34,550.14431 C 353.33997,554.49963 353.16417,557.53359 352.8126,559.24622 C 352.46097,560.95886 351.79747,562.43898 350.82209,563.68659 C 349.80129,565.02494 348.50831,566.11943 346.94315,566.97008 C 345.37793,567.82072 343.51786,568.24605 341.36291,568.24605 C 337.73347,568.24605 334.69384,566.88501 332.24399,564.16295 L 332.24399,567.83774 L 325.13259,567.83774 z M 339.21928,539.22202 C 335.88474,539.22205 333.88856,540.41295 333.23074,542.79473 C 332.57289,545.17656 332.24398,547.62642 332.24399,550.14431 C 332.24398,552.73029 332.57289,555.21417 333.23074,557.59596 C 333.88856,559.97778 335.88474,561.16868 339.21928,561.16867 C 342.55379,561.16868 344.55564,560.02315 345.22484,557.73207 C 345.89399,555.44101 346.22858,552.91176 346.2286,550.14431 C 346.22858,547.44495 345.89399,544.94972 345.22484,542.65863 C 344.55564,540.36758 342.55379,539.22205 339.21928,539.22202 L 339.21928,539.22202 z M 361.54024,567.83774 L 361.54024,532.51893 L 368.65164,532.51893 L 368.65164,567.83774 L 361.54024,567.83774 z M 361.54024,525.37351 L 361.54024,518.26211 L 368.65164,518.26211 L 368.65164,525.37351 L 361.54024,525.37351 z M 405.43357,552.86637 L 383.45289,552.86637 C 383.45288,555.76992 384.24114,557.94757 385.81768,559.39933 C 387.3942,560.85111 389.40739,561.57699 391.85727,561.57698 C 394.78347,561.57699 397.36943,560.4428 399.61515,558.1744 L 404.75305,562.56373 C 403.00637,564.60529 401.03854,566.06272 398.84957,566.93605 C 396.66056,567.80938 394.37516,568.24605 391.99337,568.24605 C 388.36393,568.24605 384.84793,567.07216 381.44536,564.72437 C 378.04278,562.3766 376.34149,557.57329 376.34149,550.31444 C 376.34149,543.44124 377.91234,538.68898 381.05407,536.05762 C 384.19577,533.42632 387.47926,532.11066 390.90454,532.11062 C 394.78347,532.11066 398.1747,533.45467 401.07827,536.14268 C 403.98177,538.83075 405.43354,542.4545 405.43357,547.01393 L 405.43357,552.86637 z M 383.45289,547.01393 L 398.3562,547.01393 C 398.24275,544.35994 397.49419,542.32974 396.11049,540.92331 C 394.72676,539.51694 392.99144,538.81374 390.90454,538.81371 C 388.79493,538.81374 387.0426,539.51694 385.64755,540.92331 C 384.25248,542.32974 383.52093,544.35994 383.45289,547.01393 L 383.45289,547.01393 z M 413.32755,532.51893 L 413.32755,521.80079 L 420.43895,521.80079 L 420.43895,532.51893 L 425.61088,532.51893 L 425.61088,537.96306 L 420.43895,537.96306 L 420.43895,558.51466 C 420.43894,560.28401 421.27824,561.16868 422.95686,561.16867 L 425.61088,561.16867 L 425.61088,567.83774 L 421.90206,567.83774 C 419.42951,567.83774 417.38229,567.08917 415.7604,565.59203 C 414.1385,564.0949 413.32755,561.95127 413.32755,559.16115 L 413.32755,537.96306 L 409.78887,537.96306 L 409.78887,532.51893 L 413.32755,532.51893 z "
     style="font-size:69.68489075px;font-style:normal;font-variant:normal;font-weight:normal;font-stretch:normal;text-indent:0;text-align:center;text-decoration:none;line-height:100%;letter-spacing:normal;word-spacing:normal;text-transform:none;direction:ltr;block-progression:tb;writing-mode:lr-tb;text-anchor:middle;color:black;fill:white;fill-opacity:1;fill-rule:nonzero;stroke:none;stroke-width:1;stroke-linecap:round;stroke-linejoin:miter;marker:none;marker-start:none;marker-mid:none;marker-end:none;stroke-miterlimit:4;stroke-dashoffset:0;stroke-opacity:1;visibility:visible;display:inline;overflow:visible;font-family:DIN 1451 Mittelschrift"
     id="text1940" />
</svg>
