<?xml version="1.0" encoding="UTF-8" standalone="no"?>
<!-- Created with Inkscape (http://www.inkscape.org/) -->

<svg
   xmlns:dc="http://purl.org/dc/elements/1.1/"
   xmlns:cc="http://creativecommons.org/ns#"
   xmlns:rdf="http://www.w3.org/1999/02/22-rdf-syntax-ns#"
   xmlns:svg="http://www.w3.org/2000/svg"
   xmlns="http://www.w3.org/2000/svg"
   xmlns:sodipodi="http://sodipodi.sourceforge.net/DTD/sodipodi-0.dtd"
   xmlns:inkscape="http://www.inkscape.org/namespaces/inkscape"
   version="1.1"
   width="480"
   height="480"
   id="svg2"
   inkscape:version="0.48.1 r9760"
   sodipodi:docname="Zeichen_355.svg">
  <metadata
     id="metadata12">
    <rdf:RDF>
      <cc:Work
         rdf:about="">
        <dc:format>image/svg+xml</dc:format>
        <dc:type
           rdf:resource="http://purl.org/dc/dcmitype/StillImage" />
      </cc:Work>
    </rdf:RDF>
  </metadata>
  <sodipodi:namedview
     pagecolor="#ffffff"
     bordercolor="#666666"
     borderopacity="1"
     objecttolerance="10"
     gridtolerance="10"
     guidetolerance="10"
     inkscape:pageopacity="0"
     inkscape:pageshadow="2"
     inkscape:window-width="640"
     inkscape:window-height="484"
     id="namedview10"
     showgrid="false"
     inkscape:zoom="0.49166667"
     inkscape:cx="240"
     inkscape:cy="240"
     inkscape:window-x="0"
     inkscape:window-y="0"
     inkscape:window-maximized="0"
     inkscape:current-layer="svg2" />
  <defs
     id="defs4" />
  <path
     d="m 30.856274,5.77202 420.004816,0 c 10.81582,0.7906802 23.07189,11.843765 23.66646,24.864765 l 0,418.806515 c 0.0497,10.31854 -11.79351,24.19224 -25.16434,24.86477 l -419.405663,0 C 16.93511,474.30807 5.0927831,462.751 5.0927831,449.14373 L 5.691934,30.93636 c 0,-13.512255 8.803051,-25.16434 25.16434,-25.16434 z"
     id="path3669"
     style="fill:#ffffff;fill-opacity:1;fill-rule:evenodd;stroke:#000000;stroke-width:2;stroke-linecap:butt;stroke-linejoin:miter;stroke-miterlimit:4;stroke-opacity:1;stroke-dasharray:none" />
  <path
     d="m 35.1875,16.78125 c -11.760613,-0.514916 -18.473169,7.51921 -18.03125,20.375 l 0,406.40625 c 0.04655,8.6672 3.728171,19.07043 15.6875,19.28125 l 414.4375,-0.0312 C 459.24058,462.6017 462.95345,452.19845 463,443.53125 l 0,-406.4375 c 0.44191,-12.855791 -6.27063,-20.88992 -18.03125,-20.375 L 35.1875,16.78125 z"
     id="path3661"
     style="fill:#154889;fill-opacity:1;fill-rule:evenodd;stroke:none;stroke-width:1px;stroke-linecap:butt;stroke-linejoin:miter;stroke-opacity:1" />
  <path
     d="m 378.6875,197.90625 0.0625,41.71875 -55.875,0 0.0625,41.78125 -55.84375,0 0.0625,42.375 -55.90625,0 0.0625,41.78125 -55.84375,0 0.0625,42.21875 -55.84375,0 L 99.75,437 l 14.9375,0 -0.125,-14.375 55.90625,0 0,-14.59375 0,-0.25 -0.0937,-27.40625 55.875,0 0,-14.09375 -0.125,-27.65625 55.90625,0 0,-14.75 0.0625,0 -0.125,-27.625 55.90625,0 0,-14.15625 -0.0937,-27.65625 55.90625,0 0,-14.03125 -0.0937,-27.65625 43.4375,0 0,-14.84375 -58.34375,0 z"
     id="path2866"
     style="fill:#ffffff;fill-opacity:1;fill-rule:evenodd;stroke:none" />
  <path
     d="m 209.1702,81.887379 c 0,13.956584 -11.31407,25.270671 -25.27065,25.270671 -13.95661,0 -25.27068,-11.314087 -25.27068,-25.270671 0,-13.956611 11.31407,-25.270685 25.27068,-25.270685 13.95658,0 25.27065,11.314074 25.27065,25.270685 l 0,0 z"
     id="path5663"
     style="fill:#ffffff;fill-opacity:1;fill-rule:nonzero;stroke:none" />
  <path
     d="m 173.40208,222.28325 50.2186,0 7.10329,43.1405 22.26665,22.13253 c 10.5984,6.11446 3.00659,36.24041 -2.46124,33.08589 l -42.36328,-42.11139 -9.16454,-38.24801 0.0603,100.35036 c -3.37649,14.92648 -18.1381,24.70769 -25.7798,21.70249 l 0.12002,-140.05237 z"
     id="path5659"
     style="fill:#ffffff;fill-opacity:1;fill-rule:evenodd;stroke:none" />
  <path
     d="m 126.89219,190.70885 46.10371,-28.18121 -0.0577,-29.1628 c 8.38722,-23.69491 28.89363,-23.4743 42.50661,-13.62534 l 49.36787,79.21254 c -0.83696,10.97675 -0.65351,17.66604 -11.17608,23.87529 l -30.61445,-49.28412 -0.17809,42.71796 -49.80706,-0.31362 c 0,0 -0.063,-27.90699 -0.063,-27.90699 -24.68064,17.42778 -36.32694,17.05228 -46.08175,2.66829 z"
     id="path5661"
     style="fill:#ffffff;fill-opacity:1;fill-rule:evenodd;stroke:none" />
</svg>
