<?xml version="1.0" encoding="UTF-8" standalone="no"?>
<!-- Created with Inkscape (http://www.inkscape.org/) -->

<svg
   xmlns:dc="http://purl.org/dc/elements/1.1/"
   xmlns:cc="http://creativecommons.org/ns#"
   xmlns:rdf="http://www.w3.org/1999/02/22-rdf-syntax-ns#"
   xmlns:svg="http://www.w3.org/2000/svg"
   xmlns="http://www.w3.org/2000/svg"
   xmlns:sodipodi="http://sodipodi.sourceforge.net/DTD/sodipodi-0.dtd"
   xmlns:inkscape="http://www.inkscape.org/namespaces/inkscape"
   version="1.0"
   width="480"
   height="720"
   id="svg2"
   inkscape:version="0.48.1 r9760"
   sodipodi:docname="Zeichen_356.svg">
  <metadata
     id="metadata20">
    <rdf:RDF>
      <cc:Work
         rdf:about="">
        <dc:format>image/svg+xml</dc:format>
        <dc:type
           rdf:resource="http://purl.org/dc/dcmitype/StillImage" />
      </cc:Work>
    </rdf:RDF>
  </metadata>
  <sodipodi:namedview
     pagecolor="#ffffff"
     bordercolor="#666666"
     borderopacity="1"
     objecttolerance="10"
     gridtolerance="10"
     guidetolerance="10"
     inkscape:pageopacity="0"
     inkscape:pageshadow="2"
     inkscape:window-width="640"
     inkscape:window-height="484"
     id="namedview18"
     showgrid="false"
     inkscape:zoom="0.32777778"
     inkscape:cx="240"
     inkscape:cy="360"
     inkscape:window-x="0"
     inkscape:window-y="0"
     inkscape:window-maximized="0"
     inkscape:current-layer="svg2" />
  <defs
     id="defs4" />
  <path
     d="M 30.856274,5.7720243 L 450.86109,5.7720243 C 461.67691,6.5627045 473.93298,17.615789 474.52755,30.636789 L 474.52755,686.44619 C 474.57722,696.76473 462.73404,710.63843 449.36321,711.31096 L 29.957547,711.31096 C 20.433732,710.72778 5.5262338,695.93244 5.0927831,686.14662 L 5.691934,30.936364 C 5.4925171,19.341053 19.978002,5.6381226 30.856274,5.7720243 z "
     style="fill:white;fill-opacity:1;fill-rule:evenodd;stroke:black;stroke-width:2;stroke-linecap:butt;stroke-linejoin:miter;stroke-miterlimit:4;stroke-dasharray:none;stroke-opacity:1"
     id="path3669" />
  <path
     d="M 35.1875,16.78125 C 23.426887,16.266334 16.714331,24.30046 17.15625,37.15625 L 17.15625,680 C 17.202803,688.6672 20.884421,699.07046 32.84375,699.28125 L 447.28125,699.8125 C 459.24058,699.60169 462.95345,689.19845 463,680.53125 L 463,37.09375 C 463.44191,24.237959 456.72937,16.20383 444.96875,16.71875 L 35.1875,16.78125 z "
     style="fill:#154889;fill-opacity:1;fill-rule:evenodd;stroke:none;stroke-width:1px;stroke-linecap:butt;stroke-linejoin:miter;stroke-opacity:1"
     id="path2774" />
  <path
     d="M 99.246197,97.424998 L 99.196335,383.84811 L 380.05178,383.79699 L 380.05178,97.322746 L 99.246197,97.424998 z "
     style="fill:white;fill-opacity:1;fill-rule:evenodd;stroke:none;stroke-width:1px;stroke-linecap:butt;stroke-linejoin:miter;stroke-opacity:1"
     id="path1886" />
  <g
     transform="matrix(0.311556,0,0,0.311556,179.7351,63.77578)"
     style="fill:black;fill-opacity:1"
     id="g1929">
    <path
       d="M 47.92461,191.16434 C 47.92461,205.96061 35.929866,217.95536 21.133608,217.95536 C 6.3373388,217.95536 -5.6574058,205.96061 -5.6574058,191.16434 C -5.6574058,176.36808 6.3373388,164.37334 21.133608,164.37334 C 35.929866,164.37334 47.92461,176.36808 47.92461,191.16434 z "
       style="fill:black;fill-opacity:1;fill-rule:nonzero;stroke:none;stroke-width:7;stroke-linecap:round;stroke-linejoin:round;stroke-miterlimit:4;stroke-dasharray:none;stroke-dashoffset:0;stroke-opacity:1"
       id="path5681" />
    <path
       d="M -128.75065,439.5794 L -133.92278,321.76972 L -166.67962,348.20507 C -173.84118,347.63744 -181.41072,347.63079 -185.29291,342.55403 L -134.11434,292.55676 C -122.49514,295.80974 -111.50809,294.84836 -101.16595,289.58757 L -64.38634,297.05843 L -46.57122,333.83803 C -52.08536,334.88367 -55.01694,340.03101 -67.25975,330.38994 L -76.45465,312.00014 L -91.39636,311.42546 L -78.17869,364.29614 L -43.69781,368.31891 C -34.52301,369.43975 -33.95198,377.64606 -31.6295,384.40999 L -87.37359,384.98467 L -97.14318,371.19232 L -113.23426,375.78977 L -112.65957,428.66046 C -117.47381,436.14625 -123.10381,437.92181 -128.75065,439.5794 z "
       style="fill:black;fill-opacity:1;fill-rule:evenodd;stroke:none;stroke-width:1px;stroke-linecap:butt;stroke-linejoin:miter;stroke-opacity:1"
       id="path5675" />
    <path
       d="M -77.53813,273.42803 C -70.31393,271.17047 2.83106,226.01924 2.83106,226.01924 C 19.90529,235.57021 34.28593,228.57483 48.4338,220.14958 L 94.03655,234.59797 L 117.9667,281.55525 C 108.57731,286.51803 99.38862,285.25928 90.42445,277.04013 L 78.23362,252.65846 L 52.94893,244.07973 L 59.2701,302.77633 L 79.58815,351.99117 L 125.1909,371.85771 C 136.52646,384.59602 132.28542,390.94205 131.06056,399.39997 L 63.78522,372.30923 C 60.26073,371.65106 58.96232,367.65376 57.01254,364.63352 L 35.79146,314.96716 L 13.21584,425.13617 L -12.06885,438.68154 L 9.60374,313.16111 L 3.73408,253.56149 L -52.70495,284.71584 C -67.27577,286.97272 -72.53894,280.32662 -77.53813,273.42803 z "
       style="fill:black;fill-opacity:1;fill-rule:evenodd;stroke:none;stroke-width:1px;stroke-linecap:butt;stroke-linejoin:miter;stroke-opacity:1"
       id="path5677" />
    <path
       d="M -96.87433,261.33132 C -96.87433,274.36613 -107.44113,284.93293 -120.47593,284.93293 C -133.51074,284.93293 -144.07754,274.36613 -144.07754,261.33132 C -144.07754,248.29651 -133.51074,237.72972 -120.47593,237.72972 C -107.44113,237.72972 -96.87433,248.29651 -96.87433,261.33132 z "
       style="fill:black;fill-opacity:1;fill-rule:nonzero;stroke:none;stroke-width:7;stroke-linecap:round;stroke-linejoin:round;stroke-miterlimit:4;stroke-dasharray:none;stroke-dashoffset:0;stroke-opacity:1"
       id="path5679" />
  </g>
  <path
     d="M 76.29258,520.53072 L 55.908751,458.78594 L 65.78283,458.78594 L 79.852334,505.78317 L 80.021846,505.78317 L 94.09135,458.78594 L 103.96543,458.78594 L 83.5816,520.53072 L 76.29258,520.53072 z M 143.92791,501.88439 L 116.5517,501.88439 C 116.55169,505.50066 117.53345,508.21285 119.49698,510.02097 C 121.46047,511.82911 123.96784,512.73317 127.01907,512.73316 C 130.66356,512.73317 133.88428,511.32057 136.68126,508.49536 L 143.08035,513.96213 C 140.9049,516.50481 138.45404,518.32 135.72776,519.4077 C 133.00141,520.49541 130.15502,521.03926 127.18859,521.03926 C 122.66825,521.03926 118.28919,519.57722 114.0514,516.65313 C 109.81359,513.72905 107.69469,507.7467 107.6947,498.70604 C 107.69469,490.14571 109.65114,484.22692 113.56405,480.94965 C 117.47694,477.67246 121.56642,476.03384 125.83249,476.0338 C 130.66356,476.03384 134.88723,477.70777 138.50352,481.05559 C 142.11974,484.40349 143.92787,488.91675 143.92791,494.59537 L 143.92791,501.88439 z M 116.5517,494.59537 L 135.11328,494.59537 C 134.97199,491.28991 134.03967,488.76136 132.31633,487.0097 C 130.59293,485.25811 128.43165,484.3823 125.83249,484.38227 C 123.20503,484.3823 121.02257,485.25811 119.28509,487.0097 C 117.54757,488.76136 116.63645,491.28991 116.5517,494.59537 L 116.5517,494.59537 z M 153.25107,520.53072 L 153.25107,476.54233 L 162.10807,476.54233 L 162.10807,481.24629 L 162.27759,481.24629 C 165.01801,477.77134 168.83203,476.03384 173.71965,476.0338 C 176.94035,476.03384 180.00569,477.16392 182.91568,479.42404 L 176.5166,487.05208 C 174.59544,485.61126 172.64605,484.89084 170.66843,484.8908 C 168.49301,484.89084 166.52243,485.61833 164.7567,487.07327 C 162.99093,488.52828 162.10806,490.86613 162.10807,494.08683 L 162.10807,520.53072 L 153.25107,520.53072 z M 186.98398,520.53072 L 186.98398,458.78594 L 195.84098,458.78594 L 195.84098,497.22281 L 196.0105,497.22281 L 212.91933,476.54233 L 223.51383,476.54233 L 208.3425,493.74781 L 225.59036,520.53072 L 214.48731,520.53072 L 202.79098,499.97738 L 195.84098,507.90207 L 195.84098,520.53072 L 186.98398,520.53072 z M 266.14613,501.88439 L 238.76993,501.88439 C 238.76992,505.50066 239.75167,508.21285 241.7152,510.02097 C 243.6787,511.82911 246.18606,512.73317 249.2373,512.73316 C 252.88179,512.73317 256.10251,511.32057 258.89949,508.49536 L 265.29857,513.96213 C 263.12313,516.50481 260.67227,518.32 257.94599,519.4077 C 255.21964,520.49541 252.37325,521.03926 249.40681,521.03926 C 244.88647,521.03926 240.50741,519.57722 236.26963,516.65313 C 232.03182,513.72905 229.91292,507.7467 229.91292,498.70604 C 229.91292,490.14571 231.86937,484.22692 235.78228,480.94965 C 239.69517,477.67246 243.78465,476.03384 248.05072,476.0338 C 252.88179,476.03384 257.10546,477.70777 260.72175,481.05559 C 264.33797,484.40349 266.14609,488.91675 266.14613,494.59537 L 266.14613,501.88439 z M 238.76993,494.59537 L 257.3315,494.59537 C 257.19021,491.28991 256.2579,488.76136 254.53455,487.0097 C 252.81116,485.25811 250.64988,484.3823 248.05072,484.38227 C 245.42326,484.3823 243.24079,485.25811 241.50331,487.0097 C 239.7658,488.76136 238.85467,491.28991 238.76993,494.59537 L 238.76993,494.59537 z M 275.46928,520.53072 L 275.46928,458.78594 L 284.32629,458.78594 L 284.32629,481.24629 L 284.4958,481.24629 C 287.23623,477.77134 291.05025,476.03384 295.93787,476.0338 C 299.35633,476.03384 302.65475,477.33343 305.83314,479.93257 C 309.01145,482.5318 310.60062,486.31756 310.60066,491.28988 L 310.60066,520.53072 L 301.74366,520.53072 L 301.74366,494.3411 C 301.74363,491.37467 300.91725,489.05801 299.26454,487.39111 C 297.61177,485.72427 295.55644,484.89084 293.09854,484.8908 C 290.55584,484.89084 288.45813,485.72427 286.8054,487.39111 C 285.15265,489.05801 284.32628,491.37467 284.32629,494.3411 L 284.32629,520.53072 L 275.46928,520.53072 z M 322.08513,520.53072 L 322.08513,476.54233 L 330.94213,476.54233 L 330.94213,481.24629 L 331.11165,481.24629 C 333.85207,477.77134 337.66609,476.03384 342.55371,476.0338 C 345.77441,476.03384 348.83975,477.16392 351.74974,479.42404 L 345.35066,487.05208 C 343.4295,485.61126 341.48011,484.89084 339.5025,484.8908 C 337.32707,484.89084 335.35649,485.61833 333.59076,487.07327 C 331.82499,488.52828 330.94212,490.86613 330.94213,494.08683 L 330.94213,520.53072 L 322.08513,520.53072 z M 350.94457,513.19932 L 357.13176,507.09689 C 360.97402,510.85441 365.59322,512.73317 370.98937,512.73316 C 373.50378,512.73317 375.5803,512.25995 377.21894,511.3135 C 378.85753,510.36707 379.67684,508.96153 379.67687,507.09689 C 379.67684,504.52597 377.88283,503.08512 374.29486,502.77433 L 366.4973,502.0539 C 362.85278,501.7714 359.82981,500.57069 357.4284,498.45177 C 355.02698,496.33289 353.82627,493.38056 353.82627,489.59476 C 353.82627,485.13098 355.39425,481.75487 358.53023,479.46642 C 361.66619,477.17805 365.56497,476.03384 370.22657,476.0338 C 374.06882,476.03384 377.36017,476.57769 380.10065,477.66535 C 382.84106,478.75309 385.29898,480.20101 387.47442,482.0091 L 382.00766,488.45056 C 380.256,487.26401 378.44787,486.28931 376.58327,485.52647 C 374.71861,484.7637 372.59971,484.3823 370.22657,484.38227 C 367.40135,484.3823 365.43783,484.88378 364.33602,485.88669 C 363.23418,486.88967 362.68327,488.15394 362.68328,489.67952 C 362.68327,490.64012 363.09292,491.53006 363.91224,492.34933 C 364.73153,493.16867 366.25714,493.66308 368.48907,493.83257 L 375.77809,494.3411 C 380.32663,494.6519 383.58974,496.05744 385.56741,498.55772 C 387.54501,501.05804 388.53383,504.04569 388.53387,507.52067 C 388.53383,511.84323 386.76808,515.17697 383.23662,517.52188 C 379.70509,519.8668 375.39666,521.03926 370.31132,521.03926 C 362.99404,521.03926 356.53846,518.42595 350.94457,513.19932 L 350.94457,513.19932 z M 396.37378,500.95207 L 396.37378,492.09507 L 422.52102,492.09507 L 422.52102,500.95207 L 396.37378,500.95207 z "
     style="font-size:86.79019165px;font-style:normal;font-variant:normal;font-weight:normal;font-stretch:normal;text-align:center;line-height:100%;writing-mode:lr-tb;text-anchor:middle;fill:white;fill-opacity:1;stroke:none;stroke-width:1px;stroke-linecap:butt;stroke-linejoin:miter;stroke-opacity:1;font-family:DIN 1451 Mittelschrift"
     id="text1891" />
  <path
     d="M 135.24153,615.62185 L 135.24153,553.87707 L 144.09854,553.87707 L 144.09854,576.33742 L 144.26805,576.33742 C 147.00848,572.86246 150.8225,571.12497 155.71012,571.12492 C 159.12858,571.12497 162.427,572.42456 165.60539,575.0237 C 168.7837,577.62292 170.37287,581.40869 170.37291,586.38101 L 170.37291,615.62185 L 161.51591,615.62185 L 161.51591,589.43223 C 161.51588,586.46579 160.68951,584.14913 159.03679,582.48223 C 157.38402,580.8154 155.32869,579.98196 152.87079,579.98193 C 150.32809,579.98196 148.23038,580.8154 146.57765,582.48223 C 144.9249,584.14913 144.09853,586.46579 144.09854,589.43223 L 144.09854,615.62185 L 135.24153,615.62185 z M 215.92929,596.97552 L 188.55309,596.97552 C 188.55307,600.59179 189.53483,603.30398 191.49836,605.1121 C 193.46186,606.92023 195.96922,607.8243 199.02046,607.82429 C 202.66494,607.8243 205.88567,606.4117 208.68265,603.58649 L 215.08173,609.05325 C 212.90629,611.59594 210.45543,613.41113 207.72914,614.49883 C 205.00279,615.58653 202.15641,616.13038 199.18997,616.13038 C 194.66963,616.13038 190.29057,614.66834 186.05278,611.74426 C 181.81498,608.82018 179.69608,602.83782 179.69608,593.79716 C 179.69608,585.23683 181.65253,579.31804 185.56544,576.04077 C 189.47833,572.76358 193.5678,571.12497 197.83387,571.12492 C 202.66494,571.12497 206.88861,572.7989 210.5049,576.14672 C 214.12112,579.49462 215.92925,584.00787 215.92929,589.6865 L 215.92929,596.97552 z M 188.55309,589.6865 L 207.11466,589.6865 C 206.97337,586.38104 206.04105,583.85249 204.31771,582.10083 C 202.59431,580.34924 200.43304,579.47343 197.83387,579.47339 C 195.20642,579.47343 193.02395,580.34924 191.28647,582.10083 C 189.54896,583.85249 188.63783,586.38104 188.55309,589.6865 L 188.55309,589.6865 z M 225.25246,604.98496 L 225.25246,553.87707 L 234.10947,553.87707 L 234.10947,604.26454 C 234.10945,606.29869 235.21128,607.31576 237.41495,607.31575 L 240.42379,607.31575 L 240.42379,615.62185 L 236.52501,615.62185 C 233.30427,615.62185 230.62033,614.83785 228.47319,613.26987 C 226.32603,611.70188 225.25245,608.94025 225.25246,604.98496 L 225.25246,604.98496 z M 249.02653,615.62185 L 249.02653,578.41394 L 244.57684,578.41394 L 244.57684,571.63346 L 249.02653,571.63346 L 249.02653,565.82767 C 249.02652,561.73118 250.1566,558.71528 252.41677,556.77996 C 254.67692,554.84476 257.53037,553.87713 260.97713,553.87707 L 266.69816,553.87707 L 266.69816,562.18316 L 261.69756,562.18316 C 259.12661,562.18321 257.84114,563.39805 257.84116,565.82767 L 257.84116,571.63346 L 266.69816,571.63346 L 266.69816,578.41394 L 257.84116,578.41394 L 257.84116,615.62185 L 249.02653,615.62185 z M 305.77069,596.97552 L 278.39449,596.97552 C 278.39448,600.59179 279.37623,603.30398 281.33976,605.1121 C 283.30326,606.92023 285.81063,607.8243 288.86186,607.82429 C 292.50635,607.8243 295.72707,606.4117 298.52405,603.58649 L 304.92313,609.05325 C 302.74769,611.59594 300.29683,613.41113 297.57055,614.49883 C 294.8442,615.58653 291.99781,616.13038 289.03137,616.13038 C 284.51103,616.13038 280.13198,614.66834 275.89419,611.74426 C 271.65638,608.82018 269.53748,602.83782 269.53748,593.79716 C 269.53748,585.23683 271.49393,579.31804 275.40684,576.04077 C 279.31973,572.76358 283.40921,571.12497 287.67528,571.12492 C 292.50635,571.12497 296.73002,572.7989 300.34631,576.14672 C 303.96253,579.49462 305.77065,584.00787 305.77069,589.6865 L 305.77069,596.97552 z M 278.39449,589.6865 L 296.95607,589.6865 C 296.81477,586.38104 295.88246,583.85249 294.15912,582.10083 C 292.43572,580.34924 290.27444,579.47343 287.67528,579.47339 C 285.04782,579.47343 282.86536,580.34924 281.12787,582.10083 C 279.39036,583.85249 278.47923,586.38104 278.39449,589.6865 L 278.39449,589.6865 z M 315.09386,615.62185 L 315.09386,571.63346 L 323.95087,571.63346 L 323.95087,576.33742 L 324.12038,576.33742 C 326.86081,572.86246 330.67482,571.12497 335.56244,571.12492 C 338.78314,571.12497 341.84849,572.25505 344.75848,574.51516 L 338.35939,582.14321 C 336.43823,580.70239 334.48884,579.98196 332.51123,579.98193 C 330.3358,579.98196 328.36522,580.70945 326.59949,582.1644 C 324.83373,583.61941 323.95085,585.95726 323.95087,589.17796 L 323.95087,615.62185 L 315.09386,615.62185 z "
     style="font-size:86.79019165px;font-style:normal;font-variant:normal;font-weight:normal;font-stretch:normal;text-align:center;line-height:100%;letter-spacing:0px;writing-mode:lr-tb;text-anchor:middle;fill:white;fill-opacity:1;stroke:none;stroke-width:1px;stroke-linecap:butt;stroke-linejoin:miter;stroke-opacity:1;font-family:DIN 1451 Mittelschrift"
     id="text1897" />
  <path
     d="M 267.71875,183.75 L 212.1875,226.09375 C 211.04037,227.13373 210.64586,228.60135 210.78125,230.1875 L 180.1875,230.1875 L 179.3125,236.46875 L 213.59375,236.46875 C 216.28402,239.80869 220.30804,241.93725 223.15625,239.46875 L 265.90625,207.5 L 265.78125,260.4375 L 303.71875,260.3125 L 303.46875,207.65625 L 342.84375,238.5 C 350.42468,243.5914 363.93523,232.8888 354.875,225.28125 L 300.5,183.75 C 291.69841,190.37422 278.01557,190.62291 267.71875,183.75 z "
     style="fill:black;fill-opacity:1;fill-rule:evenodd;stroke:none;stroke-width:1px;stroke-linecap:butt;stroke-linejoin:miter;stroke-opacity:1"
     id="path1935" />
  <path
     d="M 265.80587,266.84921 L 265.93822,269.40226 L 214.6043,366.00984 C 228.47047,371.53975 234.26644,369.27644 239.76536,361.26024 L 283.7625,277.95791 L 329.59327,361.37553 C 335.84355,369.31167 343.48897,372.78455 353.8578,366.02691 L 303.57627,269.5987 L 303.51863,266.94099 L 265.80587,266.84921 z "
     style="fill:black;fill-opacity:1;fill-rule:evenodd;stroke:none;stroke-width:1px;stroke-linecap:butt;stroke-linejoin:miter;stroke-opacity:1"
     id="path1937" />
  <path
     d="M 166.09167,289.345 C 166.09167,300.54865 157.00932,309.63101 145.80567,309.63101 C 134.60201,309.63101 125.51966,300.54865 125.51966,289.345 C 125.51966,278.14135 134.60201,269.05899 145.80567,269.05899 C 157.00932,269.05899 166.09167,278.14135 166.09167,289.345 z "
     transform="matrix(0.734085,0,0,0.734085,57.88817,20.70636)"
     style="opacity:1;fill:none;fill-opacity:1;fill-rule:nonzero;stroke:black;stroke-width:10;stroke-linecap:round;stroke-linejoin:miter;stroke-miterlimit:4;stroke-dasharray:none;stroke-dashoffset:0;stroke-opacity:1"
     id="path1941" />
  <path
     d="M 303.62255,163.85675 C 303.62255,174.25461 295.19342,182.68374 284.79556,182.68374 C 274.3977,182.68374 265.96857,174.25461 265.96857,163.85675 C 265.96857,153.45889 274.3977,145.02976 284.79556,145.02976 C 295.19342,145.02976 303.62255,153.45889 303.62255,163.85675 z "
     transform="matrix(1.031746,0,0,1.031746,-9.041129,-8.787895)"
     style="opacity:1;fill:black;fill-opacity:1;fill-rule:nonzero;stroke:none;stroke-width:10;stroke-linecap:round;stroke-linejoin:miter;stroke-miterlimit:4;stroke-dasharray:none;stroke-dashoffset:0;stroke-opacity:1"
     id="path2832" />
</svg>
