<?xml version="1.0" encoding="UTF-8" standalone="no"?>
<!-- Created with Inkscape (http://www.inkscape.org/) -->

<svg
   xmlns:dc="http://purl.org/dc/elements/1.1/"
   xmlns:cc="http://creativecommons.org/ns#"
   xmlns:rdf="http://www.w3.org/1999/02/22-rdf-syntax-ns#"
   xmlns:svg="http://www.w3.org/2000/svg"
   xmlns="http://www.w3.org/2000/svg"
   xmlns:sodipodi="http://sodipodi.sourceforge.net/DTD/sodipodi-0.dtd"
   xmlns:inkscape="http://www.inkscape.org/namespaces/inkscape"
   version="1.0"
   width="471.43494"
   height="470.53674"
   id="svg2"
   inkscape:version="0.48.1 r9760"
   sodipodi:docname="Zeichen_359.svg">
  <metadata
     id="metadata10">
    <rdf:RDF>
      <cc:Work
         rdf:about="">
        <dc:format>image/svg+xml</dc:format>
        <dc:type
           rdf:resource="http://purl.org/dc/dcmitype/StillImage" />
      </cc:Work>
    </rdf:RDF>
  </metadata>
  <sodipodi:namedview
     pagecolor="#ffffff"
     bordercolor="#666666"
     borderopacity="1"
     objecttolerance="10"
     gridtolerance="10"
     guidetolerance="10"
     inkscape:pageopacity="0"
     inkscape:pageshadow="2"
     inkscape:window-width="640"
     inkscape:window-height="484"
     id="namedview8"
     showgrid="false"
     fit-margin-top="0"
     fit-margin-left="0"
     fit-margin-right="0"
     fit-margin-bottom="0"
     inkscape:zoom="0.49166667"
     inkscape:cx="235.90722"
     inkscape:cy="235.30807"
     inkscape:window-x="0"
     inkscape:window-y="0"
     inkscape:window-maximized="0"
     inkscape:current-layer="svg2" />
  <defs
     id="defs4" />
  <path
     d="m 26.763491,1.0007043 420.004819,0 c 10.81582,0.7906802 23.07189,11.8437647 23.66646,24.8647647 l 0,418.806511 c 0.0497,10.31854 -11.79351,24.19224 -25.16434,24.86477 l -419.405666,0 C 16.340949,468.95357 1.4334507,454.15823 1,444.37241 L 1.5991509,26.165044 C 0.5175892,19.862602 15.885219,0.86680262 26.763491,1.0007043 z"
     style="fill:#ffffff;fill-opacity:1;fill-rule:evenodd;stroke:#000000;stroke-width:2;stroke-linecap:butt;stroke-linejoin:miter;stroke-miterlimit:4;stroke-opacity:1;stroke-dasharray:none"
     id="path3669"
     inkscape:connector-curvature="0" />
  <path
     d="m 389.62597,11.94743 0,0.03125 -308.968753,0 0,0.03125 -49.5625,0 c -11.760613,-0.514916 -18.473169,7.51921 -18.03125,20.375 l 0,406.40625 c 0.04655,8.6672 3.728171,19.07043 15.6875,19.28125 l 51.3125,0 309.562503,-0.0625 0,0.0312 53.5625,0 c 11.95933,-0.21075 15.6722,-10.614 15.71875,-19.2812 l 0,-406.4375 c 0.44191,-12.855791 -6.27063,-20.88992 -18.03125,-20.375 l -51.25,0 z m 0,66.5 0,312.90625 -307.281253,0.21875 0,-313.0625 307.281253,-0.0625 z"
     style="fill:#154889;fill-opacity:1;fill-rule:evenodd;stroke:none;stroke-width:1px;stroke-linecap:butt;stroke-linejoin:miter;stroke-opacity:1"
     id="path3661"
     inkscape:connector-curvature="0" />
  <g
     transform="matrix(0.702853,0,0,0.702853,176.17742,108.84838)"
     style="fill:#000000"
     id="layer1">
    <path
       d="m 108.10168,190.97074 0,-78.00364 55.93887,-22.092392 -0.0401,-23.934089 c 0,0 -55.91335,0.08074 -55.92641,0 -0.0123,-0.07635 -0.0401,-15.943585 -0.0401,-15.943585 l 56.00659,0 0,-23.199903 L 108.40729,4.6221761 60.606829,5.0231269 5.9608016,28.395884 l 0,22.60115 56.0065874,0 0,15.968533 -56.0440095,0 0,23.80133 56.1241995,22.425623 0,77.83078 -5.988422,0 -5.043962,163.93541 68.078765,0.0401 -5.05375,-164.02807 -5.93853,0 z"
       style="fill:#000000;fill-opacity:1;fill-rule:evenodd;stroke:none"
       id="path29027"
       inkscape:connector-curvature="0" />
  </g>
</svg>
