<?xml version="1.0" encoding="UTF-8" standalone="no"?>
<!-- Created with Inkscape (http://www.inkscape.org/) -->

<svg
   xmlns:dc="http://purl.org/dc/elements/1.1/"
   xmlns:cc="http://creativecommons.org/ns#"
   xmlns:rdf="http://www.w3.org/1999/02/22-rdf-syntax-ns#"
   xmlns:svg="http://www.w3.org/2000/svg"
   xmlns="http://www.w3.org/2000/svg"
   xmlns:sodipodi="http://sodipodi.sourceforge.net/DTD/sodipodi-0.dtd"
   xmlns:inkscape="http://www.inkscape.org/namespaces/inkscape"
   version="1.0"
   width="480"
   height="480"
   id="svg2"
   sodipodi:version="0.32"
   inkscape:version="0.48.1 r9760"
   sodipodi:docname="Zeichen_361-50.svg">
  <metadata
     id="metadata13">
    <rdf:RDF>
      <cc:Work
         rdf:about="">
        <dc:format>image/svg+xml</dc:format>
        <dc:type
           rdf:resource="http://purl.org/dc/dcmitype/StillImage" />
      </cc:Work>
    </rdf:RDF>
  </metadata>
  <sodipodi:namedview
     inkscape:window-height="569"
     inkscape:window-width="925"
     inkscape:pageshadow="2"
     inkscape:pageopacity="0.0"
     guidetolerance="10.0"
     gridtolerance="10.0"
     objecttolerance="10.0"
     borderopacity="1.0"
     bordercolor="#666666"
     pagecolor="#ffffff"
     id="base"
     inkscape:zoom="0.7875"
     inkscape:cx="240"
     inkscape:cy="240"
     inkscape:window-x="88"
     inkscape:window-y="88"
     inkscape:current-layer="svg2"
     showgrid="false"
     inkscape:window-maximized="0" />
  <defs
     id="defs4" />
  <path
     d="M 30.856274,5.7720243 L 450.86109,5.7720243 C 461.67691,6.5627045 473.93298,17.615789 474.52755,30.636789 L 474.52755,449.4433 C 474.57722,459.76184 462.73404,473.63554 449.36321,474.30807 L 29.957547,474.30807 C 20.433732,473.72489 5.5262338,458.92955 5.0927831,449.14373 L 5.691934,30.936364 C 4.6103723,24.633922 19.978002,5.6381226 30.856274,5.7720243 z "
     style="fill:white;fill-opacity:1;fill-rule:evenodd;stroke:black;stroke-width:2;stroke-linecap:butt;stroke-linejoin:miter;stroke-miterlimit:4;stroke-dasharray:none;stroke-opacity:1"
     id="path3669" />
  <path
     style="fill:#154889;fill-opacity:1;fill-rule:evenodd;stroke:none;stroke-width:1px;stroke-linecap:butt;stroke-linejoin:miter;stroke-opacity:0.94117647000000004"
     d="M 393.71875 16.71875 L 393.71875 16.75 L 84.75 16.75 L 84.75 16.78125 L 35.1875 16.78125 C 23.426887 16.266334 16.714331 24.30046 17.15625 37.15625 L 17.15625 443.5625 C 17.202803 452.2297 20.884421 462.63293 32.84375 462.84375 L 84.15625 462.84375 L 86.4375 462.84375 L 393.71875 462.78125 L 393.71875 462.8125 L 447.28125 462.8125 C 459.24058 462.6017 462.95345 452.19845 463 443.53125 L 463 37.09375 C 463.44191 24.237959 456.72937 16.20383 444.96875 16.71875 L 393.71875 16.71875 z M 393.71875 83.21875 L 393.71875 396.125 L 86.4375 396.34375 L 86.4375 83.28125 L 393.71875 83.21875 z "
     id="path3661" />
  <path
     d="M 209.08091,355.7719 L 313.38797,355.70545 L 313.45443,339.5268 L 323.23261,339.59325 L 323.23261,132.00832 C 323.23261,127.58056 320.6669,123.75287 315.84103,123.75287 L 208.76486,123.75287 C 203.23842,123.75287 197.72855,127.73532 197.72855,134.12466 L 197.60902,339.5268 L 208.96421,339.5268 L 209.08091,355.7719 z "
     style="fill:black;fill-opacity:1;fill-rule:evenodd;stroke:none;stroke-width:1px;stroke-linecap:butt;stroke-linejoin:miter;stroke-opacity:1"
     id="path1897" />
  <path
     d="M 198.23535,194.34426 L 187.797,194.28244 C 187.72932,236.75683 188.03887,320.58224 188.21577,322.01651 C 188.59339,325.07819 188.36505,328.25009 187.57894,331.13976 C 171.21513,372.36329 118.2653,353.42928 125.78349,313.3164 C 142.29606,273.5279 165.45003,246.60429 176.97375,199.67527 L 177.9996,234.56064 C 167.62863,254.74183 149.33218,290.18488 135.14285,319.81154 C 133.9474,347.16475 166.4866,356.17678 176.67755,326.8168 C 181.21897,275.42403 176.5068,219.40447 176.42143,165.6983 C 183.04379,146.01123 190.35087,144.12677 197.76649,145.06446"
     style="fill:black;fill-opacity:1;fill-rule:evenodd;stroke:none;stroke-width:1px;stroke-linecap:butt;stroke-linejoin:miter;stroke-opacity:1"
     id="path1899" />
  <path
     d="M 219.36196,153.03332 L 219.00087,206.1135 C 219.00087,210.38558 222.43008,213.33529 226.40321,213.33529 L 295.19079,213.51584 C 299.364,213.51584 301.32931,210.8542 301.32931,207.19677 L 301.32931,153.21387 C 301.32931,147.99555 298.34307,146.44344 294.55888,146.44344 L 226.22267,146.44344 C 222.3061,146.44344 219.36196,148.78302 219.36196,153.03332 z "
     style="fill:white;fill-opacity:1;fill-rule:evenodd;stroke:none;stroke-width:1px;stroke-linecap:butt;stroke-linejoin:miter;stroke-opacity:1"
     id="path1901" />
</svg>
