<?xml version="1.0" encoding="UTF-8" standalone="no"?>
<!-- Created with Inkscape (http://www.inkscape.org/) -->

<svg
   xmlns:dc="http://purl.org/dc/elements/1.1/"
   xmlns:cc="http://creativecommons.org/ns#"
   xmlns:rdf="http://www.w3.org/1999/02/22-rdf-syntax-ns#"
   xmlns:svg="http://www.w3.org/2000/svg"
   xmlns="http://www.w3.org/2000/svg"
   xmlns:sodipodi="http://sodipodi.sourceforge.net/DTD/sodipodi-0.dtd"
   xmlns:inkscape="http://www.inkscape.org/namespaces/inkscape"
   version="1.0"
   width="480"
   height="480"
   id="svg2"
   inkscape:version="0.48.1 r9760"
   sodipodi:docname="Zeichen_363.svg">
  <metadata
     id="metadata9">
    <rdf:RDF>
      <cc:Work
         rdf:about="">
        <dc:format>image/svg+xml</dc:format>
        <dc:type
           rdf:resource="http://purl.org/dc/dcmitype/StillImage" />
      </cc:Work>
    </rdf:RDF>
  </metadata>
  <sodipodi:namedview
     pagecolor="#ffffff"
     bordercolor="#666666"
     borderopacity="1"
     objecttolerance="10"
     gridtolerance="10"
     guidetolerance="10"
     inkscape:pageopacity="0"
     inkscape:pageshadow="2"
     inkscape:window-width="640"
     inkscape:window-height="484"
     id="namedview7"
     showgrid="false"
     inkscape:zoom="0.49166667"
     inkscape:cx="240"
     inkscape:cy="240"
     inkscape:window-x="0"
     inkscape:window-y="0"
     inkscape:window-maximized="0"
     inkscape:current-layer="svg2" />
  <defs
     id="defs4" />
  <path
     d="M 30.856274,5.7720243 L 450.86109,5.7720243 C 461.67691,6.5627045 473.93298,17.615789 474.52755,30.636789 L 474.52755,449.4433 C 474.57722,459.76184 462.73404,473.63554 449.36321,474.30807 L 29.957547,474.30807 C 16.93511,474.30807 5.0927831,462.751 5.0927831,449.14373 L 5.691934,30.936364 C 5.691934,17.424109 14.494985,5.7720243 30.856274,5.7720243 z "
     style="fill:white;fill-opacity:1;fill-rule:evenodd;stroke:black;stroke-width:2;stroke-linecap:butt;stroke-linejoin:miter;stroke-miterlimit:4;stroke-dasharray:none;stroke-opacity:1"
     id="path3669" />
  <path
     d="M 393.71875,16.71875 L 393.71875,16.75 L 84.75,16.75 L 84.75,16.78125 L 35.1875,16.78125 C 23.426887,16.266334 16.714331,24.30046 17.15625,37.15625 L 17.15625,443.5625 C 17.202803,452.2297 20.884421,462.63293 32.84375,462.84375 L 84.15625,462.84375 L 393.71875,462.78125 L 393.71875,462.8125 L 447.28125,462.8125 C 459.24058,462.6017 462.95345,452.19845 463,443.53125 L 463,37.09375 C 463.44191,24.237959 456.72937,16.20383 444.96875,16.71875 L 393.71875,16.71875 z M 393.71875,83.21875 L 393.71875,396.125 L 86.4375,396.34375 L 86.4375,83.28125 L 393.71875,83.21875 z "
     style="fill:#154889;fill-opacity:1;fill-rule:evenodd;stroke:none;stroke-width:1px;stroke-linecap:butt;stroke-linejoin:miter;stroke-opacity:1"
     id="path3661" />
  <path
     d="M 111.81469,286.87726 L 111.81469,194.8187 L 133.34669,194.8187 C 136.01429,194.81879 138.68262,195.37057 141.35169,196.47403 C 144.02068,197.57768 146.25237,199.02662 148.04674,200.82087 C 149.84103,202.61529 151.35877,204.75501 152.59997,207.24003 C 153.84107,209.72522 154.46164,212.11766 154.46169,214.41737 L 154.46169,227.80326 C 154.46164,231.20946 154.00183,234.24635 153.08225,236.91392 C 152.16257,239.5816 150.57533,242.04284 148.32052,244.29765 C 146.06563,246.55254 143.62686,248.16294 141.00419,249.12887 C 138.38146,250.09487 135.32211,250.57785 131.82614,250.57781 L 124.9268,250.57781 L 124.9268,286.87726 L 111.81469,286.87726 z M 139.69425,235.53237 C 140.52258,234.70405 141.05189,233.83005 141.28219,232.91037 C 141.51241,231.99079 141.62754,230.84161 141.62758,229.46281 L 141.62758,227.80326 L 141.62758,215.79471 C 141.62754,213.21981 140.8455,211.10396 139.28146,209.44715 C 137.71736,207.79049 135.6001,206.96212 132.92969,206.96204 L 124.9268,206.96204 L 124.9268,238.15648 L 131.82614,238.15648 C 133.66818,238.15653 135.16416,237.99577 136.31408,237.6742 C 137.46393,237.35273 138.59065,236.63879 139.69425,235.53237 L 139.69425,235.53237 z M 165.77526,227.94226 C 167.70717,225.54988 169.98448,223.68675 172.6072,222.35287 C 175.22988,221.01912 178.05898,220.35221 181.09448,220.35214 C 184.49779,220.35221 187.51081,220.97349 190.13354,222.21598 C 192.75621,223.45859 195.21815,225.59761 197.51937,228.63303 C 199.82051,231.66857 200.9711,235.62509 200.97114,240.50259 L 200.97114,266.72681 C 200.9711,271.69424 199.86684,275.67322 197.65837,278.66376 C 195.44981,281.65432 192.9654,283.90917 190.20514,285.42831 C 187.44482,286.94746 184.63819,287.70703 181.78526,287.70703 C 177.82872,287.70703 174.21689,286.7179 170.94976,284.73964 C 167.6826,282.76139 165.42775,280.55287 164.18521,278.11409 C 162.94265,275.67532 162.18378,273.65073 161.90859,272.04031 C 161.6334,270.42992 161.49581,268.65876 161.49581,266.72681 L 161.49581,240.50259 C 161.49581,235.53242 162.92229,231.34565 165.77526,227.94226 L 165.77526,227.94226 z M 181.36826,233.18626 C 179.34646,233.18631 177.73746,233.87639 176.54126,235.25648 C 175.34501,236.63668 174.7469,238.38538 174.74692,240.50259 L 174.74692,266.72681 C 174.7469,268.84409 175.32185,270.66158 176.47176,272.17931 C 177.62162,273.69707 179.25379,274.45594 181.36826,274.45592 C 184.2212,274.45594 185.99307,273.62757 186.68387,271.97081 C 187.37462,270.31409 187.72,268.47343 187.72004,266.44882 L 187.72004,240.50259 C 187.72,238.47805 187.14506,236.75251 185.9952,235.32598 C 184.84528,233.89955 183.30297,233.18631 181.36826,233.18626 L 181.36826,233.18626 z M 224.77343,194.8187 L 224.77343,267.96937 C 224.77341,270.1765 225.14126,271.7862 225.87699,272.79848 C 226.61267,273.81079 228.08548,274.31694 230.29543,274.31693 L 231.25999,274.31693 L 231.25999,286.87726 L 228.3621,286.87726 C 226.24482,286.87726 224.26656,286.647 222.42732,286.18648 C 220.58804,285.72597 218.74808,284.78317 216.90743,283.35809 C 215.06675,281.93302 213.70907,280.09306 212.83438,277.8382 C 211.95967,275.58336 211.52232,273.16705 211.52232,270.58926 L 211.52232,194.8187 L 224.77343,194.8187 z M 239.28816,286.87726 L 239.28816,221.17771 L 252.53927,221.17771 L 252.53927,286.87726 L 239.28816,286.87726 z M 239.28816,207.79181 L 239.28816,194.8187 L 252.53927,194.8187 L 252.53927,207.79181 L 239.28816,207.79181 z M 261.32982,286.87726 L 261.32982,275.97226 L 282.44483,232.49548 L 262.84616,232.49548 L 262.84616,221.17771 L 297.21649,221.17771 L 297.21649,230.70115 L 276.09727,274.31693 L 297.21649,274.31693 L 297.21649,286.87726 L 261.32982,286.87726 z M 324.49793,274.31693 C 326.43264,274.31694 327.99741,273.71883 329.19226,272.52259 C 330.38705,271.32639 331.12345,269.76231 331.40148,267.83037 L 344.51359,267.83037 L 344.51359,269.34671 C 344.51354,271.37131 344.07619,273.3959 343.20153,275.42048 C 342.32679,277.44508 340.50929,279.99899 337.74904,283.0822 C 334.98871,286.16542 330.66434,287.70703 324.77592,287.70703 C 321.00191,287.70703 317.52767,286.69474 314.35321,284.67014 C 311.17871,282.64556 308.99336,280.41387 307.79715,277.97509 C 306.60092,275.53633 305.84205,273.32781 305.52054,271.34954 C 305.19901,269.37129 305.03825,267.4162 305.03826,265.48426 L 305.03826,240.50259 C 305.03825,235.07471 306.99334,230.35933 310.90354,226.35642 C 314.81371,222.35363 319.48417,220.35221 324.91492,220.35214 C 330.52815,220.35221 335.1979,222.3073 338.9242,226.21742 C 342.65042,230.12767 344.51354,234.88938 344.51359,240.50259 L 344.51359,258.71971 L 318.28937,258.71971 L 318.28937,268.52115 C 318.28935,269.89991 318.95626,271.21055 320.29009,272.45309 C 321.62388,273.69566 323.0265,274.31694 324.49793,274.31693 L 324.49793,274.31693 z M 324.77592,233.32526 C 323.0265,233.32531 321.50805,233.92342 320.22059,235.11959 C 318.93309,236.31586 318.28935,238.43171 318.28937,241.46715 L 318.28937,247.95371 L 331.26248,247.95371 L 331.26248,241.46715 C 331.26245,239.07475 330.7563,237.11966 329.74404,235.60187 C 328.73171,234.08418 327.07568,233.32531 324.77592,233.32526 L 324.77592,233.32526 z M 354.9342,286.87726 L 354.9342,221.17771 L 368.18531,221.17771 L 368.18531,286.87726 L 354.9342,286.87726 z M 354.9342,207.79181 L 354.9342,194.8187 L 368.18531,194.8187 L 368.18531,207.79181 L 354.9342,207.79181 z "
     style="font-size:138.02044678px;font-style:normal;font-variant:normal;font-weight:normal;font-stretch:normal;text-align:center;line-height:100%;writing-mode:lr-tb;text-anchor:middle;fill:black;fill-opacity:1;stroke:none;stroke-width:1px;stroke-linecap:butt;stroke-linejoin:miter;stroke-opacity:1;font-family:DIN 1451 Engschrift"
     id="text1882" />
</svg>
