<?xml version="1.0" encoding="UTF-8" standalone="no"?>
<!-- Created with Inkscape (http://www.inkscape.org/) -->

<svg
   xmlns:dc="http://purl.org/dc/elements/1.1/"
   xmlns:cc="http://creativecommons.org/ns#"
   xmlns:rdf="http://www.w3.org/1999/02/22-rdf-syntax-ns#"
   xmlns:svg="http://www.w3.org/2000/svg"
   xmlns="http://www.w3.org/2000/svg"
   xmlns:sodipodi="http://sodipodi.sourceforge.net/DTD/sodipodi-0.dtd"
   xmlns:inkscape="http://www.inkscape.org/namespaces/inkscape"
   version="1.0"
   width="471.43494"
   height="707.53992"
   id="svg2"
   sodipodi:version="0.32"
   inkscape:version="0.48.1 r9760"
   sodipodi:docname="Zeichen_366.svg">
  <metadata
     id="metadata16">
    <rdf:RDF>
      <cc:Work
         rdf:about="">
        <dc:format>image/svg+xml</dc:format>
        <dc:type
           rdf:resource="http://purl.org/dc/dcmitype/StillImage" />
        <dc:title></dc:title>
      </cc:Work>
    </rdf:RDF>
  </metadata>
  <sodipodi:namedview
     inkscape:window-height="569"
     inkscape:window-width="925"
     inkscape:pageshadow="2"
     inkscape:pageopacity="0.0"
     guidetolerance="10.0"
     gridtolerance="10.0"
     objecttolerance="10.0"
     borderopacity="1.0"
     bordercolor="#666666"
     pagecolor="#ffffff"
     id="base"
     inkscape:zoom="0.525"
     inkscape:cx="235.90722"
     inkscape:cy="352.31096"
     inkscape:window-x="44"
     inkscape:window-y="44"
     inkscape:current-layer="svg2"
     showgrid="false"
     fit-margin-top="0"
     fit-margin-left="0"
     fit-margin-right="0"
     fit-margin-bottom="0"
     inkscape:window-maximized="0" />
  <defs
     id="defs4" />
  <path
     d="m 26.763491,1.0009737 420.004819,0 c 10.81582,0.7906802 23.07189,11.8437643 23.66646,24.8647643 l 0,655.809402 c 0.0497,10.31854 -11.79351,24.19224 -25.16434,24.86477 l -419.405666,0 C 16.340949,705.95673 1.4334507,691.16139 1,681.37557 L 1.5991509,26.165313 C 1.399734,14.570002 15.885219,0.86707196 26.763491,1.0009737 z"
     style="fill:#ffffff;fill-opacity:1;fill-rule:evenodd;stroke:#000000;stroke-width:2;stroke-linecap:butt;stroke-linejoin:miter;stroke-miterlimit:4;stroke-opacity:1;stroke-dasharray:none"
     id="path3669"
     inkscape:connector-curvature="0" />
  <path
     style="fill:#154889;fill-opacity:1;fill-rule:evenodd;stroke:none;stroke-width:1px;stroke-linecap:butt;stroke-linejoin:miter;stroke-opacity:0.94117647000000004"
     d="m 379.71972,11.947699 0,0.03125 -299.062503,0 0,0.03125 -49.5625,0 c -11.760613,-0.514916 -18.473169,7.51921 -18.03125,20.375 l 0,642.843751 c 0.04655,8.6672 3.728171,19.07046 15.6875,19.28125 l 51.5,0 299.468753,0.46875 0,0.0625 63.46875,0 c 11.95933,-0.21081 15.6722,-10.61405 15.71875,-19.28125 l 0,-643.437501 c 0.44191,-12.855791 -6.27063,-20.88992 -18.03125,-20.375 l -61.15625,0 z m 0,81.75 0,427.843751 -285.718753,0.21875 0,-428.000001 285.718753,-0.0625 z"
     id="path2774"
     inkscape:connector-curvature="0" />
  <path
     d="m 231.60948,146.11999 -95.62777,141.25324 -17.95827,0 0,8.53017 238.20018,0 0,-9.42809 -16.41558,0 -98.18109,-140.07258 11.39203,-17.53891 -6.59393,-5.80874 -9.70893,14.31121 -9.14725,-14.31121 -6.70664,5.86413 10.74725,17.20078 z"
     style="fill:#000000;fill-opacity:1;fill-rule:evenodd;stroke:none"
     id="path1888"
     inkscape:connector-curvature="0" />
  <path
     d="m 191.65042,287.5146 89.86776,0 -44.3722,-65.15412 -45.49556,65.15412 z"
     style="fill:#ffffff;fill-opacity:1;fill-rule:evenodd;stroke:none"
     id="path1896"
     inkscape:connector-curvature="0" />
  <path
     d="m 118.63287,458.54417 112.89637,0 c 0,-31.49782 47.18057,-30.85961 47.18057,0 l 64.03078,0 10.67179,-61.50324 -9.82928,-56.16735 -185.63308,0 -11.23348,56.44819 10.6718,52.23563 -38.75547,0 0,8.98677 z"
     style="fill:#000000;fill-opacity:1;fill-rule:evenodd;stroke:none"
     id="path1900"
     inkscape:connector-curvature="0" />
  <path
     d="m 275.05893,458.68459 a 19.798995,19.798995 0 0 1 -39.59799,0 19.798995,19.798995 0 1 1 39.59799,0 z"
     style="fill:#000000;fill-opacity:1;fill-rule:nonzero;stroke:none"
     id="path1906"
     inkscape:connector-curvature="0" />
  <path
     d="m 179.39658,360.66193 0,88.49282 39.31915,0 0,-88.59247 -39.31915,0.0996 z"
     style="fill:#ffffff;fill-opacity:1;fill-rule:evenodd;stroke:none"
     id="path1908"
     inkscape:connector-curvature="0" />
  <path
     d="m 272.59477,360.66547 56.47759,0 0,27.09872 -56.38989,0 -0.0877,-27.09872 z"
     style="fill:#ffffff;fill-opacity:1;fill-rule:evenodd;stroke:none"
     id="path1910"
     inkscape:connector-curvature="0" />
</svg>
