<?xml version="1.0" encoding="UTF-8" standalone="no"?>
<!-- Created with Inkscape (http://www.inkscape.org/) -->
<svg
   xmlns:svg="http://www.w3.org/2000/svg"
   xmlns="http://www.w3.org/2000/svg"
   version="1.0"
   width="725"
   height="725"
   id="svg2">
  <defs
     id="defs9" />
  <circle
     cx="362.5"
     cy="362.5"
     r="350"
     style="opacity:1;fill:white;fill-opacity:1;stroke:black;stroke-width:2.5px"
     id="circle4" />
  <path
     d="M 113.09375,332.1875 C 72.544148,331.94572 71.31547,393.74982 112.75,393.03125 L 613.34375,393.03125 C 654.77828,393.74982 653.54962,331.94573 613,332.1875 L 113.09375,332.1875 z "
     style="opacity:1;fill:black;fill-opacity:1;fill-rule:evenodd;stroke:none;stroke-width:1px;stroke-linecap:butt;stroke-linejoin:miter;stroke-opacity:1"
     id="path2773" />
  <circle
     cx="362.5"
     cy="362.5"
     r="290"
     transform="matrix(1.145251,0,0,1.145251,-52.65349,-52.65349)"
     style="opacity:1;fill:none;fill-opacity:1;stroke:#c00;stroke-width:25;stroke-miterlimit:4;stroke-dasharray:none;stroke-opacity:1"
     id="circle6" />
  <g
     transform="matrix(0.72593,0,0,0.72593,-401.9826,249.0303)"
     id="g8258">
    <path
       d="M 963.30808,237.34577 L 1308.5627,237.34577 L 1308.5627,402.06534 L 963.30808,402.06534 L 963.30808,237.34577 z "
       style="fill:black;fill-opacity:1;fill-rule:evenodd;stroke:none;stroke-width:1px;stroke-linecap:butt;stroke-linejoin:miter;stroke-opacity:1"
       id="path10081" />
    <path
       d="M 1231.2229,454.84146 C 1231.2229,477.7032 1212.6898,496.23631 1189.828,496.23631 C 1166.9663,496.23631 1148.4332,477.7032 1148.4332,454.84146 C 1148.4332,431.97972 1166.9663,413.44663 1189.828,413.44663 C 1212.6898,413.44663 1231.2229,431.97972 1231.2229,454.84146 z "
       style="fill:black;fill-opacity:1;fill-rule:nonzero;stroke:none;stroke-width:34.10599899;stroke-linecap:round;stroke-linejoin:round;stroke-miterlimit:4;stroke-dasharray:none;stroke-dashoffset:0;stroke-opacity:1"
       id="path10974" />
    <path
       d="M 910.6463,454.96396 C 910.6463,477.8257 892.11319,496.35881 869.25145,496.35881 C 846.38972,496.35881 827.85661,477.8257 827.85661,454.96396 C 827.85661,432.10222 846.38972,413.56913 869.25145,413.56913 C 892.11319,413.56913 910.6463,432.10222 910.6463,454.96396 z "
       style="fill:black;fill-opacity:1;fill-rule:nonzero;stroke:none;stroke-width:34.10599899;stroke-linecap:round;stroke-linejoin:round;stroke-miterlimit:4;stroke-dasharray:none;stroke-dashoffset:0;stroke-opacity:1"
       id="path10976" />
    <path
       d="M 1308.563,413.04943 L 1308.722,444.58032 L 1274.4595,455.16607 L 1242.4306,455.23642 C 1243.8881,442.58312 1234.4313,421.74269 1221.741,413.20848 L 1308.563,413.04943 z "
       style="fill:black;fill-opacity:1;fill-rule:evenodd;stroke:none;stroke-width:1px;stroke-linecap:butt;stroke-linejoin:miter;stroke-opacity:1"
       id="path11875" />
    <path
       d="M 940.26262,278.71294 L 836.45071,284.1458 C 832.111,285.49064 828.45554,287.4437 826.7996,291.17411 L 798.58032,365.20614 L 797.49369,372.97643 L 797.50123,445.24756 C 798.38324,451.86632 802.74205,454.01489 807.77711,455.29401 L 816.27745,455.29401 C 816.27745,386.45902 922.99748,386.63834 922.99748,455.29401 L 1137.2901,455.29401 C 1135.8326,442.64071 1145.2894,421.80028 1157.9797,413.26607 L 940.49934,413.24021 L 940.26262,278.71294 z "
       style="fill:black;fill-opacity:1;fill-rule:evenodd;stroke:none;stroke-width:1px;stroke-linecap:butt;stroke-linejoin:miter;stroke-opacity:1"
       id="path11879" />
    <path
       d="M 898.46402,358.545 L 898.46402,299.38963 L 838.63387,303.43829 C 836.45439,303.80406 834.89034,305.24682 833.91044,307.71187 L 814.79179,358.545 C 814.47007,360.3444 813.70529,362.14381 814.79179,363.94321 C 815.48777,365.58938 816.79779,366.41683 818.39059,366.86724 L 898.46402,358.545 z "
       style="fill:white;fill-opacity:1;fill-rule:evenodd;stroke:none;stroke-width:1px;stroke-linecap:butt;stroke-linejoin:miter;stroke-opacity:1"
       id="path11883" />
  </g>
  <path
     d="M 152.2704,301.47899 L 152.2704,178.1108 L 169.96701,178.1108 L 205.36022,258.54991 L 239.99137,178.1108 L 257.68798,178.1108 L 257.68798,301.47899 L 238.9753,301.47899 L 238.9753,224.51146 L 238.63661,224.51146 L 212.81142,283.86706 L 197.23163,283.86706 L 171.40645,224.51146 L 170.98308,224.51146 L 170.98308,301.47899 L 152.2704,301.47899 z M 270.72758,301.39432 L 315.77349,177.94145 L 331.18393,177.94145 L 376.22983,301.39432 L 356.58575,301.39432 L 347.1024,273.53698 L 300.27837,273.53698 L 290.45633,301.39432 L 270.72758,301.39432 z M 305.7821,257.0258 L 341.514,257.0258 C 338.9173,249.4053 336.87105,243.43588 335.37523,239.11751 C 333.87928,234.79927 332.58096,230.97489 331.48028,227.64435 C 330.37947,224.31397 329.26462,220.92706 328.13571,217.48362 C 327.00668,214.04035 325.5108,209.38336 323.64805,203.51262 C 321.6723,209.60915 320.09175,214.47783 318.90638,218.11867 C 317.72091,221.75968 316.57783,225.27359 315.47713,228.66043 C 314.37634,232.04741 313.10625,235.82945 311.66686,240.00657 C 310.22738,244.18382 308.2658,249.85689 305.7821,257.0258 L 305.7821,257.0258 z M 389.52344,259.73533 L 389.52344,178.1108 L 408.23612,178.1108 L 408.23612,257.61851 C 408.23609,266.14227 410.64926,272.64795 415.47564,277.13558 C 420.30194,281.62325 426.27137,283.86708 433.38393,283.86706 C 440.49637,283.86708 446.4658,281.62325 451.29221,277.13558 C 456.11848,272.64795 458.53165,266.14227 458.53173,257.61851 L 458.53173,178.1108 L 477.24441,178.1108 L 477.24441,259.73533 C 477.24431,272.60561 472.98245,282.94979 464.45882,290.76789 C 455.93502,298.58601 445.57673,302.49506 433.38393,302.49506 C 421.13456,302.49506 410.76216,298.58601 402.26669,290.76789 C 393.77118,282.94979 389.52343,272.60561 389.52344,259.73533 L 389.52344,259.73533 z M 522.12099,301.47899 L 522.12099,194.70665 L 488.33656,194.70665 L 488.33656,178.1108 L 574.6181,178.1108 L 574.6181,194.70665 L 540.83367,194.70665 L 540.83367,301.47899 L 522.12099,301.47899 z "
     style="font-size:173.40979004px;font-style:normal;font-variant:normal;font-weight:normal;font-stretch:normal;text-align:center;line-height:100%;writing-mode:lr-tb;text-anchor:middle;opacity:1;fill:black;fill-opacity:1;stroke:none;stroke-width:1px;stroke-linecap:butt;stroke-linejoin:miter;stroke-opacity:1;font-family:DIN 1451 Mittelschrift"
     id="text2768" />
</svg>
