<svg xmlns="http://www.w3.org/2000/svg" viewBox="0 0 736 736" overflow="visible"><g stroke="#000" transform="translate(2 2)"><circle cx="366" cy="366" r="365.5"/><ellipse cx="366" cy="366" rx="365" ry="365.04" fill="#fff"/></g><path d="m 15 368 c 0 194.96 158.04 353 353 353 194.96 0 353 -158.04 353 -353 0 -194.96 -158.04 -353 -353 -353 -194.96 0 -353 158.04 -353 353 z" fill="#c1121c"/><ellipse cx="366" cy="366" rx="322.5" ry="322.53" transform="translate(2 2)" fill="#fff"/><path d="m 549.56 539.13 v -93.2 h 59.62 v 13.369 h -45.48 v 26.545 h 38.764 v 12.602 h -38.764 v 27.377 h 45.48 v 13.305 h -59.62 z m -89.55 0 v -93.2 h 13.369 l 42.15 66.27 h 0.256 v -66.27 h 14.201 v 93.2 h -13.369 l -42.15 -66.27 h -0.32 v 66.27 h -14.14 z m -91.41 -0.065 l 34.03 -93.26 h 11.641 l 34.03 93.26 h -14.84 l -7.164 -21.04 h -35.37 l -7.42 21.04 h -14.903 z m 26.481 -33.517 h 26.994 c -1.963 -5.756 -3.51 -10.266 -4.639 -13.527 -1.131 -3.262 -2.111 -6.152 -2.943 -8.668 -0.832 -2.516 -1.674 -5.074 -2.525 -7.676 -0.854 -2.602 -1.984 -6.119 -3.391 -10.555 -1.492 4.605 -2.688 8.285 -3.582 11.04 -0.894 2.75 -1.758 5.404 -2.59 7.963 -0.832 2.559 -1.793 5.416 -2.879 8.572 -1.088 3.157 -2.57 7.442 -4.445 12.856 z m -100.87 2.047 v -61.66 h 14.14 v 60.06 c 0 6.439 1.822 11.354 5.469 14.744 3.645 3.391 8.154 5.086 13.527 5.086 5.373 0 9.883 -1.695 13.529 -5.086 3.645 -3.391 5.469 -8.305 5.469 -14.744 v -60.06 h 14.14 v 61.66 c 0 9.723 -3.221 17.537 -9.66 23.443 -6.439 5.906 -14.264 8.859 -23.475 8.859 -9.254 0 -17.09 -2.953 -23.506 -8.859 -6.418 -5.906 -9.627 -13.721 -9.627 -23.443 z m -81.36 -15.03 c 0 -11.215 0.297 -18.443 0.895 -21.686 0.598 -3.24 1.664 -6.225 3.199 -8.955 2.174 -4.051 5.744 -7.867 10.713 -11.449 4.969 -3.582 11.12 -5.373 18.455 -5.373 7.291 0 13.42 1.791 18.389 5.373 4.969 3.582 8.582 7.398 10.842 11.449 1.492 2.73 2.537 5.715 3.135 8.955 0.598 3.242 0.896 10.471 0.896 21.686 0 11.215 -0.299 18.443 -0.896 21.684 -0.598 3.242 -1.643 6.227 -3.135 8.955 -2.26 4.094 -5.873 7.9 -10.842 11.418 -4.969 3.52 -11.1 5.277 -18.389 5.277 -7.336 0 -13.486 -1.758 -18.455 -5.277 -4.969 -3.518 -8.539 -7.324 -10.713 -11.418 -1.535 -2.729 -2.602 -5.713 -3.199 -8.955 -0.598 -3.24 -0.895 -10.469 -0.895 -21.684 z m 14.13 0 c 0 9.594 0.33 15.82 0.992 18.678 0.66 2.857 1.908 5.438 3.742 7.738 1.406 1.877 3.326 3.486 5.756 4.83 2.43 1.344 5.309 2.02 8.637 2.02 3.324 0 6.203 -0.672 8.635 -2.02 2.43 -1.344 4.35 -2.953 5.756 -4.83 1.834 -2.301 3.082 -4.881 3.742 -7.738 0.66 -2.857 0.992 -9.08 0.992 -18.678 0 -9.551 -0.332 -15.756 -0.992 -18.613 -0.66 -2.857 -1.908 -5.48 -3.742 -7.869 -1.406 -1.789 -3.326 -3.367 -5.756 -4.732 -2.432 -1.363 -5.311 -2.047 -8.635 -2.047 -3.328 0 -6.207 0.684 -8.637 2.047 -2.43 1.365 -4.35 2.943 -5.756 4.732 -1.834 2.389 -3.082 5.01 -3.742 7.869 -0.662 2.858 -0.992 9.06 -0.992 18.613 z m -93.52 46.567 v -93.2 h 32.623 c 12.75 0 22.22 5.225 28.4 15.672 2.301 3.965 3.709 7.676 4.221 11.129 0.512 3.455 0.768 10.06 0.768 19.83 0 10.49 -0.352 17.494 -1.055 21.01 -0.703 3.52 -2.1 6.898 -4.189 10.139 -2.773 4.35 -6.578 8.01 -11.418 10.971 -4.84 2.965 -10.715 4.445 -17.623 4.445 h -31.727 z m 14.14 -79.83 v 66.52 h 16.951 c 7.76 0 13.516 -2.707 17.27 -8.125 1.535 -2.344 2.504 -4.871 2.91 -7.578 0.406 -2.707 0.609 -8.391 0.609 -17.05 0 -8.357 -0.225 -14.13 -0.672 -17.334 -0.449 -3.199 -1.611 -6.078 -3.486 -8.637 -3.881 -5.201 -9.424 -7.803 -16.631 -7.803 h -16.951 z m 304.22 -168.86 v -93.2 h 14.14 v 79.893 h 45.48 v 13.305 h -59.62 z m -72.79 0 v -93.2 h 14.14 v 79.893 h 45.48 v 13.305 h -59.62 z m -83.02 -46.567 c 0 -11.215 0.297 -18.443 0.895 -21.686 0.598 -3.24 1.664 -6.225 3.199 -8.955 2.174 -4.051 5.744 -7.867 10.713 -11.449 4.969 -3.582 11.12 -5.373 18.455 -5.373 7.291 0 13.42 1.791 18.389 5.373 4.969 3.582 8.582 7.398 10.842 11.449 1.492 2.73 2.537 5.715 3.135 8.955 0.598 3.242 0.896 10.471 0.896 21.686 0 11.215 -0.299 18.443 -0.896 21.684 -0.598 3.242 -1.643 6.227 -3.135 8.955 -2.26 4.094 -5.873 7.9 -10.842 11.418 -4.969 3.52 -11.1 5.277 -18.389 5.277 -7.336 0 -13.486 -1.758 -18.455 -5.277 -4.969 -3.518 -8.539 -7.324 -10.713 -11.418 -1.535 -2.729 -2.602 -5.713 -3.199 -8.955 -0.598 -3.24 -0.895 -10.469 -0.895 -21.684 z m 14.13 0 c 0 9.594 0.33 15.82 0.992 18.678 0.66 2.857 1.908 5.438 3.742 7.738 1.406 1.877 3.326 3.486 5.756 4.83 2.43 1.344 5.309 2.02 8.637 2.02 3.324 0 6.203 -0.672 8.635 -2.02 2.43 -1.344 4.35 -2.953 5.756 -4.83 1.834 -2.301 3.082 -4.881 3.742 -7.738 0.66 -2.857 0.992 -9.08 0.992 -18.678 0 -9.551 -0.332 -15.756 -0.992 -18.613 -0.66 -2.857 -1.908 -5.48 -3.742 -7.869 -1.406 -1.789 -3.326 -3.367 -5.756 -4.732 -2.432 -1.363 -5.311 -2.047 -8.635 -2.047 -3.328 0 -6.207 0.684 -8.637 2.047 -2.43 1.365 -4.35 2.943 -5.756 4.732 -1.834 2.389 -3.082 5.01 -3.742 7.869 -0.662 2.858 -0.992 9.06 -0.992 18.613 z m -84.56 46.567 v -11.77 l 42.35 -68.891 h -40.617 v -12.537 h 57.887 v 10.617 l -42.473 69.27 h 42.473 v 13.305 h -59.62 z m -54.58 77.56 c 0 27.614 -22.386 50 -50 50 -27.614 0 -50 -22.386 -50 -50 0 -27.614 22.386 -50 50 -50 27.614 0 50 22.386 50 50 z m -50 -50 h 494 v 100 h -494 z m 544 50 c 0 27.614 -22.386 50 -50 50 -27.614 0 -50 -22.386 -50 -50 0 -27.614 22.386 -50 50 -50 27.614 0 50 22.386 50 50 z"/></svg>