<?xml version="1.0" encoding="UTF-8" standalone="no"?>
<!-- Created with Inkscape (http://www.inkscape.org/) -->

<svg
   xmlns:dc="http://purl.org/dc/elements/1.1/"
   xmlns:cc="http://creativecommons.org/ns#"
   xmlns:rdf="http://www.w3.org/1999/02/22-rdf-syntax-ns#"
   xmlns:svg="http://www.w3.org/2000/svg"
   xmlns="http://www.w3.org/2000/svg"
   xmlns:sodipodi="http://sodipodi.sourceforge.net/DTD/sodipodi-0.dtd"
   xmlns:inkscape="http://www.inkscape.org/namespaces/inkscape"
   version="1.0"
   width="720"
   height="1040"
   id="svg2"
   inkscape:version="0.48.1 r9760"
   sodipodi:docname="Zeichen_393.svg">
  <metadata
     id="metadata45">
    <rdf:RDF>
      <cc:Work
         rdf:about="">
        <dc:format>image/svg+xml</dc:format>
        <dc:type
           rdf:resource="http://purl.org/dc/dcmitype/StillImage" />
        <dc:title></dc:title>
      </cc:Work>
    </rdf:RDF>
  </metadata>
  <sodipodi:namedview
     pagecolor="#ffffff"
     bordercolor="#666666"
     borderopacity="1"
     objecttolerance="10"
     gridtolerance="10"
     guidetolerance="10"
     inkscape:pageopacity="0"
     inkscape:pageshadow="2"
     inkscape:window-width="785"
     inkscape:window-height="871"
     id="namedview43"
     showgrid="false"
     inkscape:zoom="0.64482102"
     inkscape:cx="385.59322"
     inkscape:cy="248.98305"
     inkscape:window-x="0"
     inkscape:window-y="0"
     inkscape:window-maximized="0"
     inkscape:current-layer="svg2" />
  <defs
     id="defs4" />
  <path
     d="M 1.935956,32.498957 L 2.1479296,1010.6087 C 2.2165738,1023.3792 17.682904,1038.0082 35.735822,1038.0922 L 688.15292,1037.9336 C 701.17847,1037.9336 718.46253,1022.4162 718.46253,1008.8425 L 718.46253,30.874174 C 718.46253,16.923715 702.1632,2.2034418 688.49229,2.2034418 L 31.087022,2.6273891 C 16.212349,2.6273891 1.935956,17.569666 1.935956,32.498957 z "
     style="fill:white;fill-opacity:1;fill-rule:evenodd;stroke:black;stroke-width:2;stroke-linecap:butt;stroke-linejoin:miter;stroke-miterlimit:4;stroke-dasharray:none;stroke-opacity:1"
     id="path3713" />
  <path
     d="M 18.216759,30.267316 L 18.071118,1011.3473 C 18.071118,1016.7788 25.250543,1021.055 31.274183,1021.055 L 688.60415,1020.7637 C 695.3523,1020.7637 702.05664,1013.0345 702.05664,1005.2622 L 701.76536,33.668931 C 701.76536,23.630563 695.70123,19.041283 689.44618,19.041283 L 29.734071,18.895643 C 24.215397,18.895643 18.216759,22.369712 18.216759,30.267316 z "
     style="fill:#154889;fill-opacity:1;fill-rule:evenodd;stroke:none;stroke-width:1px;stroke-linecap:butt;stroke-linejoin:miter;stroke-opacity:1"
     id="path4600" />
  <g
     transform="matrix(0.343441,0,0,0.343441,421.322,763.987)"
     style="fill:#039;fill-opacity:1"
     id="g5608">
    <path
       d="M 490.159,441.924 C 490.159,468.708 474.782,490.5 455.901,490.5 L 44.417,490.5 C 25.536,490.5 10.159,468.708 10.159,441.924 L 10.159,59.076 C 10.159,32.292 25.536,10.5 44.417,10.5 L 455.901,10.5 C 474.782,10.5 490.159,32.292 490.159,59.076 L 490.159,441.924 L 490.159,441.924 z "
       style="fill:#039;fill-opacity:1;stroke:white;stroke-width:2"
       id="path5610" />
  </g>
  <path
     d="M 72.927279,736.15304 L 72.927279,965.61743 L 647.07272,965.61743 L 647.07272,735.3672 L 72.927279,736.15304 z "
     style="fill:white;fill-opacity:1;fill-rule:evenodd;stroke:none;stroke-width:1px;stroke-linecap:butt;stroke-linejoin:miter;stroke-opacity:1"
     id="path4606" />
  <path
     d="M 424.81102,784.27612 C 424.81102,775.0774 430.09211,767.59313 436.57662,767.59313 L 577.8971,767.59313 C 584.3816,767.59313 589.6627,775.0774 589.6627,784.27612 L 589.6627,915.76182 C 589.6627,924.96054 584.3816,932.44481 577.8971,932.44481 L 436.57662,932.44481 C 430.09211,932.44481 424.81102,924.96054 424.81102,915.76182 L 424.81102,784.27612 L 424.81102,784.27612 z "
     style="fill:#154889;fill-opacity:1"
     id="path5604" />
  <path
     d="M 516.03028,873.46084 L 516.03028,874.95794 C 516.03024,875.53805 516.00934,876.18084 515.96758,876.88631 C 515.92574,877.59181 515.78072,878.56771 515.53251,879.81402 C 514.36975,883.79869 512.1697,887.03607 508.93236,889.52616 C 505.69495,892.01626 502.0016,893.2613 497.85231,893.26131 C 494.53131,893.2613 491.41806,892.26514 488.51254,890.27281 C 485.60699,888.28048 483.69826,886.22609 482.78633,884.10962 C 481.87438,881.99318 481.27276,880.29153 480.98145,879.00467 C 480.69013,877.71784 480.54447,875.8699 480.54448,873.46084 L 480.54448,868.60857 L 492.37308,868.60857 L 492.37308,872.46531 C 492.37306,873.4634 492.39396,874.4393 492.43577,875.39301 C 492.47755,876.34677 492.91326,877.55002 493.74289,879.00277 C 494.57248,880.45555 496.06641,881.18193 498.22468,881.18192 C 500.38291,881.18193 501.91864,880.45555 502.83187,879.00277 C 503.74505,877.55002 504.20165,875.70271 504.20168,873.46084 L 504.20168,860.63671 C 504.20165,858.56209 503.70388,857.10995 502.70838,856.28031 C 501.71282,855.45073 500.73755,854.95297 499.78258,854.78701 C 498.82755,854.62112 497.81049,854.53816 496.73138,854.53812 L 494.61493,854.53812 L 494.61493,844.07743 L 496.73138,844.07743 C 501.71155,844.07748 504.20165,841.75331 504.20168,837.1049 L 504.20168,827.14578 C 504.20165,825.98312 504.13959,825.13198 504.01549,824.59235 C 503.89134,824.05285 503.39357,823.22261 502.52219,822.10162 C 501.65076,820.98077 500.30185,820.4203 498.47546,820.42023 C 496.40078,820.4203 494.86506,821.04283 493.86828,822.28781 C 492.87146,823.53292 492.37306,825.15225 492.37308,827.14578 L 492.37308,833.24436 L 480.54448,833.24436 L 480.54448,827.14578 C 480.54447,821.91487 482.22522,817.53567 485.58674,814.00817 C 488.94823,810.48082 493.24447,808.71711 498.47546,808.71702 C 501.38098,808.71711 504.18265,809.46439 506.8805,810.95887 C 509.57828,812.45352 511.56998,814.19696 512.85559,816.18922 C 514.14113,818.18162 514.99164,820.0283 515.40712,821.72924 C 515.82252,823.43033 516.03024,825.23584 516.03028,827.14578 L 516.03028,836.85792 C 516.03024,842.25361 513.66427,846.36239 508.93236,849.18429 C 511.58961,851.01074 513.43692,852.85741 514.47428,854.72431 C 515.51157,856.59129 516.03024,859.10165 516.03028,862.2554 L 516.03028,873.46084 z "
     style="font-size:124.50997925px;font-style:normal;font-variant:normal;font-weight:normal;font-stretch:normal;text-align:center;line-height:100%;writing-mode:lr-tb;text-anchor:middle;fill:white;fill-opacity:1;stroke:none;stroke-width:1px;stroke-linecap:butt;stroke-linejoin:miter;stroke-opacity:1;font-family:DIN 1451 Engschrift"
     id="text6528" />
  <path
     d="M 72.927284,247.09052 L 72.927284,476.55491 L 647.07272,476.55491 L 647.07272,246.30468 L 72.927284,247.09052 z "
     style="fill:white;fill-opacity:1;fill-rule:evenodd;stroke:none;stroke-width:1px;stroke-linecap:butt;stroke-linejoin:miter;stroke-opacity:1"
     id="path4602" />
  <path
     d="M 72.927282,490.44305 L 72.927282,719.90744 L 647.07272,719.90744 L 647.07272,489.65721 L 72.927282,490.44305 z "
     style="fill:white;fill-opacity:1;fill-rule:evenodd;stroke:none;stroke-width:1px;stroke-linecap:butt;stroke-linejoin:miter;stroke-opacity:1"
     id="path4604" />
  <g
     transform="matrix(0.567378,0,0,0.567378,94.11287,532.267)"
     id="g5518">
    <g
       transform="translate(54.70075,-1.519452)"
       id="g3715">
      <path
         d="M 8.1087066,238.41019 C 7.3827776,234.78055 7.3827776,181.98037 7.3827776,181.98037 L 41.535198,141.04482 L 76.345894,181.98037 L 77.071823,208.83969 L 88.845379,208.99842 L 89.412592,139.87657 L 96.263368,129.71357 L 96.104648,72.172784 L 116.27191,5.5799837 L 136.59789,73.817174 L 136.59789,129.71357 L 143.85716,142.78027 L 143.85716,167.46182 L 163.45719,154.39512 L 212.82028,182.70628 L 212.82028,223.35823 L 222.25734,223.35823 L 222.25734,128.26172 L 229.99275,128.26172 L 229.99275,87.609774 L 236.51485,87.660184 L 236.79845,46.606594 L 271.93783,46.606594 L 271.93783,93.417204 L 279.00458,93.417204 L 279.00458,167.46182 L 291.22046,167.46182 L 291.22046,208.30628 L 303.62888,208.30628 L 303.62888,140.6025 L 332.75705,114.78653 L 359.45764,142.05434 L 359.45764,180.52852 L 387.04289,153.6692 L 414.62814,182.70628 L 415.19534,238.28528 L 8.1087066,238.41019 z "
         style="fill:black;fill-opacity:1;fill-rule:evenodd;stroke:none;stroke-width:1px;stroke-linecap:butt;stroke-linejoin:miter;stroke-opacity:1"
         id="path5521" />
      <path
         d="M -31.082934,287.45892 L 422.41195,59.911622 L 404.07814,22.058488 L -51.813459,248.406 L -31.082934,287.45892 z "
         style="fill:#c1121c;fill-opacity:1;fill-rule:evenodd;stroke:none;stroke-width:1px;stroke-linecap:butt;stroke-linejoin:miter;stroke-opacity:1"
         id="path2828" />
    </g>
  </g>
  <path
     d="M 403.4535,127.71875 C 403.4535,167.18083 350.45941,199.17116 285.08789,199.17116 C 219.71637,199.17116 166.72228,167.18083 166.72228,127.71875 C 166.72228,88.256675 219.71637,56.266342 285.08789,56.266342 C 350.45941,56.266342 403.4535,88.256675 403.4535,127.71875 L 403.4535,127.71875 z "
     transform="matrix(0.944536,0,0,1.014285,90.72422,3.526685)"
     style="opacity:1;fill:white;fill-opacity:1;fill-rule:nonzero;stroke:none;stroke-width:2;stroke-linecap:round;stroke-linejoin:round;stroke-miterlimit:4;stroke-dasharray:none;stroke-dashoffset:0;stroke-opacity:1"
     id="path4608" />
  <path
     d="M 329.24264,183.14056 L 329.24264,82.1745 L 364.58423,82.1745 C 378.39741,82.174601 388.65339,87.833869 395.35219,99.15232 C 397.84681,103.44883 399.37135,107.46806 399.92581,111.21004 C 400.48011,114.95216 400.75729,122.11286 400.75738,132.69218 C 400.75729,144.05696 400.37616,151.645 399.61397,155.45631 C 398.85162,159.26769 397.33863,162.92889 395.075,166.43992 C 392.07205,171.15215 387.94887,175.11364 382.70545,178.3244 C 377.4619,181.53517 371.09811,183.14056 363.61406,183.14056 L 329.24264,183.14056 z M 344.55733,96.65762 L 344.55733,168.72673 L 362.92109,168.72673 C 371.3291,168.72675 377.56585,165.79317 381.63134,159.92599 C 383.29441,157.38511 384.34542,154.64788 384.78437,151.71426 C 385.22318,148.78072 385.44262,142.62482 385.44269,133.24655 C 385.44262,124.19178 385.20008,117.93193 384.71507,114.46701 C 384.22992,111.00222 382.97102,107.88385 380.93837,105.11188 C 376.73428,99.475791 370.72853,96.657706 362.92109,96.65762 L 344.55733,96.65762 z "
     style="font-size:141.92071533px;font-style:normal;font-variant:normal;font-weight:normal;font-stretch:normal;text-align:center;line-height:100%;writing-mode:lr-tb;text-anchor:middle;fill:black;fill-opacity:1;stroke:none;stroke-width:1px;stroke-linecap:butt;stroke-linejoin:miter;stroke-opacity:1;font-family:DIN 1451 Mittelschrift"
     id="text5495" />
  <g
     transform="matrix(0.561093,0,0,0.561093,126.9145,286.7313)"
     id="layer1">
    <path
       d="M 8.1087066,238.41019 C 7.3827776,234.78055 7.3827776,181.98037 7.3827776,181.98037 L 41.535198,141.04482 L 76.345894,181.98037 L 77.071823,208.83969 L 88.845379,208.99842 L 89.412592,139.87657 L 96.263368,129.71357 L 96.104648,72.172784 L 116.27191,5.5799837 L 136.59789,73.817174 L 136.59789,129.71357 L 143.85716,142.78027 L 143.85716,167.46182 L 163.45719,154.39512 L 212.82028,182.70628 L 212.82028,223.35823 L 222.25734,223.35823 L 222.25734,128.26172 L 229.99275,128.26172 L 229.99275,87.609774 L 236.51485,87.660184 L 236.79845,46.606594 L 271.93783,46.606594 L 271.93783,93.417204 L 279.00458,93.417204 L 279.00458,167.46182 L 291.22046,167.46182 L 291.22046,208.30628 L 303.62888,208.30628 L 303.62888,140.6025 L 332.75705,114.78653 L 359.45764,142.05434 L 359.45764,180.52852 L 387.04289,153.6692 L 414.62814,182.70628 L 415.19534,238.28528 L 8.1087066,238.41019 z "
       style="fill:black;fill-opacity:1;fill-rule:evenodd;stroke:none;stroke-width:1px;stroke-linecap:butt;stroke-linejoin:miter;stroke-opacity:1"
       id="path1924" />
  </g>
  <g
     transform="matrix(0.343441,0,0,0.343441,159.9953,761.0958)"
     id="XMLID_3_">
    <g
       id="g5537">
      <polygon
         points="338.626,235.812 410.256,454.308 270.986,454.308 263.784,235.812 338.626,235.812 "
         style="fill:white"
         id="polygon5539" />
      <polygon
         points="257.166,48.516 280.427,48.516 323.055,182.052 262.422,182.148 257.166,48.516 "
         style="fill:white"
         id="polygon5541" />
      <polygon
         points="244.417,48.516 239.454,182.148 177.653,182.82 221.643,48.516 244.417,48.516 "
         style="fill:white"
         id="polygon5543" />
      <polygon
         points="236.145,236.58 229.526,453.54 89.575,454.308 160.622,236.58 236.145,236.58 "
         style="fill:white"
         id="polygon5545" />
      <path
         d="M 410.256,454.308 L 338.626,235.812 L 263.784,235.812 L 270.986,454.308 L 410.256,454.308 z M 10.159,59.076 C 10.159,32.292 25.536,10.5 44.417,10.5 L 455.901,10.5 C 474.782,10.5 490.159,32.292 490.159,59.076 L 490.159,441.924 C 490.159,468.708 474.782,490.5 455.901,490.5 L 44.417,490.5 C 25.536,490.5 10.159,468.708 10.159,441.924 L 10.159,59.076 L 10.159,59.076 z M 236.145,236.58 L 160.622,236.58 L 89.575,454.308 L 229.526,453.54 L 236.145,236.58 z M 438.772,197.028 L 62.713,196.932 L 62.421,213.54 L 102.324,213.828 L 102.129,236.676 L 138.917,236.58 L 138.917,213.252 L 361.886,213.54 L 361.886,236.964 L 398.48,237.06 L 398.48,213.252 L 438.772,213.252 L 438.772,197.028 L 438.772,197.028 z M 239.454,182.148 L 244.417,48.516 L 221.643,48.516 L 177.653,182.82 L 239.454,182.148 z M 262.422,182.148 L 323.055,182.052 L 280.427,48.516 L 257.166,48.516 L 262.422,182.148 z "
         style="fill:#154889;fill-opacity:1"
         id="path5547" />
      <polygon
         points="138.918,213.252 138.918,236.58 102.13,236.676 102.325,213.828 62.422,213.54 62.714,196.932 438.772,197.028 438.772,213.252 398.48,213.252 398.48,237.06 361.887,236.964 361.887,213.54 138.918,213.252 "
         style="fill:white"
         id="polygon5549" />
    </g>
    <g
       id="g5551">
      <path
         d="M 490.159,441.924 C 490.159,468.708 474.782,490.5 455.901,490.5 L 44.417,490.5 C 25.536,490.5 10.159,468.708 10.159,441.924 L 10.159,59.076 C 10.159,32.292 25.536,10.5 44.417,10.5 L 455.901,10.5 C 474.782,10.5 490.159,32.292 490.159,59.076 L 490.159,441.924 L 490.159,441.924 z "
         style="fill:none;stroke:white;stroke-width:2"
         id="path5553" />
    </g>
  </g>
  <path
     d="M 457.15154,893.20007 L 457.15154,822.60465 L 445.32294,831.44285 L 445.32294,818.8695 L 457.15154,810.15289 L 468.97634,810.15289 L 468.97634,893.20007 L 457.15154,893.20007 z "
     style="font-size:124.50997925px;font-style:normal;font-variant:normal;font-weight:normal;font-stretch:normal;text-align:center;line-height:100%;writing-mode:lr-tb;text-anchor:middle;fill:white;fill-opacity:1;stroke:none;stroke-width:1px;stroke-linecap:butt;stroke-linejoin:miter;stroke-opacity:1;font-family:DIN 1451 Engschrift"
     id="text6524" />
  <path
     d="M 466.01202,641.95782 L 466.01202,582.15597 L 455.99194,589.64287 L 455.99194,578.9919 L 466.01202,571.608 L 476.02889,571.608 L 476.02889,641.95782 L 466.01202,641.95782 z "
     style="font-size:105.47323608px;font-style:normal;font-variant:normal;font-weight:normal;font-stretch:normal;text-align:center;line-height:100%;writing-mode:lr-tb;text-anchor:middle;fill:black;fill-opacity:1;stroke:none;stroke-width:1px;stroke-linecap:butt;stroke-linejoin:miter;stroke-opacity:1;font-family:DIN 1451 Engschrift"
     id="text6536" />
  <path
     d="M 462.52085,364.31342 L 462.52085,326.01053 L 500.24045,326.01053 L 500.24045,336.16955 L 472.09658,336.16955 L 472.09658,352.16149 C 475.33707,349.56913 479.11227,348.27292 483.42218,348.27287 C 486.11178,348.27292 488.56646,348.7914 490.78625,349.82832 C 493.00596,350.86533 494.76394,352.08052 496.06019,353.4739 C 498.00445,355.58028 499.42218,357.87294 500.31336,360.35189 C 501.20446,362.83092 501.65003,367.00308 501.65007,372.86838 C 501.65003,377.63196 501.30168,381.17222 500.60501,383.48917 C 499.90826,385.80615 498.79838,387.93679 497.27538,389.88109 C 495.81711,391.72819 493.77559,393.44566 491.15081,395.03351 C 488.52596,396.62136 485.44747,397.41529 481.91534,397.41529 C 477.34619,397.41529 472.93909,396.00566 468.69403,393.18641 C 464.44895,390.36717 461.95376,385.65223 461.20844,379.04157 L 471.36746,379.04157 C 472.56643,384.55045 475.95277,387.30489 481.52647,387.30488 C 486.48443,387.30489 489.38469,385.60362 490.22726,382.20107 C 491.06976,378.79854 491.49103,375.42841 491.49106,372.09066 C 491.49103,368.16966 490.82672,364.91295 489.49814,362.32051 C 488.1695,359.72813 485.41507,358.43193 481.23483,358.43189 C 477.31378,358.43193 474.2677,360.39244 472.09658,364.31342 L 462.52085,364.31342 z M 539.22385,376.46536 L 539.22385,346.37717 C 539.22382,342.97468 538.30837,340.31746 536.47751,338.4055 C 534.64659,336.49366 532.24051,335.53771 529.25926,335.53765 C 526.24556,335.53771 523.83138,336.49366 522.01671,338.4055 C 520.20201,340.31746 519.29467,342.97468 519.29468,346.37717 L 519.29468,376.46536 C 519.29467,379.90032 520.20201,382.56564 522.01671,384.46133 C 523.83138,386.35704 526.24556,387.30489 529.25926,387.30488 C 532.24051,387.30489 534.64659,386.35704 536.47751,384.46133 C 538.30837,382.56564 539.22382,379.90032 539.22385,376.46536 L 539.22385,376.46536 z M 509.13566,377.04865 L 509.13566,345.79388 C 509.13566,339.2805 511.17718,334.2496 515.26024,330.70118 C 519.34327,327.15288 524.00961,325.3787 529.25926,325.37863 C 534.47647,325.3787 539.1347,327.15288 543.23399,330.70118 C 547.3332,334.2496 549.38282,339.2805 549.38286,345.79388 L 549.38286,377.04865 C 549.38282,383.5621 547.3332,388.58489 543.23399,392.11704 C 539.1347,395.64921 534.47647,397.41529 529.25926,397.41529 C 524.00961,397.41529 519.34327,395.64921 515.26024,392.11704 C 511.17718,388.58489 509.13566,383.5621 509.13566,377.04865 L 509.13566,377.04865 z "
     style="font-size:99.54862976px;font-style:normal;font-variant:normal;font-weight:normal;font-stretch:normal;text-align:center;line-height:100%;writing-mode:lr-tb;text-anchor:middle;fill:black;fill-opacity:1;stroke:none;stroke-width:1px;stroke-linecap:butt;stroke-linejoin:miter;stroke-opacity:1;font-family:DIN 1451 Mittelschrift"
     id="text6544" />
  <circle
     cx="362.5"
     cy="362.5"
     r="290"
     transform="matrix(0.241168,0,0,0.241168,418.4058,273.6624)"
     style="fill:none;stroke:#c1121c;stroke-width:93.75000000000000000;stroke-opacity:1"
     id="circle6" />
  <circle
     cx="362.5"
     cy="362.5"
     r="290"
     transform="matrix(0.241168,0,0,0.241168,418.0082,519.0147)"
     style="fill:none;stroke:#c1121c;stroke-width:93.75000000000000000;stroke-opacity:1"
     id="circle7447" />
  <g
     id="g9238">
    <path
       d="M 486.30606,578.04749 C 489.40038,573.54769 493.5848,571.29776 498.85934,571.29769 C 500.82707,571.29776 502.77765,571.68455 504.71109,572.45806 C 506.64448,573.23171 508.24422,574.28694 509.5103,575.62374 L 512.67437,579.84035 C 513.16789,581.03566 513.5021,582.12575 513.67702,583.11064 C 513.85188,584.09565 513.93932,585.43144 513.93936,587.11803 L 513.93936,626.77672 C 513.93932,629.02773 513.7462,630.90911 513.35997,632.42086 C 512.97369,633.93263 511.70817,636.05971 509.56341,638.80211 C 507.4186,641.54451 503.92032,642.91572 499.06856,642.91572 C 497.02997,642.91572 495.09656,642.51122 493.2683,641.70223 C 491.44002,640.89325 489.82312,639.75058 488.41759,638.27423 L 485.46274,633.84517 C 485.25244,633.42245 484.93646,632.64833 484.51481,631.52282 C 484.09314,630.39733 483.88231,628.88611 483.88232,626.98916 L 483.88232,587.11803 C 483.88231,585.15034 484.04003,583.49856 484.35548,582.16271 C 484.67092,580.82697 485.32111,579.45523 486.30606,578.04749 L 486.30606,578.04749 z M 504.02549,586.38093 C 504.02547,585.04412 503.51583,583.86604 502.49657,582.8467 C 501.47726,581.82748 500.22945,581.31784 498.75312,581.31778 C 497.27675,581.31784 496.09921,581.86289 495.2205,582.95292 C 494.34175,584.04308 493.90239,585.43144 493.9024,587.11803 L 493.9024,613.27712 L 504.02549,588.8079 L 504.02549,586.38093 z M 493.9024,625.19629 L 493.9024,626.6705 C 493.90239,627.86575 494.16579,629.18438 494.69262,630.62639 C 495.21941,632.06841 496.64265,632.78942 498.96234,632.78941 C 499.94727,632.78942 500.86194,632.50831 501.70635,631.94609 C 502.55073,631.38388 503.14835,630.71599 503.49922,629.94239 C 503.85004,629.16882 504.02547,628.25415 504.02549,627.19838 L 504.02549,600.93629 L 493.9024,625.19629 z M 523.3865,578.04749 C 526.48082,573.54769 530.66524,571.29776 535.93977,571.29769 C 537.9075,571.29776 539.85808,571.68455 541.79152,572.45806 C 543.72492,573.23171 545.32465,574.28694 546.59074,575.62374 L 549.75481,579.84035 C 550.24832,581.03566 550.58254,582.12575 550.75746,583.11064 C 550.93231,584.09565 551.01976,585.43144 551.01979,587.11803 L 551.01979,626.77672 C 551.01976,629.02773 550.82663,630.90911 550.44041,632.42086 C 550.05412,633.93263 548.7886,636.05971 546.64385,638.80211 C 544.49903,641.54451 541.00075,642.91572 536.14899,642.91572 C 534.11041,642.91572 532.17699,642.51122 530.34873,641.70223 C 528.52045,640.89325 526.90355,639.75058 525.49802,638.27423 L 522.54317,633.84517 C 522.33288,633.42245 522.0169,632.64833 521.59524,631.52282 C 521.17358,630.39733 520.96275,628.88611 520.96275,626.98916 L 520.96275,587.11803 C 520.96275,585.15034 521.12047,583.49856 521.43591,582.16271 C 521.75135,580.82697 522.40154,579.45523 523.3865,578.04749 L 523.3865,578.04749 z M 541.10592,586.38093 C 541.1059,585.04412 540.59626,583.86604 539.577,582.8467 C 538.55769,581.82748 537.30988,581.31784 535.83355,581.31778 C 534.35718,581.31784 533.17964,581.86289 532.30093,582.95292 C 531.42219,584.04308 530.98282,585.43144 530.98284,587.11803 L 541.10592,586.38093 z M 530.98284,626.6705 C 530.98282,627.86575 531.24623,629.18438 531.77305,630.62639 C 532.29984,632.06841 533.72308,632.78942 536.04277,632.78941 C 537.0277,632.78942 537.94237,632.50831 538.78679,631.94609 C 539.63116,631.38388 540.22878,630.71599 540.57965,629.94239 C 540.93048,629.16882 541.1059,628.25415 541.10592,627.19838 L 530.98284,626.6705 z "
       style="font-size:105.47323608px;font-style:normal;font-variant:normal;font-weight:normal;font-stretch:normal;text-align:center;line-height:100%;writing-mode:lr-tb;text-anchor:middle;fill:black;fill-opacity:1;stroke:none;stroke-width:1px;stroke-linecap:butt;stroke-linejoin:miter;stroke-opacity:1;font-family:DIN 1451 Engschrift"
       id="text6540" />
    <path
       d="M 530.9716,587.05947 L 530.9716,626.83729 L 541.2279,627.39169 L 541.2279,586.22788 L 530.9716,587.05947 z "
       style="fill:white;fill-opacity:1;fill-rule:evenodd;stroke:none;stroke-width:1px;stroke-linecap:butt;stroke-linejoin:miter;stroke-opacity:1"
       id="path8336" />
    <path
       d="M 493.68855,586.15858 L 493.68855,625.9364 L 503.94485,626.4908 L 503.94485,585.32699 L 493.68855,586.15858 z "
       style="fill:white;fill-opacity:1;fill-rule:evenodd;stroke:none;stroke-width:1px;stroke-linecap:butt;stroke-linejoin:miter;stroke-opacity:1"
       id="path8338" />
  </g>
  <g
     id="g9234">
    <path
       d="M 529.06139,816.40896 C 532.7142,811.097 537.65386,808.44098 543.88038,808.4409 C 546.20327,808.44098 548.50591,808.89759 550.78832,809.81071 C 553.07066,810.72399 554.95914,811.96968 556.45373,813.54776 L 560.18888,818.52542 C 560.77147,819.93646 561.16601,821.22331 561.3725,822.38596 C 561.57891,823.54875 561.68214,825.12564 561.68218,827.11664 L 561.68218,873.93327 C 561.68214,876.59057 561.45416,878.81152 560.99823,880.59612 C 560.54222,882.38074 559.04829,884.89174 556.51643,888.12911 C 553.9845,891.36649 549.85482,892.98518 544.12737,892.98518 C 541.72084,892.98518 539.43847,892.50768 537.28023,891.55268 C 535.12196,890.59768 533.21323,889.24877 531.55402,887.50595 L 528.06585,882.27751 C 527.8176,881.77848 527.44459,880.86465 526.94683,879.53599 C 526.44906,878.20736 526.20018,876.42339 526.20018,874.18405 L 526.20018,827.11664 C 526.20018,824.7938 526.38636,822.8439 526.75874,821.26693 C 527.13111,819.69011 527.89866,818.07079 529.06139,816.40896 L 529.06139,816.40896 z M 549.97897,826.2465 C 549.97894,824.6684 549.37732,823.2777 548.17409,822.07438 C 546.97082,820.8712 545.49778,820.26957 543.75499,820.2695 C 542.01216,820.26957 540.62209,820.91299 539.58477,822.19977 C 538.54743,823.48669 538.02876,825.12564 538.02878,827.11664 L 538.02878,857.99715 L 549.97897,829.1115 L 549.97897,826.2465 z M 538.02878,872.0676 L 538.02878,873.80788 C 538.02876,875.21887 538.33971,876.77549 538.96162,878.47776 C 539.58349,880.18006 541.26361,881.0312 544.00198,881.03119 C 545.16467,881.0312 546.24443,880.69936 547.24126,880.03566 C 548.23803,879.37198 548.94351,878.58354 549.35771,877.67032 C 549.77186,876.75713 549.97894,875.67737 549.97897,874.43104 L 549.97897,843.42893 L 538.02878,872.0676 z "
       style="font-size:124.50997925px;font-style:normal;font-variant:normal;font-weight:normal;font-stretch:normal;text-align:center;line-height:100%;writing-mode:lr-tb;text-anchor:middle;fill:white;fill-opacity:1;stroke:none;stroke-width:1px;stroke-linecap:butt;stroke-linejoin:miter;stroke-opacity:1;font-family:DIN 1451 Engschrift"
       id="text6532" />
    <path
       d="M 538.04013,826.8189 L 538.04013,873.15939 L 549.84995,873.80526 L 549.84995,825.85011 L 538.04013,826.8189 z "
       style="fill:#039;fill-opacity:1;fill-rule:evenodd;stroke:none;stroke-width:1px;stroke-linecap:butt;stroke-linejoin:miter;stroke-opacity:1"
       id="path8341" />
  </g>
</svg>
