<?xml version="1.0" encoding="UTF-8" standalone="no"?>
<!-- Generator: Adobe Illustrator 15.0.0, SVG Export Plug-In . SVG Version: 6.00 Build 0)  -->

<svg
   xmlns:dc="http://purl.org/dc/elements/1.1/"
   xmlns:cc="http://creativecommons.org/ns#"
   xmlns:rdf="http://www.w3.org/1999/02/22-rdf-syntax-ns#"
   xmlns:svg="http://www.w3.org/2000/svg"
   xmlns="http://www.w3.org/2000/svg"
   xmlns:sodipodi="http://sodipodi.sourceforge.net/DTD/sodipodi-0.dtd"
   xmlns:inkscape="http://www.inkscape.org/namespaces/inkscape"
   version="1.1"
   id="Ebene_1"
   x="0px"
   y="0px"
   width="851.865px"
   height="212.554px"
   viewBox="0 0 851.865 212.554"
   enable-background="new 0 0 851.865 212.554"
   xml:space="preserve"
   inkscape:version="0.48.1 r9760"
   sodipodi:docname="Zeichen_415.svg"><metadata
   id="metadata3856"><rdf:RDF><cc:Work
       rdf:about=""><dc:format>image/svg+xml</dc:format><dc:type
         rdf:resource="http://purl.org/dc/dcmitype/StillImage" /><dc:title></dc:title></cc:Work></rdf:RDF></metadata><defs
   id="defs3854">
	
	
	
	
	
	
	
	
	
	
	
	
	
	
	
	
	
	
	

	
	
	
	
	
	
	
	
	
	
	
	
	
	
	
	
	
	
	
</defs><sodipodi:namedview
   pagecolor="#ffffff"
   bordercolor="#666666"
   borderopacity="1"
   objecttolerance="10"
   gridtolerance="10"
   guidetolerance="10"
   inkscape:pageopacity="0"
   inkscape:pageshadow="2"
   inkscape:window-width="674"
   inkscape:window-height="865"
   id="namedview3852"
   showgrid="false"
   inkscape:zoom="0.78680936"
   inkscape:cx="181.89448"
   inkscape:cy="112.34659"
   inkscape:window-x="604"
   inkscape:window-y="0"
   inkscape:window-maximized="0"
   inkscape:current-layer="Ebene_1" />
<path
   style="fill:#f0c900;fill-rule:evenodd;fill-opacity:1"
   inkscape:connector-curvature="0"
   id="path3814"
   d="m 179.4,-0.012 c -13.3,0 -26.5,3.541 -38.1,10.242 L 12.98,84.3 C 5.233,88.78 0.414,97.11 0.414,106.1 c 0,8.9 4.819,17.2 12.566,21.7 l 128.32,74.1 c 11.6,6.7 24.7,10.2 38.1,10.2 h 646.9 c 13.9,0 25.2,-11.3 25.2,-25.1 V 25.14 c 0,-13.86 -11.3,-25.151 -25.2,-25.151"
   clip-rule="evenodd" /><path
   style="fill-rule:evenodd"
   inkscape:connector-curvature="0"
   id="path3818"
   d="M 826.3,206.1 H 179.4 c -12.3,0 -24.4,-3.2 -35.1,-9.3 L 15.96,122.7 c -5.92,-3.5 -9.592,-9.8 -9.592,-16.6 0,-6.88 3.672,-13.21 9.592,-16.65 L 144.3,15.37 C 155,9.213 167.1,5.965 179.4,5.965 h 646.9 c 10.6,0 19.2,8.575 19.2,19.175 V 187 c 0,10.6 -8.6,19.1 -19.2,19.1"
   clip-rule="evenodd" /><path
   style="fill:#f0ca00;fill-rule:evenodd;fill-opacity:1"
   inkscape:connector-curvature="0"
   id="path3820"
   d="M 826.3,195.5 H 179.4 c -10.5,0 -20.7,-2.7 -29.8,-8 L 21.29,113.4 c -2.65,-1.5 -4.26,-4.3 -4.26,-7.3 0,-3.1 1.61,-5.9 4.26,-7.41 L 149.6,24.59 c 9.1,-5.22 19.3,-7.97 29.8,-7.97 h 646.9 c 4.7,0 8.5,3.81 8.5,8.51 V 187 c 0,4.7 -3.8,8.5 -8.5,8.5"
   clip-rule="evenodd" /><path
   inkscape:connector-curvature="0"
   id="path3816"
   d="M 826.3,-0.426 H 179.4 c -13.4,0 -26.7,3.541 -38.3,10.283 L 12.76,83.93 C 4.864,88.5 0,96.93 0,106.1 c 0,9.1 4.864,17.5 12.76,22.1 l 128.34,74.1 c 11.6,6.7 24.9,10.3 38.3,10.3 h 646.9 c 14.1,0 25.6,-11.5 25.6,-25.6 V 25.14 c 0,-14.12 -11.5,-25.566 -25.6,-25.566 M 179.4,211.7 c -13.3,0 -26.4,-3.5 -37.9,-10.2 L 13.19,127.5 C 5.571,123.1 0.843,114.9 0.843,106.1 0.843,97.28 5.571,89.07 13.19,84.66 L 141.5,10.59 C 153,3.949 166.1,0.424 179.4,0.424 H 826.3 C 839.9,0.424 851,11.5 851,25.13 V 187 c 0,13.6 -11.1,24.7 -24.7,24.7 H 179.4 z" /><path
   style="fill-rule:evenodd"
   inkscape:connector-curvature="0"
   id="path3822"
   d="M 159.3,129.1 V 83.06 C 159.3,77.51 163.8,73 169.4,73 h 94.9 c 5.5,0 10,4.51 10,10.06 v 46.04 c 0,5.5 -4.5,10 -10,10 h -94.9 c -5.6,0 -10.1,-4.5 -10.1,-10"
   clip-rule="evenodd" /><path
   style="fill:#f0c900;fill-rule:evenodd;fill-opacity:1"
   inkscape:connector-curvature="0"
   id="path3824"
   d="M 163.7,129.1 V 83.06 c 0,-3.18 2.5,-5.76 5.7,-5.76 h 94.9 c 3.2,0 5.7,2.58 5.7,5.76 v 46.04 c 0,3.1 -2.5,5.7 -5.7,5.7 h -94.9 c -3.2,0 -5.7,-2.6 -5.7,-5.7"
   clip-rule="evenodd" /><path
   style="fill-rule:evenodd"
   inkscape:connector-curvature="0"
   id="path3826"
   d="m 246.6,120.8 c 3.4,0 6.1,-2.7 6.1,-6.1 V 114 c 0,-3.4 -2.7,-6.1 -6.1,-6.1 H 244 v -5.1 h 2.6 c 3.1,0 5.7,-2.5 5.7,-5.72 0,-3.18 -2.6,-5.75 -5.7,-5.75 -2.8,0 -5.2,1.96 -5.7,4.67 h -5.8 c 0.6,-5.9 5.5,-10.43 11.5,-10.43 6.3,0 11.5,5.15 11.5,11.51 0,3.32 -1.6,6.32 -4.3,8.22 2.9,1.9 4.6,5.2 4.6,8.7 v 0.7 c 0,6.5 -5.3,11.9 -11.8,11.9 -6,0 -11.1,-4.5 -11.8,-10.5 h 5.8 c 0.7,2.8 3.2,4.7 6,4.7 M 192.5,97.08 c 0,-3.18 -2.6,-5.75 -5.8,-5.75 -3.1,0 -5.7,2.57 -5.7,5.75 h -5.8 c 0,-6.36 5.2,-11.51 11.5,-11.51 6.4,0 11.5,5.15 11.5,11.51 0,2.61 -0.8,5.12 -2.5,7.12 l -12.9,16.2 h 15.4 v 5.8 h -23 v -5.4 l 16,-20.2 c 0.8,-0.95 1.3,-2.23 1.3,-3.52 z m 24,23.72 c 3.4,0 6.1,-2.7 6.1,-6.1 V 114 c 0,-3.4 -2.7,-6.1 -6.1,-6.1 H 214 v -5.1 h 2.5 c 3.1,0 5.7,-2.5 5.7,-5.72 0,-3.18 -2.6,-5.75 -5.7,-5.75 -2.8,0 -5.2,1.96 -5.7,4.67 H 205 c 0.6,-5.9 5.5,-10.43 11.5,-10.43 6.3,0 11.5,5.15 11.5,11.51 0,3.32 -1.6,6.32 -4.3,8.22 2.9,1.9 4.6,5.2 4.6,8.7 v 0.7 c 0,6.5 -5.3,11.9 -11.8,11.9 -6,0 -11.1,-4.5 -11.8,-10.5 h 5.8 c 0.7,2.8 3.2,4.7 6,4.7 z"
   clip-rule="evenodd" /><path
   style="fill-rule:evenodd"
   inkscape:connector-curvature="0"
   id="path3828"
   d="m 538.9,54.94 v 4.34 c 2.4,-3.05 6.1,-4.82 10,-4.82 7.2,0 13,5.79 13,12.94 v 25.89 h -7.7 V 69.8 c 0,-4.22 -3.4,-7.66 -7.7,-7.66 -4.2,0 -7.6,3.44 -7.6,7.66 v 23.49 h -7.7 V 54.94 M 305,39.62 h 19.2 c 10.6,0 19.1,8.57 19.1,19.17 v 15.33 c 0,10.57 -8.5,19.17 -19.1,19.17 H 305 V 39.62 z m 8.2,7.67 v 38.33 h 11 c 6.1,0 11,-4.94 11,-11.02 V 58.29 c 0,-6.08 -4.9,-11 -11,-11 h -11 z m 39.7,22.99 v 7.67 c 0,8.73 7.1,15.82 15.8,15.82 8.8,0 15.9,-7.09 15.9,-15.82 v -7.67 c 0,-8.74 -7.1,-15.82 -15.9,-15.82 -8.7,0 -15.8,7.08 -15.8,15.82 z m 7.7,0 c 0,-4.49 3.6,-8.14 8.1,-8.14 4.5,0 8.2,3.65 8.2,8.14 v 7.67 c 0,4.5 -3.7,8.15 -8.2,8.15 -4.5,0 -8.1,-3.65 -8.1,-8.15 v -7.67 z m 42.2,-15.34 v 4.34 c 2.4,-3.05 6.1,-4.82 10,-4.82 3,0 5.9,1.03 8.2,2.89 l -5.5,6.73 c -1.4,-1.26 -3.2,-1.94 -5.1,-1.94 -4.2,0 -7.6,3.44 -7.6,7.66 v 23.49 h -7.7 V 54.94 h 7.7 z m 34.7,14.86 c -2,-0.12 -3.6,-1.81 -3.6,-3.82 0,-1.79 1.2,-3.32 3,-3.75 1.2,-0.29 2.4,-0.44 3.7,-0.44 3.7,0 7.2,1.25 10.1,3.52 l 4.8,-5.99 c -4.2,-3.35 -9.5,-5.18 -14.9,-5.18 -1.9,0 -3.7,0.22 -5.5,0.64 -5.2,1.25 -8.9,5.88 -8.9,11.2 0,6.06 4.8,11.1 10.8,11.47 l 8.2,0.5 c 2,0.14 3.6,1.82 3.6,3.84 0,1.58 -1,3.03 -2.5,3.58 -1.8,0.69 -3.7,1.02 -5.7,1.02 -4.2,0 -8.3,-1.68 -11.3,-4.68 l -5.5,5.44 c 4.5,4.43 10.5,6.91 16.8,6.91 2.9,0 5.7,-0.5 8.4,-1.51 4.5,-1.68 7.4,-5.98 7.4,-10.76 0,-6.09 -4.7,-11.1 -10.8,-11.48 l -8.1,-0.51 z m 38.1,23.49 c -4.8,0 -8.6,-3.87 -8.6,-8.64 V 61.17 h -3.9 V 54.94 H 467 V 43.45 h 7.7 v 11.49 h 5.7 v 6.23 h -5.7 v 22.52 c 0,1.33 1,2.41 2.3,2.41 h 3.4 v 7.19 h -4.8 z m 26.2,-7.78 c 1.3,0.51 2.6,0.77 4,0.77 3.1,0 6.1,-1.37 8.1,-3.73 l 5.9,4.98 c -3.5,4.07 -8.6,6.42 -14,6.42 -2.4,0 -4.7,-0.44 -6.8,-1.32 -6,-2.4 -10,-8.2 -10,-14.68 v -7.67 c 0,-8.74 7.1,-15.82 15.8,-15.82 8.8,0 15.8,7.08 15.8,15.82 v 6.7 h -23.9 v 0.97 c 0,3.33 2,6.33 5.1,7.56 z m 3,-23.37 c -4.5,0 -8.1,3.65 -8.1,8.14 H 513 c 0,-4.49 -3.7,-8.14 -8.2,-8.14 z"
   clip-rule="evenodd" /><path
   style="fill-rule:evenodd"
   inkscape:connector-curvature="0"
   id="path3830"
   d="m 639.5,77.46 c 0,9.01 7.3,16.31 16.3,16.31 9,0 16.3,-7.3 16.3,-16.31 0,-4.79 -2.4,-9.31 -6.3,-12.09 3.3,-2.63 5.3,-6.65 5.3,-10.91 0,-8.45 -6.9,-15.32 -15.3,-15.32 -8.5,0 -15.4,6.87 -15.4,15.32 0,4.26 2,8.28 5.3,10.91 -3.9,2.78 -6.2,7.3 -6.2,12.09 m 16.3,8.64 c -4.8,0 -8.7,-3.86 -8.7,-8.64 0,-4.75 3.9,-8.6 8.7,-8.6 4.7,0 8.6,3.85 8.6,8.6 0,4.78 -3.9,8.64 -8.6,8.64 z m 0,-23.96 c -4.3,0 -7.7,-3.45 -7.7,-7.68 0,-4.22 3.4,-7.67 7.7,-7.67 4.2,0 7.6,3.45 7.6,7.67 0,4.23 -3.4,7.68 -7.6,7.68 z m -32.6,-7.68 c 0,-4.22 -3.4,-7.67 -7.7,-7.67 -4.2,0 -7.6,3.45 -7.6,7.67 h -7.7 c 0,-8.45 6.9,-15.32 15.3,-15.32 8.5,0 15.4,6.87 15.4,15.32 0,3.5 -1.2,6.87 -3.4,9.58 l -17.3,21.58 h 20.7 v 7.67 H 600.2 V 86.1 l 21.3,-26.87 c 1.1,-1.33 1.7,-3.02 1.7,-4.77 z"
   clip-rule="evenodd" /><path
   style="fill-rule:evenodd"
   inkscape:connector-curvature="0"
   id="path3832"
   d="m 637.6,157.6 18.2,-38.8 h 8.6 l -18.2,38.4 h 13.9 v -15.4 h 7.6 v 15.4 h 4.4 v 7.2 h -4.4 v 8.1 h -7.6 v -8.1 h -22.5 m -26.9,-39.8 7.7,-5.8 h 7.7 v 53.7 h -7.7 V 127 l -7.7,5.7 v -8.1 z"
   clip-rule="evenodd" /><path
   style="fill-rule:evenodd"
   inkscape:connector-curvature="0"
   id="path3834"
   d="m 730.8,67.92 c 1.9,-2.28 4.6,-3.59 7.5,-3.59 3.1,0 6,1.46 7.8,3.92 2,-2.48 5.1,-3.92 8.3,-3.92 5.9,0 10.7,4.8 10.7,10.71 v 18.25 h -5.7 V 75.77 c 0,-3.15 -2.5,-5.71 -5.7,-5.71 -3.2,0 -5.7,2.56 -5.7,5.71 v 17.52 h -5.8 V 75.77 c 0,-3.15 -2.5,-5.71 -5.7,-5.71 -3.1,0 -5.7,2.56 -5.7,5.71 v 17.52 h -5.7 V 64.68 h 5.7 M 695.1,53.24 h 5.7 v 25.02 l 11.1,-13.58 h 6.7 L 709,75.77 720.1,93.29 H 713 l -7.6,-13.23 -4.6,5.01 v 8.22 h -5.7 V 53.24 z"
   clip-rule="evenodd" /><path
   style="fill-rule:evenodd"
   inkscape:connector-curvature="0"
   id="path3836"
   d="m 730.8,147.1 c 1.9,-2.2 4.6,-3.5 7.5,-3.5 3.1,0 6,1.4 7.8,3.9 2,-2.5 5.1,-3.9 8.3,-3.9 5.9,0 10.7,4.8 10.7,10.7 v 18.2 h -5.7 V 155 c 0,-3.2 -2.5,-5.7 -5.7,-5.7 -3.2,0 -5.7,2.5 -5.7,5.7 v 17.5 h -5.8 V 155 c 0,-3.2 -2.5,-5.7 -5.7,-5.7 -3.1,0 -5.7,2.5 -5.7,5.7 v 17.5 h -5.7 v -28.6 h 5.7 m -35.7,-11.4 h 5.7 v 25 l 11.1,-13.6 h 6.7 L 709,155 720.1,172.5 H 713 l -7.6,-13.2 -4.6,5 v 8.2 h -5.7 v -40 z"
   clip-rule="evenodd" /><path
   inkscape:connector-curvature="0"
   id="path3838"
   d="m 305.1,119.1 h 20.6 c 4.1,0 6.1,0.4 8.5,1.6 4.7,2.5 7.6,7.6 7.6,13 0,4.7 -2,8.4 -6.2,11.7 4.5,2.7 7.2,7.5 7.2,12.7 0,5.5 -3,10.5 -7.6,13.1 -2.6,1.4 -4.9,1.9 -9.1,1.9 h -21 m 20.8,-31.4 c 4.8,0 8.2,-3.3 8.2,-7.7 0,-4.6 -3.5,-7.8 -8.3,-7.8 h -12.6 v 15.5 h 12.7 z m 0.1,23.6 c 5.5,0 9,-3.1 9,-8.2 0,-3.1 -1.7,-5.9 -4.3,-7.2 -1.2,-0.7 -2.5,-0.9 -4.6,-0.9 h -12.9 v 16.3 H 326 z" /><path
   inkscape:connector-curvature="0"
   id="path3840"
   d="m 349.2,149.6 c 0,-8.5 7.2,-15.6 15.9,-15.6 8.6,0 15.9,7.2 15.9,15.6 v 8.2 c 0,8.7 -7.2,15.8 -15.9,15.8 -8.8,0 -15.9,-7 -15.9,-15.8 m 24.1,-8.2 c 0,-4.2 -3.7,-7.8 -8.2,-7.8 -4.3,0 -8.2,3.6 -8.2,7.8 v 8.2 c 0,4.4 3.7,8.1 8.2,8.1 4.4,0 8.2,-3.8 8.2,-8.1 v -8.2 z" /><path
   inkscape:connector-curvature="0"
   id="path3842"
   d="m 396.6,163.1 c 0,2.2 0.7,2.7 3.4,2.7 h 2.4 v 7.3 h -3.5 c -4.1,0 -6.2,-0.8 -8.2,-3.3 -1.5,-1.8 -1.8,-3.1 -1.8,-6.7 v -22.3 h -3.8 v -6.3 h 3.8 v -11.6 h 7.7 v 11.6 h 5.8 v 6.3 h -5.8" /><path
   inkscape:connector-curvature="0"
   id="path3844"
   d="m 418.9,163.1 c 0,2.2 0.7,2.7 3.4,2.7 h 2.4 v 7.3 h -3.5 c -4.1,0 -6.2,-0.8 -8.2,-3.3 -1.5,-1.8 -1.8,-3.1 -1.8,-6.7 v -22.3 h -3.8 v -6.3 h 3.8 v -11.6 h 7.7 v 11.6 h 5.8 v 6.3 h -5.8" /><path
   inkscape:connector-curvature="0"
   id="path3846"
   d="m 439.8,138.8 c 2.8,-3.1 6.2,-4.8 10.1,-4.8 3,0 6,1 8.3,3 l -5.4,6.7 c -1.8,-1.4 -3.3,-1.9 -5.1,-1.9 -4.6,0 -7.9,3.4 -7.9,8 v 23.3 h -7.7 v -38.6 h 7.7" /><path
   inkscape:connector-curvature="0"
   id="path3848"
   d="m 459.8,149.6 c 0,-8.5 7.2,-15.6 16,-15.6 8.6,0 15.9,7.2 15.9,15.6 v 8.2 c 0,8.7 -7.2,15.8 -15.9,15.8 -8.8,0 -16,-7 -16,-15.8 m 24.2,-8.2 c 0,-4.2 -3.7,-7.8 -8.2,-7.8 -4.4,0 -8.3,3.6 -8.3,7.8 v 8.2 c 0,4.4 3.8,8.1 8.3,8.1 4.4,0 8.2,-3.8 8.2,-8.1 v -8.2 z" /><path
   inkscape:connector-curvature="0"
   id="path3850"
   d="m 506.5,138.8 c 3,-3.2 6.4,-4.8 10.3,-4.8 4.2,0 7.9,2 10.4,5.4 2.1,2.8 2.5,4.2 2.5,8.6 v 11.9 c 0,3.7 -0.4,5.4 -2.1,7.9 -2.5,3.7 -6.4,5.8 -10.8,5.8 -4.1,0 -7.3,-1.5 -10.3,-4.9 v 19.8 h -7.7 v -54 h 7.7 m 15.5,14.9 c 0,-4.3 -3.3,-7.6 -7.7,-7.6 -4.4,0 -7.8,3.3 -7.8,7.6 v 8.4 c 0,4.8 3.3,8.1 7.9,8.1 4.4,0 7.6,-3.4 7.6,-8.1 v -8.4 z" />
</svg>