<?xml version="1.0" encoding="UTF-8" standalone="no"?>
<!-- Created with Inkscape (http://www.inkscape.org/) -->
<svg
   xmlns:svg="http://www.w3.org/2000/svg"
   xmlns="http://www.w3.org/2000/svg"
   version="1.0"
   width="970"
   height="330"
   id="svg2">
  <defs
     id="defs4" />
  <path
     d="M 35.093925,45.493641 L 776.86109,45.173402 C 789.64574,45.813761 960.10076,142.92653 960.10076,142.92653 C 972.40395,151.77456 970.19446,179.27842 959.56483,186.33614 C 959.56483,186.33614 799.58296,285.9879 772.2432,286.33386 L 33.964753,285.63297 C 9.5790333,285.63297 1.6981917,273.95822 1.6981917,256.45003 L 1.9902127,72.660544 C 1.9902127,57.201825 12.687718,45.493641 35.093925,45.493641 z "
     style="fill:#fc3;fill-opacity:1;fill-rule:evenodd;stroke:black;stroke-width:2.05117083;stroke-linecap:butt;stroke-linejoin:miter;stroke-miterlimit:4;stroke-dasharray:none;stroke-opacity:1"
     id="path3669" />
  <path
     d="M 108.67225,181.8638 L 108.67225,113.29138 L 124.39269,113.29138 L 124.39269,180.08547 C 124.39266,187.24624 126.41995,192.71164 130.47457,196.48167 C 134.52913,200.25175 139.54402,202.13677 145.51925,202.13677 C 151.49439,202.13677 156.50927,200.25175 160.56393,196.48167 C 164.61845,192.71164 166.64574,187.24624 166.64581,180.08547 L 166.64581,113.29138 L 182.36625,113.29138 L 182.36625,181.8638 C 182.36617,192.67607 178.7858,201.36617 171.62514,207.93412 C 164.46432,214.50209 155.76237,217.78607 145.51925,217.78607 C 135.22861,217.78607 126.5148,214.50209 119.3778,207.93412 C 112.24075,201.36617 108.67224,192.67607 108.67225,181.8638 L 108.67225,181.8638 z M 206.05599,216.93247 L 206.05599,143.0962 L 220.92283,143.0962 L 220.92283,150.99199 L 221.20736,150.99199 C 225.90213,145.15913 232.3041,142.24268 240.41333,142.2426 C 245.5823,142.24268 249.6843,143.16741 252.71937,145.01679 C 255.75433,146.86633 258.59966,149.14259 261.25536,151.84558 C 267.08821,145.44367 274.86544,142.24268 284.58705,142.2426 C 290.32504,142.24268 295.86157,144.42409 301.19666,148.78685 C 306.53154,153.14975 309.19903,159.50431 309.19915,167.85056 L 309.19915,216.93247 L 294.33231,216.93247 L 294.33231,172.97215 C 294.3322,167.99287 292.93325,164.10426 290.13544,161.3063 C 287.33744,158.50845 283.87564,157.1095 279.74999,157.10944 C 275.48193,157.1095 271.96083,158.50845 269.18671,161.3063 C 266.41245,164.10426 265.02535,167.99287 265.02543,172.97215 L 265.02543,216.93247 L 250.22971,216.93247 L 250.22971,172.97215 C 250.22966,167.99287 248.83071,164.10426 246.03286,161.3063 C 243.2349,158.50845 239.77309,157.1095 235.64741,157.10944 C 231.37937,157.1095 227.85828,158.50845 225.08413,161.3063 C 222.3099,164.10426 220.92281,167.99287 220.92283,172.97215 L 220.92283,216.93247 L 206.05599,216.93247 z M 333.31568,199.07804 L 333.31568,113.29138 L 348.18253,113.29138 L 348.18253,197.86877 C 348.1825,201.28318 350.03197,202.99038 353.73092,202.99036 L 358.78137,202.99036 L 358.78137,216.93247 L 352.23712,216.93247 C 346.83097,216.93247 342.32587,215.61651 338.72181,212.98458 C 335.11772,210.35266 333.31567,205.71714 333.31568,199.07804 L 333.31568,199.07804 z M 432.12209,185.63386 L 386.17004,185.63386 C 386.17002,191.70392 387.81794,196.25644 391.1138,199.29143 C 394.40961,202.32646 398.61832,203.84397 403.73994,203.84396 C 409.85736,203.84397 415.26348,201.47287 419.95831,196.73064 L 430.69943,205.90682 C 427.04787,210.17482 422.934,213.22169 418.35782,215.04744 C 413.78154,216.87319 409.00376,217.78607 404.02447,217.78607 C 396.4369,217.78607 389.08648,215.33198 381.97318,210.42379 C 374.85985,205.5156 371.30319,195.47397 371.3032,180.29887 C 371.30319,165.93001 374.58717,155.99508 381.15515,150.49405 C 387.72309,144.99316 394.58744,142.24268 401.74821,142.2426 C 409.85736,142.24268 416.94696,145.05243 423.01704,150.67188 C 429.08701,156.29147 432.12203,163.86715 432.12209,173.39895 L 432.12209,185.63386 z M 386.17004,173.39895 L 417.32639,173.39895 C 417.08922,167.85061 415.52429,163.60633 412.6316,160.6661 C 409.7388,157.72599 406.11101,156.2559 401.74821,156.25584 C 397.33792,156.2559 393.67456,157.72599 390.75814,160.6661 C 387.84165,163.60633 386.31228,167.85061 386.17004,173.39895 L 386.17004,173.39895 z M 452.25518,216.93247 L 452.25518,143.0962 L 467.12202,143.0962 L 467.12202,216.93247 L 452.25518,216.93247 z M 452.25518,128.15823 L 452.25518,113.29138 L 467.12202,113.29138 L 467.12202,128.15823 L 452.25518,128.15823 z M 491.7365,143.0962 L 491.7365,120.68924 L 506.60333,120.68924 L 506.60333,143.0962 L 517.41558,143.0962 L 517.41558,154.47751 L 506.60333,154.47751 L 506.60333,197.44197 C 506.60331,201.14092 508.35793,202.99038 511.86719,202.99036 L 517.41558,202.99036 L 517.41558,216.93247 L 509.66207,216.93247 C 504.49303,216.93247 500.21319,215.36754 496.82252,212.23768 C 493.43182,209.10782 491.73649,204.62643 491.7365,198.7935 L 491.7365,154.47751 L 484.33864,154.47751 L 484.33864,143.0962 L 491.7365,143.0962 z M 535.34353,192.17811 L 535.34353,143.0962 L 550.21038,143.0962 L 550.21038,187.12766 C 550.21035,192.15443 551.59745,196.05489 554.37167,198.82907 C 557.14583,201.60328 560.66692,202.99038 564.93495,202.99036 C 569.06064,202.99038 572.51059,201.60328 575.28483,198.82907 C 578.05897,196.05489 579.44607,192.15443 579.44613,187.12766 L 579.44613,143.0962 L 594.31296,143.0962 L 594.31296,216.93247 L 579.44613,216.93247 L 579.44613,209.10782 L 579.16159,209.10782 C 574.56159,214.89332 568.20703,217.78607 560.09789,217.78607 C 554.26494,217.78607 548.68099,215.61651 543.34602,211.27738 C 538.01102,206.93827 535.34352,200.57185 535.34353,192.17811 L 535.34353,192.17811 z M 617.64702,216.93247 L 617.64702,143.0962 L 632.51386,143.0962 L 632.51386,150.99199 L 632.79839,150.99199 C 637.39831,145.15913 643.80029,142.24268 652.00436,142.2426 C 657.74239,142.24268 663.27892,144.42409 668.61396,148.78685 C 673.94889,153.14975 676.61638,159.50431 676.61645,167.85056 L 676.61645,216.93247 L 661.74961,216.93247 L 661.74961,172.97215 C 661.74955,167.99287 660.36246,164.10426 657.58831,161.3063 C 654.81407,158.50845 651.36412,157.1095 647.23844,157.10944 C 642.9704,157.1095 639.44932,158.50845 636.67516,161.3063 C 633.90093,164.10426 632.51384,167.99287 632.51386,172.97215 L 632.51386,216.93247 L 617.64702,216.93247 z M 741.42121,216.86133 L 741.42121,209.25009 C 736.25216,214.94074 729.8976,217.78607 722.35752,217.78607 C 717.52043,217.78607 713.47769,216.82577 710.22931,214.90518 C 706.98087,212.98458 704.52677,210.95729 702.86702,208.82328 C 700.73301,206.07281 699.27478,203.15635 698.49233,200.0739 C 697.70985,196.99148 697.31862,190.32868 697.31863,180.08547 C 697.31862,169.84234 697.70985,163.17953 698.49233,160.09704 C 699.27478,157.01465 700.73301,154.07448 702.86702,151.27652 C 704.52677,149.19001 706.98087,147.16271 710.22931,145.19463 C 713.47769,143.22668 717.52043,142.24268 722.35752,142.2426 C 729.56564,142.24268 735.9202,145.15913 741.42121,150.99199 L 741.42121,143.0962 L 756.28806,143.0962 L 756.28806,215.22527 C 756.28799,226.32204 753.05143,234.50236 746.57837,239.76623 C 740.1052,245.03006 732.67179,247.66199 724.27811,247.66202 C 719.53587,247.66199 714.88851,246.52386 710.336,244.24762 C 705.78346,241.97133 701.87114,238.98375 698.59902,235.28484 L 710.1226,226.10866 C 711.92463,227.91068 714.07047,229.47561 716.56016,230.80345 C 719.04979,232.13125 721.71729,232.79516 724.56264,232.79517 C 729.4945,232.79516 733.53724,231.41992 736.69085,228.66945 C 739.84438,225.91896 741.42116,221.98292 741.42121,216.86133 L 741.42121,216.86133 z M 712.18547,180.08547 C 712.18544,186.01326 712.33957,189.9493 712.64783,191.89358 C 712.95606,193.83791 713.77409,195.63995 715.10193,197.2997 C 716.09777,198.62754 717.56785,199.90794 719.51219,201.1409 C 721.45646,202.37389 723.92241,202.99038 726.91004,202.99036 C 729.80275,202.99038 732.20942,202.37389 734.13006,201.1409 C 736.05062,199.90794 737.53255,198.62754 738.57589,197.2997 C 739.85624,195.63995 740.65056,193.83791 740.95885,191.89358 C 741.26704,189.9493 741.42116,186.01326 741.42121,180.08547 C 741.42116,174.15774 741.26704,170.22171 740.95885,168.27736 C 740.65056,166.33309 739.85624,164.50735 738.57589,162.80009 C 737.53255,161.51975 736.05062,160.25121 734.13006,158.99447 C 732.20942,157.73784 729.80275,157.1095 726.91004,157.10944 C 723.92241,157.1095 721.45646,157.73784 719.51219,158.99447 C 717.56785,160.25121 716.09777,161.51975 715.10193,162.80009 C 713.77409,164.50735 712.95606,166.33309 712.64783,168.27736 C 712.33957,170.22171 712.18544,174.15774 712.18547,180.08547 L 712.18547,180.08547 z "
     style="font-size:179.54368591px;font-style:normal;font-variant:normal;font-weight:normal;font-stretch:normal;text-align:center;line-height:100%;letter-spacing:2px;writing-mode:lr-tb;text-anchor:middle;fill:black;fill-opacity:1;stroke:none;stroke-width:1px;stroke-linecap:butt;stroke-linejoin:miter;stroke-opacity:1;font-family:DIN 1451 Mittelschrift"
     id="text3655" />
  <path
     d="M 43.71303,59.952228 L 776.1,59.592762 C 788.50698,59.592762 949.19946,151.86108 949.19946,151.86108 C 956.93023,157.96128 955.62794,171.8723 949.4435,177.18193 C 949.4435,177.18193 794.12068,272.22528 774.48785,272.22528 L 49.499606,271.61115 C 18.202629,271.61115 15.860671,266.40322 15.860671,249.8286 L 16.144018,77.705153 C 16.144018,69.812417 18.836912,59.952228 43.71303,59.952228 z "
     style="fill:none;fill-opacity:1;fill-rule:evenodd;stroke:black;stroke-width:12.1235199;stroke-linecap:butt;stroke-linejoin:miter;stroke-miterlimit:4;stroke-dasharray:none;stroke-opacity:1"
     id="path1882" />
</svg>
