<?xml version="1.0" encoding="UTF-8" standalone="no"?>
<!-- Created with Inkscape (http://www.inkscape.org/) -->

<svg
   xmlns:dc="http://purl.org/dc/elements/1.1/"
   xmlns:cc="http://creativecommons.org/ns#"
   xmlns:rdf="http://www.w3.org/1999/02/22-rdf-syntax-ns#"
   xmlns:svg="http://www.w3.org/2000/svg"
   xmlns="http://www.w3.org/2000/svg"
   xmlns:sodipodi="http://sodipodi.sourceforge.net/DTD/sodipodi-0.dtd"
   xmlns:inkscape="http://www.inkscape.org/namespaces/inkscape"
   version="1.0"
   width="471.76257"
   height="701.05078"
   id="svg2"
   inkscape:version="0.48.1 r9760"
   sodipodi:docname="Zeichen_460-30.svg">
  <metadata
     id="metadata12">
    <rdf:RDF>
      <cc:Work
         rdf:about="">
        <dc:format>image/svg+xml</dc:format>
        <dc:type
           rdf:resource="http://purl.org/dc/dcmitype/StillImage" />
        <dc:title></dc:title>
      </cc:Work>
    </rdf:RDF>
  </metadata>
  <sodipodi:namedview
     pagecolor="#ffffff"
     bordercolor="#666666"
     borderopacity="1"
     objecttolerance="10"
     gridtolerance="10"
     guidetolerance="10"
     inkscape:pageopacity="0"
     inkscape:pageshadow="2"
     inkscape:window-width="939"
     inkscape:window-height="931"
     id="namedview10"
     showgrid="false"
     fit-margin-top="0"
     fit-margin-left="0"
     fit-margin-right="0"
     fit-margin-bottom="0"
     inkscape:zoom="0.32777778"
     inkscape:cx="236.04528"
     inkscape:cy="350.52588"
     inkscape:window-x="0"
     inkscape:window-y="0"
     inkscape:window-maximized="0"
     inkscape:current-layer="svg2" />
  <defs
     id="defs4" />
  <path
     d="m 27.087218,0.99540764 420.013042,0 C 457.91628,1.7788256 470.1726,12.730411 470.76718,25.631839 l 0,649.787111 c 0,11.61435 -9.93977,24.63644 -25.16484,24.63644 l -419.413867,0 c -13.939126,0 -24.8652505,-11.9913 -24.8652505,-24.93327 L 0.99540764,25.696919 c 0,-14.056862 11.73253436,-24.70151136 26.09181036,-24.70151136 z"
     style="fill:#ffffff;fill-opacity:1;fill-rule:evenodd;stroke:#000000;stroke-width:1.99081528;stroke-linecap:butt;stroke-linejoin:miter;stroke-miterlimit:4;stroke-opacity:1;stroke-dasharray:none"
     id="path3669"
     inkscape:connector-curvature="0" />
  <path
     d="m 389.87821,13.388449 -309.355472,0 -49.624534,0.03085 C 19.12287,12.910969 12.401911,20.842346 12.844384,33.533724 l 0,634.622476 c 0.04661,8.55634 3.732838,18.82657 15.707135,19.03464 l 414.956241,0.52447 c 11.97429,-0.20811 15.69182,-10.4783 15.73842,-19.03466 l 0,-635.208626 C 459.68864,20.780645 452.9677,12.849262 441.19236,13.357598 l -51.31415,0.03085 z"
     style="fill:#154889;fill-opacity:1;fill-rule:evenodd;stroke:none"
     id="path2774"
     inkscape:connector-curvature="0" />
  <path
     d="m 70.451979,200.48806 0,-94.67848 21.705335,0 0,92.22312 c -3.4e-5,9.88694 2.799067,17.43305 8.397316,22.63837 5.59816,5.20538 12.52225,7.80805 20.7723,7.80803 8.24992,2e-5 15.17401,-2.60265 20.7723,-7.80803 5.59812,-5.20532 8.39722,-12.75143 8.39731,-22.63837 l 0,-92.22312 21.70534,0 0,94.67848 c -1.2e-4,14.92859 -4.94356,26.92707 -14.83035,35.99549 -9.88698,9.06845 -21.90184,13.60267 -36.0446,13.60267 -14.20837,0 -26.239596,-4.53422 -36.093716,-13.60267 -9.854174,-9.06842 -14.781248,-21.0669 -14.781235,-35.99549 l 0,0 z"
     style="font-size:201.14265442px;font-style:normal;font-variant:normal;font-weight:normal;font-stretch:normal;text-align:center;line-height:100%;writing-mode:lr-tb;text-anchor:middle;fill:#ffffff;fill-opacity:1;stroke:none;font-family:DIN 1451 Mittelschrift"
     id="text5536"
     inkscape:connector-curvature="0" />
  <path
     d="m 164.01235,484.61262 53.20272,-53.20272 0.27816,212.76769 c 0,0 36.56876,0.25983 36.56876,0.25983 l 0.14835,-213.9918 54.20409,54.2041 0,-46.67524 -72.13614,-72.11759 0,-0.18545 -0.0927,0.0927 -0.0556,-0.0556 0,0.11126 -72.11759,72.13615 0,46.65668 z"
     style="fill:#ffffff;fill-opacity:1;fill-rule:evenodd;stroke:none"
     id="path1885"
     inkscape:connector-curvature="0" />
  <path
     d="m 216.45397,250.53122 0,-19.24999 55.98209,-70.02671 c 2.16064,-2.74991 3.56838,-5.27073 4.22321,-7.56249 0.65469,-2.29157 0.98207,-4.51775 0.98214,-6.67857 -7e-5,-4.97607 -1.76792,-9.60851 -5.30357,-13.8973 -3.53577,-4.28857 -8.34826,-6.43291 -14.43748,-6.43303 -5.56552,1.2e-4 -10.3289,1.84982 -14.29017,5.5491 -3.96133,3.69951 -6.17115,8.75754 -6.62946,15.17409 l -20.52676,0 c 0.0655,-11.58916 4.02677,-21.36146 11.88392,-29.31694 7.85711,-7.9552 17.18744,-11.93287 27.99104,-11.93302 11.9166,1.5e-4 21.85259,4.01055 29.80801,12.03124 7.95526,8.02095 11.93293,17.69504 11.93302,29.02229 -9e-5,9.69056 -2.8483,18.0715 -8.54464,25.14283 l -46.06245,57.74994 54.60709,0 0,20.42856 -81.61599,0 z"
     style="font-size:201.14265442px;font-style:normal;font-variant:normal;font-weight:normal;font-stretch:normal;text-align:center;line-height:100%;writing-mode:lr-tb;text-anchor:middle;fill:#ffffff;fill-opacity:1;stroke:none;font-family:DIN 1451 Mittelschrift"
     id="text5528"
     inkscape:connector-curvature="0" />
  <path
     d="m 321.03301,249.46347 0,-19.24998 55.98209,-70.02672 c 2.16064,-2.7499 3.56838,-5.27073 4.22321,-7.56249 0.65469,-2.29157 0.98207,-4.51775 0.98214,-6.67857 -7e-5,-4.97607 -1.76792,-9.6085 -5.30357,-13.8973 -3.53577,-4.28857 -8.34826,-6.43291 -14.43748,-6.43303 -5.56552,1.2e-4 -10.3289,1.84982 -14.29017,5.5491 -3.96133,3.69951 -6.17115,8.75754 -6.62945,15.17409 l -20.52677,0 c 0.0655,-11.58916 4.02677,-21.36146 11.88392,-29.31693 7.85711,-7.95521 17.18744,-11.93288 27.99104,-11.93303 11.9166,1.5e-4 21.85259,4.01055 29.80801,12.03124 7.95526,8.02095 11.93293,17.69504 11.93302,29.02229 -9e-5,9.69056 -2.8483,18.0715 -8.54463,25.14283 l -46.06246,57.74995 54.60709,0 0,20.42855 -81.61599,0 z"
     style="font-size:201.14265442px;font-style:normal;font-variant:normal;font-weight:normal;font-stretch:normal;text-align:center;line-height:100%;writing-mode:lr-tb;text-anchor:middle;fill:#ffffff;fill-opacity:1;stroke:none;font-family:DIN 1451 Mittelschrift"
     id="text5532"
     inkscape:connector-curvature="0" />
</svg>
