<?xml version="1.0" encoding="UTF-8" standalone="no"?>
<!-- Created with Inkscape (http://www.inkscape.org/) -->

<svg
   xmlns:dc="http://purl.org/dc/elements/1.1/"
   xmlns:cc="http://creativecommons.org/ns#"
   xmlns:rdf="http://www.w3.org/1999/02/22-rdf-syntax-ns#"
   xmlns:svg="http://www.w3.org/2000/svg"
   xmlns="http://www.w3.org/2000/svg"
   xmlns:sodipodi="http://sodipodi.sourceforge.net/DTD/sodipodi-0.dtd"
   xmlns:inkscape="http://www.inkscape.org/namespaces/inkscape"
   version="1.0"
   width="288.39603"
   height="460.59732"
   id="svg2"
   inkscape:version="0.48.1 r9760"
   sodipodi:docname="Zeichen_467.svg">
  <metadata
     id="metadata9">
    <rdf:RDF>
      <cc:Work
         rdf:about="">
        <dc:format>image/svg+xml</dc:format>
        <dc:type
           rdf:resource="http://purl.org/dc/dcmitype/StillImage" />
        <dc:title />
      </cc:Work>
    </rdf:RDF>
  </metadata>
  <sodipodi:namedview
     pagecolor="#ffffff"
     bordercolor="#666666"
     borderopacity="1"
     objecttolerance="10"
     gridtolerance="10"
     guidetolerance="10"
     inkscape:pageopacity="0"
     inkscape:pageshadow="2"
     inkscape:window-width="917"
     inkscape:window-height="773"
     id="namedview7"
     showgrid="false"
     inkscape:zoom="0.95498497"
     inkscape:cx="-30.448614"
     inkscape:cy="229.42308"
     inkscape:window-x="0"
     inkscape:window-y="0"
     inkscape:window-maximized="0"
     inkscape:current-layer="svg2"
     fit-margin-top="0"
     fit-margin-left="0"
     fit-margin-right="0"
     fit-margin-bottom="0" />
  <defs
     id="defs4">
    <inkscape:perspective
       id="perspective11"
       inkscape:persp3d-origin="235 : 100 : 1"
       inkscape:vp_z="470 : 150 : 1"
       inkscape:vp_y="0 : 1000 : 0"
       inkscape:vp_x="0 : 150 : 1"
       sodipodi:type="inkscape:persp3d" />
  </defs>
  <path
     d="m 30.382287,458.89612 229.989473,0.69509 c 17.25024,0 26.54908,-15.98954 26.54908,-25.90695 l 0.46907,-409.200266 c 0,-9.20974 -11.66257,-23.4778805 -26.36767,-23.4778805 l -232.553413,0 c -12.19757,0 -27.142136,10.3780205 -27.458366,29.9464305 l 0,399.064086 c -0.31623004,17.35339 16.685506,28.87949 29.371826,28.87949 z"
     style="fill:#ffffff;fill-opacity:1;fill-rule:evenodd;stroke:#000000;stroke-width:2.01222706;stroke-linecap:butt;stroke-linejoin:miter;stroke-miterlimit:4;stroke-opacity:1;stroke-dasharray:none"
     id="path1892"
     inkscape:connector-curvature="0"
     sodipodi:nodetypes="ccccssccc" />
  <path
     d="m 97.888667,402.21468 79.453473,0 18.93083,-214.28404 -56.91432,-128.607198 c -1.18729,-4.07123 -2.63015,-3.81863 -3.94522,0.009 L 78.235407,187.73897 97.888667,402.21468 z"
     style="fill:#ec7c25;fill-opacity:1;fill-rule:evenodd;stroke:#000000;stroke-width:7;stroke-linecap:butt;stroke-linejoin:miter;stroke-miterlimit:4;stroke-opacity:1;stroke-dasharray:none"
     id="path1906"
     inkscape:connector-curvature="0" />
  <path
     inkscape:connector-curvature="0"
     id="path3595"
     d="M 29.773167,448.74474 274.63115,38.793115"
     style="fill:none;stroke:#000000;stroke-width:5.83701849;stroke-linecap:butt;stroke-linejoin:miter;stroke-miterlimit:4;stroke-opacity:1;stroke-dasharray:none" />
  <path
     inkscape:connector-curvature="0"
     style="fill:none;stroke:#000000;stroke-width:8;stroke-linecap:butt;stroke-linejoin:miter;stroke-miterlimit:4;stroke-opacity:1;stroke-dasharray:none"
     d="M 19.854657,440.66325 271.54957,19.264946"
     id="path2819" />
  <path
     inkscape:connector-curvature="0"
     style="fill:none;stroke:#000000;stroke-width:5.83701849;stroke-linecap:butt;stroke-linejoin:miter;stroke-miterlimit:4;stroke-opacity:1;stroke-dasharray:none"
     d="M 13.773167,426.74474 258.63115,16.793115"
     id="path3599" />
  <path
     d="m 38.547507,445.60317 214.228883,0.32138 c 15.53794,0 22.03936,-6.76907 22.03936,-19.56039 l -0.51467,-397.5205 c 0,-8.3973 -4.80884,-15.108 -15.55509,-15.42039 L 32.377487,13.11087 c -10.98681,0 -18.79722,10.6161 -18.79722,20.482759 l 0.3124,390.625211 c 0,13.4702 8.85421,21.69673 24.65484,21.38433 z"
     style="fill:none;stroke:#000000;stroke-width:10;stroke-linecap:butt;stroke-linejoin:miter;stroke-miterlimit:4;stroke-opacity:1;stroke-dasharray:none"
     id="path2766"
     inkscape:connector-curvature="0" />
  <path
     inkscape:connector-curvature="0"
     d="m 39.153307,446.90973 214.228883,0.32138 c 15.53794,0 22.03936,-6.76907 22.03936,-19.56039 L 274.90688,30.150218 c 0,-8.3973 -4.80884,-15.108 -15.55509,-15.42039 l -226.368503,-0.3124 c -10.98681,0 -18.79722,10.6161 -18.79722,20.48276 l 0.3124,390.625212 c 0,13.4702 8.85421,21.69672 24.65484,21.38433 z"
     style="fill:none;stroke:#000000;stroke-width:10;stroke-linecap:butt;stroke-linejoin:miter;stroke-miterlimit:4;stroke-opacity:1;stroke-dasharray:none"
     id="path2766-9" />
</svg>
