<?xml version="1.0" encoding="UTF-8" standalone="no"?>
<!-- Created with Inkscape (http://www.inkscape.org/) -->

<svg
   xmlns:dc="http://purl.org/dc/elements/1.1/"
   xmlns:cc="http://creativecommons.org/ns#"
   xmlns:rdf="http://www.w3.org/1999/02/22-rdf-syntax-ns#"
   xmlns:svg="http://www.w3.org/2000/svg"
   xmlns="http://www.w3.org/2000/svg"
   xmlns:sodipodi="http://sodipodi.sourceforge.net/DTD/sodipodi-0.dtd"
   xmlns:inkscape="http://www.inkscape.org/namespaces/inkscape"
   version="1.0"
   width="460.59732"
   height="288.39603"
   id="svg2"
   inkscape:version="0.48.1 r9760"
   sodipodi:docname="Zeichen_467.svg">
  <metadata
     id="metadata9">
    <rdf:RDF>
      <cc:Work
         rdf:about="">
        <dc:format>image/svg+xml</dc:format>
        <dc:type
           rdf:resource="http://purl.org/dc/dcmitype/StillImage" />
        <dc:title></dc:title>
      </cc:Work>
    </rdf:RDF>
  </metadata>
  <sodipodi:namedview
     pagecolor="#ffffff"
     bordercolor="#666666"
     borderopacity="1"
     objecttolerance="10"
     gridtolerance="10"
     guidetolerance="10"
     inkscape:pageopacity="0"
     inkscape:pageshadow="2"
     inkscape:window-width="917"
     inkscape:window-height="773"
     id="namedview7"
     showgrid="false"
     inkscape:zoom="0.95498497"
     inkscape:cx="55.652036"
     inkscape:cy="143.32243"
     inkscape:window-x="0"
     inkscape:window-y="0"
     inkscape:window-maximized="0"
     inkscape:current-layer="svg2"
     fit-margin-top="0"
     fit-margin-left="0"
     fit-margin-right="0"
     fit-margin-bottom="0" />
  <defs
     id="defs4">
    <inkscape:perspective
       id="perspective11"
       inkscape:persp3d-origin="235 : 100 : 1"
       inkscape:vp_z="470 : 150 : 1"
       inkscape:vp_y="0 : 1000 : 0"
       inkscape:vp_x="0 : 150 : 1"
       sodipodi:type="inkscape:persp3d" />
  </defs>
  <path
     d="m 1.7012035,30.38229 -0.69509,229.98947 c 0,17.25024 15.9895405,26.54908 25.9069505,26.54908 l 409.200266,0.46907 c 9.20974,0 23.47788,-11.66257 23.47788,-26.36767 l 0,-232.55341 c 0,-12.19757 -10.37802,-27.142139 -29.94643,-27.458369 l -399.064086,0 C 13.227304,0.69423096 1.7012035,17.69597 1.7012035,30.38229 z"
     style="fill:#ffffff;fill-opacity:1;fill-rule:evenodd;stroke:#000000;stroke-width:2.01222706;stroke-linecap:butt;stroke-linejoin:miter;stroke-miterlimit:4;stroke-opacity:1;stroke-dasharray:none"
     id="path1892"
     inkscape:connector-curvature="0"
     sodipodi:nodetypes="ccccssccc" />
  <path
     d="m 50.430027,103.8237 0,79.45347 214.284043,18.93083 128.6072,-56.91432 c 4.07123,-1.18729 3.81863,-2.63015 -0.009,-3.94522 L 264.90574,84.17044 50.430027,103.8237 z"
     style="fill:#ec7c25;fill-opacity:1;fill-rule:evenodd;stroke:#000000;stroke-width:7;stroke-linecap:butt;stroke-linejoin:miter;stroke-miterlimit:4;stroke-opacity:1;stroke-dasharray:none"
     id="path1906"
     inkscape:connector-curvature="0" />
  <path
     d="m 14.213199,37.76656 -0.32138,214.22888 c 0,15.53794 6.76907,22.03936 19.56039,22.03936 l 397.520501,-0.51467 c 8.3973,0 15.108,-4.80884 15.42039,-15.55509 l 0.3124,-226.3685 c 0,-10.98681 -10.6161,-18.797222 -20.48276,-18.797222 l -390.625212,0.3124 c -13.470199,0 -21.69673,8.854212 -21.384329,24.654842 z"
     style="fill:none;stroke:#000000;stroke-width:10;stroke-linecap:butt;stroke-linejoin:miter;stroke-miterlimit:4;stroke-opacity:1;stroke-dasharray:none"
     id="path2766"
     inkscape:connector-curvature="0" />
  <path
     inkscape:connector-curvature="0"
     d="M 14.818997,39.07312 14.497617,253.302 c 0,15.53794 6.76907,22.03936 19.56039,22.03936 l 397.520503,-0.51467 c 8.3973,0 15.108,-4.80884 15.42039,-15.55509 l 0.3124,-226.3685 c 0,-10.98681 -10.6161,-18.79722 -20.48276,-18.79722 l -390.625213,0.3124 c -13.4702,0 -21.69672,8.85421 -21.38433,24.65484 z"
     style="fill:none;stroke:#000000;stroke-width:10;stroke-linecap:butt;stroke-linejoin:miter;stroke-miterlimit:4;stroke-opacity:1;stroke-dasharray:none"
     id="path2766-9" />
</svg>
