<?xml version="1.0" encoding="UTF-8" standalone="no"?>
<!-- Created with Inkscape (http://www.inkscape.org/) -->

<svg
   xmlns:dc="http://purl.org/dc/elements/1.1/"
   xmlns:cc="http://creativecommons.org/ns#"
   xmlns:rdf="http://www.w3.org/1999/02/22-rdf-syntax-ns#"
   xmlns:svg="http://www.w3.org/2000/svg"
   xmlns="http://www.w3.org/2000/svg"
   xmlns:sodipodi="http://sodipodi.sourceforge.net/DTD/sodipodi-0.dtd"
   xmlns:inkscape="http://www.inkscape.org/namespaces/inkscape"
   version="1.0"
   width="250"
   height="970"
   id="svg1961"
   inkscape:version="0.47 r22583"
   sodipodi:docname="Zeichen_605.svg">
  <metadata
     id="metadata10">
    <rdf:RDF>
      <cc:Work
         rdf:about="">
        <dc:format>image/svg+xml</dc:format>
        <dc:type
           rdf:resource="http://purl.org/dc/dcmitype/StillImage" />
        <dc:title></dc:title>
      </cc:Work>
    </rdf:RDF>
  </metadata>
  <sodipodi:namedview
     pagecolor="#ffffff"
     bordercolor="#666666"
     borderopacity="1"
     objecttolerance="10"
     gridtolerance="10"
     guidetolerance="10"
     inkscape:pageopacity="0"
     inkscape:pageshadow="2"
     inkscape:window-width="1280"
     inkscape:window-height="977"
     id="namedview8"
     showgrid="false"
     inkscape:zoom="0.48659794"
     inkscape:cx="323.8319"
     inkscape:cy="324.21942"
     inkscape:window-x="-4"
     inkscape:window-y="-4"
     inkscape:window-maximized="1"
     inkscape:current-layer="svg1961" />
  <defs
     id="defs1963">
    <inkscape:perspective
       sodipodi:type="inkscape:persp3d"
       inkscape:vp_x="0 : 485 : 1"
       inkscape:vp_y="0 : 1000 : 0"
       inkscape:vp_z="250 : 485 : 1"
       inkscape:persp3d-origin="125 : 323.33333 : 1"
       id="perspective12" />
  </defs>
  <path
     d="M -383.15951,327.05217 L -385.24892,327.05217 M -385.24892,327.05217 L -389.84563,326.21641 M -389.84563,326.21641 L -394.44234,324.96276 M -394.44234,324.96276 L -399.03905,323.29123 M -399.03905,323.29123 L -403.21787,321.20182 M -403.21787,321.20182 L -406.97882,318.69452 M -406.97882,318.69452 L -410.73976,315.35146 M -410.73976,315.35146 L -413.66494,312.0084 M -413.66494,312.0084 L -416.17223,308.24745 M -416.17223,308.24745 L -418.67953,304.06863 M -418.67953,304.06863 L -420.35106,299.47192 M -420.35106,299.47192 L -421.18682,294.87521 M -421.18682,294.87521 L -422.02259,290.2785 M -422.02259,290.2785 L -422.02259,287.77121 L -422.02259,-219.12041 L -422.02259,-221.20982 M -422.02259,-221.20982 L -421.18682,-225.80653 M -421.18682,-225.80653 L -420.35106,-230.40324 M -420.35106,-230.40324 L -418.67953,-234.99995 M -418.67953,-234.99995 L -416.17223,-239.17877 M -416.17223,-239.17877 L -413.66494,-242.93972 M -413.66494,-242.93972 L -410.73976,-246.70066 M -410.73976,-246.70066 L -406.97882,-249.62584 M -406.97882,-249.62584 L -403.21787,-252.13313 M -403.21787,-252.13313 L -399.03905,-254.64043 M -399.03905,-254.64043 L -394.44234,-256.31196 M -394.44234,-256.31196 L -389.84563,-257.14772 L -385.24892,-257.98349 M -385.24892,-257.98349 L -383.15951,-257.98349 L 123.73211,-257.98349 L 126.2394,-257.98349 M 126.2394,-257.98349 L 130.83611,-257.14772 L 135.43282,-256.31196 M 135.43282,-256.31196 L 140.02953,-254.64043 M 140.02953,-254.64043 L 144.20835,-252.13313 M 144.20835,-252.13313 L 147.9693,-249.62584 M 147.9693,-249.62584 L 151.31236,-246.70066 M 151.31236,-246.70066 L 154.65542,-242.93972 M 154.65542,-242.93972 L 157.16272,-239.17877 M 157.16272,-239.17877 L 159.25213,-234.99995 M 159.25213,-234.99995 L 160.92366,-230.40324 M 160.92366,-230.40324 L 162.17731,-225.80653 M 162.17731,-225.80653 L 163.01307,-221.20982 M 163.01307,-221.20982 L 163.01307,-219.12041 L 163.01307,287.77121 L 163.01307,290.2785 M 163.01307,290.2785 L 162.17731,294.87521 M 162.17731,294.87521 L 160.92366,299.47192 M 160.92366,299.47192 L 159.25213,304.06863 M 159.25213,304.06863 L 157.16272,308.24745 M 157.16272,308.24745 L 154.65542,312.0084 M 154.65542,312.0084 L 151.31236,315.35146 L 147.9693,318.69452 M 147.9693,318.69452 L 144.20835,321.20182 M 144.20835,321.20182 L 140.02953,323.29123 M 140.02953,323.29123 L 135.43282,324.96276 M 135.43282,324.96276 L 130.83611,326.21641 M 130.83611,326.21641 L 126.2394,327.05217 M 126.2394,327.05217 L 123.73211,327.05217 M 123.73211,327.05217 L -383.15951,327.05217"
     id="path48" />
  <path
     d="M 246.66098,37.074008 L 246.40926,933.62108 C 246.40926,947.29547 232.88119,967.18448 213.66106,967.18448 L 34.64862,967.18448 C 22.40794,967.18448 3.59082,948.77636 3.59082,936.31835 L 3.33911,33.550014 C 3.33911,20.713318 25.23672,3.0672332 37.71768,3.0672332 L 212.09073,2.8155193 C 231.54152,2.8155193 246.66098,24.620835 246.66098,37.074008 z "
     style="fill:#c00;fill-opacity:1;fill-rule:evenodd;stroke:black;stroke-width:1px;stroke-linecap:butt;stroke-linejoin:miter;stroke-opacity:1"
     id="path20867" />
  <path
     d="M 235.23285,956.01329 4.1228896,725.23671 4.0212896,485.72973 245.99932,727.05307 l 0.0367,209.3949 c -0.13405,4.76063 -3.33911,12.42287 -10.80314,19.56532 z"
     style="fill:#ffffff;fill-opacity:1;fill-rule:evenodd;stroke:none"
     id="path22673" />
  <path
     d="M 236.49567,15.783508 L 3.9007671,247.57254 L 3.9341608,487.07952 L 246.11469,245.68868 L 246.15137,36.293784 C 246.01731,31.19567 243.14974,23.73592 236.49567,15.783508 z "
     style="fill:white;fill-opacity:1;fill-rule:evenodd;stroke:none;stroke-width:1px;stroke-linecap:butt;stroke-linejoin:miter;stroke-opacity:1"
     id="path22675" />
</svg>
