<?xml version="1.0" encoding="UTF-8" standalone="no"?>
<!-- Created with Inkscape (http://www.inkscape.org/) -->
<svg
   xmlns:svg="http://www.w3.org/2000/svg"
   xmlns="http://www.w3.org/2000/svg"
   version="1.0"
   width="560"
   height="760"
   id="svg1961">
  <defs
     id="defs1963" />
  <path
     d="M -383.15951,327.05217 L -385.24892,327.05217 M -385.24892,327.05217 L -389.84563,326.21641 M -389.84563,326.21641 L -394.44234,324.96276 M -394.44234,324.96276 L -399.03905,323.29123 M -399.03905,323.29123 L -403.21787,321.20182 M -403.21787,321.20182 L -406.97882,318.69452 M -406.97882,318.69452 L -410.73976,315.35146 M -410.73976,315.35146 L -413.66494,312.0084 M -413.66494,312.0084 L -416.17223,308.24745 M -416.17223,308.24745 L -418.67953,304.06863 M -418.67953,304.06863 L -420.35106,299.47192 M -420.35106,299.47192 L -421.18682,294.87521 M -421.18682,294.87521 L -422.02259,290.2785 M -422.02259,290.2785 L -422.02259,287.77121 L -422.02259,-219.12041 L -422.02259,-221.20982 M -422.02259,-221.20982 L -421.18682,-225.80653 M -421.18682,-225.80653 L -420.35106,-230.40324 M -420.35106,-230.40324 L -418.67953,-234.99995 M -418.67953,-234.99995 L -416.17223,-239.17877 M -416.17223,-239.17877 L -413.66494,-242.93972 M -413.66494,-242.93972 L -410.73976,-246.70066 M -410.73976,-246.70066 L -406.97882,-249.62584 M -406.97882,-249.62584 L -403.21787,-252.13313 M -403.21787,-252.13313 L -399.03905,-254.64043 M -399.03905,-254.64043 L -394.44234,-256.31196 M -394.44234,-256.31196 L -389.84563,-257.14772 L -385.24892,-257.98349 M -385.24892,-257.98349 L -383.15951,-257.98349 L 123.73211,-257.98349 L 126.2394,-257.98349 M 126.2394,-257.98349 L 130.83611,-257.14772 L 135.43282,-256.31196 M 135.43282,-256.31196 L 140.02953,-254.64043 M 140.02953,-254.64043 L 144.20835,-252.13313 M 144.20835,-252.13313 L 147.9693,-249.62584 M 147.9693,-249.62584 L 151.31236,-246.70066 M 151.31236,-246.70066 L 154.65542,-242.93972 M 154.65542,-242.93972 L 157.16272,-239.17877 M 157.16272,-239.17877 L 159.25213,-234.99995 M 159.25213,-234.99995 L 160.92366,-230.40324 M 160.92366,-230.40324 L 162.17731,-225.80653 M 162.17731,-225.80653 L 163.01307,-221.20982 M 163.01307,-221.20982 L 163.01307,-219.12041 L 163.01307,287.77121 L 163.01307,290.2785 M 163.01307,290.2785 L 162.17731,294.87521 M 162.17731,294.87521 L 160.92366,299.47192 M 160.92366,299.47192 L 159.25213,304.06863 M 159.25213,304.06863 L 157.16272,308.24745 M 157.16272,308.24745 L 154.65542,312.0084 M 154.65542,312.0084 L 151.31236,315.35146 L 147.9693,318.69452 M 147.9693,318.69452 L 144.20835,321.20182 M 144.20835,321.20182 L 140.02953,323.29123 M 140.02953,323.29123 L 135.43282,324.96276 M 135.43282,324.96276 L 130.83611,326.21641 M 130.83611,326.21641 L 126.2394,327.05217 M 126.2394,327.05217 L 123.73211,327.05217 M 123.73211,327.05217 L -383.15951,327.05217"
     id="path48" />
  <path
     d="M 252.31334,1.5271521 L 308.81908,1.5271521 L 514.05591,747.04061 L 47.517773,747.04061 L 252.31334,1.5271521 z "
     style="fill:white;fill-opacity:1;fill-rule:evenodd;stroke:black;stroke-width:1px;stroke-linecap:butt;stroke-linejoin:miter;stroke-opacity:1"
     id="path22687" />
  <path
     d="M 252.70445,2.0036891 L 308.4518,2.0036891 L 349.62589,151.61893 L 211.516,151.73595 L 252.70445,2.0036891 z "
     style="fill:#c00;fill-opacity:1;fill-rule:evenodd;stroke:none;stroke-width:1px;stroke-linecap:butt;stroke-linejoin:miter;stroke-opacity:1"
     id="path23580" />
  <path
     d="M 6.0422638,752.03719 C 11.658709,752.03719 553.95774,752.03719 553.95774,752.03719"
     style="fill:none;fill-opacity:0.75;fill-rule:evenodd;stroke:black;stroke-width:12.82950115;stroke-linecap:butt;stroke-linejoin:miter;stroke-miterlimit:4;stroke-dasharray:none;stroke-opacity:1"
     id="path22689" />
  <path
     d="M 89.097962,597.64689 L 472.46888,597.72078 L 513.26909,745.62075 L 48.351913,745.66388 L 89.097962,597.64689 z "
     style="fill:#c00;fill-opacity:1;fill-rule:evenodd;stroke:none;stroke-width:1px;stroke-linecap:butt;stroke-linejoin:miter;stroke-opacity:1"
     id="path23576" />
  <path
     d="M 170.82974,299.73264 L 390.43481,299.73264 L 431.85705,450.23529 L 129.53014,450.23529 L 170.82974,299.73264 z "
     style="fill:#c00;fill-opacity:1;fill-rule:evenodd;stroke:none;stroke-width:1px;stroke-linecap:butt;stroke-linejoin:miter;stroke-opacity:1"
     id="path23578" />
</svg>
