<?xml version="1.0" encoding="UTF-8" standalone="no"?>
<!-- Created with Inkscape (http://www.inkscape.org/) -->

<svg
   xmlns:dc="http://purl.org/dc/elements/1.1/"
   xmlns:cc="http://creativecommons.org/ns#"
   xmlns:rdf="http://www.w3.org/1999/02/22-rdf-syntax-ns#"
   xmlns:svg="http://www.w3.org/2000/svg"
   xmlns="http://www.w3.org/2000/svg"
   version="1.1"
   width="821.45221"
   height="1338.2021"
   id="svg4767"
   xml:space="preserve"><metadata
     id="metadata4773"><rdf:RDF><cc:Work
         rdf:about=""><dc:format>image/svg+xml</dc:format><dc:type
           rdf:resource="http://purl.org/dc/dcmitype/StillImage" /><dc:title></dc:title></cc:Work></rdf:RDF></metadata><defs
     id="defs4771" /><g
     transform="matrix(1.25,0,0,-1.25,0,1338.2022)"
     id="g4775"><g
       id="g4777"><path
         d="M 0.398,1063.222 0.547,6.335 c 0,-2.594 2.605,-5.933 6.086,-5.933 L 651.27,0.698 c 2.699,0 5.492,3.481 5.492,5.934 l -0.129,1057.367 c 0,2.586 -2.633,4.864 -5.067,4.864 l -645.378,0 c -4.34,0 -5.79,-3.356 -5.79,-5.641 z"
         id="path4779"
         style="fill:#ffffff;fill-opacity:1;fill-rule:evenodd;stroke:#000000;stroke-width:0.80000001;stroke-linecap:butt;stroke-linejoin:miter;stroke-miterlimit:4;stroke-opacity:1;stroke-dasharray:none" /><path
         d="m 656.125,321.851 -135.223,130.5 0.028,113.668 135.172,-136.141 0.023,-108.027 z"
         id="path4781"
         style="fill:#c1121c;fill-opacity:1;fill-rule:evenodd;stroke:none" /><path
         d="m 328.59,113.769 -0.024,0.023 0,-0.051 L 214.039,1.167 324.238,1.116 328.59,5.718 332.988,1.07 443.191,1.116 328.59,113.769 z"
         id="path4783"
         style="fill:#c1121c;fill-opacity:1;fill-rule:evenodd;stroke:none" /><path
         d="M 137.973,138.753 246.164,138.777 109.035,1.163 6.586,0.71 3.859,1.195 1.754,3.327 137.973,138.753 z"
         id="path4785"
         style="fill:#c1121c;fill-opacity:1;fill-rule:evenodd;stroke:none" /><path
         d="m 1.113,107.476 135.172,136.191 0,107.965 -135.172,-133.715 0,-110.441 z"
         id="path4787"
         style="fill:#c1121c;fill-opacity:1;fill-rule:evenodd;stroke:none" /><path
         d="M 1.105,321.902 136.328,452.402 136.305,566.07 1.129,429.929 1.105,321.902 z"
         id="path4789"
         style="fill:#c1121c;fill-opacity:1;fill-rule:evenodd;stroke:none" /><path
         d="M 1.07,536.238 136.285,666.827 136.262,780.386 1.105,644.288 1.07,536.238 z"
         id="path4791"
         style="fill:#c1121c;fill-opacity:1;fill-rule:evenodd;stroke:none" /><path
         d="m 1.133,750.128 135.203,134.695 -0.086,45.95 47.148,0 137.598,137.597 -111.121,-0.086 -208.742,-210.621 0,-107.535 z"
         id="path4793"
         style="fill:#c1121c;fill-opacity:1;fill-rule:evenodd;stroke:none" /><path
         d="M 1.137,962.023 108.016,1068.214 3.047,1068.288 0.98,1065.886 1.137,962.023 z"
         id="path4795"
         style="fill:#c1121c;fill-opacity:1;fill-rule:evenodd;stroke:none" /><path
         d="M 519.258,138.702 411.07,138.726 548.195,1.113 650.617,1.089 l 2.133,-0.062 2.637,2.125 -136.129,135.55 z"
         id="path4797"
         style="fill:#c1121c;fill-opacity:1;fill-rule:evenodd;stroke:none" /><path
         d="m 656.117,107.425 -135.172,136.191 0,107.965 135.172,-133.715 0,-110.441 z"
         id="path4799"
         style="fill:#c1121c;fill-opacity:1;fill-rule:evenodd;stroke:none" /><path
         d="m 656.16,536.187 -135.215,130.59 0.024,113.558 135.156,-136.097 0.035,-108.051 z"
         id="path4801"
         style="fill:#c1121c;fill-opacity:1;fill-rule:evenodd;stroke:none" /><path
         d="m 656.098,750.077 -135.203,134.696 0.085,45.949 -47.148,0 -137.598,137.598 111.121,-0.086 208.743,-210.621 0,-107.536 z"
         id="path4803"
         style="fill:#c1121c;fill-opacity:1;fill-rule:evenodd;stroke:none" /><path
         d="m 656.094,961.972 -107.403,106.891 104.582,0.214 3.012,-3.058 -0.191,-104.047 z"
         id="path4805"
         style="fill:#c1121c;fill-opacity:1;fill-rule:evenodd;stroke:none" /><path
         d="m 136.684,930.616 0.687,-790.906 383.328,-0.691 -0.14,791.644 -383.875,-0.047 z"
         id="path4807"
         style="fill:none;stroke:#000000;stroke-width:1.60000002;stroke-linecap:butt;stroke-linejoin:miter;stroke-miterlimit:4;stroke-opacity:1;stroke-dasharray:none" /><path
         d="m 104.824,357.995 c 0,-123.578 100.18,-223.754 223.758,-223.754 123.574,0 223.754,100.176 223.754,223.754 0,123.578 -100.18,223.758 -223.754,223.758 -123.578,0 -223.758,-100.18 -223.758,-223.758 z"
         id="path4809"
         style="fill:#ffffff;fill-opacity:1;fill-rule:nonzero;stroke:#000000;stroke-width:1.60000002;stroke-linecap:butt;stroke-linejoin:miter;stroke-miterlimit:4;stroke-opacity:1;stroke-dasharray:none" /><path
         d="m 118.797,357.995 c 0,-115.859 93.922,-209.785 209.785,-209.785 115.859,0 209.781,93.926 209.781,209.785 0,115.86 -93.922,209.786 -209.781,209.786 -115.863,0 -209.785,-93.926 -209.785,-209.786 z"
         id="path4811"
         style="fill:#154889;fill-opacity:1;fill-rule:nonzero;stroke:none" /><path
         d="m 251.52,427.152 -0.122,-113.227 180.606,179.992 33.07,-33.183 -180.789,-180.176 113.281,-0.262 -41.816,-41.676 -146.492,0.11 7.387,7.164 -7.332,-6.91 0.406,146.507 41.801,41.661 z"
         id="path4813"
         style="fill:#ffffff;fill-opacity:1;fill-rule:evenodd;stroke:none" /><path
         d="m 94.039,1024.878 c 0,-11.75 -4.84,-23.426 -13.144,-31.73 -8.309,-8.309 -19.985,-13.145 -31.735,-13.145 -11.746,0 -23.422,4.836 -31.73,13.145 -8.309,8.304 -13.145,19.98 -13.149,31.73 0,11.75 4.836,23.426 13.145,31.738 8.308,8.309 19.984,13.145 31.734,13.145 11.75,0 23.43,-4.836 31.738,-13.145 8.309,-8.312 13.145,-19.988 13.141,-31.738 z"
         id="path4815"
         style="fill:#ffcc33;fill-opacity:1;fill-rule:nonzero;stroke:#000000;stroke-width:1.60000002;stroke-linecap:round;stroke-linejoin:miter;stroke-miterlimit:4;stroke-opacity:1;stroke-dasharray:none" /><path
         d="m 651.871,1024.878 c 0,-11.75 -4.836,-23.43 -13.144,-31.734 -8.305,-8.309 -19.985,-13.145 -31.735,-13.145 -11.746,0 -23.426,4.836 -31.73,13.145 -8.309,8.304 -13.149,19.984 -13.149,31.734 0,11.746 4.84,23.426 13.149,31.731 8.304,8.308 19.984,13.148 31.73,13.148 11.75,0 23.43,-4.84 31.735,-13.148 8.308,-8.305 13.144,-19.985 13.144,-31.731 z"
         id="path4817"
         style="fill:#ffcc33;fill-opacity:1;fill-rule:nonzero;stroke:#000000;stroke-width:1.60000002;stroke-linecap:round;stroke-linejoin:miter;stroke-miterlimit:4;stroke-opacity:1;stroke-dasharray:none" /><path
         d="m 104.238,921.05 c -0.004,-6.852 -2.824,-13.66 -7.672,-18.504 -4.843,-4.84 -11.652,-7.66 -18.503,-7.66 -6.852,0 -13.661,2.82 -18.504,7.66 -4.848,4.844 -7.668,11.652 -7.672,18.504 0,6.856 2.82,13.668 7.664,18.516 4.847,4.843 11.656,7.668 18.512,7.668 6.855,0 13.664,-2.825 18.511,-7.668 4.844,-4.848 7.664,-11.66 7.664,-18.516 z"
         id="path4819"
         style="fill:#ffcc33;fill-opacity:1;fill-rule:nonzero;stroke:#000000;stroke-width:1.60000002;stroke-linecap:round;stroke-linejoin:miter;stroke-miterlimit:4;stroke-opacity:1;stroke-dasharray:none" /><path
         d="m 104.238,836.827 c -0.004,-6.851 -2.824,-13.66 -7.672,-18.504 -4.843,-4.843 -11.652,-7.664 -18.503,-7.664 -6.852,0 -13.661,2.821 -18.504,7.664 -4.848,4.844 -7.668,11.653 -7.672,18.504 0,6.852 2.82,13.664 7.664,18.512 4.847,4.848 11.656,7.668 18.512,7.668 6.855,0 13.664,-2.82 18.511,-7.668 4.844,-4.848 7.664,-11.66 7.664,-18.512 z"
         id="path4821"
         style="fill:#ffcc33;fill-opacity:1;fill-rule:nonzero;stroke:#000000;stroke-width:1.60000002;stroke-linecap:round;stroke-linejoin:miter;stroke-miterlimit:4;stroke-opacity:1;stroke-dasharray:none" /><path
         d="m 270.145,836.827 c 0,-6.851 -2.821,-13.664 -7.665,-18.507 -4.847,-4.848 -11.656,-7.668 -18.507,-7.668 -6.856,0 -13.664,2.82 -18.508,7.668 -4.848,4.843 -7.668,11.656 -7.668,18.507 0,6.852 2.82,13.661 7.668,18.508 4.844,4.844 11.652,7.664 18.508,7.664 6.851,0 13.66,-2.82 18.507,-7.664 4.844,-4.847 7.665,-11.656 7.665,-18.508 z"
         id="path4823"
         style="fill:#ffcc33;fill-opacity:1;fill-rule:nonzero;stroke:#000000;stroke-width:1.60000002;stroke-linecap:round;stroke-linejoin:miter;stroke-miterlimit:4;stroke-opacity:1;stroke-dasharray:none" /><path
         d="m 104.238,752.601 c -0.004,-6.852 -2.824,-13.66 -7.672,-18.504 -4.843,-4.844 -11.652,-7.66 -18.503,-7.66 -6.852,0 -13.661,2.816 -18.504,7.66 -4.848,4.844 -7.668,11.652 -7.672,18.504 0,6.855 2.82,13.668 7.664,18.515 4.847,4.844 11.656,7.668 18.512,7.668 6.855,0 13.664,-2.824 18.511,-7.668 4.844,-4.847 7.664,-11.66 7.664,-18.515 z"
         id="path4825"
         style="fill:#ffcc33;fill-opacity:1;fill-rule:nonzero;stroke:#000000;stroke-width:1.60000002;stroke-linecap:round;stroke-linejoin:miter;stroke-miterlimit:4;stroke-opacity:1;stroke-dasharray:none" /><path
         d="m 104.238,668.765 c -0.004,-6.852 -2.824,-13.66 -7.672,-18.504 -4.843,-4.844 -11.652,-7.664 -18.503,-7.664 -6.852,0 -13.661,2.82 -18.504,7.664 -4.848,4.844 -7.668,11.652 -7.672,18.504 0,6.855 2.82,13.668 7.664,18.512 4.847,4.847 11.656,7.671 18.512,7.671 6.855,0 13.664,-2.824 18.511,-7.671 4.844,-4.844 7.664,-11.657 7.664,-18.512 z"
         id="path4827"
         style="fill:#ffcc33;fill-opacity:1;fill-rule:nonzero;stroke:#000000;stroke-width:1.60000002;stroke-linecap:round;stroke-linejoin:miter;stroke-miterlimit:4;stroke-opacity:1;stroke-dasharray:none" /><path
         d="m 188.758,668.765 c 0,-6.852 -2.82,-13.664 -7.668,-18.508 -4.844,-4.844 -11.656,-7.668 -18.508,-7.668 -6.852,0 -13.66,2.824 -18.508,7.668 -4.844,4.844 -7.664,11.656 -7.664,18.508 0,6.851 2.82,13.664 7.664,18.508 4.848,4.847 11.656,7.668 18.508,7.668 6.852,0 13.664,-2.821 18.508,-7.668 4.848,-4.844 7.668,-11.657 7.668,-18.508 z"
         id="path4829"
         style="fill:#ffcc33;fill-opacity:1;fill-rule:nonzero;stroke:#000000;stroke-width:1.60000002;stroke-linecap:round;stroke-linejoin:miter;stroke-miterlimit:4;stroke-opacity:1;stroke-dasharray:none" /><path
         d="m 271.43,668.765 c 0,-6.852 -2.821,-13.664 -7.668,-18.508 -4.844,-4.844 -11.657,-7.668 -18.508,-7.668 -6.852,0 -13.66,2.824 -18.508,7.668 -4.844,4.844 -7.664,11.656 -7.664,18.508 0,6.851 2.82,13.664 7.664,18.508 4.848,4.847 11.656,7.668 18.508,7.668 6.851,0 13.664,-2.821 18.508,-7.668 4.847,-4.844 7.668,-11.657 7.668,-18.508 z"
         id="path4831"
         style="fill:#ffcc33;fill-opacity:1;fill-rule:nonzero;stroke:#000000;stroke-width:1.60000002;stroke-linecap:round;stroke-linejoin:miter;stroke-miterlimit:4;stroke-opacity:1;stroke-dasharray:none" /><path
         d="m 354.879,668.765 c 0,-6.852 -2.82,-13.664 -7.668,-18.508 -4.844,-4.844 -11.656,-7.668 -18.508,-7.668 -6.851,0 -13.664,2.824 -18.508,7.668 -4.843,4.844 -7.668,11.656 -7.668,18.508 0,6.851 2.825,13.664 7.668,18.508 4.844,4.847 11.657,7.668 18.508,7.668 6.852,0 13.664,-2.821 18.508,-7.668 4.848,-4.844 7.668,-11.657 7.668,-18.508 z"
         id="path4833"
         style="fill:#ffcc33;fill-opacity:1;fill-rule:nonzero;stroke:#000000;stroke-width:1.60000002;stroke-linecap:round;stroke-linejoin:miter;stroke-miterlimit:4;stroke-opacity:1;stroke-dasharray:none" /><path
         d="m 230.289,794.909 c 0,-6.855 -2.824,-13.664 -7.668,-18.507 -4.844,-4.848 -11.656,-7.668 -18.508,-7.668 -6.851,0 -13.664,2.82 -18.508,7.668 -4.847,4.843 -7.667,11.652 -7.667,18.507 0,6.852 2.82,13.661 7.667,18.508 4.844,4.844 11.657,7.664 18.508,7.664 6.852,0 13.664,-2.82 18.508,-7.664 4.844,-4.847 7.668,-11.656 7.668,-18.508 z"
         id="path4835"
         style="fill:#ffcc33;fill-opacity:1;fill-rule:nonzero;stroke:#000000;stroke-width:1.60000002;stroke-linecap:round;stroke-linejoin:miter;stroke-miterlimit:4;stroke-opacity:1;stroke-dasharray:none" /><path
         d="m 312.648,879.132 c 0,-6.851 -2.82,-13.66 -7.668,-18.508 -4.843,-4.843 -11.652,-7.664 -18.507,-7.664 -6.852,0 -13.66,2.821 -18.508,7.664 -4.844,4.848 -7.664,11.657 -7.664,18.508 0,6.852 2.82,13.664 7.664,18.508 4.848,4.848 11.656,7.668 18.508,7.668 6.855,0 13.664,-2.82 18.507,-7.668 4.848,-4.844 7.668,-11.656 7.668,-18.508 z"
         id="path4837"
         style="fill:#ffcc33;fill-opacity:1;fill-rule:nonzero;stroke:#000000;stroke-width:1.60000002;stroke-linecap:round;stroke-linejoin:miter;stroke-miterlimit:4;stroke-opacity:1;stroke-dasharray:none" /><path
         d="m 396.699,962.581 c 0,-6.851 -2.82,-13.664 -7.664,-18.508 -4.847,-4.847 -11.656,-7.667 -18.508,-7.667 -6.851,0 -13.664,2.82 -18.507,7.667 -4.848,4.844 -7.668,11.657 -7.668,18.508 0,6.852 2.82,13.664 7.668,18.508 4.843,4.844 11.656,7.668 18.507,7.668 6.852,0 13.661,-2.824 18.508,-7.668 4.844,-4.844 7.664,-11.656 7.664,-18.508 z"
         id="path4839"
         style="fill:#ffcc33;fill-opacity:1;fill-rule:nonzero;stroke:#000000;stroke-width:0.80000001;stroke-linecap:round;stroke-linejoin:miter;stroke-miterlimit:4;stroke-opacity:1;stroke-dasharray:none" /><path
         d="m 437.711,1004.499 c 0,-6.851 -2.82,-13.664 -7.664,-18.508 -4.848,-4.843 -11.656,-7.668 -18.508,-7.668 -6.855,0 -13.664,2.825 -18.508,7.668 -4.847,4.844 -7.668,11.657 -7.668,18.508 0,6.852 2.821,13.664 7.668,18.508 4.844,4.848 11.653,7.668 18.508,7.668 6.852,0 13.66,-2.82 18.508,-7.668 4.844,-4.844 7.664,-11.656 7.664,-18.508 z"
         id="path4841"
         style="fill:#ffcc33;fill-opacity:1;fill-rule:nonzero;stroke:#000000;stroke-width:1.60000002;stroke-linecap:round;stroke-linejoin:miter;stroke-miterlimit:4;stroke-opacity:1;stroke-dasharray:none" /><path
         d="m 270.145,1004.499 c 0,-6.851 -2.821,-13.664 -7.665,-18.508 -4.847,-4.843 -11.656,-7.668 -18.507,-7.668 -6.856,0 -13.664,2.825 -18.508,7.668 -4.848,4.844 -7.668,11.657 -7.668,18.508 0,6.852 2.82,13.664 7.668,18.508 4.844,4.848 11.652,7.668 18.508,7.668 6.851,0 13.66,-2.82 18.507,-7.668 4.844,-4.844 7.665,-11.656 7.665,-18.508 z"
         id="path4843"
         style="fill:#ffffff;fill-opacity:1;fill-rule:nonzero;stroke:#000000;stroke-width:1.60000002;stroke-linecap:round;stroke-linejoin:miter;stroke-miterlimit:4;stroke-opacity:1;stroke-dasharray:none" /><path
         d="m 312.648,962.581 c 0,-6.851 -2.82,-13.664 -7.668,-18.508 -4.843,-4.847 -11.652,-7.667 -18.507,-7.667 -6.852,0 -13.66,2.82 -18.508,7.667 -4.844,4.844 -7.664,11.657 -7.664,18.508 0,6.852 2.82,13.664 7.664,18.508 4.848,4.844 11.656,7.668 18.508,7.668 6.855,0 13.664,-2.824 18.507,-7.668 4.848,-4.844 7.668,-11.656 7.668,-18.508 z"
         id="path4845"
         style="fill:#ffffff;fill-opacity:1;fill-rule:nonzero;stroke:#000000;stroke-width:1.60000002;stroke-linecap:round;stroke-linejoin:miter;stroke-miterlimit:4;stroke-opacity:1;stroke-dasharray:none" /><path
         d="m 396.699,879.132 c 0,-6.851 -2.82,-13.66 -7.664,-18.508 -4.847,-4.843 -11.656,-7.664 -18.508,-7.664 -6.851,0 -13.664,2.821 -18.507,7.664 -4.848,4.848 -7.668,11.657 -7.668,18.508 0,6.852 2.82,13.664 7.668,18.508 4.843,4.848 11.656,7.668 18.507,7.668 6.852,0 13.661,-2.82 18.508,-7.668 4.844,-4.844 7.664,-11.656 7.664,-18.508 z"
         id="path4847"
         style="fill:#ffffff;fill-opacity:1;fill-rule:nonzero;stroke:#000000;stroke-width:1.60000002;stroke-linecap:round;stroke-linejoin:miter;stroke-miterlimit:4;stroke-opacity:1;stroke-dasharray:none" /><path
         d="m 437.711,836.827 c 0,-6.851 -2.82,-13.664 -7.664,-18.507 -4.848,-4.848 -11.656,-7.668 -18.508,-7.668 -6.855,0 -13.664,2.82 -18.508,7.668 -4.847,4.843 -7.668,11.656 -7.668,18.507 0,6.852 2.821,13.661 7.668,18.508 4.844,4.844 11.653,7.664 18.508,7.664 6.852,0 13.66,-2.82 18.508,-7.664 4.844,-4.847 7.664,-11.656 7.664,-18.508 z"
         id="path4849"
         style="fill:#ffffff;fill-opacity:1;fill-rule:nonzero;stroke:#000000;stroke-width:1.60000002;stroke-linecap:round;stroke-linejoin:miter;stroke-miterlimit:4;stroke-opacity:1;stroke-dasharray:none" /><path
         d="m 479.078,794.909 c 0,-6.855 -2.82,-13.664 -7.664,-18.507 -4.848,-4.848 -11.656,-7.668 -18.508,-7.668 -6.851,0 -13.664,2.82 -18.508,7.668 -4.847,4.843 -7.668,11.652 -7.668,18.507 0,6.852 2.821,13.661 7.668,18.508 4.844,4.844 11.657,7.664 18.508,7.664 6.852,0 13.66,-2.82 18.508,-7.664 4.844,-4.847 7.664,-11.656 7.664,-18.508 z"
         id="path4851"
         style="fill:#ffffff;fill-opacity:1;fill-rule:nonzero;stroke:#000000;stroke-width:1.60000002;stroke-linecap:round;stroke-linejoin:miter;stroke-miterlimit:4;stroke-opacity:1;stroke-dasharray:none" /><path
         d="m 438.715,668.765 c 0,-6.852 -2.82,-13.664 -7.668,-18.508 -4.844,-4.844 -11.656,-7.668 -18.508,-7.668 -6.851,0 -13.66,2.824 -18.508,7.668 -4.843,4.844 -7.664,11.656 -7.664,18.508 0,6.851 2.821,13.664 7.664,18.508 4.848,4.847 11.657,7.668 18.508,7.668 6.852,0 13.664,-2.821 18.508,-7.668 4.848,-4.844 7.668,-11.657 7.668,-18.508 z"
         id="path4853"
         style="fill:#ffffff;fill-opacity:1;fill-rule:nonzero;stroke:#000000;stroke-width:1.60000002;stroke-linecap:round;stroke-linejoin:miter;stroke-miterlimit:4;stroke-opacity:1;stroke-dasharray:none" /><path
         d="m 521,668.765 c 0,-6.852 -2.824,-13.664 -7.668,-18.508 -4.844,-4.844 -11.656,-7.668 -18.508,-7.668 -6.851,0 -13.664,2.824 -18.508,7.668 -4.847,4.844 -7.668,11.656 -7.668,18.508 0,6.851 2.821,13.664 7.668,18.508 4.844,4.847 11.657,7.668 18.508,7.668 6.852,0 13.664,-2.821 18.508,-7.668 4.844,-4.844 7.668,-11.657 7.668,-18.508 z"
         id="path4855"
         style="fill:#ffffff;fill-opacity:1;fill-rule:nonzero;stroke:#000000;stroke-width:1.60000002;stroke-linecap:round;stroke-linejoin:miter;stroke-miterlimit:4;stroke-opacity:1;stroke-dasharray:none" /><path
         d="m 603.25,668.765 c 0,-6.852 -2.824,-13.664 -7.668,-18.508 -4.844,-4.844 -11.656,-7.668 -18.508,-7.668 -6.851,0 -13.664,2.824 -18.508,7.668 -4.847,4.844 -7.668,11.656 -7.668,18.508 0,6.851 2.821,13.664 7.668,18.508 4.844,4.847 11.657,7.668 18.508,7.668 6.852,0 13.664,-2.821 18.508,-7.668 4.844,-4.844 7.668,-11.657 7.668,-18.508 z"
         id="path4857"
         style="fill:#ffffff;fill-opacity:1;fill-rule:nonzero;stroke:#000000;stroke-width:1.60000002;stroke-linecap:round;stroke-linejoin:miter;stroke-miterlimit:4;stroke-opacity:1;stroke-dasharray:none" /><path
         d="m 603.25,752.601 c 0,-6.852 -2.824,-13.66 -7.668,-18.508 -4.844,-4.844 -11.656,-7.664 -18.508,-7.664 -6.851,0 -13.664,2.82 -18.508,7.664 -4.847,4.848 -7.668,11.656 -7.668,18.508 0,6.851 2.821,13.664 7.668,18.508 4.844,4.847 11.657,7.668 18.508,7.668 6.852,0 13.664,-2.821 18.508,-7.668 4.844,-4.844 7.668,-11.657 7.668,-18.508 z"
         id="path4859"
         style="fill:#ffffff;fill-opacity:1;fill-rule:nonzero;stroke:#000000;stroke-width:1.60000002;stroke-linecap:round;stroke-linejoin:miter;stroke-miterlimit:4;stroke-opacity:1;stroke-dasharray:none" /><path
         d="m 603.25,836.827 c 0,-6.851 -2.824,-13.664 -7.668,-18.507 -4.844,-4.848 -11.656,-7.668 -18.508,-7.668 -6.851,0 -13.664,2.82 -18.508,7.668 -4.847,4.843 -7.668,11.656 -7.668,18.507 0,6.852 2.821,13.661 7.668,18.508 4.844,4.844 11.657,7.664 18.508,7.664 6.852,0 13.664,-2.82 18.508,-7.664 4.844,-4.847 7.668,-11.656 7.668,-18.508 z"
         id="path4861"
         style="fill:#ffffff;fill-opacity:1;fill-rule:nonzero;stroke:#000000;stroke-width:1.60000002;stroke-linecap:round;stroke-linejoin:miter;stroke-miterlimit:4;stroke-opacity:1;stroke-dasharray:none" /><path
         d="m 603.25,921.05 c 0,-6.852 -2.824,-13.66 -7.668,-18.508 -4.844,-4.844 -11.656,-7.664 -18.508,-7.664 -6.851,0 -13.664,2.82 -18.508,7.664 -4.847,4.848 -7.668,11.656 -7.668,18.508 0,6.852 2.821,13.664 7.668,18.508 4.844,4.848 11.657,7.668 18.508,7.668 6.852,0 13.664,-2.82 18.508,-7.668 4.844,-4.844 7.668,-11.656 7.668,-18.508 z"
         id="path4863"
         style="fill:#ffffff;fill-opacity:1;fill-rule:nonzero;stroke:#000000;stroke-width:1.60000002;stroke-linecap:round;stroke-linejoin:miter;stroke-miterlimit:4;stroke-opacity:1;stroke-dasharray:none" /></g></g></svg>